<?xml version="1.0" encoding="us-ascii" standalone="no"?><svg xmlns="http://www.w3.org/2000/svg" xmlns:xlink="http://www.w3.org/1999/xlink" contentStyleType="text/css" height="681.25px" preserveAspectRatio="none" style="width:1109px;height:681px;" version="1.1" viewBox="0 0 1109 681" width="1109.375px" zoomAndPan="magnify"><defs><linearGradient id="gktg8plzu6ut40" x1="50%" x2="50%" y1="0%" y2="100%"><stop offset="0%" stop-color="#EDF0F2"/><stop offset="100%" stop-color="#E9ECEF"/></linearGradient><linearGradient id="gktg8plzu6ut41" x1="50%" x2="50%" y1="0%" y2="100%"><stop offset="0%" stop-color="#59B6EC"/><stop offset="100%" stop-color="#2FA4E7"/></linearGradient><linearGradient id="gktg8plzu6ut42" x1="50%" x2="50%" y1="0%" y2="100%"><stop offset="0%" stop-color="#2FA4E7"/><stop offset="100%" stop-color="#2683B9"/></linearGradient></defs><g><rect fill="url(#gktg8plzu6ut40)" height="48.2361" id="_title" rx="4.1667" ry="4.1667" style="stroke:#BABDBF;stroke-width:1.0416666666666667;" width="216.6667" x="441.9271" y="20.8333"/><text fill="#2FA4E7" font-family="Verdana" font-size="20.8333" font-weight="bold" lengthAdjust="spacing" textLength="193.75" x="453.3854" y="53.2369">Commit Package</text><!--cluster Commit--><g id="cluster_Commit"><path d="M221.3542,86.7778 L281.7708,86.7778 A6.25,6.25 0 0 1 285.9375,90.9444 L293.2292,118.6361 L961.9792,118.6361 A4.1667,4.1667 0 0 1 966.1458,122.8027 L966.1458,601.3611 A4.1667,4.1667 0 0 1 961.9792,605.5278 L221.3542,605.5278 A4.1667,4.1667 0 0 1 217.1875,601.3611 L217.1875,90.9444 A4.1667,4.1667 0 0 1 221.3542,86.7778 " fill="none" style="stroke:#59B6EC;stroke-width:2.0833333333333335;"/><line style="stroke:#59B6EC;stroke-width:2.0833333333333335;" x1="217.1875" x2="293.2292" y1="118.6361" y2="118.6361"/><text fill="#2FA4E7" font-family="Verdana" font-size="12.5" font-weight="bold" lengthAdjust="spacing" textLength="52.0833" x="226.5625" y="106.6366">Commit</text></g><!--cluster Node--><g id="cluster_Node"><path d="M995.3125,123.2361 L1039.0625,123.2361 A6.25,6.25 0 0 1 1043.2292,127.4028 L1050.5208,155.0944 L1093.2292,155.0944 A4.1667,4.1667 0 0 1 1097.3958,159.2611 L1097.3958,231.5694 A4.1667,4.1667 0 0 1 1093.2292,235.7361 L995.3125,235.7361 A4.1667,4.1667 0 0 1 991.1458,231.5694 L991.1458,127.4028 A4.1667,4.1667 0 0 1 995.3125,123.2361 " fill="none" style="stroke:#59B6EC;stroke-width:2.0833333333333335;"/><line style="stroke:#59B6EC;stroke-width:2.0833333333333335;" x1="991.1458" x2="1050.5208" y1="155.0944" y2="155.0944"/><text fill="#2FA4E7" font-family="Verdana" font-size="12.5" font-weight="bold" lengthAdjust="spacing" textLength="35.4167" x="1000.5208" y="143.0949">Node</text></g><!--class Raft--><g id="elem_Raft"><rect codeLine="6" fill="url(#gktg8plzu6ut41)" height="148.7951" id="Raft" rx="4.1667" ry="4.1667" style="stroke:#2FA4E7;stroke-width:1.0416666666666667;" width="156.25" x="233.8542" y="378.9653"/><rect fill="url(#gktg8plzu6ut42)" height="34.759" rx="4.1667" ry="4.1667" style="stroke:url(#gktg8plzu6ut42);stroke-width:1.0416666666666667;" width="156.25" x="233.8542" y="378.9653"/><rect fill="url(#gktg8plzu6ut42)" height="4.1667" style="stroke:url(#gktg8plzu6ut42);stroke-width:1.0416666666666667;" width="156.25" x="233.8542" y="409.5576"/><rect codeLine="6" fill="none" height="148.7951" id="Raft" rx="4.1667" ry="4.1667" style="stroke:#2FA4E7;stroke-width:1.0416666666666667;" width="156.25" x="233.8542" y="378.9653"/><ellipse cx="290.625" cy="396.3448" fill="none" rx="10.4167" ry="10.4167" style="stroke:#2683B9;stroke-width:1.0416666666666667;"/><path d="M289.1927,392.2595 L289.1927,391.5759 L293.4896,391.5759 L293.4896,392.2595 L292.1712,392.2595 Q292.041,392.2595 291.9759,392.3083 Q291.9271,392.3571 291.9271,392.4548 L291.9271,399.4372 Q291.9271,399.5349 291.9759,399.5837 Q292.041,399.6325 292.1712,399.6325 L293.4896,399.6325 L293.4896,400.3161 L289.1927,400.3161 L289.1927,399.6325 L290.5111,399.6325 Q290.6738,399.6325 290.7064,399.6 Q290.7552,399.5511 290.7552,399.4372 L290.7552,392.4548 Q290.7552,392.3409 290.7064,392.3083 Q290.6738,392.2595 290.5111,392.2595 L289.1927,392.2595 Z " fill="#FFFFFF"/><text fill="#F8F9FA" font-family="Verdana" font-size="11.4583" font-style="italic" lengthAdjust="spacing" textLength="23.9583" x="315.625" y="400.9018">Raft</text><line style="stroke:#2FA4E7;stroke-width:1.0416666666666667;" x1="234.8958" x2="389.0625" y1="413.7243" y2="413.7243"/><line style="stroke:#2FA4E7;stroke-width:1.0416666666666667;" x1="234.8958" x2="389.0625" y1="422.0576" y2="422.0576"/><ellipse cx="245.3125" cy="439.9579" fill="none" rx="3.125" ry="3.125" style="stroke:#2683B9;stroke-width:1.0416666666666667;"/><text fill="#F8F9FA" font-family="Verdana" font-size="11.4583" lengthAdjust="spacing" textLength="105.2083" x="258.8542" y="442.9525">ApplyCommand()</text><ellipse cx="245.3125" cy="464.3003" fill="none" rx="3.125" ry="3.125" style="stroke:#2683B9;stroke-width:1.0416666666666667;"/><text fill="#F8F9FA" font-family="Verdana" font-size="11.4583" lengthAdjust="spacing" textLength="98.9583" x="258.8542" y="467.2948">ApplySnapshot()</text><ellipse cx="245.3125" cy="488.6426" fill="none" rx="3.125" ry="3.125" style="stroke:#2683B9;stroke-width:1.0416666666666667;"/><text fill="#F8F9FA" font-family="Verdana" font-size="11.4583" lengthAdjust="spacing" textLength="119.7917" x="258.8542" y="491.6372">UpdateApplyIndex()</text><ellipse cx="245.3125" cy="512.985" fill="none" rx="3.125" ry="3.125" style="stroke:#2683B9;stroke-width:1.0416666666666667;"/><text fill="#F8F9FA" font-family="Verdana" font-size="11.4583" lengthAdjust="spacing" textLength="50" x="258.8542" y="515.9795">Persist()</text></g><!--class Manager--><g id="elem_Manager"><rect codeLine="12" fill="url(#gktg8plzu6ut41)" height="270.5068" id="Manager" rx="4.1667" ry="4.1667" style="stroke:#2FA4E7;stroke-width:1.0416666666666667;" width="154.1667" x="426.5625" y="318.0278"/><rect fill="url(#gktg8plzu6ut42)" height="34.759" rx="4.1667" ry="4.1667" style="stroke:url(#gktg8plzu6ut42);stroke-width:1.0416666666666667;" width="154.1667" x="426.5625" y="318.0278"/><rect fill="url(#gktg8plzu6ut42)" height="4.1667" style="stroke:url(#gktg8plzu6ut42);stroke-width:1.0416666666666667;" width="154.1667" x="426.5625" y="348.6201"/><rect codeLine="12" fill="none" height="270.5068" id="Manager" rx="4.1667" ry="4.1667" style="stroke:#2FA4E7;stroke-width:1.0416666666666667;" width="154.1667" x="426.5625" y="318.0278"/><ellipse cx="468.8021" cy="335.4073" fill="none" rx="10.4167" ry="10.4167" style="stroke:#2683B9;stroke-width:1.0416666666666667;"/><path d="M467.3698,331.322 L467.3698,330.6384 L471.6667,330.6384 L471.6667,331.322 L470.3483,331.322 Q470.2181,331.322 470.153,331.3708 Q470.1042,331.4196 470.1042,331.5173 L470.1042,338.4997 Q470.1042,338.5974 470.153,338.6462 Q470.2181,338.695 470.3483,338.695 L471.6667,338.695 L471.6667,339.3786 L467.3698,339.3786 L467.3698,338.695 L468.6882,338.695 Q468.8509,338.695 468.8835,338.6625 Q468.9323,338.6136 468.9323,338.4997 L468.9323,331.5173 Q468.9323,331.4034 468.8835,331.3708 Q468.8509,331.322 468.6882,331.322 L467.3698,331.322 Z " fill="#FFFFFF"/><text fill="#F8F9FA" font-family="Verdana" font-size="11.4583" font-style="italic" lengthAdjust="spacing" textLength="51.0417" x="493.6979" y="339.9643">Manager</text><line style="stroke:#2FA4E7;stroke-width:1.0416666666666667;" x1="427.6042" x2="579.6875" y1="352.7868" y2="352.7868"/><line style="stroke:#2FA4E7;stroke-width:1.0416666666666667;" x1="427.6042" x2="579.6875" y1="361.1201" y2="361.1201"/><ellipse cx="438.0208" cy="379.0204" fill="none" rx="3.125" ry="3.125" style="stroke:#2683B9;stroke-width:1.0416666666666667;"/><text fill="#F8F9FA" font-family="Verdana" font-size="11.4583" lengthAdjust="spacing" textLength="55.2083" x="451.5625" y="382.015">Append()</text><ellipse cx="438.0208" cy="403.3628" fill="none" rx="3.125" ry="3.125" style="stroke:#2683B9;stroke-width:1.0416666666666667;"/><text fill="#F8F9FA" font-family="Verdana" font-size="11.4583" lengthAdjust="spacing" textLength="77.0833" x="451.5625" y="406.3573">SyncStatus()</text><ellipse cx="438.0208" cy="427.7051" fill="none" rx="3.125" ry="3.125" style="stroke:#2683B9;stroke-width:1.0416666666666667;"/><text fill="#F8F9FA" font-family="Verdana" font-size="11.4583" lengthAdjust="spacing" textLength="72.9167" x="451.5625" y="430.6997">SyncApply()</text><ellipse cx="438.0208" cy="452.0475" fill="none" rx="3.125" ry="3.125" style="stroke:#2683B9;stroke-width:1.0416666666666667;"/><text fill="#F8F9FA" font-family="Verdana" font-size="11.4583" lengthAdjust="spacing" textLength="83.3333" x="451.5625" y="455.042">GetLogEntry()</text><ellipse cx="438.0208" cy="476.3898" fill="none" rx="3.125" ry="3.125" style="stroke:#2683B9;stroke-width:1.0416666666666667;"/><text fill="#F8F9FA" font-family="Verdana" font-size="11.4583" lengthAdjust="spacing" textLength="107.2917" x="451.5625" y="479.3844">UpdateSnapshot()</text><ellipse cx="438.0208" cy="500.7322" fill="none" rx="3.125" ry="3.125" style="stroke:#2683B9;stroke-width:1.0416666666666667;"/><text fill="#F8F9FA" font-family="Verdana" font-size="11.4583" lengthAdjust="spacing" textLength="117.7083" x="451.5625" y="503.7267">GetPersistentData()</text><ellipse cx="438.0208" cy="525.0745" fill="none" rx="3.125" ry="3.125" style="stroke:#2683B9;stroke-width:1.0416666666666667;"/><text fill="#F8F9FA" font-family="Verdana" font-size="11.4583" lengthAdjust="spacing" textLength="38.5417" x="451.5625" y="528.0691">Load()</text><ellipse cx="438.0208" cy="549.4169" fill="none" rx="3.125" ry="3.125" style="stroke:#2683B9;stroke-width:1.0416666666666667;"/><text fill="#F8F9FA" font-family="Verdana" font-size="11.4583" lengthAdjust="spacing" textLength="39.5833" x="451.5625" y="552.4114">Start()</text><ellipse cx="438.0208" cy="573.7592" fill="none" rx="3.125" ry="3.125" style="stroke:#2683B9;stroke-width:1.0416666666666667;"/><text fill="#F8F9FA" font-family="Verdana" font-size="11.4583" lengthAdjust="spacing" textLength="37.5" x="451.5625" y="576.7537">Stop()</text></g><!--class Follower--><g id="elem_Follower"><rect codeLine="23" fill="url(#gktg8plzu6ut41)" height="221.8221" id="Follower" rx="4.1667" ry="4.1667" style="stroke:#2FA4E7;stroke-width:1.0416666666666667;" width="152.0833" x="797.3958" y="342.5069"/><rect fill="url(#gktg8plzu6ut42)" height="34.759" rx="4.1667" ry="4.1667" style="stroke:url(#gktg8plzu6ut42);stroke-width:1.0416666666666667;" width="152.0833" x="797.3958" y="342.5069"/><rect fill="url(#gktg8plzu6ut42)" height="4.1667" style="stroke:url(#gktg8plzu6ut42);stroke-width:1.0416666666666667;" width="152.0833" x="797.3958" y="373.0993"/><rect codeLine="23" fill="none" height="221.8221" id="Follower" rx="4.1667" ry="4.1667" style="stroke:#2FA4E7;stroke-width:1.0416666666666667;" width="152.0833" x="797.3958" y="342.5069"/><ellipse cx="839.6354" cy="359.8864" fill="none" rx="10.4167" ry="10.4167" style="stroke:#2683B9;stroke-width:1.0416666666666667;"/><path d="M838.2031,355.8011 L838.2031,355.1175 L842.5,355.1175 L842.5,355.8011 L841.1816,355.8011 Q841.0514,355.8011 840.9863,355.85 Q840.9375,355.8988 840.9375,355.9964 L840.9375,362.9789 Q840.9375,363.0765 840.9863,363.1254 Q841.0514,363.1742 841.1816,363.1742 L842.5,363.1742 L842.5,363.8578 L838.2031,363.8578 L838.2031,363.1742 L839.5215,363.1742 Q839.6842,363.1742 839.7168,363.1416 Q839.7656,363.0928 839.7656,362.9789 L839.7656,355.9964 Q839.7656,355.8825 839.7168,355.85 Q839.6842,355.8011 839.5215,355.8011 L838.2031,355.8011 Z " fill="#FFFFFF"/><text fill="#F8F9FA" font-family="Verdana" font-size="11.4583" font-style="italic" lengthAdjust="spacing" textLength="48.9583" x="864.5313" y="364.4435">Follower</text><line style="stroke:#2FA4E7;stroke-width:1.0416666666666667;" x1="798.4375" x2="948.4375" y1="377.2659" y2="377.2659"/><line style="stroke:#2FA4E7;stroke-width:1.0416666666666667;" x1="798.4375" x2="948.4375" y1="385.5993" y2="385.5993"/><ellipse cx="808.8542" cy="403.4996" fill="none" rx="3.125" ry="3.125" style="stroke:#2683B9;stroke-width:1.0416666666666667;"/><text fill="#F8F9FA" font-family="Verdana" font-size="11.4583" lengthAdjust="spacing" textLength="70.8333" x="822.3958" y="406.4941">SyncState()</text><ellipse cx="808.8542" cy="427.8419" fill="none" rx="3.125" ry="3.125" style="stroke:#2683B9;stroke-width:1.0416666666666667;"/><text fill="#F8F9FA" font-family="Verdana" font-size="11.4583" lengthAdjust="spacing" textLength="112.5" x="822.3958" y="430.8365">GetPrepareIndex()</text><ellipse cx="808.8542" cy="452.1843" fill="none" rx="3.125" ry="3.125" style="stroke:#2683B9;stroke-width:1.0416666666666667;"/><text fill="#F8F9FA" font-family="Verdana" font-size="11.4583" lengthAdjust="spacing" textLength="104.1667" x="822.3958" y="455.1788">PrepareCommit()</text><ellipse cx="808.8542" cy="476.5266" fill="none" rx="3.125" ry="3.125" style="stroke:#2683B9;stroke-width:1.0416666666666667;"/><text fill="#F8F9FA" font-family="Verdana" font-size="11.4583" lengthAdjust="spacing" textLength="105.2083" x="822.3958" y="479.5212">ConfirmCommit()</text><ellipse cx="808.8542" cy="500.869" fill="none" rx="3.125" ry="3.125" style="stroke:#2683B9;stroke-width:1.0416666666666667;"/><text fill="#F8F9FA" font-family="Verdana" font-size="11.4583" lengthAdjust="spacing" textLength="86.4583" x="822.3958" y="503.8635">GetLogIndex()</text><ellipse cx="808.8542" cy="525.2113" fill="none" rx="3.125" ry="3.125" style="stroke:#2683B9;stroke-width:1.0416666666666667;"/><text fill="#F8F9FA" font-family="Verdana" font-size="11.4583" lengthAdjust="spacing" textLength="88.5417" x="822.3958" y="528.2059">AddLogIndex()</text><ellipse cx="808.8542" cy="549.5537" fill="none" rx="3.125" ry="3.125" style="stroke:#2683B9;stroke-width:1.0416666666666667;"/><text fill="#F8F9FA" font-family="Verdana" font-size="11.4583" lengthAdjust="spacing" textLength="115.625" x="822.3958" y="552.5482">RollbackLogIndex()</text></g><!--class Manage--><g id="elem_Manage"><rect codeLine="32" fill="url(#gktg8plzu6ut41)" height="124.4527" id="Manage" rx="4.1667" ry="4.1667" style="stroke:#2FA4E7;stroke-width:1.0416666666666667;" width="153.125" x="519.7917" y="131.5694"/><rect fill="url(#gktg8plzu6ut42)" height="34.759" rx="4.1667" ry="4.1667" style="stroke:url(#gktg8plzu6ut42);stroke-width:1.0416666666666667;" width="153.125" x="519.7917" y="131.5694"/><rect fill="url(#gktg8plzu6ut42)" height="4.1667" style="stroke:url(#gktg8plzu6ut42);stroke-width:1.0416666666666667;" width="153.125" x="519.7917" y="162.1618"/><rect codeLine="32" fill="none" height="124.4527" id="Manage" rx="4.1667" ry="4.1667" style="stroke:#2FA4E7;stroke-width:1.0416666666666667;" width="153.125" x="519.7917" y="131.5694"/><ellipse cx="564.0625" cy="148.9489" fill="none" rx="10.4167" ry="10.4167" style="stroke:#2683B9;stroke-width:1.0416666666666667;"/><path d="M564.502,148.9001 Q563.151,148.2979 562.6139,147.8259 Q562.0931,147.3376 562.0931,146.3285 Q562.0931,145.5147 562.7604,144.7985 Q563.4277,144.0824 564.6322,144.0824 Q565.153,144.0824 565.625,144.2451 Q566.0482,144.4242 566.1947,144.4242 Q566.2923,144.4242 566.3574,144.3916 Q566.4388,144.3428 566.8132,143.5778 L567.0898,146.4099 L566.5365,146.6214 Q566.0319,145.4821 565.6087,145.1566 Q565.2018,144.8148 564.5345,144.8148 Q563.7044,144.8148 563.4115,145.2705 Q563.1185,145.71 563.1185,146.2308 Q563.1185,146.6866 563.3952,146.9632 Q563.6719,147.2399 565.0553,147.8584 Q566.2598,148.363 566.8132,149.0303 Q567.3665,149.6813 567.3665,150.5765 Q567.3665,151.5368 566.6992,152.2855 Q566.0319,153.0179 564.7786,153.0179 Q564.2415,153.0179 563.8184,152.8063 Q563.4277,152.6761 563.2161,152.6761 Q563.1348,152.6761 563.0046,152.7575 Q562.8906,152.8389 562.4349,153.1644 L561.9792,150.2998 L562.6139,150.0882 Q562.9883,151.4392 563.5417,151.8623 Q564.1113,152.2855 564.8275,152.2855 Q565.5599,152.2855 565.918,151.8623 Q566.2923,151.4392 566.2923,150.5765 Q566.2923,150.1696 565.8691,149.7464 Q565.446,149.3233 564.502,148.9001 Z " fill="#FFFFFF"/><text fill="#F8F9FA" font-family="Verdana" font-size="11.4583" lengthAdjust="spacing" textLength="45.8333" x="589.0625" y="153.506">Manage</text><line style="stroke:#2FA4E7;stroke-width:1.0416666666666667;" x1="520.8333" x2="671.875" y1="166.3284" y2="166.3284"/><rect fill="none" height="6.25" style="stroke:#2683B9;stroke-width:1.0416666666666667;" width="6.25" x="528.125" y="181.1038"/><text fill="#F8F9FA" font-family="Verdana" font-size="11.4583" lengthAdjust="spacing" textLength="48.9583" x="544.7917" y="187.2233">raft Raft</text><rect fill="none" height="6.25" style="stroke:#2683B9;stroke-width:1.0416666666666667;" width="6.25" x="528.125" y="205.4461"/><text fill="#F8F9FA" font-family="Verdana" font-size="11.4583" lengthAdjust="spacing" textLength="110.4167" x="544.7917" y="211.5657">LogStore LogStore</text><rect fill="none" height="6.25" style="stroke:#2683B9;stroke-width:1.0416666666666667;" width="6.25" x="528.125" y="229.7885"/><text fill="#F8F9FA" font-family="Verdana" font-size="11.4583" lengthAdjust="spacing" textLength="116.6667" x="544.7917" y="235.908">followers []Follower</text><line style="stroke:#2FA4E7;stroke-width:1.0416666666666667;" x1="520.8333" x2="671.875" y1="247.6888" y2="247.6888"/></g><!--class LogStore--><g id="elem_LogStore"><rect codeLine="37" fill="url(#gktg8plzu6ut41)" height="246.1644" id="LogStore" rx="4.1667" ry="4.1667" style="stroke:#2FA4E7;stroke-width:1.0416666666666667;" width="143.75" x="617.1875" y="330.5278"/><rect fill="url(#gktg8plzu6ut42)" height="34.759" rx="4.1667" ry="4.1667" style="stroke:url(#gktg8plzu6ut42);stroke-width:1.0416666666666667;" width="143.75" x="617.1875" y="330.5278"/><rect fill="url(#gktg8plzu6ut42)" height="4.1667" style="stroke:url(#gktg8plzu6ut42);stroke-width:1.0416666666666667;" width="143.75" x="617.1875" y="361.1201"/><rect codeLine="37" fill="none" height="246.1644" id="LogStore" rx="4.1667" ry="4.1667" style="stroke:#2FA4E7;stroke-width:1.0416666666666667;" width="143.75" x="617.1875" y="330.5278"/><ellipse cx="653.8021" cy="347.9073" fill="none" rx="10.4167" ry="10.4167" style="stroke:#2683B9;stroke-width:1.0416666666666667;"/><path d="M654.2415,347.8584 Q652.8906,347.2562 652.3535,346.7842 Q651.8327,346.2959 651.8327,345.2868 Q651.8327,344.473 652.5,343.7569 Q653.1673,343.0407 654.3717,343.0407 Q654.8926,343.0407 655.3646,343.2035 Q655.7878,343.3825 655.9342,343.3825 Q656.0319,343.3825 656.097,343.35 Q656.1784,343.3011 656.5527,342.5362 L656.8294,345.3682 L656.276,345.5798 Q655.7715,344.4405 655.3483,344.1149 Q654.9414,343.7731 654.2741,343.7731 Q653.444,343.7731 653.151,344.2289 Q652.8581,344.6683 652.8581,345.1892 Q652.8581,345.6449 653.1348,345.9216 Q653.4115,346.1983 654.7949,346.8168 Q655.9993,347.3213 656.5527,347.9886 Q657.1061,348.6397 657.1061,349.5349 Q657.1061,350.4951 656.4388,351.2438 Q655.7715,351.9763 654.5182,351.9763 Q653.9811,351.9763 653.5579,351.7647 Q653.1673,351.6345 652.9557,351.6345 Q652.8743,351.6345 652.7441,351.7159 Q652.6302,351.7972 652.1745,352.1228 L651.7188,349.2582 L652.3535,349.0466 Q652.7279,350.3975 653.2813,350.8207 Q653.8509,351.2438 654.5671,351.2438 Q655.2995,351.2438 655.6576,350.8207 Q656.0319,350.3975 656.0319,349.5349 Q656.0319,349.128 655.6087,348.7048 Q655.1855,348.2816 654.2415,347.8584 Z " fill="#FFFFFF"/><text fill="#F8F9FA" font-family="Verdana" font-size="11.4583" lengthAdjust="spacing" textLength="53.125" x="677.4479" y="352.4643">LogStore</text><line style="stroke:#2FA4E7;stroke-width:1.0416666666666667;" x1="618.2292" x2="759.8958" y1="365.2868" y2="365.2868"/><line style="stroke:#2FA4E7;stroke-width:1.0416666666666667;" x1="618.2292" x2="759.8958" y1="373.6201" y2="373.6201"/><ellipse cx="628.6458" cy="391.5204" fill="none" rx="3.125" ry="3.125" style="stroke:#2683B9;stroke-width:1.0416666666666667;"/><text fill="#F8F9FA" font-family="Verdana" font-size="11.4583" lengthAdjust="spacing" textLength="38.5417" x="642.1875" y="394.515">Load()</text><ellipse cx="628.6458" cy="415.8628" fill="none" rx="3.125" ry="3.125" style="stroke:#2683B9;stroke-width:1.0416666666666667;"/><text fill="#F8F9FA" font-family="Verdana" font-size="11.4583" lengthAdjust="spacing" textLength="55.2083" x="642.1875" y="418.8573">Append()</text><ellipse cx="628.6458" cy="440.2051" fill="none" rx="3.125" ry="3.125" style="stroke:#2683B9;stroke-width:1.0416666666666667;"/><text fill="#F8F9FA" font-family="Verdana" font-size="11.4583" lengthAdjust="spacing" textLength="40.625" x="642.1875" y="443.1997">Save()</text><ellipse cx="628.6458" cy="464.5475" fill="none" rx="3.125" ry="3.125" style="stroke:#2683B9;stroke-width:1.0416666666666667;"/><text fill="#F8F9FA" font-family="Verdana" font-size="11.4583" lengthAdjust="spacing" textLength="52.0833" x="642.1875" y="467.542">GetLen()</text><ellipse cx="628.6458" cy="488.8898" fill="none" rx="3.125" ry="3.125" style="stroke:#2683B9;stroke-width:1.0416666666666667;"/><text fill="#F8F9FA" font-family="Verdana" font-size="11.4583" lengthAdjust="spacing" textLength="88.5417" x="642.1875" y="491.8844">GetSyncData()</text><ellipse cx="628.6458" cy="513.2322" fill="none" rx="3.125" ry="3.125" style="stroke:#2683B9;stroke-width:1.0416666666666667;"/><text fill="#F8F9FA" font-family="Verdana" font-size="11.4583" lengthAdjust="spacing" textLength="83.3333" x="642.1875" y="516.2267">GetLogEntry()</text><ellipse cx="628.6458" cy="537.5745" fill="none" rx="3.125" ry="3.125" style="stroke:#2683B9;stroke-width:1.0416666666666667;"/><text fill="#F8F9FA" font-family="Verdana" font-size="11.4583" lengthAdjust="spacing" textLength="86.4583" x="642.1875" y="540.5691">GetSnapshot()</text><ellipse cx="628.6458" cy="561.9169" fill="none" rx="3.125" ry="3.125" style="stroke:#2683B9;stroke-width:1.0416666666666667;"/><text fill="#F8F9FA" font-family="Verdana" font-size="11.4583" lengthAdjust="spacing" textLength="107.2917" x="642.1875" y="564.9114">UpdateSnapshot()</text></g><!--class Node--><g id="elem_Node"><rect codeLine="60" fill="url(#gktg8plzu6ut41)" height="51.4257" id="Node" rx="4.1667" ry="4.1667" style="stroke:#2FA4E7;stroke-width:1.0416666666666667;" width="71.875" x="1008.3333" y="168.0278"/><rect fill="url(#gktg8plzu6ut42)" height="34.759" rx="4.1667" ry="4.1667" style="stroke:url(#gktg8plzu6ut42);stroke-width:1.0416666666666667;" width="71.875" x="1008.3333" y="168.0278"/><rect fill="url(#gktg8plzu6ut42)" height="4.1667" style="stroke:url(#gktg8plzu6ut42);stroke-width:1.0416666666666667;" width="71.875" x="1008.3333" y="198.6201"/><rect codeLine="60" fill="none" height="51.4257" id="Node" rx="4.1667" ry="4.1667" style="stroke:#2FA4E7;stroke-width:1.0416666666666667;" width="71.875" x="1008.3333" y="168.0278"/><ellipse cx="1022.9167" cy="185.4073" fill="none" rx="10.4167" ry="10.4167" style="stroke:#2683B9;stroke-width:1.0416666666666667;"/><path d="M1021.4844,181.322 L1021.4844,180.6384 L1025.7813,180.6384 L1025.7813,181.322 L1024.4629,181.322 Q1024.3327,181.322 1024.2676,181.3708 Q1024.2188,181.4196 1024.2188,181.5173 L1024.2188,188.4997 Q1024.2188,188.5974 1024.2676,188.6462 Q1024.3327,188.695 1024.4629,188.695 L1025.7813,188.695 L1025.7813,189.3786 L1021.4844,189.3786 L1021.4844,188.695 L1022.8027,188.695 Q1022.9655,188.695 1022.998,188.6625 Q1023.0469,188.6136 1023.0469,188.4997 L1023.0469,181.5173 Q1023.0469,181.4034 1022.998,181.3708 Q1022.9655,181.322 1022.8027,181.322 L1021.4844,181.322 Z " fill="#FFFFFF"/><text fill="#F8F9FA" font-family="Verdana" font-size="11.4583" font-style="italic" lengthAdjust="spacing" textLength="30.2083" x="1041.6667" y="189.9643">Node</text><line style="stroke:#2FA4E7;stroke-width:1.0416666666666667;" x1="1009.375" x2="1079.1667" y1="202.7868" y2="202.7868"/><line style="stroke:#2FA4E7;stroke-width:1.0416666666666667;" x1="1009.375" x2="1079.1667" y1="211.1201" y2="211.1201"/></g><!--class Raft--><g id="elem_Raft"><rect codeLine="53" fill="url(#gktg8plzu6ut41)" height="124.4527" id="Raft" rx="4.1667" ry="4.1667" style="stroke:#2FA4E7;stroke-width:1.0416666666666667;" width="182.2917" x="17.7083" y="131.5694"/><rect fill="url(#gktg8plzu6ut42)" height="34.759" rx="4.1667" ry="4.1667" style="stroke:url(#gktg8plzu6ut42);stroke-width:1.0416666666666667;" width="182.2917" x="17.7083" y="131.5694"/><rect fill="url(#gktg8plzu6ut42)" height="4.1667" style="stroke:url(#gktg8plzu6ut42);stroke-width:1.0416666666666667;" width="182.2917" x="17.7083" y="162.1618"/><rect codeLine="53" fill="none" height="124.4527" id="Raft" rx="4.1667" ry="4.1667" style="stroke:#2FA4E7;stroke-width:1.0416666666666667;" width="182.2917" x="17.7083" y="131.5694"/><ellipse cx="87.5" cy="148.9489" fill="none" rx="10.4167" ry="10.4167" style="stroke:#2683B9;stroke-width:1.0416666666666667;"/><path d="M87.9395,148.9001 Q86.5885,148.2979 86.0514,147.8259 Q85.5306,147.3376 85.5306,146.3285 Q85.5306,145.5147 86.1979,144.7985 Q86.8652,144.0824 88.0697,144.0824 Q88.5905,144.0824 89.0625,144.2451 Q89.4857,144.4242 89.6322,144.4242 Q89.7298,144.4242 89.7949,144.3916 Q89.8763,144.3428 90.2507,143.5778 L90.5273,146.4099 L89.974,146.6214 Q89.4694,145.4821 89.0462,145.1566 Q88.6393,144.8148 87.972,144.8148 Q87.1419,144.8148 86.849,145.2705 Q86.556,145.71 86.556,146.2308 Q86.556,146.6866 86.8327,146.9632 Q87.1094,147.2399 88.4928,147.8584 Q89.6973,148.363 90.2507,149.0303 Q90.804,149.6813 90.804,150.5765 Q90.804,151.5368 90.1367,152.2855 Q89.4694,153.0179 88.2161,153.0179 Q87.679,153.0179 87.2559,152.8063 Q86.8652,152.6761 86.6536,152.6761 Q86.5723,152.6761 86.4421,152.7575 Q86.3281,152.8389 85.8724,153.1644 L85.4167,150.2998 L86.0514,150.0882 Q86.4258,151.4392 86.9792,151.8623 Q87.5488,152.2855 88.265,152.2855 Q88.9974,152.2855 89.3555,151.8623 Q89.7298,151.4392 89.7298,150.5765 Q89.7298,150.1696 89.3066,149.7464 Q88.8835,149.3233 87.9395,148.9001 Z " fill="#FFFFFF"/><text fill="#F8F9FA" font-family="Verdana" font-size="11.4583" lengthAdjust="spacing" textLength="23.9583" x="112.5" y="153.506">Raft</text><line style="stroke:#2FA4E7;stroke-width:1.0416666666666667;" x1="18.75" x2="198.9583" y1="166.3284" y2="166.3284"/><rect fill="none" height="6.25" style="stroke:#2683B9;stroke-width:1.0416666666666667;" width="6.25" x="26.0417" y="181.1038"/><text fill="#F8F9FA" font-family="Verdana" font-size="11.4583" lengthAdjust="spacing" textLength="145.8333" x="42.7083" y="187.2233">election Election.Election</text><rect fill="none" height="6.25" style="stroke:#2683B9;stroke-width:1.0416666666666667;" width="6.25" x="26.0417" y="205.4461"/><text fill="#F8F9FA" font-family="Verdana" font-size="11.4583" lengthAdjust="spacing" textLength="123.9583" x="42.7083" y="211.5657">log Commit.Manager</text><rect fill="none" height="6.25" style="stroke:#2683B9;stroke-width:1.0416666666666667;" width="6.25" x="26.0417" y="229.7885"/><text fill="#F8F9FA" font-family="Verdana" font-size="11.4583" lengthAdjust="spacing" textLength="114.5833" x="42.7083" y="235.908">nodes []Node.Node</text><line style="stroke:#2FA4E7;stroke-width:1.0416666666666667;" x1="18.75" x2="198.9583" y1="247.6888" y2="247.6888"/></g><!--reverse link Manage to Raft--><g id="link_Manage_Raft"><path codeLine="47" d="M508.9623,242.7952 C473.0665,264.441 441.7708,286.4757 408.8542,318.0278 C390.1667,335.934 372.6458,357.8611 357.7813,378.7673 " fill="none" id="Manage-backto-Raft" style="stroke:#2FA4E7;stroke-width:3.125;"/><polygon fill="none" points="519.6667,236.3403,512.1628,235.9996,508.9623,242.7952,516.4661,243.1358,519.6667,236.3403" style="stroke:#2FA4E7;stroke-width:3.125;"/></g><!--reverse link Manage to Follower--><g id="link_Manage_Follower"><path codeLine="48" d="M683.9274,244.1016 C718.6566,265.6224 748.2292,287.0903 779.6875,318.0278 C787.2917,325.5069 794.6771,333.684 801.75,342.184 " fill="none" id="Manage-backto-Follower" style="stroke:#2FA4E7;stroke-width:3.125;"/><polygon fill="none" points="673.3021,237.5173,676.42,244.3512,683.9274,244.1016,680.8095,237.2677,673.3021,237.5173" style="stroke:#2FA4E7;stroke-width:3.125;"/></g><!--reverse link Manage to LogStore--><g id="link_Manage_LogStore"><path codeLine="49" d="M622.5509,267.4472 C630.6343,289.9368 635.875,304.5069 645.2083,330.4548 " fill="none" id="Manage-backto-LogStore" style="stroke:#2FA4E7;stroke-width:3.125;"/><polygon fill="none" points="618.3229,255.684,616.5158,262.975,622.5509,267.4472,624.358,260.1563,618.3229,255.684" style="stroke:#2FA4E7;stroke-width:3.125;"/></g><!--link Manage to Manager--><g id="link_Manage_Manager"><path codeLine="50" d="M574.3854,255.684 C567.6354,274.4548 566.2721,278.2485 558.4804,299.9152 " fill="none" id="Manage-to-Manager" style="stroke:#2FA4E7;stroke-width:3.125;"/><polygon fill="none" points="552.1354,317.559,564.3617,302.0302,552.5991,297.8002,552.1354,317.559" style="stroke:#2FA4E7;stroke-width:3.125;"/></g><!--reverse link Raft to Manager--><g id="link_Raft_Manager"><path codeLine="62" d="M211.3315,253.0859 C217.0502,255.8984 211.5521,253.059 217.1875,255.5278 C299.2292,291.559 336.7604,264.8194 408.8542,318.0278 C414.9375,322.5173 420.7813,327.5278 426.3646,332.8819 " fill="none" id="Raft-backto-Manager" style="stroke:#2FA4E7;stroke-width:3.125;"/><polygon fill="none" points="200.1146,247.5694,203.8842,254.0666,211.3315,253.0859,207.5619,246.5887,200.1146,247.5694" style="stroke:#2FA4E7;stroke-width:3.125;"/></g><!--link Raft to Raft--><g id="link_Raft_Raft"><path codeLine="63" d="M156.9896,255.684 C186.0833,292.6215 211.749,325.1967 242.4573,364.1654 " fill="none" id="Raft-to-Raft" style="stroke:#2FA4E7;stroke-width:3.125;"/><polygon fill="none" points="254.0625,378.8923,247.3663,360.297,237.5483,368.0338,254.0625,378.8923" style="stroke:#2FA4E7;stroke-width:3.125;"/></g><!--link Node to Follower--><g id="link_Node_Follower"><path codeLine="64" d="M1027.8854,219.309 C1008.9792,247.8611 986.9299,281.1374 956.6695,326.804 " fill="none" id="Node-to-Follower" style="stroke:#2FA4E7;stroke-width:3.125;"/><polygon fill="none" points="946.3125,342.434,961.8795,330.2564,951.4595,323.3517,946.3125,342.434" style="stroke:#2FA4E7;stroke-width:3.125;"/></g><text fill="#0077BE" font-family="Verdana" font-size="10.4167" lengthAdjust="spacing" textLength="242.7083" x="428.9063" y="644.1254">@github.com/ZiRunHua/MIT6.824-6.5840</text><!--SRC=[xHhRSjksybdy2fow3ycSaI9H5qkUJgUwaBPREUEnt3oSJgS3av3CcY9K4BBZflxtim014YGXAMdKl3IOSIBkBlQ6lO4IZtXCq9Ikrn57rpXum2lY_8VVapL10M7RcE34IH-YP8CPNYEVKawOJnC-fJ5bwAJTFZsTUCvImj4FguZVR-zQ0Ls_-LzqiqqkjlZDrUNje3LqUyr1gp_ijHqbHGdzu3Gk4zYxn051DtWf08t_el5c4pyB2fo4hruNe4M2D-azvGhsyoR4d4ZCPHAIzmfyJLWQfPBenUH_XHEGp78H96U-U4w21STycne0oLSzdnC-foiluUov9BkY490fuIJXCyonWiyfpaLnp7Z-cMvgMleqZkcJLbDhHWm9ZC1na9B56IZpgO9DQRACsBe4oymmTux3i0Av0VbtS4Wc61HSSBODkFAXqAs969oNF3Jv1FHW3oFv1mbTAcjIzCklsZAJNxxhGzLHvGF2ZuO7vYGf7eI735VNJqhGsEB61892cMM8DflA9WDGQ6u02piLiDdywtiTPCwBuoWJLLWt4Ob9m2EQ84zzQEaF0XlJbKgAbkO1q8I6HFZkBVpV4ly8nZg7n3DmZlBOKGH2ebInma_2fPOA8GtDMPTGkSa_m2au3hTL2bX5SH0nis9qcuHPSU0C9wc8oeGRLDkKJ0Z72_uCx9OuJYKNMD-b0lIzWn23QWBXW61Dzl0KUACK-RulGHVF6yBcKVAWuRDJhzEJA80I1NK7m-vab4DlxwFW8I5fYZeITeNPAafGfosVhd4OHiaA3UJJuXw7z4ayjri2_m9_ufGobJLjfo-UfEe1PGbKHrSogrfqulhZddVQB3GI_0AyaO7omQAXbgcAxZuI8MXpGN2OqzN4UoDlwlbLPxQxtUbfDuTcftL7ur0nlZTvscKpiYHmJW7PAt_FWNPxtN6llLk7L9Gy30cuoxGAWzq2QwopO8VCajZeJo8Ehp6X30ovoIJ88pNMKECBJpHoP0UG5Ut0ypE_xRjDVG8Dm_Gi9ZJ7wad9W7iA8xoQmPz8Aj0q8Vo9iWTPHXkLj2ZpoPbN_TKVJGRUjAa8XDx0oymPjR5HoHZ8Wf985ScYfgQ4FSgpFv9IaYbcZ3v9dXQXZNgIYpqo4-GU8U7SbE0F_P4_BktyTdvvVd7xssnyyrFDN5UQgmf47pxgZEyBGIhlSCAvSJWSfm_7T8BrL8gQLUWqaCOdK2Yg_fBIJJvjjzlkJsqEKiKWEyyYvqgxTH3NTsUOvibaF9bD_B8IAaC5vtKKavJJfAQebbxaOcUWdsJUHXp7KR1RT5bHhGQ8vD6Qn96IkAimxj8tY6bAGllMIQVNRxSj_ixYuxitgjKLNJ4aIxoDkQ1_Ys7sLkkRTuI5qBk_iPDAR-WIuveqcmXPLWUKAeZIl8-LLjQJ2pApXPNgNK5o3HDj54GRY7eTU6BrJ6aJ-jx4wLMYiH70wXiaOv7xge8QwsGu67gZWMaTz4P2EGm3gZrCwoSi2x12cdceOaGWnhLTGtyo6dGKqjpLdmu7hYSHbxLTCxStwccakMlaTmQTYKHuTGrxfyDkLo5B6cOH9X1lwtslF-WEVOKqTwaKVp7SLEfqagnH2njREx9GwSpIaIb92hhZTz2Iz4etVIcDfZ5PmH0hpDoPvhO0iAJ-YyasVOhMCSuAIDdHgcPLxN6Tngrm-E5XG9BL9uAoMHZk3eyHVxRMzh_NMIPORpdjZeVTaRYdGNPNxF9glG6QtPecOOq_gD8i4YqdipbRuQm-DupU5CNcY7OR9Qn-Q3Mlg_vt7D673Cx7dK8bS7X5oY4cAVbZAuRnMgXg1Zi2hh5lO2_5XjxWLMusGjxxUboeeKlWJ7LK7HTmIz-TaHW_M-3pQ4b4ZxV6LHbPIiOSjQCrDCGuiR4gA34MLSwBAvTbY9b1lWB6dYRA9wASQJgBv1hQjCX0MdIxqLUolOTQKDdiph7x-E-qVv5tvKhkM79SNO3juVg9aLfc7z1OlNT9ZvV7LH49PpJ-WcK2p3nkApWay4xinUnBYiJGnhcrZLCux1Mfo1t9LMOhLuMjlXzLyyaoTAZXgbbfyPKmtnlS8hQNq4IiTfY5u1DcabBahJTmZJfcTomBADusVh2zrb2JRaaIEfcUTgQk-n5z2dghUBDf7TNaDDmycStw0pdybgrHuFtELo_g6ZigVjC-3rfUqTXz7zEjVSpqNN_gUyqJ8bU5VOQq5RKo-n1pV8TJyWKpBeXnUiGYsSWwmw6NeFO-eTkC9Kt7dBFeRijBRKLbKGcNlK3eLAoaTx-Ju9ZZv37qr-GVeVys9S5nuy8oB5bjiiOf0sT2EQvSB7Uyrima7nWqFqkTZVgsv9zJfYnlIUFiXNVZq7NeKFtIe8CIcNXfzAa2BTrgzyMrMgOnFtwuLLxRVjpDypDJ1wv5M_AFJO6OsTl1vqyHooZ-6utCmbeDzlK33XwEwPQlFoBu-YE2hpyY-9V_YE0wnWd_-MgE7aLyWmsTbjjsUwtkAvz5o2Ttg3D0xUvPhttMxgFfuXO9z6ldrVdr_D55ATqoq2-4p91b7JYyTdx4ZnX1cH3VvfmXyVJgzkerMdWQYBpaCM8qMOlc_UExgum8NL2-sC2v2U91hpc9E5fatrQ-kt9csPSii3MWuYk9CtG- -ScPmr2p1H-SeJ_ldIbKEmYFCpHz-ty0]--></g></svg>