<?xml version="1.0" encoding="us-ascii" standalone="no"?><svg xmlns="http://www.w3.org/2000/svg" xmlns:xlink="http://www.w3.org/1999/xlink" contentStyleType="text/css" height="521.875px" preserveAspectRatio="none" style="width:847px;height:521px;" version="1.1" viewBox="0 0 847 521" width="847.9167px" zoomAndPan="magnify"><defs><linearGradient id="g8nrremk73xmj0" x1="50%" x2="50%" y1="0%" y2="100%"><stop offset="0%" stop-color="#2FA4E7"/><stop offset="100%" stop-color="#2683B9"/></linearGradient></defs><g><rect fill="none" height="48.2361" id="_title" rx="4.1667" ry="4.1667" style="stroke:#BABDBF;stroke-width:1.0416666666666667;" width="220.8333" x="309.1146" y="20.8333"/><text fill="#2FA4E7" font-family="Verdana" font-size="20.8333" font-weight="bold" lengthAdjust="spacing" textLength="197.9167" x="320.5729" y="53.2369">Election Package</text><!--cluster Election--><g id="cluster_Election"><path d="M221.3542,86.7778 L283.8542,86.7778 A6.25,6.25 0 0 1 288.0208,90.9444 L295.3125,118.6361 L700.5208,118.6361 A4.1667,4.1667 0 0 1 704.6875,122.8027 L704.6875,442.5069 A4.1667,4.1667 0 0 1 700.5208,446.6736 L221.3542,446.6736 A4.1667,4.1667 0 0 1 217.1875,442.5069 L217.1875,90.9444 A4.1667,4.1667 0 0 1 221.3542,86.7778 " fill="none" style="stroke:#2FA4E7;stroke-width:2.0833333333333335;"/><line style="stroke:#2FA4E7;stroke-width:2.0833333333333335;" x1="217.1875" x2="295.3125" y1="118.6361" y2="118.6361"/><text fill="#2FA4E7" font-family="Verdana" font-size="12.5" font-weight="bold" lengthAdjust="spacing" textLength="54.1667" x="226.5625" y="106.6366">Election</text></g><!--cluster Node--><g id="cluster_Node"><path d="M733.8542,111.2569 L777.6042,111.2569 A6.25,6.25 0 0 1 781.7708,115.4236 L789.0625,143.1152 L831.7708,143.1152 A4.1667,4.1667 0 0 1 835.9375,147.2819 L835.9375,219.5903 A4.1667,4.1667 0 0 1 831.7708,223.7569 L733.8542,223.7569 A4.1667,4.1667 0 0 1 729.6875,219.5903 L729.6875,115.4236 A4.1667,4.1667 0 0 1 733.8542,111.2569 " fill="none" style="stroke:#2FA4E7;stroke-width:2.0833333333333335;"/><line style="stroke:#2FA4E7;stroke-width:2.0833333333333335;" x1="729.6875" x2="789.0625" y1="143.1152" y2="143.1152"/><text fill="#2FA4E7" font-family="Verdana" font-size="12.5" font-weight="bold" lengthAdjust="spacing" textLength="35.4167" x="739.0625" y="131.1157">Node</text></g><!--class Election--><g id="elem_Election"><rect codeLine="8" fill="none" height="124.4527" id="Election" rx="4.1667" ry="4.1667" style="stroke:#2FA4E7;stroke-width:1.0416666666666667;" width="122.9167" x="233.8542" y="306.0486"/><rect fill="url(#g8nrremk73xmj0)" height="34.759" rx="4.1667" ry="4.1667" style="stroke:url(#g8nrremk73xmj0);stroke-width:1.0416666666666667;" width="122.9167" x="233.8542" y="306.0486"/><rect fill="url(#g8nrremk73xmj0)" height="4.1667" style="stroke:url(#g8nrremk73xmj0);stroke-width:1.0416666666666667;" width="122.9167" x="233.8542" y="336.6409"/><rect codeLine="8" fill="none" height="124.4527" id="Election" rx="4.1667" ry="4.1667" style="stroke:#2FA4E7;stroke-width:1.0416666666666667;" width="122.9167" x="233.8542" y="306.0486"/><ellipse cx="264.375" cy="323.4281" fill="none" rx="10.4167" ry="10.4167" style="stroke:#2683B9;stroke-width:1.0416666666666667;"/><path d="M262.9427,319.3428 L262.9427,318.6592 L267.2396,318.6592 L267.2396,319.3428 L265.9212,319.3428 Q265.791,319.3428 265.7259,319.3916 Q265.6771,319.4405 265.6771,319.5381 L265.6771,326.5205 Q265.6771,326.6182 265.7259,326.667 Q265.791,326.7159 265.9212,326.7159 L267.2396,326.7159 L267.2396,327.3994 L262.9427,327.3994 L262.9427,326.7159 L264.2611,326.7159 Q264.4238,326.7159 264.4564,326.6833 Q264.5052,326.6345 264.5052,326.5205 L264.5052,319.5381 Q264.5052,319.4242 264.4564,319.3916 Q264.4238,319.3428 264.2611,319.3428 L262.9427,319.3428 Z " fill="#2FA4E7"/><text fill="#343A40" font-family="Verdana" font-size="11.4583" font-style="italic" lengthAdjust="spacing" textLength="45.8333" x="286.6667" y="327.9851">Election</text><line style="stroke:#2FA4E7;stroke-width:1.0416666666666667;" x1="234.8958" x2="355.7292" y1="340.8076" y2="340.8076"/><line style="stroke:#2FA4E7;stroke-width:1.0416666666666667;" x1="234.8958" x2="355.7292" y1="349.1409" y2="349.1409"/><ellipse cx="245.3125" cy="367.0413" fill="none" rx="3.125" ry="3.125" style="stroke:#2683B9;stroke-width:1.0416666666666667;"/><text fill="#343A40" font-family="Verdana" font-size="11.4583" lengthAdjust="spacing" textLength="86.4583" x="258.8542" y="370.0358">PreVote() bool</text><ellipse cx="245.3125" cy="391.3836" fill="none" rx="3.125" ry="3.125" style="stroke:#2683B9;stroke-width:1.0416666666666667;"/><text fill="#343A40" font-family="Verdana" font-size="11.4583" lengthAdjust="spacing" textLength="27.0833" x="258.8542" y="394.3782">Do()</text><ellipse cx="245.3125" cy="415.726" fill="none" rx="3.125" ry="3.125" style="stroke:#2683B9;stroke-width:1.0416666666666667;"/><text fill="#343A40" font-family="Verdana" font-size="11.4583" lengthAdjust="spacing" textLength="32.2917" x="258.8542" y="418.7205">End()</text></g><!--class Candidate--><g id="elem_Candidate"><rect codeLine="13" fill="none" height="100.1104" id="Candidate" rx="4.1667" ry="4.1667" style="stroke:#2FA4E7;stroke-width:1.0416666666666667;" width="161.4583" x="393.75" y="318.0278"/><rect fill="url(#g8nrremk73xmj0)" height="34.759" rx="4.1667" ry="4.1667" style="stroke:url(#g8nrremk73xmj0);stroke-width:1.0416666666666667;" width="161.4583" x="393.75" y="318.0278"/><rect fill="url(#g8nrremk73xmj0)" height="4.1667" style="stroke:url(#g8nrremk73xmj0);stroke-width:1.0416666666666667;" width="161.4583" x="393.75" y="348.6201"/><rect codeLine="13" fill="none" height="100.1104" id="Candidate" rx="4.1667" ry="4.1667" style="stroke:#2FA4E7;stroke-width:1.0416666666666667;" width="161.4583" x="393.75" y="318.0278"/><ellipse cx="435.5208" cy="335.4073" fill="none" rx="10.4167" ry="10.4167" style="stroke:#2683B9;stroke-width:1.0416666666666667;"/><path d="M434.0885,331.322 L434.0885,330.6384 L438.3854,330.6384 L438.3854,331.322 L437.0671,331.322 Q436.9368,331.322 436.8717,331.3708 Q436.8229,331.4196 436.8229,331.5173 L436.8229,338.4997 Q436.8229,338.5974 436.8717,338.6462 Q436.9368,338.695 437.0671,338.695 L438.3854,338.695 L438.3854,339.3786 L434.0885,339.3786 L434.0885,338.695 L435.4069,338.695 Q435.5697,338.695 435.6022,338.6625 Q435.651,338.6136 435.651,338.4997 L435.651,331.5173 Q435.651,331.4034 435.6022,331.3708 Q435.5697,331.322 435.4069,331.322 L434.0885,331.322 Z " fill="#2FA4E7"/><text fill="#343A40" font-family="Verdana" font-size="11.4583" font-style="italic" lengthAdjust="spacing" textLength="59.375" x="460.3125" y="339.9643">Candidate</text><line style="stroke:#2FA4E7;stroke-width:1.0416666666666667;" x1="394.7917" x2="554.1667" y1="352.7868" y2="352.7868"/><line style="stroke:#2FA4E7;stroke-width:1.0416666666666667;" x1="394.7917" x2="554.1667" y1="361.1201" y2="361.1201"/><ellipse cx="405.2083" cy="379.0204" fill="none" rx="3.125" ry="3.125" style="stroke:#2683B9;stroke-width:1.0416666666666667;"/><text fill="#343A40" font-family="Verdana" font-size="11.4583" lengthAdjust="spacing" textLength="125" x="418.75" y="382.015">WinElection(term int)</text><ellipse cx="405.2083" cy="403.3628" fill="none" rx="3.125" ry="3.125" style="stroke:#2683B9;stroke-width:1.0416666666666667;"/><text fill="#343A40" font-family="Verdana" font-size="11.4583" lengthAdjust="spacing" textLength="122.9167" x="418.75" y="406.3573">FailElection(term int)</text></g><!--class Voter--><g id="elem_Voter"><rect codeLine="17" fill="none" height="100.1104" id="Voter" rx="4.1667" ry="4.1667" style="stroke:#2FA4E7;stroke-width:1.0416666666666667;" width="95.8333" x="592.1875" y="318.0278"/><rect fill="url(#g8nrremk73xmj0)" height="34.759" rx="4.1667" ry="4.1667" style="stroke:url(#g8nrremk73xmj0);stroke-width:1.0416666666666667;" width="95.8333" x="592.1875" y="318.0278"/><rect fill="url(#g8nrremk73xmj0)" height="4.1667" style="stroke:url(#g8nrremk73xmj0);stroke-width:1.0416666666666667;" width="95.8333" x="592.1875" y="348.6201"/><rect codeLine="17" fill="none" height="100.1104" id="Voter" rx="4.1667" ry="4.1667" style="stroke:#2FA4E7;stroke-width:1.0416666666666667;" width="95.8333" x="592.1875" y="318.0278"/><ellipse cx="616.6146" cy="335.4073" fill="none" rx="10.4167" ry="10.4167" style="stroke:#2683B9;stroke-width:1.0416666666666667;"/><path d="M615.1823,331.322 L615.1823,330.6384 L619.4792,330.6384 L619.4792,331.322 L618.1608,331.322 Q618.0306,331.322 617.9655,331.3708 Q617.9167,331.4196 617.9167,331.5173 L617.9167,338.4997 Q617.9167,338.5974 617.9655,338.6462 Q618.0306,338.695 618.1608,338.695 L619.4792,338.695 L619.4792,339.3786 L615.1823,339.3786 L615.1823,338.695 L616.5007,338.695 Q616.6634,338.695 616.696,338.6625 Q616.7448,338.6136 616.7448,338.4997 L616.7448,331.5173 Q616.7448,331.4034 616.696,331.3708 Q616.6634,331.322 616.5007,331.322 L615.1823,331.322 Z " fill="#2FA4E7"/><text fill="#343A40" font-family="Verdana" font-size="11.4583" font-style="italic" lengthAdjust="spacing" textLength="32.2917" x="637.5521" y="339.9643">Voter</text><line style="stroke:#2FA4E7;stroke-width:1.0416666666666667;" x1="593.2292" x2="686.9792" y1="352.7868" y2="352.7868"/><line style="stroke:#2FA4E7;stroke-width:1.0416666666666667;" x1="593.2292" x2="686.9792" y1="361.1201" y2="361.1201"/><ellipse cx="603.6458" cy="379.0204" fill="none" rx="3.125" ry="3.125" style="stroke:#2683B9;stroke-width:1.0416666666666667;"/><text fill="#343A40" font-family="Verdana" font-size="11.4583" lengthAdjust="spacing" textLength="57.2917" x="617.1875" y="382.015">PreVote()</text><ellipse cx="603.6458" cy="403.3628" fill="none" rx="3.125" ry="3.125" style="stroke:#2683B9;stroke-width:1.0416666666666667;"/><text fill="#343A40" font-family="Verdana" font-size="11.4583" lengthAdjust="spacing" textLength="59.375" x="617.1875" y="406.3573">AskVote()</text></g><!--class election--><g id="elem_election"><rect codeLine="21" fill="none" height="100.1104" id="election" rx="4.1667" ry="4.1667" style="stroke:#2FA4E7;stroke-width:1.0416666666666667;" width="158.3333" x="395.3125" y="131.5694"/><rect fill="url(#g8nrremk73xmj0)" height="34.759" rx="4.1667" ry="4.1667" style="stroke:url(#g8nrremk73xmj0);stroke-width:1.0416666666666667;" width="158.3333" x="395.3125" y="131.5694"/><rect fill="url(#g8nrremk73xmj0)" height="4.1667" style="stroke:url(#g8nrremk73xmj0);stroke-width:1.0416666666666667;" width="158.3333" x="395.3125" y="162.1618"/><rect codeLine="21" fill="none" height="100.1104" id="election" rx="4.1667" ry="4.1667" style="stroke:#2FA4E7;stroke-width:1.0416666666666667;" width="158.3333" x="395.3125" y="131.5694"/><ellipse cx="442.1875" cy="148.9489" fill="none" rx="10.4167" ry="10.4167" style="stroke:#2683B9;stroke-width:1.0416666666666667;"/><path d="M442.627,148.9001 Q441.276,148.2979 440.7389,147.8259 Q440.2181,147.3376 440.2181,146.3285 Q440.2181,145.5147 440.8854,144.7985 Q441.5527,144.0824 442.7572,144.0824 Q443.278,144.0824 443.75,144.2451 Q444.1732,144.4242 444.3197,144.4242 Q444.4173,144.4242 444.4824,144.3916 Q444.5638,144.3428 444.9382,143.5778 L445.2148,146.4099 L444.6615,146.6214 Q444.1569,145.4821 443.7337,145.1566 Q443.3268,144.8148 442.6595,144.8148 Q441.8294,144.8148 441.5365,145.2705 Q441.2435,145.71 441.2435,146.2308 Q441.2435,146.6866 441.5202,146.9632 Q441.7969,147.2399 443.1803,147.8584 Q444.3848,148.363 444.9382,149.0303 Q445.4915,149.6813 445.4915,150.5765 Q445.4915,151.5368 444.8242,152.2855 Q444.1569,153.0179 442.9036,153.0179 Q442.3665,153.0179 441.9434,152.8063 Q441.5527,152.6761 441.3411,152.6761 Q441.2598,152.6761 441.1296,152.7575 Q441.0156,152.8389 440.5599,153.1644 L440.1042,150.2998 L440.7389,150.0882 Q441.1133,151.4392 441.6667,151.8623 Q442.2363,152.2855 442.9525,152.2855 Q443.6849,152.2855 444.043,151.8623 Q444.4173,151.4392 444.4173,150.5765 Q444.4173,150.1696 443.9941,149.7464 Q443.571,149.3233 442.627,148.9001 Z " fill="#2FA4E7"/><text fill="#343A40" font-family="Verdana" font-size="11.4583" lengthAdjust="spacing" textLength="45.8333" x="467.1875" y="153.506">election</text><line style="stroke:#2FA4E7;stroke-width:1.0416666666666667;" x1="396.3542" x2="552.6042" y1="166.3284" y2="166.3284"/><rect fill="none" height="6.25" style="stroke:#2683B9;stroke-width:1.0416666666666667;" width="6.25" x="403.6458" y="181.1038"/><text fill="#343A40" font-family="Verdana" font-size="11.4583" lengthAdjust="spacing" textLength="121.875" x="420.3125" y="187.2233">candidate Candidate</text><rect fill="none" height="6.25" style="stroke:#2683B9;stroke-width:1.0416666666666667;" width="6.25" x="403.6458" y="205.4461"/><text fill="#343A40" font-family="Verdana" font-size="11.4583" lengthAdjust="spacing" textLength="84.375" x="420.3125" y="211.5657">voters []Voter</text><line style="stroke:#2FA4E7;stroke-width:1.0416666666666667;" x1="396.3542" x2="552.6042" y1="223.3465" y2="223.3465"/></g><!--class Node--><g id="elem_Node"><rect codeLine="37" fill="none" height="51.4257" id="Node" rx="4.1667" ry="4.1667" style="stroke:#2FA4E7;stroke-width:1.0416666666666667;" width="71.875" x="746.875" y="156.0486"/><rect fill="url(#g8nrremk73xmj0)" height="34.759" rx="4.1667" ry="4.1667" style="stroke:url(#g8nrremk73xmj0);stroke-width:1.0416666666666667;" width="71.875" x="746.875" y="156.0486"/><rect fill="url(#g8nrremk73xmj0)" height="4.1667" style="stroke:url(#g8nrremk73xmj0);stroke-width:1.0416666666666667;" width="71.875" x="746.875" y="186.6409"/><rect codeLine="37" fill="none" height="51.4257" id="Node" rx="4.1667" ry="4.1667" style="stroke:#2FA4E7;stroke-width:1.0416666666666667;" width="71.875" x="746.875" y="156.0486"/><ellipse cx="761.4583" cy="173.4281" fill="none" rx="10.4167" ry="10.4167" style="stroke:#2683B9;stroke-width:1.0416666666666667;"/><path d="M760.026,169.3428 L760.026,168.6592 L764.3229,168.6592 L764.3229,169.3428 L763.0046,169.3428 Q762.8743,169.3428 762.8092,169.3916 Q762.7604,169.4405 762.7604,169.5381 L762.7604,176.5205 Q762.7604,176.6182 762.8092,176.667 Q762.8743,176.7159 763.0046,176.7159 L764.3229,176.7159 L764.3229,177.3994 L760.026,177.3994 L760.026,176.7159 L761.3444,176.7159 Q761.5072,176.7159 761.5397,176.6833 Q761.5885,176.6345 761.5885,176.5205 L761.5885,169.5381 Q761.5885,169.4242 761.5397,169.3916 Q761.5072,169.3428 761.3444,169.3428 L760.026,169.3428 Z " fill="#2FA4E7"/><text fill="#343A40" font-family="Verdana" font-size="11.4583" font-style="italic" lengthAdjust="spacing" textLength="30.2083" x="780.2083" y="177.9851">Node</text><line style="stroke:#2FA4E7;stroke-width:1.0416666666666667;" x1="747.9167" x2="817.7083" y1="190.8076" y2="190.8076"/><line style="stroke:#2FA4E7;stroke-width:1.0416666666666667;" x1="747.9167" x2="817.7083" y1="199.1409" y2="199.1409"/></g><!--class Raft--><g id="elem_Raft"><rect codeLine="30" fill="none" height="124.4527" id="Raft" rx="4.1667" ry="4.1667" style="stroke:#2FA4E7;stroke-width:1.0416666666666667;" width="182.2917" x="17.7083" y="119.5903"/><rect fill="url(#g8nrremk73xmj0)" height="34.759" rx="4.1667" ry="4.1667" style="stroke:url(#g8nrremk73xmj0);stroke-width:1.0416666666666667;" width="182.2917" x="17.7083" y="119.5903"/><rect fill="url(#g8nrremk73xmj0)" height="4.1667" style="stroke:url(#g8nrremk73xmj0);stroke-width:1.0416666666666667;" width="182.2917" x="17.7083" y="150.1826"/><rect codeLine="30" fill="none" height="124.4527" id="Raft" rx="4.1667" ry="4.1667" style="stroke:#2FA4E7;stroke-width:1.0416666666666667;" width="182.2917" x="17.7083" y="119.5903"/><ellipse cx="87.5" cy="136.9698" fill="none" rx="10.4167" ry="10.4167" style="stroke:#2683B9;stroke-width:1.0416666666666667;"/><path d="M87.9395,136.9209 Q86.5885,136.3187 86.0514,135.8467 Q85.5306,135.3584 85.5306,134.3493 Q85.5306,133.5355 86.1979,132.8194 Q86.8652,132.1032 88.0697,132.1032 Q88.5905,132.1032 89.0625,132.266 Q89.4857,132.445 89.6322,132.445 Q89.7298,132.445 89.7949,132.4125 Q89.8763,132.3636 90.2507,131.5987 L90.5273,134.4307 L89.974,134.6423 Q89.4694,133.503 89.0462,133.1774 Q88.6393,132.8356 87.972,132.8356 Q87.1419,132.8356 86.849,133.2914 Q86.556,133.7308 86.556,134.2517 Q86.556,134.7074 86.8327,134.9841 Q87.1094,135.2608 88.4928,135.8793 Q89.6973,136.3838 90.2507,137.0511 Q90.804,137.7022 90.804,138.5974 Q90.804,139.5576 90.1367,140.3063 Q89.4694,141.0388 88.2161,141.0388 Q87.679,141.0388 87.2559,140.8272 Q86.8652,140.697 86.6536,140.697 Q86.5723,140.697 86.4421,140.7784 Q86.3281,140.8597 85.8724,141.1853 L85.4167,138.3207 L86.0514,138.1091 Q86.4258,139.46 86.9792,139.8832 Q87.5488,140.3063 88.265,140.3063 Q88.9974,140.3063 89.3555,139.8832 Q89.7298,139.46 89.7298,138.5974 Q89.7298,138.1905 89.3066,137.7673 Q88.8835,137.3441 87.9395,136.9209 Z " fill="#2FA4E7"/><text fill="#343A40" font-family="Verdana" font-size="11.4583" lengthAdjust="spacing" textLength="23.9583" x="112.5" y="141.5268">Raft</text><line style="stroke:#2FA4E7;stroke-width:1.0416666666666667;" x1="18.75" x2="198.9583" y1="154.3493" y2="154.3493"/><rect fill="none" height="6.25" style="stroke:#2683B9;stroke-width:1.0416666666666667;" width="6.25" x="26.0417" y="169.1246"/><text fill="#343A40" font-family="Verdana" font-size="11.4583" lengthAdjust="spacing" textLength="145.8333" x="42.7083" y="175.2441">election Election.Election</text><rect fill="none" height="6.25" style="stroke:#2683B9;stroke-width:1.0416666666666667;" width="6.25" x="26.0417" y="193.4669"/><text fill="#343A40" font-family="Verdana" font-size="11.4583" lengthAdjust="spacing" textLength="123.9583" x="42.7083" y="199.5865">log Commit.Manager</text><rect fill="none" height="6.25" style="stroke:#2683B9;stroke-width:1.0416666666666667;" width="6.25" x="26.0417" y="217.8093"/><text fill="#343A40" font-family="Verdana" font-size="11.4583" lengthAdjust="spacing" textLength="114.5833" x="42.7083" y="223.9288">nodes []Node.Node</text><line style="stroke:#2FA4E7;stroke-width:1.0416666666666667;" x1="18.75" x2="198.9583" y1="235.7096" y2="235.7096"/></g><!--reverse link election to Candidate--><g id="link_election_Candidate"><path codeLine="25" d="M474.4792,244.5173 C474.4792,271.0798 474.4792,291.2257 474.4792,317.7569 " fill="none" id="election-backto-Candidate" style="stroke:#2FA4E7;stroke-width:3.125;"/><polygon fill="none" points="474.4792,232.0173,470.3125,238.2673,474.4792,244.5173,478.6458,238.2673,474.4792,232.0173" style="stroke:#2FA4E7;stroke-width:3.125;"/></g><!--reverse link election to Voter--><g id="link_election_Voter"><path codeLine="26" d="M527.2166,241.3176 C551.0707,267.8801 572.0521,291.2257 595.8854,317.7569 " fill="none" id="election-backto-Voter" style="stroke:#2FA4E7;stroke-width:3.125;"/><polygon fill="none" points="518.8646,232.0173,519.9405,239.4514,527.2166,241.3176,526.1407,233.8835,518.8646,232.0173" style="stroke:#2FA4E7;stroke-width:3.125;"/></g><!--link election to Election--><g id="link_election_Election"><path codeLine="27" d="M426.4688,232.0173 C404.3854,254.7361 391.0463,268.4665 367.7338,292.4561 " fill="none" id="election-to-Election" style="stroke:#2FA4E7;stroke-width:3.125;"/><polygon fill="none" points="354.6667,305.9028,372.216,296.8118,363.2516,288.1004,354.6667,305.9028" style="stroke:#2FA4E7;stroke-width:3.125;"/></g><!--reverse link Raft to Election--><g id="link_Raft_Election"><path codeLine="39" d="M179.8265,252.7953 C200.0661,272.8057 213.625,286.2048 233.8125,306.1736 " fill="none" id="Raft-backto-Election" style="stroke:#2FA4E7;stroke-width:3.125;"/><polygon fill="none" points="170.9375,244.0069,172.4526,251.3641,179.8265,252.7953,178.3115,245.4381,170.9375,244.0069" style="stroke:#2FA4E7;stroke-width:3.125;"/></g><!--link Raft to Candidate--><g id="link_Raft_Candidate"><path codeLine="40" d="M200,235.0382 C205.7813,237.9965 211.5417,240.8611 217.1875,243.5486 C285.5,276.059 307.8646,272.1944 375.5208,306.0486 C382.8333,309.7048 373.9859,304.4875 381.3817,308.675 " fill="none" id="Raft-to-Candidate" style="stroke:#2FA4E7;stroke-width:3.125;"/><polygon fill="none" points="397.6979,317.9132,384.4611,303.2362,378.3023,314.1137,397.6979,317.9132" style="stroke:#2FA4E7;stroke-width:3.125;"/></g><!--link Node to Voter--><g id="link_Node_Voter"><path codeLine="41" d="M763.8646,207.0903 C742.1042,235.2048 717.3338,267.2236 689.6671,302.9528 " fill="none" id="Node-to-Voter" style="stroke:#2FA4E7;stroke-width:3.125;"/><polygon fill="none" points="678.1875,317.7778,694.6088,306.7793,684.7255,299.1262,678.1875,317.7778" style="stroke:#2FA4E7;stroke-width:3.125;"/></g><text fill="#2FA4E7" font-family="Verdana" font-size="10.4167" lengthAdjust="spacing" textLength="242.7083" x="298.1771" y="485.2712">@github.com/ZiRunHua/MIT6.824-6.5840</text><!--SRC=[xHbfRziszBFrAxYcm18CTdt72OgYlfIaJRmWJbjWmp3G4krmbaLFefEcMVxx7YbIeWxRoUOC-r02QIs- -_5TeZZb7a53ZpYSCXzTOcUEPyJwWT-G1K4E2LOUmNwPhRX7VMBzYC8vzPSum0lK0znPm5Q-ssSU2z1UjNfus1kcSCOyM3dyAPXAyZhKAMES1EZzZFARrQJYiCMRN-ZLoZzTuJSNPzVjIgVUBBShhKwpQfKKhzYi1wjKeZxGJx6JtYtzX2u3yXbuxn-W2MDUj3TW-mVHhw7lof-FAHPzxBlKnPme7b-ehxdk0yu20QfYO6Fg5SBI78KAGLQZwB4RpkD7GHJv517JZ39oj4g9SX7WLd0EqQ-_IH6AXoP6h5nE4QG0cYBUB9V_UXVxpm9EbbBc2ayvA5AEjOgnAWbw6NbiXlfiiQ2ySe5zEA90xFhC9KB14VnV4VzOm5YVeNW6pecd58AGA9NC2vAWbAgLnCHOI0OZilKzyLtBuiL90Ik9rqacK7c0_H10nES6rYeaFSBncDy3modsGia5rjjGRBsp40eWij43_42vZ39v2hZDVAxIecvtcyD3kNjwloJ1EVNd2cGF3eUrfWJ1Bj44xKwZTnJlNjzGP-wJC4GrkNU1WndrKQqgdownwr9_XjhoQNo3NNOddgiL0N-4Ft5caTOQjzOIJr9xXmK-96jTCjjibE3buANqyqE1TbgUolzDA4B8yfHWDyRB5PFXqR0_jBE-h3OQ_SD6l1iTreHvhc9yO_8ibXsGAG6B7B9H_eRpR3GRtMPrlGuX4G75sLhJCWpM2yonZg8TSan2wJSY3gxKOm4OSXL9aCTfh8w69vuenS0Q03FQfHGfvSDOSSkUaWoqEvVYsG3-H3w1bZxXTooO8rdtjh6ADzUVX50PM9cfeeXAcKI1u4zBZ59A5DIG1BVos7UZa-I9Wu3TIPO5Calvr1OqCWSaZU1-OWQ8tR6Fx6wAylNvsSdfzU-3xjN7dBLrQQqg2otugVEy9GIfZCC-vyRHS1pET-Y3mZD92bMYKblQxaE5oBfBfNRAwBEH_REsEUkbx1cOQPVIfzVj3NhsDWwcAfe2k2weHqBE_FNgngbOQ-idcRQKOuywHSUhagPGIH39wOA82IwEZLaXSR6-ZiT2uXQIllxIlHgTZKwqGmq6Wq6hNQtgQ7dxHdMyf3cwP8fN7XSa8mpJPhHUVIQ12yF1gs9CwHLLQEecofAY_Ag10WbE63SoSqLjES4oMvXPyinPDU3KeKi8Vns2i9gcg1xxQe3qIg4Km66r38okg02gWYPhhzFk38_QfbtG6WdZC0Uexj3Fd_30hjfr1JGpKHsp07HpL1sxTzIkAQ11zNhygTyVZiVHgGlmMOvsK6yUDOSAQD8EkgEJuLL2EimhsppiD1eAQ9AcWas0H_a-s6etEhO2chH9sZyQhairFubPoWLHKGahmD89ewDKeYHuks-gvZBBpgCvftfa1ZEji71ZhIsAYL9-Facn3k_emiDHJKdHwpAMDQTkbQw5ltEMgF0inuL8ekMRo6Dg1CSmdjzIVf_haV-uu_ImHZziT3iDwAbZ3hcUCMkOl9og7UY12-Qxc-Uz6Al8rGgMhxzfavT9vTcTrKOvovzOpkMg5-v2SeQtddSIyU3Q3Bl2a3HZalov4dDuBYOrWpMHjTb3PXHeWYGA4lk_RicnhocLL1qN-tcpIWFYuVk2_NCw9QB75uPH6fZAl1YqIKKnKYmBbPIG0dLEahUkWa5c00aAa5oLLiEeg5mQfK1e3cmQP00BrBhIBsGRpKsmYaoEePluhpLz73VbRNLC9hLw0ouEscV6Qvgzmpnran6-KEOwm35WtWjnXvrT5laqyub0mi5BiSSp4bNgfpVV8xdIbKwk36lzkfFDZDfpXEbWpSTljZPpEeNY_pnJT28PtDLMDduMItWRsc5FI_DFBWyVjjrDc9BGNl-mrg_Ndz1re2kAoyejte4P86M9VaFAlpHbZzebp_EyBbFR58StkrNXSBXdr-s-FIpl4Raox2FWTlOkvdY2G_9ITSV3uUvgcib4NvP4rJtdd8XTERvvAQpr-WmA4hJBUK0dArw4de95Tm2rZDriyWTnTZW0xa9zFO4yGVrLI9nT1aNHUyRJksy0hiJ-pFk_wBDK7pwUMKisZGfRXlefyw8xwnqLh-q20t7TyqnvwrlLLdaXnvpiCbsUyaxuBvC4NcDMBrOtSV3C6u6dpWbJwf6NcH7W39tvJltn_Plozs_A_zqtvKiF-_pJnJcw1Sy9OsgLUhNUh3JsxO0YcqnGhOsgZUDczRZQGltnDHBW0sl_vFByjev2jWf0KPU6KUK03WVM1toB4GIikDm_Hk9f__hY08s7UXD2xPO6p5-8cF_m-I92GgUCZvUCI-HsizoZ78sZ3rYVBwn1TDSEf0uJzzF7wAJtqJg75ha2tnsZRpTM7vAA1_V7g3_w6m00]--></g></svg>