<?xml version="1.0" encoding="us-ascii" standalone="no"?><svg xmlns="http://www.w3.org/2000/svg" xmlns:xlink="http://www.w3.org/1999/xlink" contentStyleType="text/css" height="1062.5px" preserveAspectRatio="none" style="width:777px;height:1062px;" version="1.1" viewBox="0 0 777 1062" width="777.0833px" zoomAndPan="magnify"><defs><linearGradient id="g4p2fegrf7ecb0" x1="50%" x2="50%" y1="0%" y2="100%"><stop offset="0%" stop-color="#EDF0F2"/><stop offset="100%" stop-color="#E9ECEF"/></linearGradient><linearGradient id="g4p2fegrf7ecb1" x1="50%" x2="50%" y1="0%" y2="100%"><stop offset="0%" stop-color="#59B6EC"/><stop offset="100%" stop-color="#2FA4E7"/></linearGradient><linearGradient id="g4p2fegrf7ecb2" x1="50%" x2="50%" y1="0%" y2="100%"><stop offset="0%" stop-color="#2FA4E7"/><stop offset="100%" stop-color="#2683B9"/></linearGradient></defs><g><rect fill="url(#g4p2fegrf7ecb0)" height="48.2361" id="_title" rx="4.1667" ry="4.1667" style="stroke:#BABDBF;stroke-width:1.0416666666666667;" width="187.5" x="290.3646" y="20.8333"/><text fill="#2FA4E7" font-family="Verdana" font-size="20.8333" font-weight="bold" lengthAdjust="spacing" textLength="164.5833" x="301.8229" y="53.2369">Node Package</text><!--cluster Node--><g id="cluster_Node"><path d="M221.3542,86.7778 L265.1042,86.7778 A6.25,6.25 0 0 1 269.2708,90.9444 L276.5625,118.6361 L760.9375,118.6361 A4.1667,4.1667 0 0 1 765.1042,122.8027 L765.1042,674.2778 A4.1667,4.1667 0 0 1 760.9375,678.4444 L221.3542,678.4444 A4.1667,4.1667 0 0 1 217.1875,674.2778 L217.1875,90.9444 A4.1667,4.1667 0 0 1 221.3542,86.7778 " fill="none" style="stroke:#59B6EC;stroke-width:2.0833333333333335;"/><line style="stroke:#59B6EC;stroke-width:2.0833333333333335;" x1="217.1875" x2="276.5625" y1="118.6361" y2="118.6361"/><text fill="#2FA4E7" font-family="Verdana" font-size="12.5" font-weight="bold" lengthAdjust="spacing" textLength="35.4167" x="226.5625" y="106.6366">Node</text></g><!--cluster Election--><g id="cluster_Election"><path d="M144.2708,764.3819 L206.7708,764.3819 A6.25,6.25 0 0 1 210.9375,768.5486 L218.2292,796.2402 L265.1042,796.2402 A4.1667,4.1667 0 0 1 269.2708,800.4069 L269.2708,921.6736 A4.1667,4.1667 0 0 1 265.1042,925.8403 L144.2708,925.8403 A4.1667,4.1667 0 0 1 140.1042,921.6736 L140.1042,768.5486 A4.1667,4.1667 0 0 1 144.2708,764.3819 " fill="none" style="stroke:#59B6EC;stroke-width:2.0833333333333335;"/><line style="stroke:#59B6EC;stroke-width:2.0833333333333335;" x1="140.1042" x2="218.2292" y1="796.2402" y2="796.2402"/><text fill="#2FA4E7" font-family="Verdana" font-size="12.5" font-weight="bold" lengthAdjust="spacing" textLength="54.1667" x="149.4792" y="784.2407">Election</text></g><!--cluster Commit--><g id="cluster_Commit"><path d="M298.4375,703.4444 L358.8542,703.4444 A6.25,6.25 0 0 1 363.0208,707.6111 L370.3125,735.3027 L475.5208,735.3027 A4.1667,4.1667 0 0 1 479.6875,739.4694 L479.6875,982.6111 A4.1667,4.1667 0 0 1 475.5208,986.7778 L298.4375,986.7778 A4.1667,4.1667 0 0 1 294.2708,982.6111 L294.2708,707.6111 A4.1667,4.1667 0 0 1 298.4375,703.4444 " fill="none" style="stroke:#59B6EC;stroke-width:2.0833333333333335;"/><line style="stroke:#59B6EC;stroke-width:2.0833333333333335;" x1="294.2708" x2="370.3125" y1="735.3027" y2="735.3027"/><text fill="#2FA4E7" font-family="Verdana" font-size="12.5" font-weight="bold" lengthAdjust="spacing" textLength="52.0833" x="303.6458" y="723.3032">Commit</text></g><!--class Node--><g id="elem_Node"><rect codeLine="6" fill="url(#g4p2fegrf7ecb1)" height="294.8491" id="Node" rx="4.1667" ry="4.1667" style="stroke:#2FA4E7;stroke-width:1.0416666666666667;" width="152.0833" x="233.8542" y="366.9861"/><rect fill="url(#g4p2fegrf7ecb2)" height="34.759" rx="4.1667" ry="4.1667" style="stroke:url(#g4p2fegrf7ecb2);stroke-width:1.0416666666666667;" width="152.0833" x="233.8542" y="366.9861"/><rect fill="url(#g4p2fegrf7ecb2)" height="4.1667" style="stroke:url(#g4p2fegrf7ecb2);stroke-width:1.0416666666666667;" width="152.0833" x="233.8542" y="397.5784"/><rect codeLine="6" fill="none" height="294.8491" id="Node" rx="4.1667" ry="4.1667" style="stroke:#2FA4E7;stroke-width:1.0416666666666667;" width="152.0833" x="233.8542" y="366.9861"/><ellipse cx="285.4167" cy="384.3656" fill="none" rx="10.4167" ry="10.4167" style="stroke:#2683B9;stroke-width:1.0416666666666667;"/><path d="M283.9844,380.2803 L283.9844,379.5967 L288.2813,379.5967 L288.2813,380.2803 L286.9629,380.2803 Q286.8327,380.2803 286.7676,380.3291 Q286.7188,380.378 286.7188,380.4756 L286.7188,387.458 Q286.7188,387.5557 286.7676,387.6045 Q286.8327,387.6534 286.9629,387.6534 L288.2813,387.6534 L288.2813,388.3369 L283.9844,388.3369 L283.9844,387.6534 L285.3027,387.6534 Q285.4655,387.6534 285.498,387.6208 Q285.5469,387.572 285.5469,387.458 L285.5469,380.4756 Q285.5469,380.3617 285.498,380.3291 Q285.4655,380.2803 285.3027,380.2803 L283.9844,380.2803 Z " fill="#FFFFFF"/><text fill="#F8F9FA" font-family="Verdana" font-size="11.4583" font-style="italic" lengthAdjust="spacing" textLength="30.2083" x="310.4167" y="388.9226">Node</text><line style="stroke:#2FA4E7;stroke-width:1.0416666666666667;" x1="234.8958" x2="384.8958" y1="401.7451" y2="401.7451"/><line style="stroke:#2FA4E7;stroke-width:1.0416666666666667;" x1="234.8958" x2="384.8958" y1="410.0784" y2="410.0784"/><ellipse cx="245.3125" cy="427.9788" fill="none" rx="3.125" ry="3.125" style="stroke:#2683B9;stroke-width:1.0416666666666667;"/><text fill="#F8F9FA" font-family="Verdana" font-size="11.4583" lengthAdjust="spacing" textLength="105.2083" x="258.8542" y="430.9733">HeartbeatTicker()</text><ellipse cx="245.3125" cy="452.3211" fill="none" rx="3.125" ry="3.125" style="stroke:#2683B9;stroke-width:1.0416666666666667;"/><text fill="#F8F9FA" font-family="Verdana" font-size="11.4583" lengthAdjust="spacing" textLength="57.2917" x="258.8542" y="455.3157">PreVote()</text><ellipse cx="245.3125" cy="476.6635" fill="none" rx="3.125" ry="3.125" style="stroke:#2683B9;stroke-width:1.0416666666666667;"/><text fill="#F8F9FA" font-family="Verdana" font-size="11.4583" lengthAdjust="spacing" textLength="59.375" x="258.8542" y="479.658">AskVote()</text><ellipse cx="245.3125" cy="501.0058" fill="none" rx="3.125" ry="3.125" style="stroke:#2683B9;stroke-width:1.0416666666666667;"/><text fill="#F8F9FA" font-family="Verdana" font-size="11.4583" lengthAdjust="spacing" textLength="70.8333" x="258.8542" y="504.0003">SyncState()</text><ellipse cx="245.3125" cy="525.3482" fill="none" rx="3.125" ry="3.125" style="stroke:#2683B9;stroke-width:1.0416666666666667;"/><text fill="#F8F9FA" font-family="Verdana" font-size="11.4583" lengthAdjust="spacing" textLength="86.4583" x="258.8542" y="528.3427">GetLogIndex()</text><ellipse cx="245.3125" cy="549.6905" fill="none" rx="3.125" ry="3.125" style="stroke:#2683B9;stroke-width:1.0416666666666667;"/><text fill="#F8F9FA" font-family="Verdana" font-size="11.4583" lengthAdjust="spacing" textLength="88.5417" x="258.8542" y="552.685">AddLogIndex()</text><ellipse cx="245.3125" cy="574.0328" fill="none" rx="3.125" ry="3.125" style="stroke:#2683B9;stroke-width:1.0416666666666667;"/><text fill="#F8F9FA" font-family="Verdana" font-size="11.4583" lengthAdjust="spacing" textLength="115.625" x="258.8542" y="577.0274">RollbackLogIndex()</text><ellipse cx="245.3125" cy="598.3752" fill="none" rx="3.125" ry="3.125" style="stroke:#2683B9;stroke-width:1.0416666666666667;"/><text fill="#F8F9FA" font-family="Verdana" font-size="11.4583" lengthAdjust="spacing" textLength="112.5" x="258.8542" y="601.3697">GetPrepareIndex()</text><ellipse cx="245.3125" cy="622.7175" fill="none" rx="3.125" ry="3.125" style="stroke:#2683B9;stroke-width:1.0416666666666667;"/><text fill="#F8F9FA" font-family="Verdana" font-size="11.4583" lengthAdjust="spacing" textLength="104.1667" x="258.8542" y="625.7121">PrepareCommit()</text><ellipse cx="245.3125" cy="647.0599" fill="none" rx="3.125" ry="3.125" style="stroke:#2683B9;stroke-width:1.0416666666666667;"/><text fill="#F8F9FA" font-family="Verdana" font-size="11.4583" lengthAdjust="spacing" textLength="105.2083" x="258.8542" y="650.0544">ConfirmCommit()</text></g><!--class Raft--><g id="elem_Raft"><rect codeLine="18" fill="url(#g4p2fegrf7ecb1)" height="75.768" id="Raft" rx="4.1667" ry="4.1667" style="stroke:#2FA4E7;stroke-width:1.0416666666666667;" width="187.5" x="422.3958" y="476.3611"/><rect fill="url(#g4p2fegrf7ecb2)" height="34.759" rx="4.1667" ry="4.1667" style="stroke:url(#g4p2fegrf7ecb2);stroke-width:1.0416666666666667;" width="187.5" x="422.3958" y="476.3611"/><rect fill="url(#g4p2fegrf7ecb2)" height="4.1667" style="stroke:url(#g4p2fegrf7ecb2);stroke-width:1.0416666666666667;" width="187.5" x="422.3958" y="506.9534"/><rect codeLine="18" fill="none" height="75.768" id="Raft" rx="4.1667" ry="4.1667" style="stroke:#2FA4E7;stroke-width:1.0416666666666667;" width="187.5" x="422.3958" y="476.3611"/><ellipse cx="494.7917" cy="493.7406" fill="none" rx="10.4167" ry="10.4167" style="stroke:#2683B9;stroke-width:1.0416666666666667;"/><path d="M493.3594,489.6553 L493.3594,488.9717 L497.6563,488.9717 L497.6563,489.6553 L496.3379,489.6553 Q496.2077,489.6553 496.1426,489.7041 Q496.0938,489.753 496.0938,489.8506 L496.0938,496.833 Q496.0938,496.9307 496.1426,496.9795 Q496.2077,497.0284 496.3379,497.0284 L497.6563,497.0284 L497.6563,497.7119 L493.3594,497.7119 L493.3594,497.0284 L494.6777,497.0284 Q494.8405,497.0284 494.873,496.9958 Q494.9219,496.947 494.9219,496.833 L494.9219,489.8506 Q494.9219,489.7367 494.873,489.7041 Q494.8405,489.6553 494.6777,489.6553 L493.3594,489.6553 Z " fill="#FFFFFF"/><text fill="#F8F9FA" font-family="Verdana" font-size="11.4583" font-style="italic" lengthAdjust="spacing" textLength="23.9583" x="519.7917" y="498.2976">Raft</text><line style="stroke:#2FA4E7;stroke-width:1.0416666666666667;" x1="423.4375" x2="608.8542" y1="511.1201" y2="511.1201"/><line style="stroke:#2FA4E7;stroke-width:1.0416666666666667;" x1="423.4375" x2="608.8542" y1="519.4534" y2="519.4534"/><ellipse cx="433.8542" cy="537.3538" fill="none" rx="3.125" ry="3.125" style="stroke:#2683B9;stroke-width:1.0416666666666667;"/><text fill="#F8F9FA" font-family="Verdana" font-size="11.4583" lengthAdjust="spacing" textLength="151.0417" x="447.3958" y="540.3483">EndOfTerm(newTerm int)</text></g><!--class node--><g id="elem_node"><rect codeLine="21" fill="url(#g4p2fegrf7ecb1)" height="173.1374" id="node" rx="4.1667" ry="4.1667" style="stroke:#2FA4E7;stroke-width:1.0416666666666667;" width="179.1667" x="426.5625" y="131.5694"/><rect fill="url(#g4p2fegrf7ecb2)" height="34.759" rx="4.1667" ry="4.1667" style="stroke:url(#g4p2fegrf7ecb2);stroke-width:1.0416666666666667;" width="179.1667" x="426.5625" y="131.5694"/><rect fill="url(#g4p2fegrf7ecb2)" height="4.1667" style="stroke:url(#g4p2fegrf7ecb2);stroke-width:1.0416666666666667;" width="179.1667" x="426.5625" y="162.1618"/><rect codeLine="21" fill="none" height="173.1374" id="node" rx="4.1667" ry="4.1667" style="stroke:#2FA4E7;stroke-width:1.0416666666666667;" width="179.1667" x="426.5625" y="131.5694"/><ellipse cx="492.1875" cy="148.9489" fill="none" rx="10.4167" ry="10.4167" style="stroke:#2683B9;stroke-width:1.0416666666666667;"/><path d="M492.627,148.9001 Q491.276,148.2979 490.7389,147.8259 Q490.2181,147.3376 490.2181,146.3285 Q490.2181,145.5147 490.8854,144.7985 Q491.5527,144.0824 492.7572,144.0824 Q493.278,144.0824 493.75,144.2451 Q494.1732,144.4242 494.3197,144.4242 Q494.4173,144.4242 494.4824,144.3916 Q494.5638,144.3428 494.9382,143.5778 L495.2148,146.4099 L494.6615,146.6214 Q494.1569,145.4821 493.7337,145.1566 Q493.3268,144.8148 492.6595,144.8148 Q491.8294,144.8148 491.5365,145.2705 Q491.2435,145.71 491.2435,146.2308 Q491.2435,146.6866 491.5202,146.9632 Q491.7969,147.2399 493.1803,147.8584 Q494.3848,148.363 494.9382,149.0303 Q495.4915,149.6813 495.4915,150.5765 Q495.4915,151.5368 494.8242,152.2855 Q494.1569,153.0179 492.9036,153.0179 Q492.3665,153.0179 491.9434,152.8063 Q491.5527,152.6761 491.3411,152.6761 Q491.2598,152.6761 491.1296,152.7575 Q491.0156,152.8389 490.5599,153.1644 L490.1042,150.2998 L490.7389,150.0882 Q491.1133,151.4392 491.6667,151.8623 Q492.2363,152.2855 492.9525,152.2855 Q493.6849,152.2855 494.043,151.8623 Q494.4173,151.4392 494.4173,150.5765 Q494.4173,150.1696 493.9941,149.7464 Q493.571,149.3233 492.627,148.9001 Z " fill="#FFFFFF"/><text fill="#F8F9FA" font-family="Verdana" font-size="11.4583" lengthAdjust="spacing" textLength="29.1667" x="517.1875" y="153.506">node</text><line style="stroke:#2FA4E7;stroke-width:1.0416666666666667;" x1="427.6042" x2="604.6875" y1="166.3284" y2="166.3284"/><rect fill="none" height="6.25" style="stroke:#2683B9;stroke-width:1.0416666666666667;" width="6.25" x="434.8958" y="181.1038"/><text fill="#F8F9FA" font-family="Verdana" font-size="11.4583" lengthAdjust="spacing" textLength="48.9583" x="451.5625" y="187.2233">raft Raft</text><rect fill="none" height="6.25" style="stroke:#2683B9;stroke-width:1.0416666666666667;" width="6.25" x="434.8958" y="205.4461"/><text fill="#F8F9FA" font-family="Verdana" font-size="11.4583" lengthAdjust="spacing" textLength="70.8333" x="451.5625" y="211.5657">logIndex int</text><rect fill="none" height="6.25" style="stroke:#2683B9;stroke-width:1.0416666666666667;" width="6.25" x="434.8958" y="229.7885"/><text fill="#F8F9FA" font-family="Verdana" font-size="11.4583" lengthAdjust="spacing" textLength="68.75" x="451.5625" y="235.908">apply apply</text><rect fill="none" height="6.25" style="stroke:#2683B9;stroke-width:1.0416666666666667;" width="6.25" x="434.8958" y="254.1308"/><text fill="#F8F9FA" font-family="Verdana" font-size="11.4583" lengthAdjust="spacing" textLength="142.7083" x="451.5625" y="260.2503">lastHeartbeat time.Time</text><rect fill="none" height="6.25" style="stroke:#2683B9;stroke-width:1.0416666666666667;" width="6.25" x="434.8958" y="278.4732"/><text fill="#F8F9FA" font-family="Verdana" font-size="11.4583" lengthAdjust="spacing" textLength="135.4167" x="451.5625" y="284.5927">peer *labrpc.ClientEnd</text><line style="stroke:#2FA4E7;stroke-width:1.0416666666666667;" x1="427.6042" x2="604.6875" y1="296.3735" y2="296.3735"/></g><!--class apply--><g id="elem_apply"><rect codeLine="28" fill="url(#g4p2fegrf7ecb1)" height="100.1104" id="apply" rx="4.1667" ry="4.1667" style="stroke:#2FA4E7;stroke-width:1.0416666666666667;" width="102.0833" x="646.3542" y="464.3819"/><rect fill="url(#g4p2fegrf7ecb2)" height="34.759" rx="4.1667" ry="4.1667" style="stroke:url(#g4p2fegrf7ecb2);stroke-width:1.0416666666666667;" width="102.0833" x="646.3542" y="464.3819"/><rect fill="url(#g4p2fegrf7ecb2)" height="4.1667" style="stroke:url(#g4p2fegrf7ecb2);stroke-width:1.0416666666666667;" width="102.0833" x="646.3542" y="494.9743"/><rect codeLine="28" fill="none" height="100.1104" id="apply" rx="4.1667" ry="4.1667" style="stroke:#2FA4E7;stroke-width:1.0416666666666667;" width="102.0833" x="646.3542" y="464.3819"/><ellipse cx="673.5938" cy="481.7614" fill="none" rx="10.4167" ry="10.4167" style="stroke:#2683B9;stroke-width:1.0416666666666667;"/><path d="M674.0332,481.7126 Q672.6823,481.1104 672.1452,480.6384 Q671.6243,480.1501 671.6243,479.141 Q671.6243,478.3272 672.2917,477.611 Q672.959,476.8949 674.1634,476.8949 Q674.6842,476.8949 675.1563,477.0576 Q675.5794,477.2367 675.7259,477.2367 Q675.8236,477.2367 675.8887,477.2041 Q675.9701,477.1553 676.3444,476.3903 L676.6211,479.2224 L676.0677,479.4339 Q675.5632,478.2946 675.14,477.9691 Q674.7331,477.6273 674.0658,477.6273 Q673.2357,477.6273 672.9427,478.083 Q672.6497,478.5225 672.6497,479.0433 Q672.6497,479.4991 672.9264,479.7757 Q673.2031,480.0524 674.5866,480.6709 Q675.791,481.1755 676.3444,481.8428 Q676.8978,482.4938 676.8978,483.389 Q676.8978,484.3493 676.2305,485.098 Q675.5632,485.8304 674.3099,485.8304 Q673.7728,485.8304 673.3496,485.6188 Q672.959,485.4886 672.7474,485.4886 Q672.666,485.4886 672.5358,485.57 Q672.4219,485.6514 671.9661,485.9769 L671.5104,483.1123 L672.1452,482.9007 Q672.5195,484.2517 673.0729,484.6748 Q673.6426,485.098 674.3587,485.098 Q675.0911,485.098 675.4492,484.6748 Q675.8236,484.2517 675.8236,483.389 Q675.8236,482.9821 675.4004,482.5589 Q674.9772,482.1358 674.0332,481.7126 Z " fill="#FFFFFF"/><text fill="#F8F9FA" font-family="Verdana" font-size="11.4583" lengthAdjust="spacing" textLength="32.2917" x="695.1563" y="486.3185">apply</text><line style="stroke:#2FA4E7;stroke-width:1.0416666666666667;" x1="647.3958" x2="747.3958" y1="499.1409" y2="499.1409"/><rect fill="none" height="6.25" style="stroke:#2683B9;stroke-width:1.0416666666666667;" width="6.25" x="654.6875" y="513.9163"/><text fill="#F8F9FA" font-family="Verdana" font-size="11.4583" lengthAdjust="spacing" textLength="65.625" x="671.3542" y="520.0358">prepare int</text><rect fill="none" height="6.25" style="stroke:#2683B9;stroke-width:1.0416666666666667;" width="6.25" x="654.6875" y="538.2586"/><text fill="#F8F9FA" font-family="Verdana" font-size="11.4583" lengthAdjust="spacing" textLength="63.5417" x="671.3542" y="544.3782">confirm int</text><line style="stroke:#2FA4E7;stroke-width:1.0416666666666667;" x1="647.3958" x2="747.3958" y1="556.159" y2="556.159"/></g><!--class Voter--><g id="elem_Voter"><rect codeLine="44" fill="url(#g4p2fegrf7ecb1)" height="100.1104" id="Voter" rx="4.1667" ry="4.1667" style="stroke:#2FA4E7;stroke-width:1.0416666666666667;" width="95.8333" x="156.7708" y="809.1736"/><rect fill="url(#g4p2fegrf7ecb2)" height="34.759" rx="4.1667" ry="4.1667" style="stroke:url(#g4p2fegrf7ecb2);stroke-width:1.0416666666666667;" width="95.8333" x="156.7708" y="809.1736"/><rect fill="url(#g4p2fegrf7ecb2)" height="4.1667" style="stroke:url(#g4p2fegrf7ecb2);stroke-width:1.0416666666666667;" width="95.8333" x="156.7708" y="839.7659"/><rect codeLine="44" fill="none" height="100.1104" id="Voter" rx="4.1667" ry="4.1667" style="stroke:#2FA4E7;stroke-width:1.0416666666666667;" width="95.8333" x="156.7708" y="809.1736"/><ellipse cx="181.1979" cy="826.5531" fill="none" rx="10.4167" ry="10.4167" style="stroke:#2683B9;stroke-width:1.0416666666666667;"/><path d="M179.7656,822.4678 L179.7656,821.7842 L184.0625,821.7842 L184.0625,822.4678 L182.7441,822.4678 Q182.6139,822.4678 182.5488,822.5166 Q182.5,822.5655 182.5,822.6631 L182.5,829.6455 Q182.5,829.7432 182.5488,829.792 Q182.6139,829.8409 182.7441,829.8409 L184.0625,829.8409 L184.0625,830.5244 L179.7656,830.5244 L179.7656,829.8409 L181.084,829.8409 Q181.2467,829.8409 181.2793,829.8083 Q181.3281,829.7595 181.3281,829.6455 L181.3281,822.6631 Q181.3281,822.5492 181.2793,822.5166 Q181.2467,822.4678 181.084,822.4678 L179.7656,822.4678 Z " fill="#FFFFFF"/><text fill="#F8F9FA" font-family="Verdana" font-size="11.4583" font-style="italic" lengthAdjust="spacing" textLength="32.2917" x="202.1354" y="831.1101">Voter</text><line style="stroke:#2FA4E7;stroke-width:1.0416666666666667;" x1="157.8125" x2="251.5625" y1="843.9326" y2="843.9326"/><line style="stroke:#2FA4E7;stroke-width:1.0416666666666667;" x1="157.8125" x2="251.5625" y1="852.2659" y2="852.2659"/><ellipse cx="168.2292" cy="870.1663" fill="none" rx="3.125" ry="3.125" style="stroke:#2683B9;stroke-width:1.0416666666666667;"/><text fill="#F8F9FA" font-family="Verdana" font-size="11.4583" lengthAdjust="spacing" textLength="57.2917" x="181.7708" y="873.1608">PreVote()</text><ellipse cx="168.2292" cy="894.5086" fill="none" rx="3.125" ry="3.125" style="stroke:#2683B9;stroke-width:1.0416666666666667;"/><text fill="#F8F9FA" font-family="Verdana" font-size="11.4583" lengthAdjust="spacing" textLength="59.375" x="181.7708" y="897.5032">AskVote()</text></g><!--class Follower--><g id="elem_Follower"><rect codeLine="51" fill="url(#g4p2fegrf7ecb1)" height="221.8221" id="Follower" rx="4.1667" ry="4.1667" style="stroke:#2FA4E7;stroke-width:1.0416666666666667;" width="152.0833" x="310.9375" y="748.2361"/><rect fill="url(#g4p2fegrf7ecb2)" height="34.759" rx="4.1667" ry="4.1667" style="stroke:url(#g4p2fegrf7ecb2);stroke-width:1.0416666666666667;" width="152.0833" x="310.9375" y="748.2361"/><rect fill="url(#g4p2fegrf7ecb2)" height="4.1667" style="stroke:url(#g4p2fegrf7ecb2);stroke-width:1.0416666666666667;" width="152.0833" x="310.9375" y="778.8284"/><rect codeLine="51" fill="none" height="221.8221" id="Follower" rx="4.1667" ry="4.1667" style="stroke:#2FA4E7;stroke-width:1.0416666666666667;" width="152.0833" x="310.9375" y="748.2361"/><ellipse cx="353.1771" cy="765.6156" fill="none" rx="10.4167" ry="10.4167" style="stroke:#2683B9;stroke-width:1.0416666666666667;"/><path d="M351.7448,761.5303 L351.7448,760.8467 L356.0417,760.8467 L356.0417,761.5303 L354.7233,761.5303 Q354.5931,761.5303 354.528,761.5791 Q354.4792,761.628 354.4792,761.7256 L354.4792,768.708 Q354.4792,768.8057 354.528,768.8545 Q354.5931,768.9034 354.7233,768.9034 L356.0417,768.9034 L356.0417,769.5869 L351.7448,769.5869 L351.7448,768.9034 L353.0632,768.9034 Q353.2259,768.9034 353.2585,768.8708 Q353.3073,768.822 353.3073,768.708 L353.3073,761.7256 Q353.3073,761.6117 353.2585,761.5791 Q353.2259,761.5303 353.0632,761.5303 L351.7448,761.5303 Z " fill="#FFFFFF"/><text fill="#F8F9FA" font-family="Verdana" font-size="11.4583" font-style="italic" lengthAdjust="spacing" textLength="48.9583" x="378.0729" y="770.1726">Follower</text><line style="stroke:#2FA4E7;stroke-width:1.0416666666666667;" x1="311.9792" x2="461.9792" y1="782.9951" y2="782.9951"/><line style="stroke:#2FA4E7;stroke-width:1.0416666666666667;" x1="311.9792" x2="461.9792" y1="791.3284" y2="791.3284"/><ellipse cx="322.3958" cy="809.2288" fill="none" rx="3.125" ry="3.125" style="stroke:#2683B9;stroke-width:1.0416666666666667;"/><text fill="#F8F9FA" font-family="Verdana" font-size="11.4583" lengthAdjust="spacing" textLength="70.8333" x="335.9375" y="812.2233">SyncState()</text><ellipse cx="322.3958" cy="833.5711" fill="none" rx="3.125" ry="3.125" style="stroke:#2683B9;stroke-width:1.0416666666666667;"/><text fill="#F8F9FA" font-family="Verdana" font-size="11.4583" lengthAdjust="spacing" textLength="112.5" x="335.9375" y="836.5657">GetPrepareIndex()</text><ellipse cx="322.3958" cy="857.9135" fill="none" rx="3.125" ry="3.125" style="stroke:#2683B9;stroke-width:1.0416666666666667;"/><text fill="#F8F9FA" font-family="Verdana" font-size="11.4583" lengthAdjust="spacing" textLength="104.1667" x="335.9375" y="860.908">PrepareCommit()</text><ellipse cx="322.3958" cy="882.2558" fill="none" rx="3.125" ry="3.125" style="stroke:#2683B9;stroke-width:1.0416666666666667;"/><text fill="#F8F9FA" font-family="Verdana" font-size="11.4583" lengthAdjust="spacing" textLength="105.2083" x="335.9375" y="885.2503">ConfirmCommit()</text><ellipse cx="322.3958" cy="906.5982" fill="none" rx="3.125" ry="3.125" style="stroke:#2683B9;stroke-width:1.0416666666666667;"/><text fill="#F8F9FA" font-family="Verdana" font-size="11.4583" lengthAdjust="spacing" textLength="86.4583" x="335.9375" y="909.5927">GetLogIndex()</text><ellipse cx="322.3958" cy="930.9405" fill="none" rx="3.125" ry="3.125" style="stroke:#2683B9;stroke-width:1.0416666666666667;"/><text fill="#F8F9FA" font-family="Verdana" font-size="11.4583" lengthAdjust="spacing" textLength="88.5417" x="335.9375" y="933.935">AddLogIndex()</text><ellipse cx="322.3958" cy="955.2828" fill="none" rx="3.125" ry="3.125" style="stroke:#2683B9;stroke-width:1.0416666666666667;"/><text fill="#F8F9FA" font-family="Verdana" font-size="11.4583" lengthAdjust="spacing" textLength="115.625" x="335.9375" y="958.2774">RollbackLogIndex()</text></g><!--class Raft--><g id="elem_Raft"><rect codeLine="37" fill="url(#g4p2fegrf7ecb1)" height="124.4527" id="Raft" rx="4.1667" ry="4.1667" style="stroke:#2FA4E7;stroke-width:1.0416666666666667;" width="182.2917" x="17.7083" y="156.0486"/><rect fill="url(#g4p2fegrf7ecb2)" height="34.759" rx="4.1667" ry="4.1667" style="stroke:url(#g4p2fegrf7ecb2);stroke-width:1.0416666666666667;" width="182.2917" x="17.7083" y="156.0486"/><rect fill="url(#g4p2fegrf7ecb2)" height="4.1667" style="stroke:url(#g4p2fegrf7ecb2);stroke-width:1.0416666666666667;" width="182.2917" x="17.7083" y="186.6409"/><rect codeLine="37" fill="none" height="124.4527" id="Raft" rx="4.1667" ry="4.1667" style="stroke:#2FA4E7;stroke-width:1.0416666666666667;" width="182.2917" x="17.7083" y="156.0486"/><ellipse cx="87.5" cy="173.4281" fill="none" rx="10.4167" ry="10.4167" style="stroke:#2683B9;stroke-width:1.0416666666666667;"/><path d="M87.9395,173.3793 Q86.5885,172.777 86.0514,172.305 Q85.5306,171.8168 85.5306,170.8076 Q85.5306,169.9938 86.1979,169.2777 Q86.8652,168.5616 88.0697,168.5616 Q88.5905,168.5616 89.0625,168.7243 Q89.4857,168.9034 89.6322,168.9034 Q89.7298,168.9034 89.7949,168.8708 Q89.8763,168.822 90.2507,168.057 L90.5273,170.889 L89.974,171.1006 Q89.4694,169.9613 89.0462,169.6358 Q88.6393,169.294 87.972,169.294 Q87.1419,169.294 86.849,169.7497 Q86.556,170.1892 86.556,170.71 Q86.556,171.1657 86.8327,171.4424 Q87.1094,171.7191 88.4928,172.3376 Q89.6973,172.8422 90.2507,173.5095 Q90.804,174.1605 90.804,175.0557 Q90.804,176.016 90.1367,176.7647 Q89.4694,177.4971 88.2161,177.4971 Q87.679,177.4971 87.2559,177.2855 Q86.8652,177.1553 86.6536,177.1553 Q86.5723,177.1553 86.4421,177.2367 Q86.3281,177.3181 85.8724,177.6436 L85.4167,174.779 L86.0514,174.5674 Q86.4258,175.9183 86.9792,176.3415 Q87.5488,176.7647 88.265,176.7647 Q88.9974,176.7647 89.3555,176.3415 Q89.7298,175.9183 89.7298,175.0557 Q89.7298,174.6488 89.3066,174.2256 Q88.8835,173.8024 87.9395,173.3793 Z " fill="#FFFFFF"/><text fill="#F8F9FA" font-family="Verdana" font-size="11.4583" lengthAdjust="spacing" textLength="23.9583" x="112.5" y="177.9851">Raft</text><line style="stroke:#2FA4E7;stroke-width:1.0416666666666667;" x1="18.75" x2="198.9583" y1="190.8076" y2="190.8076"/><rect fill="none" height="6.25" style="stroke:#2683B9;stroke-width:1.0416666666666667;" width="6.25" x="26.0417" y="205.5829"/><text fill="#F8F9FA" font-family="Verdana" font-size="11.4583" lengthAdjust="spacing" textLength="145.8333" x="42.7083" y="211.7025">election Election.Election</text><rect fill="none" height="6.25" style="stroke:#2683B9;stroke-width:1.0416666666666667;" width="6.25" x="26.0417" y="229.9253"/><text fill="#F8F9FA" font-family="Verdana" font-size="11.4583" lengthAdjust="spacing" textLength="123.9583" x="42.7083" y="236.0448">log Commit.Manager</text><rect fill="none" height="6.25" style="stroke:#2683B9;stroke-width:1.0416666666666667;" width="6.25" x="26.0417" y="254.2676"/><text fill="#F8F9FA" font-family="Verdana" font-size="11.4583" lengthAdjust="spacing" textLength="114.5833" x="42.7083" y="260.3872">nodes []Node.Node</text><line style="stroke:#2FA4E7;stroke-width:1.0416666666666667;" x1="18.75" x2="198.9583" y1="272.168" y2="272.168"/></g><!--reverse link node to Raft--><g id="link_node_Raft"><path codeLine="32" d="M516.1458,317.0798 C516.1458,373.9236 516.1458,433.2569 516.1458,476.1215 " fill="none" id="node-backto-Raft" style="stroke:#2FA4E7;stroke-width:3.125;"/><polygon fill="none" points="516.1458,304.5798,511.9792,310.8298,516.1458,317.0798,520.3125,310.8298,516.1458,304.5798" style="stroke:#2FA4E7;stroke-width:3.125;"/></g><!--reverse link node to apply--><g id="link_node_apply"><path codeLine="33" d="M593.4362,314.5261 C608.3529,334.4636 615.9375,346.0173 628.6458,366.9861 C647.4792,398.0798 664.8542,435.1632 677.4271,464.2257 " fill="none" id="node-backto-apply" style="stroke:#2FA4E7;stroke-width:3.125;"/><polygon fill="#2FA4E7" points="585.9479,304.5173,586.3558,312.0178,593.4362,314.5261,593.0283,307.0256,585.9479,304.5173" style="stroke:#2FA4E7;stroke-width:3.125;"/></g><!--link node to Node--><g id="link_node_Node"><path codeLine="34" d="M449.9792,304.7361 C434.8125,324.9548 418.9688,346.5694 404.6875,366.9861 C398.5313,375.7882 402.7295,369.4206 396.4899,378.6914 " fill="none" id="node-to-Node" style="stroke:#2FA4E7;stroke-width:3.125;"/><polygon fill="none" points="386.0208,394.2465,401.675,382.1811,391.3049,375.2017,386.0208,394.2465" style="stroke:#2FA4E7;stroke-width:3.125;"/></g><!--link Node to Voter--><g id="link_Node_Voter"><path codeLine="61" d="M264.8229,662.2569 C248.6979,714.7569 237.1292,752.4789 225.3063,790.9789 " fill="none" id="Node-to-Voter" style="stroke:#2FA4E7;stroke-width:3.125;"/><polygon fill="none" points="219.8021,808.9028,231.2809,792.8136,219.3317,789.1441,219.8021,808.9028" style="stroke:#2FA4E7;stroke-width:3.125;"/></g><!--link Node to Follower--><g id="link_Node_Follower"><path codeLine="62" d="M342.9167,662.2569 C349.375,690.9548 351.9261,702.3079 358.0616,729.5787 " fill="none" id="Node-to-Follower" style="stroke:#2FA4E7;stroke-width:3.125;"/><polygon fill="none" points="362.1771,747.8715,364.1591,728.2069,351.964,730.9506,362.1771,747.8715" style="stroke:#2FA4E7;stroke-width:3.125;"/></g><!--reverse link Raft to Node--><g id="link_Raft_Node"><path codeLine="63" d="M157.5622,290.3592 C181.6038,325.5467 205.5208,360.559 233.7604,401.8923 " fill="none" id="Raft-backto-Node" style="stroke:#2FA4E7;stroke-width:3.125;"/><polygon fill="none" points="150.5104,280.0382,150.596,287.5492,157.5622,290.3592,157.4766,282.8481,150.5104,280.0382" style="stroke:#2FA4E7;stroke-width:3.125;"/></g><!--link Raft to Raft--><g id="link_Raft_Raft"><path codeLine="64" d="M179.2813,280.1736 C191.4479,289.0694 204.3333,297.5486 217.1875,304.4861 C294.5,346.1944 333.2396,315.8923 404.6875,366.9861 C444.8229,395.6944 467.6607,426.8669 486.9523,459.9085 " fill="none" id="Raft-to-Raft" style="stroke:#2FA4E7;stroke-width:3.125;"/><polygon fill="none" points="496.4063,476.1007,492.3497,456.7572,481.5549,463.0598,496.4063,476.1007" style="stroke:#2FA4E7;stroke-width:3.125;"/></g><text fill="#0077BE" font-family="Verdana" font-size="10.4167" lengthAdjust="spacing" textLength="242.7083" x="262.7604" y="1025.3754">@github.com/ZiRunHua/MIT6.824-6.5840</text><!--SRC=[xHhPSjisy5dy2hJkWzCE5OawB7aocUYYxTHEFPQQXtOw7OY4PDOKeOAG7JVrltS10ZmXAOUIbmOpFh2xs0jxaH8FU4ZG6-eJT8szExmardVybgm8yWZRX0H7LdmNH6lCy0gvb7B2N1hn4GqfGqUDnid9S68j91ozMWRyTZElUtJr_BVWPXETR_3pgujPjzvpsdQttkcr6vQI8aM-jsf112SNs4i1jP_GES6Cpmdciy2x8-pucOHUC_8MnAZT8BxBxQQFaJVbEDsV4Nv9bnUHJzvfUjylGMve6Cv1cH8OZe8ai9VaeGeqegjLm1LiHAD5m5OPx2blpWrUyCISIUJ_ifWHjZgEo8FuYu0g8Pzojl4uYfJfDc9mIXwLkr2f9Wv805wlmyVaTqA0Ovvw2_5WHUep-2LnQm9NycE8vspjrKTXG28EckJ59jmImUl4m5IIbnYNxE68K15HsrRAoUsFjgrraNlR_lUbl4RhoRAK3EK66v6GU3oW4PgeV-hw7okn52MEh5_X2EA32QZW6gFV_n0ywvgn3Y1zl1148YRO-ztnyfJdaWY54nSf3nS2WpveDeRG-jJu-8p053gdNaWSdVfHsbp6AcTgMonn3_B-CbzAK7fdTNcnhmY4YCMhHG5MLWU4Taj6Dv6Vr07ES1GB-o5OCgfDJ8Q4uob_16OB7CQI2wmNiG2zj11YK3WW016iuGwU0f-hEgxhIj3vuvgmoo2wq_3noQJPbYY04WLrkhtMi9z2PxTGL28InwWfOLUOBOC8DHjoTurzFuYMg2jtqrliqmUnRzG5_Wb-PAHBbJLjioDsKdMFiWYopf7CoXOTEUwWFJcnCuq4Fm-lPLgyDsYePQhwkej425f3AV1JkehuINyochXbPpPQhT59AuKcjpMdeQyOt-PvccKpiY1mJnxPAN_7XRRQhK6xiLs7M2GNvdIhQIK6smLMM2UX3gakiS4_H5nURKWP67AJI91NcbizZSyyKKkHJK2Mj0FFZzs6wzZw1cevqvEOq1pBDoK3xi4Fy78CFoAfGDE8y0VAxcJXhfNIeiWdPLxsLwS_x4v6jY8GUWElVCweWxLIna0M54IgI1OD8YRiNjxzWPIIJ35Zz47oD0YjLPDSd96P8Cy82MTv2MxFxRk3miaVBY_EpcT_ZWStFrVCTQIvga1qu5-TyHqXIEKTZZZFNGx7yTqXdM2ybQncPJfrLPlcfEmlAJtFf-6q6fsHoK6g62JtcULSuRGEukhf16CV3GV3yT0jAg4oL71U1I69EOqgYchfMIusktedypRWE0oyxQABYcerGAIOZC90ITnM6BVfwuKq9hxvwB3PxZGQ1dydyV7YkMfrMLVqoG9lGYxets0OizNw_YrXFam-tvj9fJTqYN7oDEi06LOJbCg8uhIF5LRIapEoV0ihrBkCv1fcpS0BrX3rEl34QkUb3UcxF4wl0es905OdHp8GkQygQ6uTzRgzIR-Rjmvw8w4SXW7L7aRL6vO5M27pUQXYH206bLCzTzZlDXKoVwepwdMTYKHSL4wDdNQ_hP7vKtstsMqE9M9IrR1zqckr5BAWOH9X0l6cslSwtLRFLSZyAPNYJpat5JgT9AjLmiRKZWnKEhDqP4gIZExm7RGWlTHDdmgZQKYMCC8ACxUckIa03Ad_b6SRFmIh42S5fEXeLRFAzZXMRIOSldyOa6JLYQ1e5ePH_pxWZyRQ_ccTPOZraPFMeDVgYyT2oEwINPDARu1cjwAHN-4FgjXPegLa9cShdD7dEQFNMR4veDsv4bQzj8hNLVyxZEXz1gVZJgOIEBmaPH-JcFoz4SDu9LGrWoq1Lziri1TYGn-Ob9viXBntrRXGGvV0vTLHTLp03NrtJ4ByQ81V1WiYUhmnheh8GZAcg2sjeIR6YRLHGOang7AMFN8PXfWnv2jWp6cYV2BAcQOpIAwWynRba0RTRlGZsSvBpQXCTgVONVotsZzDkt8fTmmvhXw0pU7waP5QPE_HKBqcYG-NnsKH4MSq_8fb0imyR2lO9t0kpcBsDKLYQEFSsCOfNFQIbEJsvIgobQl4LZyVbVF9C7IeuSekjVXIcEyCRX7R2sWYHZloXU0ZPf92vAtMy1XroEvO592zLtrlUgsX9js297GqEccE7ES3-XJqLl46rZYgoMdOFXgFErqv_1QjKU3TpbSlwcfRAhvjdWSDhsZClW_fnZnckeuxSYVs4P6hn3v1cefQaRsFEPxZc7p5ZFD271-mIDQIph3l9QYvJ-WsOqZJ0USic6zueQseB2hWaXS8pPALTFuNyGuvJXv2Vqt-0VflOk8TDYuCmvBH9cESCd0cbEFIW-MMrvg9v3s3vcUfirQVwdmvPOho5ZHCNdZNzZqExQjV6hHN8XClZJvMeA5RRNzmBPTfp0yVRgNNjX_svFcPgGEFHHlonQP0pCpjuFEdY4KGVa8ZCx1MWttrWhsxGxhbs_S5ldrVuDlt1VvFtnUu3d74VxswHFU4nUBEcdMduRJhhMEN1SWbSzJieaRhjDquRNJGQ3f30ltCEZwxlhntK4mt3Fpe1t5Imu73C-irliS8Qe88qbCaTiUpgsTeEj50o9FxWD5e9JhrwxTN2H4wftowfbmITzlsCE1ecdmq-VRA6YUVgC1HZuhF7qxHsV1dwn8cc0rSxYdwvzOQGMdZxF4KZTxy1m00]--></g></svg>