<?xml version="1.0" encoding="us-ascii" standalone="no"?><svg xmlns="http://www.w3.org/2000/svg" xmlns:xlink="http://www.w3.org/1999/xlink" contentStyleType="text/css" height="771px" preserveAspectRatio="none" style="width:1716px;height:771px;background:#0077BE;" version="1.1" viewBox="0 0 1716 771" width="1716px" zoomAndPan="magnify"><defs/><g><rect fill="#0077BE" height="771" style="stroke:none;stroke-width:1.0;" width="1716" x="0" y="0"/><text fill="#FFFFFF" font-family="Verdana" font-size="22" font-weight="bold" lengthAdjust="spacing" textLength="163" x="772" y="37.1182">Raft Package</text><!--cluster Election--><g id="cluster_Election"><path d="M13.5,340.2373 L75.5,340.2373 A3.75,3.75 0 0 1 78,342.7373 L85,363.252 L478.5,363.252 A2.5,2.5 0 0 1 481,365.752 L481,682.2373 A2.5,2.5 0 0 1 478.5,684.7373 L13.5,684.7373 A2.5,2.5 0 0 1 11,682.2373 L11,342.7373 A2.5,2.5 0 0 1 13.5,340.2373 " fill="#0B58A8" style="stroke:#FFFFFF;stroke-width:1.0;"/><line style="stroke:#FFFFFF;stroke-width:1.0;" x1="11" x2="85" y1="363.252" y2="363.252"/><text fill="#FFFFFF" font-family="Verdana" font-size="14" font-weight="bold" lengthAdjust="spacing" textLength="61" x="15" y="356.3125">Election</text></g><!--cluster Commit--><g id="cluster_Commit"><path d="M1064.5,331.7373 L1124.5,331.7373 A3.75,3.75 0 0 1 1127,334.2373 L1134,354.752 L1706.5,354.752 A2.5,2.5 0 0 1 1709,357.252 L1709,733.2373 A2.5,2.5 0 0 1 1706.5,735.7373 L1064.5,735.7373 A2.5,2.5 0 0 1 1062,733.2373 L1062,334.2373 A2.5,2.5 0 0 1 1064.5,331.7373 " fill="#0B58A8" style="stroke:#FFFFFF;stroke-width:1.0;"/><line style="stroke:#FFFFFF;stroke-width:1.0;" x1="1062" x2="1134" y1="354.752" y2="354.752"/><text fill="#FFFFFF" font-family="Verdana" font-size="14" font-weight="bold" lengthAdjust="spacing" textLength="59" x="1066" y="347.8125">Commit</text></g><!--cluster Node--><g id="cluster_Node"><path d="M507.5,125.7373 L548.5,125.7373 A3.75,3.75 0 0 1 551,128.2373 L558,148.752 L917.5,148.752 A2.5,2.5 0 0 1 920,151.252 L920,459.2373 A2.5,2.5 0 0 1 917.5,461.7373 L507.5,461.7373 A2.5,2.5 0 0 1 505,459.2373 L505,128.2373 A2.5,2.5 0 0 1 507.5,125.7373 " fill="#0B58A8" style="stroke:#FFFFFF;stroke-width:1.0;"/><line style="stroke:#FFFFFF;stroke-width:1.0;" x1="505" x2="558" y1="148.752" y2="148.752"/><text fill="#FFFFFF" font-family="Verdana" font-size="14" font-weight="bold" lengthAdjust="spacing" textLength="40" x="509" y="141.8125">Node</text></g><!--class Election--><g id="elem_Election"><rect codeLine="6" fill="#0B58A8" height="95.0439" id="Election" rx="2.5" ry="2.5" style="stroke:#FFFFFF;stroke-width:1.0;" width="126" x="130" y="573.7373"/><ellipse cx="161.45" cy="587.7373" fill="#0B58A8" rx="9" ry="9" style="stroke:#FFFFFF;stroke-width:1.0;"/><path d="M160.6063,593.7373 L160.6063,581.5654 L163.075,581.5654 L163.075,593.7373 L160.6063,593.7373 Z " fill="#FFFFFF"/><text fill="#FFFFFF" font-family="Verdana" font-size="14" font-style="italic" lengthAdjust="spacing" textLength="57" x="177.55" y="593.3052">Election</text><line style="stroke:#FFFFFF;stroke-width:1.0;" x1="131" x2="255" y1="601.7373" y2="601.7373"/><line style="stroke:#FFFFFF;stroke-width:1.0;" x1="131" x2="255" y1="609.7373" y2="609.7373"/><ellipse cx="141" cy="623.7446" fill="#0B58A8" rx="3" ry="3" style="stroke:#FFFFFF;stroke-width:1.0;"/><text fill="#FFFFFF" font-family="Verdana" font-size="14" lengthAdjust="spacing" textLength="102" x="148" y="627.8125">PreVote() bool</text><ellipse cx="141" cy="640.7593" fill="#0B58A8" rx="3" ry="3" style="stroke:#FFFFFF;stroke-width:1.0;"/><text fill="#FFFFFF" font-family="Verdana" font-size="14" lengthAdjust="spacing" textLength="32" x="148" y="644.8271">Do()</text><ellipse cx="141" cy="657.7739" fill="#0B58A8" rx="3" ry="3" style="stroke:#FFFFFF;stroke-width:1.0;"/><text fill="#FFFFFF" font-family="Verdana" font-size="14" lengthAdjust="spacing" textLength="39" x="148" y="661.8418">End()</text></g><!--class election--><g id="elem_election"><rect codeLine="11" fill="#0B58A8" height="78.0293" id="election" rx="2.5" ry="2.5" style="stroke:#FFFFFF;stroke-width:1.0;" width="166" x="110" y="376.2373"/><ellipse cx="162.75" cy="390.2373" fill="#0B58A8" rx="9" ry="9" style="stroke:#FFFFFF;stroke-width:1.0;"/><path d="M157.8594,392.2842 L160.25,392.0498 Q160.4688,393.2529 161.125,393.8154 Q161.7969,394.3779 162.9063,394.3779 Q164.0938,394.3779 164.6875,393.8779 Q165.2969,393.3779 165.2969,392.7061 Q165.2969,392.2686 165.0469,391.9717 Q164.7969,391.6592 164.1719,391.4404 Q163.7344,391.2842 162.2031,390.9092 Q160.2188,390.4248 159.4219,389.7061 Q158.2969,388.7061 158.2969,387.2529 Q158.2969,386.3311 158.8281,385.5186 Q159.3594,384.7061 160.3438,384.2842 Q161.3438,383.8623 162.75,383.8623 Q165.0313,383.8623 166.1875,384.8623 Q167.3594,385.8623 167.4063,387.5498 L164.9531,387.6592 Q164.7969,386.7217 164.2813,386.3154 Q163.7656,385.8936 162.7188,385.8936 Q161.6563,385.8936 161.0469,386.3311 Q160.6563,386.6123 160.6563,387.0967 Q160.6563,387.5186 161.0156,387.8311 Q161.4844,388.2217 163.2656,388.6436 Q165.0625,389.0654 165.9219,389.5186 Q166.7813,389.9717 167.2656,390.7529 Q167.7656,391.5342 167.7656,392.6904 Q167.7656,393.7373 167.1719,394.6592 Q166.5938,395.5654 165.5313,396.0186 Q164.4688,396.4561 162.8906,396.4561 Q160.5781,396.4561 159.3438,395.3936 Q158.1094,394.3154 157.8594,392.2842 Z " fill="#FFFFFF"/><text fill="#FFFFFF" font-family="Verdana" font-size="14" lengthAdjust="spacing" textLength="53" x="180.25" y="395.8052">election</text><line style="stroke:#FFFFFF;stroke-width:1.0;" x1="111" x2="275" y1="404.2373" y2="404.2373"/><rect fill="none" height="6" style="stroke:#FFFFFF;stroke-width:1.0;" width="6" x="118" y="415.2446"/><text fill="#FFFFFF" font-family="Verdana" font-size="14" lengthAdjust="spacing" textLength="142" x="128" y="422.3125">candidate Candidate</text><rect fill="none" height="6" style="stroke:#FFFFFF;stroke-width:1.0;" width="6" x="118" y="432.2593"/><text fill="#FFFFFF" font-family="Verdana" font-size="14" lengthAdjust="spacing" textLength="101" x="128" y="439.3271">voters []Voter</text><line style="stroke:#FFFFFF;stroke-width:1.0;" x1="111" x2="275" y1="446.2666" y2="446.2666"/></g><!--class Voter--><g id="elem_Voter"><rect codeLine="15" fill="#0B58A8" height="44" id="Voter" rx="2.5" ry="2.5" style="stroke:#FFFFFF;stroke-width:1.0;" width="67" x="27.5" y="599.2373"/><ellipse cx="40.5" cy="613.2373" fill="#0B58A8" rx="9" ry="9" style="stroke:#FFFFFF;stroke-width:1.0;"/><path d="M39.6563,619.2373 L39.6563,607.0654 L42.125,607.0654 L42.125,619.2373 L39.6563,619.2373 Z " fill="#FFFFFF"/><text fill="#FFFFFF" font-family="Verdana" font-size="14" font-style="italic" lengthAdjust="spacing" textLength="39" x="52.5" y="618.8052">Voter</text><line style="stroke:#FFFFFF;stroke-width:1.0;" x1="28.5" x2="93.5" y1="627.2373" y2="627.2373"/><line style="stroke:#FFFFFF;stroke-width:1.0;" x1="28.5" x2="93.5" y1="635.2373" y2="635.2373"/></g><!--class Candidate--><g id="elem_Candidate"><rect codeLine="16" fill="#0B58A8" height="78.0293" id="Candidate" rx="2.5" ry="2.5" style="stroke:#FFFFFF;stroke-width:1.0;" width="173" x="291.5" y="582.2373"/><ellipse cx="338.75" cy="596.2373" fill="#0B58A8" rx="9" ry="9" style="stroke:#FFFFFF;stroke-width:1.0;"/><path d="M337.9063,602.2373 L337.9063,590.0654 L340.375,590.0654 L340.375,602.2373 L337.9063,602.2373 Z " fill="#FFFFFF"/><text fill="#FFFFFF" font-family="Verdana" font-size="14" font-style="italic" lengthAdjust="spacing" textLength="71" x="356.25" y="601.8052">Candidate</text><line style="stroke:#FFFFFF;stroke-width:1.0;" x1="292.5" x2="463.5" y1="610.2373" y2="610.2373"/><line style="stroke:#FFFFFF;stroke-width:1.0;" x1="292.5" x2="463.5" y1="618.2373" y2="618.2373"/><ellipse cx="302.5" cy="632.2446" fill="#0B58A8" rx="3" ry="3" style="stroke:#FFFFFF;stroke-width:1.0;"/><text fill="#FFFFFF" font-family="Verdana" font-size="14" lengthAdjust="spacing" textLength="149" x="309.5" y="636.3125">WinElection(term int)</text><ellipse cx="302.5" cy="649.2593" fill="#0B58A8" rx="3" ry="3" style="stroke:#FFFFFF;stroke-width:1.0;"/><text fill="#FFFFFF" font-family="Verdana" font-size="14" lengthAdjust="spacing" textLength="144" x="309.5" y="653.3271">FailElection(term int)</text></g><!--class Raft--><g id="elem_Raft"><rect codeLine="28" fill="#0B58A8" height="112.0586" id="Raft" rx="2.5" ry="2.5" style="stroke:#FFFFFF;stroke-width:1.0;" width="165" x="1200.5" y="565.2373"/><ellipse cx="1264.75" cy="579.2373" fill="#0B58A8" rx="9" ry="9" style="stroke:#FFFFFF;stroke-width:1.0;"/><path d="M1263.9063,585.2373 L1263.9063,573.0654 L1266.375,573.0654 L1266.375,585.2373 L1263.9063,585.2373 Z " fill="#FFFFFF"/><text fill="#FFFFFF" font-family="Verdana" font-size="14" font-style="italic" lengthAdjust="spacing" textLength="29" x="1282.25" y="584.8052">Raft</text><line style="stroke:#FFFFFF;stroke-width:1.0;" x1="1201.5" x2="1364.5" y1="593.2373" y2="593.2373"/><line style="stroke:#FFFFFF;stroke-width:1.0;" x1="1201.5" x2="1364.5" y1="601.2373" y2="601.2373"/><ellipse cx="1211.5" cy="615.2446" fill="#0B58A8" rx="3" ry="3" style="stroke:#FFFFFF;stroke-width:1.0;"/><text fill="#FFFFFF" font-family="Verdana" font-size="14" lengthAdjust="spacing" textLength="122" x="1218.5" y="619.3125">ApplyCommand()</text><ellipse cx="1211.5" cy="632.2593" fill="#0B58A8" rx="3" ry="3" style="stroke:#FFFFFF;stroke-width:1.0;"/><text fill="#FFFFFF" font-family="Verdana" font-size="14" lengthAdjust="spacing" textLength="119" x="1218.5" y="636.3271">ApplySnapshot()</text><ellipse cx="1211.5" cy="649.2739" fill="#0B58A8" rx="3" ry="3" style="stroke:#FFFFFF;stroke-width:1.0;"/><text fill="#FFFFFF" font-family="Verdana" font-size="14" lengthAdjust="spacing" textLength="141" x="1218.5" y="653.3418">UpdateApplyIndex()</text><ellipse cx="1211.5" cy="666.2886" fill="#0B58A8" rx="3" ry="3" style="stroke:#FFFFFF;stroke-width:1.0;"/><text fill="#FFFFFF" font-family="Verdana" font-size="14" lengthAdjust="spacing" textLength="59" x="1218.5" y="670.3564">Persist()</text></g><!--class Manager--><g id="elem_Manager"><rect codeLine="34" fill="#0B58A8" height="197.1318" id="Manager" rx="2.5" ry="2.5" style="stroke:#FFFFFF;stroke-width:1.0;" width="164" x="1529" y="522.7373"/><ellipse cx="1577.25" cy="536.7373" fill="#0B58A8" rx="9" ry="9" style="stroke:#FFFFFF;stroke-width:1.0;"/><path d="M1576.4063,542.7373 L1576.4063,530.5654 L1578.875,530.5654 L1578.875,542.7373 L1576.4063,542.7373 Z " fill="#FFFFFF"/><text fill="#FFFFFF" font-family="Verdana" font-size="14" font-style="italic" lengthAdjust="spacing" textLength="60" x="1594.75" y="542.3052">Manager</text><line style="stroke:#FFFFFF;stroke-width:1.0;" x1="1530" x2="1692" y1="550.7373" y2="550.7373"/><line style="stroke:#FFFFFF;stroke-width:1.0;" x1="1530" x2="1692" y1="558.7373" y2="558.7373"/><ellipse cx="1540" cy="572.7446" fill="#0B58A8" rx="3" ry="3" style="stroke:#FFFFFF;stroke-width:1.0;"/><text fill="#FFFFFF" font-family="Verdana" font-size="14" lengthAdjust="spacing" textLength="66" x="1547" y="576.8125">Append()</text><ellipse cx="1540" cy="589.7593" fill="#0B58A8" rx="3" ry="3" style="stroke:#FFFFFF;stroke-width:1.0;"/><text fill="#FFFFFF" font-family="Verdana" font-size="14" lengthAdjust="spacing" textLength="93" x="1547" y="593.8271">SyncStatus()</text><ellipse cx="1540" cy="606.7739" fill="#0B58A8" rx="3" ry="3" style="stroke:#FFFFFF;stroke-width:1.0;"/><text fill="#FFFFFF" font-family="Verdana" font-size="14" lengthAdjust="spacing" textLength="85" x="1547" y="610.8418">SyncApply()</text><ellipse cx="1540" cy="623.7886" fill="#0B58A8" rx="3" ry="3" style="stroke:#FFFFFF;stroke-width:1.0;"/><text fill="#FFFFFF" font-family="Verdana" font-size="14" lengthAdjust="spacing" textLength="101" x="1547" y="627.8564">GetLogEntry()</text><ellipse cx="1540" cy="640.8032" fill="#0B58A8" rx="3" ry="3" style="stroke:#FFFFFF;stroke-width:1.0;"/><text fill="#FFFFFF" font-family="Verdana" font-size="14" lengthAdjust="spacing" textLength="130" x="1547" y="644.8711">UpdateSnapshot()</text><ellipse cx="1540" cy="657.8179" fill="#0B58A8" rx="3" ry="3" style="stroke:#FFFFFF;stroke-width:1.0;"/><text fill="#FFFFFF" font-family="Verdana" font-size="14" lengthAdjust="spacing" textLength="140" x="1547" y="661.8857">GetPersistentData()</text><ellipse cx="1540" cy="674.8325" fill="#0B58A8" rx="3" ry="3" style="stroke:#FFFFFF;stroke-width:1.0;"/><text fill="#FFFFFF" font-family="Verdana" font-size="14" lengthAdjust="spacing" textLength="46" x="1547" y="678.9004">Load()</text><ellipse cx="1540" cy="691.8472" fill="#0B58A8" rx="3" ry="3" style="stroke:#FFFFFF;stroke-width:1.0;"/><text fill="#FFFFFF" font-family="Verdana" font-size="14" lengthAdjust="spacing" textLength="48" x="1547" y="695.915">Start()</text><ellipse cx="1540" cy="708.8618" fill="#0B58A8" rx="3" ry="3" style="stroke:#FFFFFF;stroke-width:1.0;"/><text fill="#FFFFFF" font-family="Verdana" font-size="14" lengthAdjust="spacing" textLength="46" x="1547" y="712.9297">Stop()</text></g><!--class Follower--><g id="elem_Follower"><rect codeLine="45" fill="#0B58A8" height="44" id="Follower" rx="2.5" ry="2.5" style="stroke:#FFFFFF;stroke-width:1.0;" width="87" x="1078.5" y="599.2373"/><ellipse cx="1091.5" cy="613.2373" fill="#0B58A8" rx="9" ry="9" style="stroke:#FFFFFF;stroke-width:1.0;"/><path d="M1090.6563,619.2373 L1090.6563,607.0654 L1093.125,607.0654 L1093.125,619.2373 L1090.6563,619.2373 Z " fill="#FFFFFF"/><text fill="#FFFFFF" font-family="Verdana" font-size="14" font-style="italic" lengthAdjust="spacing" textLength="59" x="1103.5" y="618.8052">Follower</text><line style="stroke:#FFFFFF;stroke-width:1.0;" x1="1079.5" x2="1164.5" y1="627.2373" y2="627.2373"/><line style="stroke:#FFFFFF;stroke-width:1.0;" x1="1079.5" x2="1164.5" y1="635.2373" y2="635.2373"/></g><!--class Manage--><g id="elem_Manage"><rect codeLine="46" fill="#0B58A8" height="95.0439" id="Manage" rx="2.5" ry="2.5" style="stroke:#FFFFFF;stroke-width:1.0;" width="160" x="1252" y="367.7373"/><ellipse cx="1301.75" cy="381.7373" fill="#0B58A8" rx="9" ry="9" style="stroke:#FFFFFF;stroke-width:1.0;"/><path d="M1296.8594,383.7842 L1299.25,383.5498 Q1299.4688,384.7529 1300.125,385.3154 Q1300.7969,385.8779 1301.9063,385.8779 Q1303.0938,385.8779 1303.6875,385.3779 Q1304.2969,384.8779 1304.2969,384.2061 Q1304.2969,383.7686 1304.0469,383.4717 Q1303.7969,383.1592 1303.1719,382.9404 Q1302.7344,382.7842 1301.2031,382.4092 Q1299.2188,381.9248 1298.4219,381.2061 Q1297.2969,380.2061 1297.2969,378.7529 Q1297.2969,377.8311 1297.8281,377.0186 Q1298.3594,376.2061 1299.3438,375.7842 Q1300.3438,375.3623 1301.75,375.3623 Q1304.0313,375.3623 1305.1875,376.3623 Q1306.3594,377.3623 1306.4063,379.0498 L1303.9531,379.1592 Q1303.7969,378.2217 1303.2813,377.8154 Q1302.7656,377.3936 1301.7188,377.3936 Q1300.6563,377.3936 1300.0469,377.8311 Q1299.6563,378.1123 1299.6563,378.5967 Q1299.6563,379.0186 1300.0156,379.3311 Q1300.4844,379.7217 1302.2656,380.1436 Q1304.0625,380.5654 1304.9219,381.0186 Q1305.7813,381.4717 1306.2656,382.2529 Q1306.7656,383.0342 1306.7656,384.1904 Q1306.7656,385.2373 1306.1719,386.1592 Q1305.5938,387.0654 1304.5313,387.5186 Q1303.4688,387.9561 1301.8906,387.9561 Q1299.5781,387.9561 1298.3438,386.8936 Q1297.1094,385.8154 1296.8594,383.7842 Z " fill="#FFFFFF"/><text fill="#FFFFFF" font-family="Verdana" font-size="14" lengthAdjust="spacing" textLength="53" x="1319.25" y="387.3052">Manage</text><line style="stroke:#FFFFFF;stroke-width:1.0;" x1="1253" x2="1411" y1="395.7373" y2="395.7373"/><rect fill="none" height="6" style="stroke:#FFFFFF;stroke-width:1.0;" width="6" x="1260" y="406.7446"/><text fill="#FFFFFF" font-family="Verdana" font-size="14" lengthAdjust="spacing" textLength="59" x="1270" y="413.8125">raft Raft</text><rect fill="none" height="6" style="stroke:#FFFFFF;stroke-width:1.0;" width="6" x="1260" y="423.7593"/><text fill="#FFFFFF" font-family="Verdana" font-size="14" lengthAdjust="spacing" textLength="135" x="1270" y="430.8271">LogStore LogStore</text><rect fill="none" height="6" style="stroke:#FFFFFF;stroke-width:1.0;" width="6" x="1260" y="440.7739"/><text fill="#FFFFFF" font-family="Verdana" font-size="14" lengthAdjust="spacing" textLength="136" x="1270" y="447.8418">followers []Follower</text><line style="stroke:#FFFFFF;stroke-width:1.0;" x1="1253" x2="1411" y1="454.7813" y2="454.7813"/></g><!--class LogStore--><g id="elem_LogStore"><rect codeLine="52" fill="#0B58A8" height="44" id="LogStore" rx="2.5" ry="2.5" style="stroke:#FFFFFF;stroke-width:1.0;" width="93" x="1400.5" y="599.2373"/><ellipse cx="1413.5" cy="613.2373" fill="#0B58A8" rx="9" ry="9" style="stroke:#FFFFFF;stroke-width:1.0;"/><path d="M1408.6094,615.2842 L1411,615.0498 Q1411.2188,616.2529 1411.875,616.8154 Q1412.5469,617.3779 1413.6563,617.3779 Q1414.8438,617.3779 1415.4375,616.8779 Q1416.0469,616.3779 1416.0469,615.7061 Q1416.0469,615.2686 1415.7969,614.9717 Q1415.5469,614.6592 1414.9219,614.4404 Q1414.4844,614.2842 1412.9531,613.9092 Q1410.9688,613.4248 1410.1719,612.7061 Q1409.0469,611.7061 1409.0469,610.2529 Q1409.0469,609.3311 1409.5781,608.5186 Q1410.1094,607.7061 1411.0938,607.2842 Q1412.0938,606.8623 1413.5,606.8623 Q1415.7813,606.8623 1416.9375,607.8623 Q1418.1094,608.8623 1418.1563,610.5498 L1415.7031,610.6592 Q1415.5469,609.7217 1415.0313,609.3154 Q1414.5156,608.8936 1413.4688,608.8936 Q1412.4063,608.8936 1411.7969,609.3311 Q1411.4063,609.6123 1411.4063,610.0967 Q1411.4063,610.5186 1411.7656,610.8311 Q1412.2344,611.2217 1414.0156,611.6436 Q1415.8125,612.0654 1416.6719,612.5186 Q1417.5313,612.9717 1418.0156,613.7529 Q1418.5156,614.5342 1418.5156,615.6904 Q1418.5156,616.7373 1417.9219,617.6592 Q1417.3438,618.5654 1416.2813,619.0186 Q1415.2188,619.4561 1413.6406,619.4561 Q1411.3281,619.4561 1410.0938,618.3936 Q1408.8594,617.3154 1408.6094,615.2842 Z " fill="#FFFFFF"/><text fill="#FFFFFF" font-family="Verdana" font-size="14" lengthAdjust="spacing" textLength="65" x="1425.5" y="618.8052">LogStore</text><line style="stroke:#FFFFFF;stroke-width:1.0;" x1="1401.5" x2="1492.5" y1="627.2373" y2="627.2373"/><line style="stroke:#FFFFFF;stroke-width:1.0;" x1="1401.5" x2="1492.5" y1="635.2373" y2="635.2373"/></g><!--class Node--><g id="elem_Node"><rect codeLine="60" fill="#0B58A8" height="61.0146" id="Node" rx="2.5" ry="2.5" style="stroke:#FFFFFF;stroke-width:1.0;" width="146" x="521" y="384.7373"/><ellipse cx="572.25" cy="398.7373" fill="#0B58A8" rx="9" ry="9" style="stroke:#FFFFFF;stroke-width:1.0;"/><path d="M571.4063,404.7373 L571.4063,392.5654 L573.875,392.5654 L573.875,404.7373 L571.4063,404.7373 Z " fill="#FFFFFF"/><text fill="#FFFFFF" font-family="Verdana" font-size="14" font-style="italic" lengthAdjust="spacing" textLength="36" x="589.75" y="404.3052">Node</text><line style="stroke:#FFFFFF;stroke-width:1.0;" x1="522" x2="666" y1="412.7373" y2="412.7373"/><line style="stroke:#FFFFFF;stroke-width:1.0;" x1="522" x2="666" y1="420.7373" y2="420.7373"/><ellipse cx="532" cy="434.7446" fill="#0B58A8" rx="3" ry="3" style="stroke:#FFFFFF;stroke-width:1.0;"/><text fill="#FFFFFF" font-family="Verdana" font-size="14" lengthAdjust="spacing" textLength="122" x="539" y="438.8125">HeartbeatTicker()</text></g><!--class Raft--><g id="elem_Raft"><rect codeLine="63" fill="#0B58A8" height="61.0146" id="Raft" rx="2.5" ry="2.5" style="stroke:#FFFFFF;stroke-width:1.0;" width="202" x="702" y="384.7373"/><ellipse cx="784.75" cy="398.7373" fill="#0B58A8" rx="9" ry="9" style="stroke:#FFFFFF;stroke-width:1.0;"/><path d="M783.9063,404.7373 L783.9063,392.5654 L786.375,392.5654 L786.375,404.7373 L783.9063,404.7373 Z " fill="#FFFFFF"/><text fill="#FFFFFF" font-family="Verdana" font-size="14" font-style="italic" lengthAdjust="spacing" textLength="29" x="802.25" y="404.3052">Raft</text><line style="stroke:#FFFFFF;stroke-width:1.0;" x1="703" x2="903" y1="412.7373" y2="412.7373"/><line style="stroke:#FFFFFF;stroke-width:1.0;" x1="703" x2="903" y1="420.7373" y2="420.7373"/><ellipse cx="713" cy="434.7446" fill="#0B58A8" rx="3" ry="3" style="stroke:#FFFFFF;stroke-width:1.0;"/><text fill="#FFFFFF" font-family="Verdana" font-size="14" lengthAdjust="spacing" textLength="178" x="720" y="438.8125">EndOfTerm(newTerm int)</text></g><!--class node--><g id="elem_node"><rect codeLine="66" fill="#0B58A8" height="44" id="node" rx="2.5" ry="2.5" style="stroke:#FFFFFF;stroke-width:1.0;" width="63" x="666.5" y="161.7373"/><ellipse cx="679.5" cy="175.7373" fill="#0B58A8" rx="9" ry="9" style="stroke:#FFFFFF;stroke-width:1.0;"/><path d="M674.6094,177.7842 L677,177.5498 Q677.2188,178.7529 677.875,179.3154 Q678.5469,179.8779 679.6563,179.8779 Q680.8438,179.8779 681.4375,179.3779 Q682.0469,178.8779 682.0469,178.2061 Q682.0469,177.7686 681.7969,177.4717 Q681.5469,177.1592 680.9219,176.9404 Q680.4844,176.7842 678.9531,176.4092 Q676.9688,175.9248 676.1719,175.2061 Q675.0469,174.2061 675.0469,172.7529 Q675.0469,171.8311 675.5781,171.0186 Q676.1094,170.2061 677.0938,169.7842 Q678.0938,169.3623 679.5,169.3623 Q681.7813,169.3623 682.9375,170.3623 Q684.1094,171.3623 684.1563,173.0498 L681.7031,173.1592 Q681.5469,172.2217 681.0313,171.8154 Q680.5156,171.3936 679.4688,171.3936 Q678.4063,171.3936 677.7969,171.8311 Q677.4063,172.1123 677.4063,172.5967 Q677.4063,173.0186 677.7656,173.3311 Q678.2344,173.7217 680.0156,174.1436 Q681.8125,174.5654 682.6719,175.0186 Q683.5313,175.4717 684.0156,176.2529 Q684.5156,177.0342 684.5156,178.1904 Q684.5156,179.2373 683.9219,180.1592 Q683.3438,181.0654 682.2813,181.5186 Q681.2188,181.9561 679.6406,181.9561 Q677.3281,181.9561 676.0938,180.8936 Q674.8594,179.8154 674.6094,177.7842 Z " fill="#FFFFFF"/><text fill="#FFFFFF" font-family="Verdana" font-size="14" lengthAdjust="spacing" textLength="35" x="691.5" y="181.3052">node</text><line style="stroke:#FFFFFF;stroke-width:1.0;" x1="667.5" x2="728.5" y1="189.7373" y2="189.7373"/><line style="stroke:#FFFFFF;stroke-width:1.0;" x1="667.5" x2="728.5" y1="197.7373" y2="197.7373"/></g><!--class Raft--><g id="elem_Raft"><rect codeLine="71" fill="#0B58A8" height="248.1758" id="Raft" rx="2.5" ry="2.5" style="stroke:#FFFFFF;stroke-width:1.0;" width="289" x="936.5" y="59.7373"/><ellipse cx="1062.75" cy="73.7373" fill="#0B58A8" rx="9" ry="9" style="stroke:#FFFFFF;stroke-width:1.0;"/><path d="M1057.8594,75.7842 L1060.25,75.5498 Q1060.4688,76.7529 1061.125,77.3154 Q1061.7969,77.8779 1062.9063,77.8779 Q1064.0938,77.8779 1064.6875,77.3779 Q1065.2969,76.8779 1065.2969,76.2061 Q1065.2969,75.7686 1065.0469,75.4717 Q1064.7969,75.1592 1064.1719,74.9404 Q1063.7344,74.7842 1062.2031,74.4092 Q1060.2188,73.9248 1059.4219,73.2061 Q1058.2969,72.2061 1058.2969,70.7529 Q1058.2969,69.8311 1058.8281,69.0186 Q1059.3594,68.2061 1060.3438,67.7842 Q1061.3438,67.3623 1062.75,67.3623 Q1065.0313,67.3623 1066.1875,68.3623 Q1067.3594,69.3623 1067.4063,71.0498 L1064.9531,71.1592 Q1064.7969,70.2217 1064.2813,69.8154 Q1063.7656,69.3936 1062.7188,69.3936 Q1061.6563,69.3936 1061.0469,69.8311 Q1060.6563,70.1123 1060.6563,70.5967 Q1060.6563,71.0186 1061.0156,71.3311 Q1061.4844,71.7217 1063.2656,72.1436 Q1065.0625,72.5654 1065.9219,73.0186 Q1066.7813,73.4717 1067.2656,74.2529 Q1067.7656,75.0342 1067.7656,76.1904 Q1067.7656,77.2373 1067.1719,78.1592 Q1066.5938,79.0654 1065.5313,79.5186 Q1064.4688,79.9561 1062.8906,79.9561 Q1060.5781,79.9561 1059.3438,78.8936 Q1058.1094,77.8154 1057.8594,75.7842 Z " fill="#FFFFFF"/><text fill="#FFFFFF" font-family="Verdana" font-size="14" lengthAdjust="spacing" textLength="29" x="1080.25" y="79.3052">Raft</text><line style="stroke:#FFFFFF;stroke-width:1.0;" x1="937.5" x2="1224.5" y1="87.7373" y2="87.7373"/><rect fill="none" height="6" style="stroke:#FFFFFF;stroke-width:1.0;" width="6" x="944.5" y="98.7446"/><text fill="#FFFFFF" font-family="Verdana" font-size="14" lengthAdjust="spacing" textLength="144" x="954.5" y="105.8125">log Commit.Manager</text><rect fill="none" height="6" style="stroke:#FFFFFF;stroke-width:1.0;" width="6" x="944.5" y="115.7593"/><text fill="#FFFFFF" font-family="Verdana" font-size="14" lengthAdjust="spacing" textLength="171" x="954.5" y="122.8271">election Election.Election</text><rect fill="none" height="6" style="stroke:#FFFFFF;stroke-width:1.0;" width="6" x="944.5" y="132.7739"/><text fill="#FFFFFF" font-family="Verdana" font-size="14" lengthAdjust="spacing" textLength="136" x="954.5" y="139.8418">nodes []Node.node</text><line style="stroke:#FFFFFF;stroke-width:1.0;" x1="937.5" x2="1224.5" y1="146.7813" y2="146.7813"/><ellipse cx="947.5" cy="160.7886" fill="#0B58A8" rx="3" ry="3" style="stroke:#FFFFFF;stroke-width:1.0;"/><text fill="#FFFFFF" font-family="Verdana" font-size="14" lengthAdjust="spacing" textLength="140" x="954.5" y="164.8564">Start(c Interface{})</text><ellipse cx="947.5" cy="177.8032" fill="#0B58A8" rx="3" ry="3" style="stroke:#FFFFFF;stroke-width:1.0;"/><text fill="#FFFFFF" font-family="Verdana" font-size="14" lengthAdjust="spacing" textLength="265" x="954.5" y="181.8711">Snapshot(index int, snapshot []byte)</text><ellipse cx="947.5" cy="194.8179" fill="#0B58A8" rx="3" ry="3" style="stroke:#FFFFFF;stroke-width:1.0;"/><text fill="#FFFFFF" font-family="Verdana" font-size="14" lengthAdjust="spacing" textLength="122" x="954.5" y="198.8857">ApplyCommand()</text><ellipse cx="947.5" cy="211.8325" fill="#0B58A8" rx="3" ry="3" style="stroke:#FFFFFF;stroke-width:1.0;"/><text fill="#FFFFFF" font-family="Verdana" font-size="14" lengthAdjust="spacing" textLength="119" x="954.5" y="215.9004">ApplySnapshot()</text><ellipse cx="947.5" cy="228.8472" fill="#0B58A8" rx="3" ry="3" style="stroke:#FFFFFF;stroke-width:1.0;"/><text fill="#FFFFFF" font-family="Verdana" font-size="14" lengthAdjust="spacing" textLength="141" x="954.5" y="232.915">UpdateApplyIndex()</text><ellipse cx="947.5" cy="245.8618" fill="#0B58A8" rx="3" ry="3" style="stroke:#FFFFFF;stroke-width:1.0;"/><text fill="#FFFFFF" font-family="Verdana" font-size="14" lengthAdjust="spacing" textLength="59" x="954.5" y="249.9297">Persist()</text><ellipse cx="947.5" cy="262.8765" fill="#0B58A8" rx="3" ry="3" style="stroke:#FFFFFF;stroke-width:1.0;"/><text fill="#FFFFFF" font-family="Verdana" font-size="14" lengthAdjust="spacing" textLength="149" x="954.5" y="266.9443">WinElection(term int)</text><ellipse cx="947.5" cy="279.8911" fill="#0B58A8" rx="3" ry="3" style="stroke:#FFFFFF;stroke-width:1.0;"/><text fill="#FFFFFF" font-family="Verdana" font-size="14" lengthAdjust="spacing" textLength="144" x="954.5" y="283.959">FailElection(term int)</text><ellipse cx="947.5" cy="296.9058" fill="#0B58A8" rx="3" ry="3" style="stroke:#FFFFFF;stroke-width:1.0;"/><text fill="#FFFFFF" font-family="Verdana" font-size="14" lengthAdjust="spacing" textLength="178" x="954.5" y="300.9736">EndOfTerm(newTerm int)</text></g><g id="elem_GMN35"><path d="M1260.5,178.7373 L1260.5,179.7373 L1225.73,183.7373 L1260.5,187.7373 L1260.5,188.7373 A0,0 0 0 0 1260.5,188.7373 L1281.5,188.7373 A0,0 0 0 0 1281.5,188.7373 L1281.5,188.7373 L1271.5,178.7373 L1260.5,178.7373 A0,0 0 0 0 1260.5,178.7373 " fill="#0B58A8" style="stroke:#FFFFFF;stroke-width:1.0;"/><path d="M1271.5,178.7373 L1271.5,188.7373 L1281.5,188.7373 L1271.5,178.7373 " fill="#0B58A8" style="stroke:#FFFFFF;stroke-width:1.0;"/></g><!--reverse link election to Voter--><g id="link_election_Voter"><path codeLine="21" d="M153.9126,463.9587 C138.2226,483.7387 126.95,499.2073 112,522.7373 C95.91,548.0473 80.38,578.9873 70.77,599.1273 " fill="none" id="election-backto-Voter" style="stroke:#FFFFFF;stroke-width:1.0;"/><polygon fill="none" points="161.37,454.5573,154.5075,456.7722,153.9126,463.9587,160.7751,461.7438,161.37,454.5573" style="stroke:#FFFFFF;stroke-width:1.0;"/></g><!--reverse link election to Candidate--><g id="link_election_Candidate"><path codeLine="22" d="M235.8608,463.4968 C268.9308,499.9668 310.34,545.6273 343.36,582.0373 " fill="none" id="election-backto-Candidate" style="stroke:#FFFFFF;stroke-width:1.0;"/><polygon fill="none" points="227.8,454.6073,228.8672,461.739,235.8608,463.4968,234.7936,456.3651,227.8,454.6073" style="stroke:#FFFFFF;stroke-width:1.0;"/></g><!--link election to Election--><g id="link_election_Election"><path codeLine="24" d="M193,454.6073 C193,488.3073 193,519.4473 193,555.4473 " fill="none" id="election-to-Election" style="stroke:#FFFFFF;stroke-width:1.0;"/><polygon fill="none" points="193,573.4473,199,555.4473,187,555.4473,193,573.4473" style="stroke:#FFFFFF;stroke-width:1.0;"/></g><!--reverse link Manage to Raft--><g id="link_Manage_Raft"><path codeLine="53" d="M1318.0152,474.4549 C1310.6952,504.9049 1303.91,533.1773 1296.22,565.2073 " fill="none" id="Manage-backto-Raft" style="stroke:#FFFFFF;stroke-width:1.0;"/><polygon fill="none" points="1320.82,462.7873,1315.5284,467.6862,1318.0152,474.4549,1323.3068,469.556,1320.82,462.7873" style="stroke:#FFFFFF;stroke-width:1.0;"/></g><!--reverse link Manage to Follower--><g id="link_Manage_Follower"><path codeLine="54" d="M1244.7812,469.8043 C1220.2212,486.7943 1203.91,500.4973 1183,522.7373 C1161.12,546.0073 1142.76,578.2773 1132.07,599.2073 " fill="none" id="Manage-backto-Follower" style="stroke:#FFFFFF;stroke-width:1.0;"/><polygon fill="none" points="1254.65,462.9773,1247.44,463.1012,1244.7812,469.8043,1251.9913,469.6804,1254.65,462.9773" style="stroke:#FFFFFF;stroke-width:1.0;"/></g><!--reverse link Manage to LogStore--><g id="link_Manage_LogStore"><path codeLine="55" d="M1364.1333,473.2405 C1388.2633,516.0405 1417.05,567.1073 1435.09,599.1073 " fill="none" id="Manage-backto-LogStore" style="stroke:#FFFFFF;stroke-width:1.0;"/><polygon fill="none" points="1358.24,462.7873,1357.7023,469.9783,1364.1333,473.2405,1364.6711,466.0494,1358.24,462.7873" style="stroke:#FFFFFF;stroke-width:1.0;"/></g><!--link Manage to Manager--><g id="link_Manage_Manager"><path codeLine="56" d="M1412.14,458.5273 C1444,476.7073 1480.31,499.1773 1511,522.7373 C1516.96,527.3173 1509.2883,520.4973 1515.1983,525.5673 " fill="none" id="Manage-to-Manager" style="stroke:#FFFFFF;stroke-width:1.0;"/><polygon fill="none" points="1528.86,537.2873,1519.1049,521.0134,1511.2916,530.1213,1528.86,537.2873" style="stroke:#FFFFFF;stroke-width:1.0;"/></g><!--link node to Node--><g id="link_node_Node"><path codeLine="67" d="M688.4,205.9173 C669.8,246.9773 636.2106,321.0926 614.8906,368.1326 " fill="none" id="node-to-Node" style="stroke:#FFFFFF;stroke-width:1.0;"/><polygon fill="none" points="607.46,384.5273,620.3555,370.6095,609.4257,365.6557,607.46,384.5273" style="stroke:#FFFFFF;stroke-width:1.0;"/></g><!--reverse link node to Raft--><g id="link_node_Raft"><path codeLine="68" d="M712.6813,216.83 C731.4613,257.89 767.88,337.4873 789.41,384.5273 " fill="none" id="node-backto-Raft" style="stroke:#FFFFFF;stroke-width:1.0;"/><polygon fill="none" points="707.69,205.9173,706.5481,213.0374,712.6813,216.83,713.8232,209.7099,707.69,205.9173" style="stroke:#FFFFFF;stroke-width:1.0;"/></g><!--reverse link Raft to Node--><g id="link_Raft_Node"><path codeLine="86" d="M925.3084,305.9775 C919.9584,308.4775 925.43,305.6973 920,307.7373 C821.61,344.7773 779.65,280.1073 684,323.7373 C655.17,336.8873 630.47,363.5873 614.27,384.5873 " fill="none" id="Raft-backto-Node" style="stroke:#FFFFFF;stroke-width:1.0;"/><polygon fill="none" points="936.18,300.8973,929.0508,299.8135,925.3084,305.9775,932.4376,307.0613,936.18,300.8973" style="stroke:#FFFFFF;stroke-width:1.0;"/></g><!--reverse link Raft to Election--><g id="link_Raft_Election"><path codeLine="87" d="M981.9544,318.2439 C978.7544,323.4939 981.91,318.5073 979,323.7373 C944.92,384.8673 976.37,428.2573 920,469.7373 C803.98,555.0973 401.78,456.2573 274,522.7373 C251.94,534.2173 233.57,554.5573 219.94,573.6973 " fill="none" id="Raft-backto-Election" style="stroke:#FFFFFF;stroke-width:1.0;"/><polygon fill="none" points="988.2,307.9973,981.6617,311.0388,981.9544,318.2439,988.4928,315.2025,988.2,307.9973" style="stroke:#FFFFFF;stroke-width:1.0;"/></g><!--reverse link Raft to Manager--><g id="link_Raft_Manager"><path codeLine="88" d="M1236.6366,305.4828 C1242.3266,308.2028 1237.23,305.5173 1243,307.7373 C1281.92,322.7173 1394.53,301.7973 1430,323.7373 C1502.7,368.7173 1550.38,454.7873 1578.47,522.6573 " fill="none" id="Raft-backto-Manager" style="stroke:#FFFFFF;stroke-width:1.0;"/><polygon fill="none" points="1225.81,300.3073,1229.4981,306.5039,1236.6366,305.4828,1232.9484,299.2862,1225.81,300.3073" style="stroke:#FFFFFF;stroke-width:1.0;"/></g><!--link Raft to Candidate--><g id="link_Raft_Candidate"><path codeLine="90" d="M1065.87,307.9073 C1052.8,364.4873 1028.43,428.1173 983,469.7373 C907.49,538.9273 630.8139,585.5555 482.3639,606.4755 " fill="none" id="Raft-to-Candidate" style="stroke:#FFFFFF;stroke-width:1.0;"/><polygon fill="none" points="464.54,608.9873,483.2011,612.4168,481.5266,600.5342,464.54,608.9873" style="stroke:#FFFFFF;stroke-width:1.0;"/></g><!--link Raft to Raft--><g id="link_Raft_Raft"><path codeLine="91" d="M1138.08,307.7873 C1177.33,392.4273 1220.0157,484.4485 1249.8557,548.7785 " fill="none" id="Raft-to-Raft" style="stroke:#FFFFFF;stroke-width:1.0;"/><polygon fill="none" points="1257.43,565.1073,1255.2987,546.2537,1244.4128,551.3032,1257.43,565.1073" style="stroke:#FFFFFF;stroke-width:1.0;"/></g><!--link Raft to Raft--><g id="link_Raft_Raft"><path codeLine="92" d="M936.3,304.1973 C900.02,334.1473 878.1435,352.2109 852.8035,373.1209 " fill="none" id="Raft-to-Raft-1" style="stroke:#FFFFFF;stroke-width:1.0;"/><polygon fill="none" points="838.92,384.5773,856.6223,377.7488,848.9847,368.4931,838.92,384.5773" style="stroke:#FFFFFF;stroke-width:1.0;"/></g><!--link Node to Voter--><g id="link_Node_Voter"><path codeLine="94" d="M540.14,445.7673 C521.83,454.7073 500.95,463.7273 481,469.7373 C322.35,517.4973 247.25,427.0473 112,522.7373 C86.27,540.9473 77.479,558.8839 70.959,581.6339 " fill="none" id="Node-to-Voter" style="stroke:#FFFFFF;stroke-width:1.0;"/><polygon fill="none" points="66,598.9373,76.7268,583.2869,65.1912,579.9809,66,598.9373" style="stroke:#FFFFFF;stroke-width:1.0;"/></g><!--link Node to Follower--><g id="link_Node_Follower"><path codeLine="95" d="M639.72,445.8773 C653.62,454.2073 669.15,462.8673 684,469.7373 C823.18,534.1773 980.7888,581.3219 1060.9288,603.6219 " fill="none" id="Node-to-Follower" style="stroke:#FFFFFF;stroke-width:1.0;"/><polygon fill="none" points="1078.27,608.4473,1062.5373,597.8415,1059.3204,609.4023,1078.27,608.4473" style="stroke:#FFFFFF;stroke-width:1.0;"/></g><text fill="#FFFFFF" font-family="Verdana" font-size="10" lengthAdjust="spacing" textLength="233" x="737" y="756.791">@github.com/ZiRunHua/MIT6.824-6.5840</text><!--SRC=[xLXTS-8s57sEVuKwVO5fOGdvs9JPsLaWa6GBBBCcsPbs-Y1i0MfioPLb4ZRbl_TAbhymR7OJ-WOpoTX7L-TUdtjrPKjIwH7q6Sya6cFd7i-9zPDS49yWxDCvji9xoW8ii8ywC3mNF69kbtjSe9yRZRTlEprhnhaa0dsOKxc8fdM7-s_-e9yZTXtXDyERoNdzedbQEw-VNPmsBEC2zJpYIChPatLqms3s33i5yEWND1Ra3eWhLJJbtDFG9QzKzKMFkUfgRHtPKaIEHCHCHMfk3JcOkTJ5ag1kSgNnfOeqH7_-fPY59iZS6om3qhbnG5yeIoAiW8cFA9DnE7rClMr3QyiwIYFZjLhYee1b4UO6QhL_twTwMC2J2DVblazbGJQTkpZ4TX1uAsM2Ou4Io6Ou21TS6kmsKFxqo0rpoQE1nw0D3QLHDdCmn0nSYym7ITdj5NDiYMKKvW1DREwlY1pmUOz9iIeutuW8p8ntmkGbbjZW0uvJLn8BcLxpe1HcdtiUVr3wcgA8uuuhGYYHb5Bw3a822a7I2utE384ga8nC9T4GPjOnjSvVJ9e3igavi3HLPzWecq_mYBkaa5u3m5DV4r1WIh2SKEUUY980AfAdP7rycasW42kCF4po1Pay2WDMwqZzZoCPPVVfGq5Knjemrv37vwO4wqdiWAPbcrHiFIrT65MaIbBbeXxxJRBfe3JwftLLuqbTK5MOAknVKMWmu9Yk9D5scvM-fT2trtcXp7SkwjrhUgUue9PUYKe-_QXQqXGgIvCERGWQ3nGwG3rh4jcWcQPJbQ7QjSQiD8eDihWBROmQjhHu6HWXGUSBY74MruC5wnuftFe0LvOborj7_7iNofL7tbi82TWRe6yW-9MtZyxPHVj2Z_KvamRjwr-AZZ3iH7T4k22E1gzN0H43okuJ-ylsIVDC3m5AoYmAdInWnJ0IXkXOOqCivfGXDMqDVovt8XyQZudKmO7PIn0gCpGqkjR_pTRtlE62OFUx36DD4pkbW4s_4jHiFZDJ_IbrW-kyfvBc6-fkpuIjiWUxhkSQOjqMdenoZzIF_2_KbGjqqcWO2q5cH13caF_3VKZK2mXqpttIldjZYZJtXjCMWZyCO0NGW0T5xc-z1iL-CejBCiEH9qlbMx8OSiR309gVczfsUIGeBB_CTa1dn8EiGok6zJzVGJP2xb4tPpA6NaeT6c0cnzXrAPkZuqPkt2R_H2evYaeLK8SBIDAk1xGNsEKFYcI6lP3aHcv3qY4Inqh2pa0Aua5pMLAvqadQlTWxM6ncRLiustj2IT9rFZ7A7HPn0ENPHTD7RPMeTLOOxLBXUCJjBk3EITRtji8gPGr1DtHf5ABVYeGUXiNwZ2xx4K6xQaifw3IIP8SKtyDXmuCJBg7RleoadxN67vwRQo8_FbVj3x1UxlNquYQHjxjnE4lUkVAMQL7ko5I9Gz0bbg_b0AsWqjpNiKHJZpelfXZnbzRBf-dV47rStrkgU5teL9dYUwfuzVb1Nh2uYXn9iRUtCtspLsrdwkwDgRStffkzCOrUoGHRIHU792QSlBZB7Cua3cSIXpE9mvd4uKpYS2QXpoJ67dm4tGu7QAaKXVGVrvkDvcdzfD8N5FN951sVeyP9wxJHQfoXhZr1QhXgLQx6WsKJXV0Y3rNhGYxq6pGmLAsFU8aHR1wI-gI5r5rbCgmYkvU08F-I2ixK6OBryMuO6w5hBkq0ygwCpqzh7IhXIqn0OEXkQ9bFG9ZgSFKDqa9NdT-j0MRp21HleQyB2xugL8zgeUxeFm00]--></g></svg>