<?xml version="1.0" encoding="us-ascii" standalone="no"?><svg xmlns="http://www.w3.org/2000/svg" xmlns:xlink="http://www.w3.org/1999/xlink" contentStyleType="text/css" height="1043.75px" preserveAspectRatio="none" style="width:1708px;height:1043px;" version="1.1" viewBox="0 0 1708 1043" width="1708.3333px" zoomAndPan="magnify"><defs><linearGradient id="gj22nhxa6zqni0" x1="50%" x2="50%" y1="0%" y2="100%"><stop offset="0%" stop-color="#2FA4E7"/><stop offset="100%" stop-color="#2683B9"/></linearGradient></defs><g><rect fill="none" height="48.2361" id="_title" rx="4.1667" ry="4.1667" style="stroke:#BABDBF;stroke-width:1.0416666666666667;" width="175" x="761.9792" y="20.8333"/><text fill="#2FA4E7" font-family="Verdana" font-size="20.8333" font-weight="bold" lengthAdjust="spacing" textLength="152.0833" x="773.4375" y="53.2369">Raft Package</text><!--cluster Election--><g id="cluster_Election"><path d="M20.8333,461.2569 L83.3333,461.2569 A6.25,6.25 0 0 1 87.5,465.4236 L94.7917,493.1152 L479.1667,493.1152 A4.1667,4.1667 0 0 1 483.3333,497.2819 L483.3333,890.4236 A4.1667,4.1667 0 0 1 479.1667,894.5903 L20.8333,894.5903 A4.1667,4.1667 0 0 1 16.6667,890.4236 L16.6667,465.4236 A4.1667,4.1667 0 0 1 20.8333,461.2569 " fill="none" style="stroke:#2FA4E7;stroke-width:2.0833333333333335;"/><line style="stroke:#2FA4E7;stroke-width:2.0833333333333335;" x1="16.6667" x2="94.7917" y1="493.1152" y2="493.1152"/><text fill="#2FA4E7" font-family="Verdana" font-size="12.5" font-weight="bold" lengthAdjust="spacing" textLength="54.1667" x="26.0417" y="481.1157">Election</text></g><!--cluster Commit--><g id="cluster_Commit"><path d="M1059.375,449.2778 L1119.7917,449.2778 A6.25,6.25 0 0 1 1123.9583,453.4444 L1131.25,481.1361 L1691.6667,481.1361 A4.1667,4.1667 0 0 1 1695.8333,485.3027 L1695.8333,963.8611 A4.1667,4.1667 0 0 1 1691.6667,968.0278 L1059.375,968.0278 A4.1667,4.1667 0 0 1 1055.2083,963.8611 L1055.2083,453.4444 A4.1667,4.1667 0 0 1 1059.375,449.2778 " fill="none" style="stroke:#2FA4E7;stroke-width:2.0833333333333335;"/><line style="stroke:#2FA4E7;stroke-width:2.0833333333333335;" x1="1055.2083" x2="1131.25" y1="481.1361" y2="481.1361"/><text fill="#2FA4E7" font-family="Verdana" font-size="12.5" font-weight="bold" lengthAdjust="spacing" textLength="52.0833" x="1064.5833" y="469.1366">Commit</text></g><!--cluster Node--><g id="cluster_Node"><path d="M512.5,189.3819 L556.25,189.3819 A6.25,6.25 0 0 1 560.4167,193.5486 L567.7083,221.2402 L903.125,221.2402 A4.1667,4.1667 0 0 1 907.2917,225.4069 L907.2917,606.5694 A4.1667,4.1667 0 0 1 903.125,610.7361 L512.5,610.7361 A4.1667,4.1667 0 0 1 508.3333,606.5694 L508.3333,193.5486 A4.1667,4.1667 0 0 1 512.5,189.3819 " fill="none" style="stroke:#2FA4E7;stroke-width:2.0833333333333335;"/><line style="stroke:#2FA4E7;stroke-width:2.0833333333333335;" x1="508.3333" x2="567.7083" y1="221.2402" y2="221.2402"/><text fill="#2FA4E7" font-family="Verdana" font-size="12.5" font-weight="bold" lengthAdjust="spacing" textLength="35.4167" x="517.7083" y="209.2407">Node</text></g><!--class Election--><g id="elem_Election"><rect codeLine="5" fill="none" height="124.4527" id="Election" rx="4.1667" ry="4.1667" style="stroke:#2FA4E7;stroke-width:1.0416666666666667;" width="122.9167" x="144.7917" y="753.9653"/><rect fill="url(#gj22nhxa6zqni0)" height="34.759" rx="4.1667" ry="4.1667" style="stroke:url(#gj22nhxa6zqni0);stroke-width:1.0416666666666667;" width="122.9167" x="144.7917" y="753.9653"/><rect fill="url(#gj22nhxa6zqni0)" height="4.1667" style="stroke:url(#gj22nhxa6zqni0);stroke-width:1.0416666666666667;" width="122.9167" x="144.7917" y="784.5576"/><rect codeLine="5" fill="none" height="124.4527" id="Election" rx="4.1667" ry="4.1667" style="stroke:#2FA4E7;stroke-width:1.0416666666666667;" width="122.9167" x="144.7917" y="753.9653"/><ellipse cx="175.3125" cy="771.3448" fill="none" rx="10.4167" ry="10.4167" style="stroke:#2683B9;stroke-width:1.0416666666666667;"/><path d="M173.8802,767.2595 L173.8802,766.5759 L178.1771,766.5759 L178.1771,767.2595 L176.8587,767.2595 Q176.7285,767.2595 176.6634,767.3083 Q176.6146,767.3571 176.6146,767.4548 L176.6146,774.4372 Q176.6146,774.5349 176.6634,774.5837 Q176.7285,774.6325 176.8587,774.6325 L178.1771,774.6325 L178.1771,775.3161 L173.8802,775.3161 L173.8802,774.6325 L175.1986,774.6325 Q175.3613,774.6325 175.3939,774.6 Q175.4427,774.5511 175.4427,774.4372 L175.4427,767.4548 Q175.4427,767.3409 175.3939,767.3083 Q175.3613,767.2595 175.1986,767.2595 L173.8802,767.2595 Z " fill="#2FA4E7"/><text fill="#343A40" font-family="Verdana" font-size="11.4583" font-style="italic" lengthAdjust="spacing" textLength="45.8333" x="197.6042" y="775.9018">Election</text><line style="stroke:#2FA4E7;stroke-width:1.0416666666666667;" x1="145.8333" x2="266.6667" y1="788.7243" y2="788.7243"/><line style="stroke:#2FA4E7;stroke-width:1.0416666666666667;" x1="145.8333" x2="266.6667" y1="797.0576" y2="797.0576"/><ellipse cx="156.25" cy="814.9579" fill="none" rx="3.125" ry="3.125" style="stroke:#2683B9;stroke-width:1.0416666666666667;"/><text fill="#343A40" font-family="Verdana" font-size="11.4583" lengthAdjust="spacing" textLength="86.4583" x="169.7917" y="817.9525">PreVote() bool</text><ellipse cx="156.25" cy="839.3003" fill="none" rx="3.125" ry="3.125" style="stroke:#2683B9;stroke-width:1.0416666666666667;"/><text fill="#343A40" font-family="Verdana" font-size="11.4583" lengthAdjust="spacing" textLength="27.0833" x="169.7917" y="842.2948">Do()</text><ellipse cx="156.25" cy="863.6426" fill="none" rx="3.125" ry="3.125" style="stroke:#2683B9;stroke-width:1.0416666666666667;"/><text fill="#343A40" font-family="Verdana" font-size="11.4583" lengthAdjust="spacing" textLength="32.2917" x="169.7917" y="866.6372">End()</text></g><!--class election--><g id="elem_election"><rect codeLine="10" fill="none" height="100.1104" id="election" rx="4.1667" ry="4.1667" style="stroke:#2FA4E7;stroke-width:1.0416666666666667;" width="158.3333" x="127.0833" y="506.0486"/><rect fill="url(#gj22nhxa6zqni0)" height="34.759" rx="4.1667" ry="4.1667" style="stroke:url(#gj22nhxa6zqni0);stroke-width:1.0416666666666667;" width="158.3333" x="127.0833" y="506.0486"/><rect fill="url(#gj22nhxa6zqni0)" height="4.1667" style="stroke:url(#gj22nhxa6zqni0);stroke-width:1.0416666666666667;" width="158.3333" x="127.0833" y="536.6409"/><rect codeLine="10" fill="none" height="100.1104" id="election" rx="4.1667" ry="4.1667" style="stroke:#2FA4E7;stroke-width:1.0416666666666667;" width="158.3333" x="127.0833" y="506.0486"/><ellipse cx="173.9583" cy="523.4281" fill="none" rx="10.4167" ry="10.4167" style="stroke:#2683B9;stroke-width:1.0416666666666667;"/><path d="M174.3978,523.3793 Q173.0469,522.777 172.5098,522.305 Q171.9889,521.8168 171.9889,520.8076 Q171.9889,519.9938 172.6563,519.2777 Q173.3236,518.5616 174.528,518.5616 Q175.0488,518.5616 175.5208,518.7243 Q175.944,518.9034 176.0905,518.9034 Q176.1882,518.9034 176.2533,518.8708 Q176.3346,518.822 176.709,518.057 L176.9857,520.889 L176.4323,521.1006 Q175.9277,519.9613 175.5046,519.6358 Q175.0977,519.294 174.4303,519.294 Q173.6003,519.294 173.3073,519.7497 Q173.0143,520.1892 173.0143,520.71 Q173.0143,521.1657 173.291,521.4424 Q173.5677,521.7191 174.9512,522.3376 Q176.1556,522.8422 176.709,523.5095 Q177.2624,524.1605 177.2624,525.0557 Q177.2624,526.016 176.5951,526.7647 Q175.9277,527.4971 174.6745,527.4971 Q174.1374,527.4971 173.7142,527.2855 Q173.3236,527.1553 173.112,527.1553 Q173.0306,527.1553 172.9004,527.2367 Q172.7865,527.3181 172.3307,527.6436 L171.875,524.779 L172.5098,524.5674 Q172.8841,525.9183 173.4375,526.3415 Q174.0072,526.7647 174.7233,526.7647 Q175.4557,526.7647 175.8138,526.3415 Q176.1882,525.9183 176.1882,525.0557 Q176.1882,524.6488 175.765,524.2256 Q175.3418,523.8024 174.3978,523.3793 Z " fill="#2FA4E7"/><text fill="#343A40" font-family="Verdana" font-size="11.4583" lengthAdjust="spacing" textLength="45.8333" x="198.9583" y="527.9851">election</text><line style="stroke:#2FA4E7;stroke-width:1.0416666666666667;" x1="128.125" x2="284.375" y1="540.8076" y2="540.8076"/><rect fill="none" height="6.25" style="stroke:#2683B9;stroke-width:1.0416666666666667;" width="6.25" x="135.4167" y="555.5829"/><text fill="#343A40" font-family="Verdana" font-size="11.4583" lengthAdjust="spacing" textLength="121.875" x="152.0833" y="561.7025">candidate Candidate</text><rect fill="none" height="6.25" style="stroke:#2683B9;stroke-width:1.0416666666666667;" width="6.25" x="135.4167" y="579.9253"/><text fill="#343A40" font-family="Verdana" font-size="11.4583" lengthAdjust="spacing" textLength="84.375" x="152.0833" y="586.0448">voters []Voter</text><line style="stroke:#2FA4E7;stroke-width:1.0416666666666667;" x1="128.125" x2="284.375" y1="597.8256" y2="597.8256"/></g><!--class Voter--><g id="elem_Voter"><rect codeLine="14" fill="none" height="51.4257" id="Voter" rx="4.1667" ry="4.1667" style="stroke:#2FA4E7;stroke-width:1.0416666666666667;" width="73.9583" x="33.8542" y="790.4236"/><rect fill="url(#gj22nhxa6zqni0)" height="34.759" rx="4.1667" ry="4.1667" style="stroke:url(#gj22nhxa6zqni0);stroke-width:1.0416666666666667;" width="73.9583" x="33.8542" y="790.4236"/><rect fill="url(#gj22nhxa6zqni0)" height="4.1667" style="stroke:url(#gj22nhxa6zqni0);stroke-width:1.0416666666666667;" width="73.9583" x="33.8542" y="821.0159"/><rect codeLine="14" fill="none" height="51.4257" id="Voter" rx="4.1667" ry="4.1667" style="stroke:#2FA4E7;stroke-width:1.0416666666666667;" width="73.9583" x="33.8542" y="790.4236"/><ellipse cx="48.4375" cy="807.8031" fill="none" rx="10.4167" ry="10.4167" style="stroke:#2683B9;stroke-width:1.0416666666666667;"/><path d="M47.0052,803.7178 L47.0052,803.0342 L51.3021,803.0342 L51.3021,803.7178 L49.9837,803.7178 Q49.8535,803.7178 49.7884,803.7666 Q49.7396,803.8155 49.7396,803.9131 L49.7396,810.8955 Q49.7396,810.9932 49.7884,811.042 Q49.8535,811.0909 49.9837,811.0909 L51.3021,811.0909 L51.3021,811.7744 L47.0052,811.7744 L47.0052,811.0909 L48.3236,811.0909 Q48.4863,811.0909 48.5189,811.0583 Q48.5677,811.0095 48.5677,810.8955 L48.5677,803.9131 Q48.5677,803.7992 48.5189,803.7666 Q48.4863,803.7178 48.3236,803.7178 L47.0052,803.7178 Z " fill="#2FA4E7"/><text fill="#343A40" font-family="Verdana" font-size="11.4583" font-style="italic" lengthAdjust="spacing" textLength="32.2917" x="67.1875" y="812.3601">Voter</text><line style="stroke:#2FA4E7;stroke-width:1.0416666666666667;" x1="34.8958" x2="106.7708" y1="825.1826" y2="825.1826"/><line style="stroke:#2FA4E7;stroke-width:1.0416666666666667;" x1="34.8958" x2="106.7708" y1="833.5159" y2="833.5159"/></g><!--class Candidate--><g id="elem_Candidate"><rect codeLine="15" fill="none" height="100.1104" id="Candidate" rx="4.1667" ry="4.1667" style="stroke:#2FA4E7;stroke-width:1.0416666666666667;" width="161.4583" x="304.6875" y="765.9444"/><rect fill="url(#gj22nhxa6zqni0)" height="34.759" rx="4.1667" ry="4.1667" style="stroke:url(#gj22nhxa6zqni0);stroke-width:1.0416666666666667;" width="161.4583" x="304.6875" y="765.9444"/><rect fill="url(#gj22nhxa6zqni0)" height="4.1667" style="stroke:url(#gj22nhxa6zqni0);stroke-width:1.0416666666666667;" width="161.4583" x="304.6875" y="796.5368"/><rect codeLine="15" fill="none" height="100.1104" id="Candidate" rx="4.1667" ry="4.1667" style="stroke:#2FA4E7;stroke-width:1.0416666666666667;" width="161.4583" x="304.6875" y="765.9444"/><ellipse cx="346.4583" cy="783.3239" fill="none" rx="10.4167" ry="10.4167" style="stroke:#2683B9;stroke-width:1.0416666666666667;"/><path d="M345.026,779.2386 L345.026,778.555 L349.3229,778.555 L349.3229,779.2386 L348.0046,779.2386 Q347.8743,779.2386 347.8092,779.2875 Q347.7604,779.3363 347.7604,779.4339 L347.7604,786.4164 Q347.7604,786.514 347.8092,786.5629 Q347.8743,786.6117 348.0046,786.6117 L349.3229,786.6117 L349.3229,787.2953 L345.026,787.2953 L345.026,786.6117 L346.3444,786.6117 Q346.5072,786.6117 346.5397,786.5791 Q346.5885,786.5303 346.5885,786.4164 L346.5885,779.4339 Q346.5885,779.32 346.5397,779.2875 Q346.5072,779.2386 346.3444,779.2386 L345.026,779.2386 Z " fill="#2FA4E7"/><text fill="#343A40" font-family="Verdana" font-size="11.4583" font-style="italic" lengthAdjust="spacing" textLength="59.375" x="371.25" y="787.881">Candidate</text><line style="stroke:#2FA4E7;stroke-width:1.0416666666666667;" x1="305.7292" x2="465.1042" y1="800.7034" y2="800.7034"/><line style="stroke:#2FA4E7;stroke-width:1.0416666666666667;" x1="305.7292" x2="465.1042" y1="809.0368" y2="809.0368"/><ellipse cx="316.1458" cy="826.9371" fill="none" rx="3.125" ry="3.125" style="stroke:#2683B9;stroke-width:1.0416666666666667;"/><text fill="#343A40" font-family="Verdana" font-size="11.4583" lengthAdjust="spacing" textLength="125" x="329.6875" y="829.9316">WinElection(term int)</text><ellipse cx="316.1458" cy="851.2794" fill="none" rx="3.125" ry="3.125" style="stroke:#2683B9;stroke-width:1.0416666666666667;"/><text fill="#343A40" font-family="Verdana" font-size="11.4583" lengthAdjust="spacing" textLength="122.9167" x="329.6875" y="854.274">FailElection(term int)</text></g><!--class Raft--><g id="elem_Raft"><rect codeLine="27" fill="none" height="148.7951" id="Raft" rx="4.1667" ry="4.1667" style="stroke:#2FA4E7;stroke-width:1.0416666666666667;" width="156.25" x="1200" y="741.4653"/><rect fill="url(#gj22nhxa6zqni0)" height="34.759" rx="4.1667" ry="4.1667" style="stroke:url(#gj22nhxa6zqni0);stroke-width:1.0416666666666667;" width="156.25" x="1200" y="741.4653"/><rect fill="url(#gj22nhxa6zqni0)" height="4.1667" style="stroke:url(#gj22nhxa6zqni0);stroke-width:1.0416666666666667;" width="156.25" x="1200" y="772.0576"/><rect codeLine="27" fill="none" height="148.7951" id="Raft" rx="4.1667" ry="4.1667" style="stroke:#2FA4E7;stroke-width:1.0416666666666667;" width="156.25" x="1200" y="741.4653"/><ellipse cx="1256.7708" cy="758.8448" fill="none" rx="10.4167" ry="10.4167" style="stroke:#2683B9;stroke-width:1.0416666666666667;"/><path d="M1255.3385,754.7595 L1255.3385,754.0759 L1259.6354,754.0759 L1259.6354,754.7595 L1258.3171,754.7595 Q1258.1868,754.7595 1258.1217,754.8083 Q1258.0729,754.8571 1258.0729,754.9548 L1258.0729,761.9372 Q1258.0729,762.0349 1258.1217,762.0837 Q1258.1868,762.1325 1258.3171,762.1325 L1259.6354,762.1325 L1259.6354,762.8161 L1255.3385,762.8161 L1255.3385,762.1325 L1256.6569,762.1325 Q1256.8197,762.1325 1256.8522,762.1 Q1256.901,762.0511 1256.901,761.9372 L1256.901,754.9548 Q1256.901,754.8409 1256.8522,754.8083 Q1256.8197,754.7595 1256.6569,754.7595 L1255.3385,754.7595 Z " fill="#2FA4E7"/><text fill="#343A40" font-family="Verdana" font-size="11.4583" font-style="italic" lengthAdjust="spacing" textLength="23.9583" x="1281.7708" y="763.4018">Raft</text><line style="stroke:#2FA4E7;stroke-width:1.0416666666666667;" x1="1201.0417" x2="1355.2083" y1="776.2243" y2="776.2243"/><line style="stroke:#2FA4E7;stroke-width:1.0416666666666667;" x1="1201.0417" x2="1355.2083" y1="784.5576" y2="784.5576"/><ellipse cx="1211.4583" cy="802.4579" fill="none" rx="3.125" ry="3.125" style="stroke:#2683B9;stroke-width:1.0416666666666667;"/><text fill="#343A40" font-family="Verdana" font-size="11.4583" lengthAdjust="spacing" textLength="105.2083" x="1225" y="805.4525">ApplyCommand()</text><ellipse cx="1211.4583" cy="826.8003" fill="none" rx="3.125" ry="3.125" style="stroke:#2683B9;stroke-width:1.0416666666666667;"/><text fill="#343A40" font-family="Verdana" font-size="11.4583" lengthAdjust="spacing" textLength="98.9583" x="1225" y="829.7948">ApplySnapshot()</text><ellipse cx="1211.4583" cy="851.1426" fill="none" rx="3.125" ry="3.125" style="stroke:#2683B9;stroke-width:1.0416666666666667;"/><text fill="#343A40" font-family="Verdana" font-size="11.4583" lengthAdjust="spacing" textLength="119.7917" x="1225" y="854.1372">UpdateApplyIndex()</text><ellipse cx="1211.4583" cy="875.485" fill="none" rx="3.125" ry="3.125" style="stroke:#2683B9;stroke-width:1.0416666666666667;"/><text fill="#343A40" font-family="Verdana" font-size="11.4583" lengthAdjust="spacing" textLength="50" x="1225" y="878.4795">Persist()</text></g><!--class Manager--><g id="elem_Manager"><rect codeLine="33" fill="none" height="270.5068" id="Manager" rx="4.1667" ry="4.1667" style="stroke:#2FA4E7;stroke-width:1.0416666666666667;" width="154.1667" x="1525" y="680.5278"/><rect fill="url(#gj22nhxa6zqni0)" height="34.759" rx="4.1667" ry="4.1667" style="stroke:url(#gj22nhxa6zqni0);stroke-width:1.0416666666666667;" width="154.1667" x="1525" y="680.5278"/><rect fill="url(#gj22nhxa6zqni0)" height="4.1667" style="stroke:url(#gj22nhxa6zqni0);stroke-width:1.0416666666666667;" width="154.1667" x="1525" y="711.1201"/><rect codeLine="33" fill="none" height="270.5068" id="Manager" rx="4.1667" ry="4.1667" style="stroke:#2FA4E7;stroke-width:1.0416666666666667;" width="154.1667" x="1525" y="680.5278"/><ellipse cx="1567.2396" cy="697.9073" fill="none" rx="10.4167" ry="10.4167" style="stroke:#2683B9;stroke-width:1.0416666666666667;"/><path d="M1565.8073,693.822 L1565.8073,693.1384 L1570.1042,693.1384 L1570.1042,693.822 L1568.7858,693.822 Q1568.6556,693.822 1568.5905,693.8708 Q1568.5417,693.9196 1568.5417,694.0173 L1568.5417,700.9997 Q1568.5417,701.0974 1568.5905,701.1462 Q1568.6556,701.195 1568.7858,701.195 L1570.1042,701.195 L1570.1042,701.8786 L1565.8073,701.8786 L1565.8073,701.195 L1567.1257,701.195 Q1567.2884,701.195 1567.321,701.1625 Q1567.3698,701.1136 1567.3698,700.9997 L1567.3698,694.0173 Q1567.3698,693.9034 1567.321,693.8708 Q1567.2884,693.822 1567.1257,693.822 L1565.8073,693.822 Z " fill="#2FA4E7"/><text fill="#343A40" font-family="Verdana" font-size="11.4583" font-style="italic" lengthAdjust="spacing" textLength="51.0417" x="1592.1354" y="702.4643">Manager</text><line style="stroke:#2FA4E7;stroke-width:1.0416666666666667;" x1="1526.0417" x2="1678.125" y1="715.2868" y2="715.2868"/><line style="stroke:#2FA4E7;stroke-width:1.0416666666666667;" x1="1526.0417" x2="1678.125" y1="723.6201" y2="723.6201"/><ellipse cx="1536.4583" cy="741.5204" fill="none" rx="3.125" ry="3.125" style="stroke:#2683B9;stroke-width:1.0416666666666667;"/><text fill="#343A40" font-family="Verdana" font-size="11.4583" lengthAdjust="spacing" textLength="55.2083" x="1550" y="744.515">Append()</text><ellipse cx="1536.4583" cy="765.8628" fill="none" rx="3.125" ry="3.125" style="stroke:#2683B9;stroke-width:1.0416666666666667;"/><text fill="#343A40" font-family="Verdana" font-size="11.4583" lengthAdjust="spacing" textLength="77.0833" x="1550" y="768.8573">SyncStatus()</text><ellipse cx="1536.4583" cy="790.2051" fill="none" rx="3.125" ry="3.125" style="stroke:#2683B9;stroke-width:1.0416666666666667;"/><text fill="#343A40" font-family="Verdana" font-size="11.4583" lengthAdjust="spacing" textLength="72.9167" x="1550" y="793.1997">SyncApply()</text><ellipse cx="1536.4583" cy="814.5475" fill="none" rx="3.125" ry="3.125" style="stroke:#2683B9;stroke-width:1.0416666666666667;"/><text fill="#343A40" font-family="Verdana" font-size="11.4583" lengthAdjust="spacing" textLength="83.3333" x="1550" y="817.542">GetLogEntry()</text><ellipse cx="1536.4583" cy="838.8898" fill="none" rx="3.125" ry="3.125" style="stroke:#2683B9;stroke-width:1.0416666666666667;"/><text fill="#343A40" font-family="Verdana" font-size="11.4583" lengthAdjust="spacing" textLength="107.2917" x="1550" y="841.8844">UpdateSnapshot()</text><ellipse cx="1536.4583" cy="863.2322" fill="none" rx="3.125" ry="3.125" style="stroke:#2683B9;stroke-width:1.0416666666666667;"/><text fill="#343A40" font-family="Verdana" font-size="11.4583" lengthAdjust="spacing" textLength="117.7083" x="1550" y="866.2267">GetPersistentData()</text><ellipse cx="1536.4583" cy="887.5745" fill="none" rx="3.125" ry="3.125" style="stroke:#2683B9;stroke-width:1.0416666666666667;"/><text fill="#343A40" font-family="Verdana" font-size="11.4583" lengthAdjust="spacing" textLength="38.5417" x="1550" y="890.5691">Load()</text><ellipse cx="1536.4583" cy="911.9169" fill="none" rx="3.125" ry="3.125" style="stroke:#2683B9;stroke-width:1.0416666666666667;"/><text fill="#343A40" font-family="Verdana" font-size="11.4583" lengthAdjust="spacing" textLength="39.5833" x="1550" y="914.9114">Start()</text><ellipse cx="1536.4583" cy="936.2592" fill="none" rx="3.125" ry="3.125" style="stroke:#2683B9;stroke-width:1.0416666666666667;"/><text fill="#343A40" font-family="Verdana" font-size="11.4583" lengthAdjust="spacing" textLength="37.5" x="1550" y="939.2537">Stop()</text></g><!--class Follower--><g id="elem_Follower"><rect codeLine="44" fill="none" height="51.4257" id="Follower" rx="4.1667" ry="4.1667" style="stroke:#2FA4E7;stroke-width:1.0416666666666667;" width="90.625" x="1072.3958" y="790.4236"/><rect fill="url(#gj22nhxa6zqni0)" height="34.759" rx="4.1667" ry="4.1667" style="stroke:url(#gj22nhxa6zqni0);stroke-width:1.0416666666666667;" width="90.625" x="1072.3958" y="790.4236"/><rect fill="url(#gj22nhxa6zqni0)" height="4.1667" style="stroke:url(#gj22nhxa6zqni0);stroke-width:1.0416666666666667;" width="90.625" x="1072.3958" y="821.0159"/><rect codeLine="44" fill="none" height="51.4257" id="Follower" rx="4.1667" ry="4.1667" style="stroke:#2FA4E7;stroke-width:1.0416666666666667;" width="90.625" x="1072.3958" y="790.4236"/><ellipse cx="1086.9792" cy="807.8031" fill="none" rx="10.4167" ry="10.4167" style="stroke:#2683B9;stroke-width:1.0416666666666667;"/><path d="M1085.5469,803.7178 L1085.5469,803.0342 L1089.8438,803.0342 L1089.8438,803.7178 L1088.5254,803.7178 Q1088.3952,803.7178 1088.3301,803.7666 Q1088.2813,803.8155 1088.2813,803.9131 L1088.2813,810.8955 Q1088.2813,810.9932 1088.3301,811.042 Q1088.3952,811.0909 1088.5254,811.0909 L1089.8438,811.0909 L1089.8438,811.7744 L1085.5469,811.7744 L1085.5469,811.0909 L1086.8652,811.0909 Q1087.028,811.0909 1087.0605,811.0583 Q1087.1094,811.0095 1087.1094,810.8955 L1087.1094,803.9131 Q1087.1094,803.7992 1087.0605,803.7666 Q1087.028,803.7178 1086.8652,803.7178 L1085.5469,803.7178 Z " fill="#2FA4E7"/><text fill="#343A40" font-family="Verdana" font-size="11.4583" font-style="italic" lengthAdjust="spacing" textLength="48.9583" x="1105.7292" y="812.3601">Follower</text><line style="stroke:#2FA4E7;stroke-width:1.0416666666666667;" x1="1073.4375" x2="1161.9792" y1="825.1826" y2="825.1826"/><line style="stroke:#2FA4E7;stroke-width:1.0416666666666667;" x1="1073.4375" x2="1161.9792" y1="833.5159" y2="833.5159"/></g><!--class Manage--><g id="elem_Manage"><rect codeLine="45" fill="none" height="124.4527" id="Manage" rx="4.1667" ry="4.1667" style="stroke:#2FA4E7;stroke-width:1.0416666666666667;" width="153.125" x="1249.4792" y="494.0694"/><rect fill="url(#gj22nhxa6zqni0)" height="34.759" rx="4.1667" ry="4.1667" style="stroke:url(#gj22nhxa6zqni0);stroke-width:1.0416666666666667;" width="153.125" x="1249.4792" y="494.0694"/><rect fill="url(#gj22nhxa6zqni0)" height="4.1667" style="stroke:url(#gj22nhxa6zqni0);stroke-width:1.0416666666666667;" width="153.125" x="1249.4792" y="524.6618"/><rect codeLine="45" fill="none" height="124.4527" id="Manage" rx="4.1667" ry="4.1667" style="stroke:#2FA4E7;stroke-width:1.0416666666666667;" width="153.125" x="1249.4792" y="494.0694"/><ellipse cx="1293.75" cy="511.4489" fill="none" rx="10.4167" ry="10.4167" style="stroke:#2683B9;stroke-width:1.0416666666666667;"/><path d="M1294.1895,511.4001 Q1292.8385,510.7979 1292.3014,510.3259 Q1291.7806,509.8376 1291.7806,508.8285 Q1291.7806,508.0147 1292.4479,507.2985 Q1293.1152,506.5824 1294.3197,506.5824 Q1294.8405,506.5824 1295.3125,506.7451 Q1295.7357,506.9242 1295.8822,506.9242 Q1295.9798,506.9242 1296.0449,506.8916 Q1296.1263,506.8428 1296.5007,506.0778 L1296.7773,508.9099 L1296.224,509.1214 Q1295.7194,507.9821 1295.2962,507.6566 Q1294.8893,507.3148 1294.222,507.3148 Q1293.3919,507.3148 1293.099,507.7705 Q1292.806,508.21 1292.806,508.7308 Q1292.806,509.1866 1293.0827,509.4632 Q1293.3594,509.7399 1294.7428,510.3584 Q1295.9473,510.863 1296.5007,511.5303 Q1297.054,512.1813 1297.054,513.0765 Q1297.054,514.0368 1296.3867,514.7855 Q1295.7194,515.5179 1294.4661,515.5179 Q1293.929,515.5179 1293.5059,515.3063 Q1293.1152,515.1761 1292.9036,515.1761 Q1292.8223,515.1761 1292.6921,515.2575 Q1292.5781,515.3389 1292.1224,515.6644 L1291.6667,512.7998 L1292.3014,512.5882 Q1292.6758,513.9392 1293.2292,514.3623 Q1293.7988,514.7855 1294.515,514.7855 Q1295.2474,514.7855 1295.6055,514.3623 Q1295.9798,513.9392 1295.9798,513.0765 Q1295.9798,512.6696 1295.5566,512.2464 Q1295.1335,511.8233 1294.1895,511.4001 Z " fill="#2FA4E7"/><text fill="#343A40" font-family="Verdana" font-size="11.4583" lengthAdjust="spacing" textLength="45.8333" x="1318.75" y="516.006">Manage</text><line style="stroke:#2FA4E7;stroke-width:1.0416666666666667;" x1="1250.5208" x2="1401.5625" y1="528.8284" y2="528.8284"/><rect fill="none" height="6.25" style="stroke:#2683B9;stroke-width:1.0416666666666667;" width="6.25" x="1257.8125" y="543.6038"/><text fill="#343A40" font-family="Verdana" font-size="11.4583" lengthAdjust="spacing" textLength="48.9583" x="1274.4792" y="549.7233">raft Raft</text><rect fill="none" height="6.25" style="stroke:#2683B9;stroke-width:1.0416666666666667;" width="6.25" x="1257.8125" y="567.9461"/><text fill="#343A40" font-family="Verdana" font-size="11.4583" lengthAdjust="spacing" textLength="110.4167" x="1274.4792" y="574.0657">LogStore LogStore</text><rect fill="none" height="6.25" style="stroke:#2683B9;stroke-width:1.0416666666666667;" width="6.25" x="1257.8125" y="592.2885"/><text fill="#343A40" font-family="Verdana" font-size="11.4583" lengthAdjust="spacing" textLength="116.6667" x="1274.4792" y="598.408">followers []Follower</text><line style="stroke:#2FA4E7;stroke-width:1.0416666666666667;" x1="1250.5208" x2="1401.5625" y1="610.1888" y2="610.1888"/></g><!--class LogStore--><g id="elem_LogStore"><rect codeLine="51" fill="none" height="51.4257" id="LogStore" rx="4.1667" ry="4.1667" style="stroke:#2FA4E7;stroke-width:1.0416666666666667;" width="94.7917" x="1393.2292" y="790.4236"/><rect fill="url(#gj22nhxa6zqni0)" height="34.759" rx="4.1667" ry="4.1667" style="stroke:url(#gj22nhxa6zqni0);stroke-width:1.0416666666666667;" width="94.7917" x="1393.2292" y="790.4236"/><rect fill="url(#gj22nhxa6zqni0)" height="4.1667" style="stroke:url(#gj22nhxa6zqni0);stroke-width:1.0416666666666667;" width="94.7917" x="1393.2292" y="821.0159"/><rect codeLine="51" fill="none" height="51.4257" id="LogStore" rx="4.1667" ry="4.1667" style="stroke:#2FA4E7;stroke-width:1.0416666666666667;" width="94.7917" x="1393.2292" y="790.4236"/><ellipse cx="1407.8125" cy="807.8031" fill="none" rx="10.4167" ry="10.4167" style="stroke:#2683B9;stroke-width:1.0416666666666667;"/><path d="M1408.252,807.7543 Q1406.901,807.152 1406.3639,806.68 Q1405.8431,806.1918 1405.8431,805.1826 Q1405.8431,804.3688 1406.5104,803.6527 Q1407.1777,802.9366 1408.3822,802.9366 Q1408.903,802.9366 1409.375,803.0993 Q1409.7982,803.2784 1409.9447,803.2784 Q1410.0423,803.2784 1410.1074,803.2458 Q1410.1888,803.197 1410.5632,802.432 L1410.8398,805.264 L1410.2865,805.4756 Q1409.7819,804.3363 1409.3587,804.0108 Q1408.9518,803.669 1408.2845,803.669 Q1407.4544,803.669 1407.1615,804.1247 Q1406.8685,804.5642 1406.8685,805.085 Q1406.8685,805.5407 1407.1452,805.8174 Q1407.4219,806.0941 1408.8053,806.7126 Q1410.0098,807.2172 1410.5632,807.8845 Q1411.1165,808.5355 1411.1165,809.4307 Q1411.1165,810.391 1410.4492,811.1397 Q1409.7819,811.8721 1408.5286,811.8721 Q1407.9915,811.8721 1407.5684,811.6605 Q1407.1777,811.5303 1406.9661,811.5303 Q1406.8848,811.5303 1406.7546,811.6117 Q1406.6406,811.6931 1406.1849,812.0186 L1405.7292,809.154 L1406.3639,808.9424 Q1406.7383,810.2933 1407.2917,810.7165 Q1407.8613,811.1397 1408.5775,811.1397 Q1409.3099,811.1397 1409.668,810.7165 Q1410.0423,810.2933 1410.0423,809.4307 Q1410.0423,809.0238 1409.6191,808.6006 Q1409.196,808.1774 1408.252,807.7543 Z " fill="#2FA4E7"/><text fill="#343A40" font-family="Verdana" font-size="11.4583" lengthAdjust="spacing" textLength="53.125" x="1426.5625" y="812.3601">LogStore</text><line style="stroke:#2FA4E7;stroke-width:1.0416666666666667;" x1="1394.2708" x2="1486.9792" y1="825.1826" y2="825.1826"/><line style="stroke:#2FA4E7;stroke-width:1.0416666666666667;" x1="1394.2708" x2="1486.9792" y1="833.5159" y2="833.5159"/></g><!--class Node--><g id="elem_Node"><rect codeLine="59" fill="none" height="75.768" id="Node" rx="4.1667" ry="4.1667" style="stroke:#2FA4E7;stroke-width:1.0416666666666667;" width="141.6667" x="525" y="518.0278"/><rect fill="url(#gj22nhxa6zqni0)" height="34.759" rx="4.1667" ry="4.1667" style="stroke:url(#gj22nhxa6zqni0);stroke-width:1.0416666666666667;" width="141.6667" x="525" y="518.0278"/><rect fill="url(#gj22nhxa6zqni0)" height="4.1667" style="stroke:url(#gj22nhxa6zqni0);stroke-width:1.0416666666666667;" width="141.6667" x="525" y="548.6201"/><rect codeLine="59" fill="none" height="75.768" id="Node" rx="4.1667" ry="4.1667" style="stroke:#2FA4E7;stroke-width:1.0416666666666667;" width="141.6667" x="525" y="518.0278"/><ellipse cx="571.3542" cy="535.4073" fill="none" rx="10.4167" ry="10.4167" style="stroke:#2683B9;stroke-width:1.0416666666666667;"/><path d="M569.9219,531.322 L569.9219,530.6384 L574.2188,530.6384 L574.2188,531.322 L572.9004,531.322 Q572.7702,531.322 572.7051,531.3708 Q572.6563,531.4196 572.6563,531.5173 L572.6563,538.4997 Q572.6563,538.5974 572.7051,538.6462 Q572.7702,538.695 572.9004,538.695 L574.2188,538.695 L574.2188,539.3786 L569.9219,539.3786 L569.9219,538.695 L571.2402,538.695 Q571.403,538.695 571.4355,538.6625 Q571.4844,538.6136 571.4844,538.4997 L571.4844,531.5173 Q571.4844,531.4034 571.4355,531.3708 Q571.403,531.322 571.2402,531.322 L569.9219,531.322 Z " fill="#2FA4E7"/><text fill="#343A40" font-family="Verdana" font-size="11.4583" font-style="italic" lengthAdjust="spacing" textLength="30.2083" x="596.3542" y="539.9643">Node</text><line style="stroke:#2FA4E7;stroke-width:1.0416666666666667;" x1="526.0417" x2="665.625" y1="552.7868" y2="552.7868"/><line style="stroke:#2FA4E7;stroke-width:1.0416666666666667;" x1="526.0417" x2="665.625" y1="561.1201" y2="561.1201"/><ellipse cx="536.4583" cy="579.0204" fill="none" rx="3.125" ry="3.125" style="stroke:#2683B9;stroke-width:1.0416666666666667;"/><text fill="#343A40" font-family="Verdana" font-size="11.4583" lengthAdjust="spacing" textLength="105.2083" x="550" y="582.015">HeartbeatTicker()</text></g><!--class Raft--><g id="elem_Raft"><rect codeLine="62" fill="none" height="75.768" id="Raft" rx="4.1667" ry="4.1667" style="stroke:#2FA4E7;stroke-width:1.0416666666666667;" width="187.5" x="703.125" y="518.0278"/><rect fill="url(#gj22nhxa6zqni0)" height="34.759" rx="4.1667" ry="4.1667" style="stroke:url(#gj22nhxa6zqni0);stroke-width:1.0416666666666667;" width="187.5" x="703.125" y="518.0278"/><rect fill="url(#gj22nhxa6zqni0)" height="4.1667" style="stroke:url(#gj22nhxa6zqni0);stroke-width:1.0416666666666667;" width="187.5" x="703.125" y="548.6201"/><rect codeLine="62" fill="none" height="75.768" id="Raft" rx="4.1667" ry="4.1667" style="stroke:#2FA4E7;stroke-width:1.0416666666666667;" width="187.5" x="703.125" y="518.0278"/><ellipse cx="775.5208" cy="535.4073" fill="none" rx="10.4167" ry="10.4167" style="stroke:#2683B9;stroke-width:1.0416666666666667;"/><path d="M774.0885,531.322 L774.0885,530.6384 L778.3854,530.6384 L778.3854,531.322 L777.0671,531.322 Q776.9368,531.322 776.8717,531.3708 Q776.8229,531.4196 776.8229,531.5173 L776.8229,538.4997 Q776.8229,538.5974 776.8717,538.6462 Q776.9368,538.695 777.0671,538.695 L778.3854,538.695 L778.3854,539.3786 L774.0885,539.3786 L774.0885,538.695 L775.4069,538.695 Q775.5697,538.695 775.6022,538.6625 Q775.651,538.6136 775.651,538.4997 L775.651,531.5173 Q775.651,531.4034 775.6022,531.3708 Q775.5697,531.322 775.4069,531.322 L774.0885,531.322 Z " fill="#2FA4E7"/><text fill="#343A40" font-family="Verdana" font-size="11.4583" font-style="italic" lengthAdjust="spacing" textLength="23.9583" x="800.5208" y="539.9643">Raft</text><line style="stroke:#2FA4E7;stroke-width:1.0416666666666667;" x1="704.1667" x2="889.5833" y1="552.7868" y2="552.7868"/><line style="stroke:#2FA4E7;stroke-width:1.0416666666666667;" x1="704.1667" x2="889.5833" y1="561.1201" y2="561.1201"/><ellipse cx="714.5833" cy="579.0204" fill="none" rx="3.125" ry="3.125" style="stroke:#2683B9;stroke-width:1.0416666666666667;"/><text fill="#343A40" font-family="Verdana" font-size="11.4583" lengthAdjust="spacing" textLength="151.0417" x="728.125" y="582.015">EndOfTerm(newTerm int)</text></g><!--class node--><g id="elem_node"><rect codeLine="65" fill="none" height="51.4257" id="node" rx="4.1667" ry="4.1667" style="stroke:#2FA4E7;stroke-width:1.0416666666666667;" width="70.8333" x="660.4167" y="234.1736"/><rect fill="url(#gj22nhxa6zqni0)" height="34.759" rx="4.1667" ry="4.1667" style="stroke:url(#gj22nhxa6zqni0);stroke-width:1.0416666666666667;" width="70.8333" x="660.4167" y="234.1736"/><rect fill="url(#gj22nhxa6zqni0)" height="4.1667" style="stroke:url(#gj22nhxa6zqni0);stroke-width:1.0416666666666667;" width="70.8333" x="660.4167" y="264.7659"/><rect codeLine="65" fill="none" height="51.4257" id="node" rx="4.1667" ry="4.1667" style="stroke:#2FA4E7;stroke-width:1.0416666666666667;" width="70.8333" x="660.4167" y="234.1736"/><ellipse cx="675" cy="251.5531" fill="none" rx="10.4167" ry="10.4167" style="stroke:#2683B9;stroke-width:1.0416666666666667;"/><path d="M675.4395,251.5043 Q674.0885,250.902 673.5514,250.43 Q673.0306,249.9418 673.0306,248.9326 Q673.0306,248.1188 673.6979,247.4027 Q674.3652,246.6866 675.5697,246.6866 Q676.0905,246.6866 676.5625,246.8493 Q676.9857,247.0284 677.1322,247.0284 Q677.2298,247.0284 677.2949,246.9958 Q677.3763,246.947 677.7507,246.182 L678.0273,249.014 L677.474,249.2256 Q676.9694,248.0863 676.5462,247.7608 Q676.1393,247.419 675.472,247.419 Q674.6419,247.419 674.349,247.8747 Q674.056,248.3142 674.056,248.835 Q674.056,249.2907 674.3327,249.5674 Q674.6094,249.8441 675.9928,250.4626 Q677.1973,250.9672 677.7507,251.6345 Q678.304,252.2855 678.304,253.1807 Q678.304,254.141 677.6367,254.8897 Q676.9694,255.6221 675.7161,255.6221 Q675.179,255.6221 674.7559,255.4105 Q674.3652,255.2803 674.1536,255.2803 Q674.0723,255.2803 673.9421,255.3617 Q673.8281,255.4431 673.3724,255.7686 L672.9167,252.904 L673.5514,252.6924 Q673.9258,254.0433 674.4792,254.4665 Q675.0488,254.8897 675.765,254.8897 Q676.4974,254.8897 676.8555,254.4665 Q677.2298,254.0433 677.2298,253.1807 Q677.2298,252.7738 676.8066,252.3506 Q676.3835,251.9274 675.4395,251.5043 Z " fill="#2FA4E7"/><text fill="#343A40" font-family="Verdana" font-size="11.4583" lengthAdjust="spacing" textLength="29.1667" x="693.75" y="256.1101">node</text><line style="stroke:#2FA4E7;stroke-width:1.0416666666666667;" x1="661.4583" x2="730.2083" y1="268.9326" y2="268.9326"/><line style="stroke:#2FA4E7;stroke-width:1.0416666666666667;" x1="661.4583" x2="730.2083" y1="277.2659" y2="277.2659"/></g><!--class Raft--><g id="elem_Raft"><rect codeLine="70" fill="none" height="343.5338" id="Raft" rx="4.1667" ry="4.1667" style="stroke:#2FA4E7;stroke-width:1.0416666666666667;" width="255.2083" x="924.4792" y="87.8194"/><rect fill="url(#gj22nhxa6zqni0)" height="34.759" rx="4.1667" ry="4.1667" style="stroke:url(#gj22nhxa6zqni0);stroke-width:1.0416666666666667;" width="255.2083" x="924.4792" y="87.8194"/><rect fill="url(#gj22nhxa6zqni0)" height="4.1667" style="stroke:url(#gj22nhxa6zqni0);stroke-width:1.0416666666666667;" width="255.2083" x="924.4792" y="118.4118"/><rect codeLine="70" fill="none" height="343.5338" id="Raft" rx="4.1667" ry="4.1667" style="stroke:#2FA4E7;stroke-width:1.0416666666666667;" width="255.2083" x="924.4792" y="87.8194"/><ellipse cx="1030.7292" cy="105.1989" fill="none" rx="10.4167" ry="10.4167" style="stroke:#2683B9;stroke-width:1.0416666666666667;"/><path d="M1031.1686,105.1501 Q1029.8177,104.5479 1029.2806,104.0759 Q1028.7598,103.5876 1028.7598,102.5785 Q1028.7598,101.7647 1029.4271,101.0485 Q1030.0944,100.3324 1031.2988,100.3324 Q1031.8197,100.3324 1032.2917,100.4951 Q1032.7148,100.6742 1032.8613,100.6742 Q1032.959,100.6742 1033.0241,100.6416 Q1033.1055,100.5928 1033.4798,99.8278 L1033.7565,102.6599 L1033.2031,102.8714 Q1032.6986,101.7321 1032.2754,101.4066 Q1031.8685,101.0648 1031.2012,101.0648 Q1030.3711,101.0648 1030.0781,101.5205 Q1029.7852,101.96 1029.7852,102.4808 Q1029.7852,102.9366 1030.0618,103.2132 Q1030.3385,103.4899 1031.722,104.1084 Q1032.9264,104.613 1033.4798,105.2803 Q1034.0332,105.9313 1034.0332,106.8265 Q1034.0332,107.7868 1033.3659,108.5355 Q1032.6986,109.2679 1031.4453,109.2679 Q1030.9082,109.2679 1030.485,109.0563 Q1030.0944,108.9261 1029.8828,108.9261 Q1029.8014,108.9261 1029.6712,109.0075 Q1029.5573,109.0889 1029.1016,109.4144 L1028.6458,106.5498 L1029.2806,106.3382 Q1029.6549,107.6892 1030.2083,108.1123 Q1030.778,108.5355 1031.4941,108.5355 Q1032.2266,108.5355 1032.5846,108.1123 Q1032.959,107.6892 1032.959,106.8265 Q1032.959,106.4196 1032.5358,105.9964 Q1032.1126,105.5733 1031.1686,105.1501 Z " fill="#2FA4E7"/><text fill="#343A40" font-family="Verdana" font-size="11.4583" lengthAdjust="spacing" textLength="23.9583" x="1055.7292" y="109.756">Raft</text><line style="stroke:#2FA4E7;stroke-width:1.0416666666666667;" x1="925.5208" x2="1178.6458" y1="122.5784" y2="122.5784"/><rect fill="none" height="6.25" style="stroke:#2683B9;stroke-width:1.0416666666666667;" width="6.25" x="932.8125" y="137.3538"/><text fill="#343A40" font-family="Verdana" font-size="11.4583" lengthAdjust="spacing" textLength="123.9583" x="949.4792" y="143.4733">log Commit.Manager</text><rect fill="none" height="6.25" style="stroke:#2683B9;stroke-width:1.0416666666666667;" width="6.25" x="932.8125" y="161.6961"/><text fill="#343A40" font-family="Verdana" font-size="11.4583" lengthAdjust="spacing" textLength="145.8333" x="949.4792" y="167.8157">election Election.Election</text><rect fill="none" height="6.25" style="stroke:#2683B9;stroke-width:1.0416666666666667;" width="6.25" x="932.8125" y="186.0385"/><text fill="#343A40" font-family="Verdana" font-size="11.4583" lengthAdjust="spacing" textLength="113.5417" x="949.4792" y="192.158">nodes []Node.node</text><line style="stroke:#2FA4E7;stroke-width:1.0416666666666667;" x1="925.5208" x2="1178.6458" y1="203.9388" y2="203.9388"/><ellipse cx="935.9375" cy="221.8391" fill="none" rx="3.125" ry="3.125" style="stroke:#2683B9;stroke-width:1.0416666666666667;"/><text fill="#343A40" font-family="Verdana" font-size="11.4583" lengthAdjust="spacing" textLength="118.75" x="949.4792" y="224.8337">Start(c Interface{})</text><ellipse cx="935.9375" cy="246.1815" fill="none" rx="3.125" ry="3.125" style="stroke:#2683B9;stroke-width:1.0416666666666667;"/><text fill="#343A40" font-family="Verdana" font-size="11.4583" lengthAdjust="spacing" textLength="218.75" x="949.4792" y="249.176">Snapshot(index int, snapshot []byte)</text><ellipse cx="935.9375" cy="270.5238" fill="none" rx="3.125" ry="3.125" style="stroke:#2683B9;stroke-width:1.0416666666666667;"/><text fill="#343A40" font-family="Verdana" font-size="11.4583" lengthAdjust="spacing" textLength="105.2083" x="949.4792" y="273.5184">ApplyCommand()</text><ellipse cx="935.9375" cy="294.8662" fill="none" rx="3.125" ry="3.125" style="stroke:#2683B9;stroke-width:1.0416666666666667;"/><text fill="#343A40" font-family="Verdana" font-size="11.4583" lengthAdjust="spacing" textLength="98.9583" x="949.4792" y="297.8607">ApplySnapshot()</text><ellipse cx="935.9375" cy="319.2085" fill="none" rx="3.125" ry="3.125" style="stroke:#2683B9;stroke-width:1.0416666666666667;"/><text fill="#343A40" font-family="Verdana" font-size="11.4583" lengthAdjust="spacing" textLength="119.7917" x="949.4792" y="322.2031">UpdateApplyIndex()</text><ellipse cx="935.9375" cy="343.5509" fill="none" rx="3.125" ry="3.125" style="stroke:#2683B9;stroke-width:1.0416666666666667;"/><text fill="#343A40" font-family="Verdana" font-size="11.4583" lengthAdjust="spacing" textLength="50" x="949.4792" y="346.5454">Persist()</text><ellipse cx="935.9375" cy="367.8932" fill="none" rx="3.125" ry="3.125" style="stroke:#2683B9;stroke-width:1.0416666666666667;"/><text fill="#343A40" font-family="Verdana" font-size="11.4583" lengthAdjust="spacing" textLength="125" x="949.4792" y="370.8878">WinElection(term int)</text><ellipse cx="935.9375" cy="392.2356" fill="none" rx="3.125" ry="3.125" style="stroke:#2683B9;stroke-width:1.0416666666666667;"/><text fill="#343A40" font-family="Verdana" font-size="11.4583" lengthAdjust="spacing" textLength="122.9167" x="949.4792" y="395.2301">FailElection(term int)</text><ellipse cx="935.9375" cy="416.5779" fill="none" rx="3.125" ry="3.125" style="stroke:#2683B9;stroke-width:1.0416666666666667;"/><text fill="#343A40" font-family="Verdana" font-size="11.4583" lengthAdjust="spacing" textLength="151.0417" x="949.4792" y="419.5724">EndOfTerm(newTerm int)</text></g><g id="elem_GMN35"><path d="M1216.1458,258.6528 L1216.1458,255.5278 L1179.9167,259.6944 L1216.1458,263.8611 L1216.1458,260.7361 A4.1667,4.1667 0 0 0 1220.3125,264.9028 L1233.8542,264.9028 A4.1667,4.1667 0 0 0 1238.0208,260.7361 L1238.0208,264.9028 L1227.6042,254.4861 L1220.3125,254.4861 A4.1667,4.1667 0 0 0 1216.1458,258.6528 " fill="none" style="stroke:#033C73;stroke-width:1.0416666666666667;"/><path d="M1227.6042,254.4861 L1227.6042,262.8194 A2.0833,2.0833 0 0 0 1229.6875,264.9028 L1238.0208,264.9028 L1227.6042,254.4861 " fill="none" style="stroke:#033C73;stroke-width:1.0416666666666667;"/></g><!--reverse link election to Voter--><g id="link_election_Voter"><path codeLine="20" d="M164.2902,616.6191 C149.3631,638.7441 139.3333,655.1736 126.0417,680.5278 C106.7083,717.3819 89.3646,762.5486 79.4792,790.0069 " fill="none" id="election-backto-Voter" style="stroke:#2FA4E7;stroke-width:3.125;"/><polygon fill="none" points="171.2813,606.2569,164.3317,609.1077,164.2902,616.6191,171.2398,613.7684,171.2813,606.2569" style="stroke:#2FA4E7;stroke-width:3.125;"/></g><!--reverse link election to Candidate--><g id="link_election_Candidate"><path codeLine="21" d="M247.5082,616.4593 C279.2791,662.178 319.2813,719.7361 351.1146,765.5486 " fill="none" id="election-backto-Candidate" style="stroke:#2FA4E7;stroke-width:3.125;"/><polygon fill="none" points="240.375,606.1944,240.52,613.7046,247.5082,616.4593,247.3632,608.9491,240.375,606.1944" style="stroke:#2FA4E7;stroke-width:3.125;"/></g><!--link election to Election--><g id="link_election_Election"><path codeLine="23" d="M206.25,606.1944 C206.25,648.1215 206.25,689.8715 206.25,734.9548 " fill="none" id="election-to-Election" style="stroke:#2FA4E7;stroke-width:3.125;"/><polygon fill="none" points="206.25,753.7048,212.5,734.9548,200,734.9548,206.25,753.7048" style="stroke:#2FA4E7;stroke-width:3.125;"/></g><!--reverse link Manage to Raft--><g id="link_Manage_Raft"><path codeLine="52" d="M1312.4036,630.4736 C1305.539,667.4111 1299.0313,702.4236 1291.7917,741.3923 " fill="none" id="Manage-backto-Raft" style="stroke:#2FA4E7;stroke-width:3.125;"/><polygon fill="none" points="1314.6875,618.184,1309.449,623.5675,1312.4036,630.4736,1317.6421,625.0901,1314.6875,618.184" style="stroke:#2FA4E7;stroke-width:3.125;"/></g><!--reverse link Manage to Follower--><g id="link_Manage_Follower"><path codeLine="53" d="M1239.6295,620.2231 C1215.7962,639.8898 1200.4271,655.4757 1181.25,680.5278 C1154.8958,714.9548 1135.7708,762.0694 1125.7292,790.3923 " fill="none" id="Manage-backto-Follower" style="stroke:#2FA4E7;stroke-width:3.125;"/><polygon fill="none" points="1249.2708,612.2673,1241.7982,613.0314,1239.6295,620.2231,1247.1021,619.459,1249.2708,612.2673" style="stroke:#2FA4E7;stroke-width:3.125;"/></g><!--reverse link Manage to LogStore--><g id="link_Manage_LogStore"><path codeLine="54" d="M1358.2738,629.607 C1382.6905,684.5549 1412.25,751.059 1429.6875,790.2986 " fill="none" id="Manage-backto-LogStore" style="stroke:#2FA4E7;stroke-width:3.125;"/><polygon fill="none" points="1353.1979,618.184,1351.9282,625.5875,1358.2738,629.607,1359.5435,622.2035,1353.1979,618.184" style="stroke:#2FA4E7;stroke-width:3.125;"/></g><!--link Manage to Manager--><g id="link_Manage_Manager"><path codeLine="55" d="M1402.8333,601.2257 C1436.625,622.7048 1475.5313,650.3819 1506.25,680.5278 C1512.5938,686.7465 1506.5229,679.2641 1512.5438,686.212 " fill="none" id="Manage-to-Manager" style="stroke:#2FA4E7;stroke-width:3.125;"/><polygon fill="none" points="1524.8229,700.3819,1517.2671,682.119,1507.8205,690.3051,1524.8229,700.3819" style="stroke:#2FA4E7;stroke-width:3.125;"/></g><!--link node to Node--><g id="link_node_Node"><path codeLine="66" d="M687.4792,285.3194 C669.9688,336.8403 635.3651,438.6702 614.5942,499.8057 " fill="none" id="node-to-Node" style="stroke:#2FA4E7;stroke-width:3.125;"/><polygon fill="none" points="608.5625,517.559,620.512,501.8162,608.6764,497.7951,608.5625,517.559" style="stroke:#2FA4E7;stroke-width:3.125;"/></g><!--reverse link node to Raft--><g id="link_node_Raft"><path codeLine="67" d="M708.3318,297.1414 C726.0297,348.6622 763.0313,456.4236 784.0208,517.559 " fill="none" id="node-backto-Raft" style="stroke:#2FA4E7;stroke-width:3.125;"/><polygon fill="none" points="704.2708,285.3194,702.3607,292.584,708.3318,297.1414,710.242,289.8767,704.2708,285.3194" style="stroke:#2FA4E7;stroke-width:3.125;"/></g><!--reverse link Raft to Node--><g id="link_Raft_Node"><path codeLine="85" d="M913.581,428.8129 C908.1123,432.2712 913.0521,428.7465 907.2917,431.5694 C862.75,453.3507 728.4375,418.2048 684.375,440.9444 C652.4063,457.4444 628.4583,491.2778 613.5833,517.8403 " fill="none" id="Raft-backto-Node" style="stroke:#2FA4E7;stroke-width:3.125;"/><polygon fill="none" points="924.1458,422.1319,916.6365,421.9508,913.581,428.8129,921.0904,428.994,924.1458,422.1319" style="stroke:#2FA4E7;stroke-width:3.125;"/></g><!--reverse link Raft to Election--><g id="link_Raft_Election"><path codeLine="86" d="M967.7263,443.3242 C936.4555,521.0117 973.0104,567.1528 907.2917,619.0694 C798.5104,705.0069 403.5,606.2257 286.4583,680.5278 C259.7396,697.4965 240.7292,726.8403 227.9375,753.7986 " fill="none" id="Raft-backto-Election" style="stroke:#2FA4E7;stroke-width:3.125;"/><polygon fill="none" points="972.4896,431.7673,966.2556,435.958,967.7263,443.3242,973.9602,439.1335,972.4896,431.7673" style="stroke:#2FA4E7;stroke-width:3.125;"/></g><!--reverse link Raft to Manager--><g id="link_Raft_Manager"><path codeLine="87" d="M1190.5361,428.2166 C1196.3486,431.9146 1191.7813,428.5798 1197.9167,431.5694 C1220.2083,442.4236 1400.1042,427.3403 1420.8333,440.9444 C1502.7188,494.684 1548.7188,596.5798 1573.875,680.4548 " fill="none" id="Raft-backto-Manager" style="stroke:#2FA4E7;stroke-width:3.125;"/><polygon fill="none" points="1179.9896,421.5069,1183.0263,428.3773,1190.5361,428.2166,1187.4994,421.3463,1179.9896,421.5069" style="stroke:#2FA4E7;stroke-width:3.125;"/></g><!--link Raft to Candidate--><g id="link_Raft_Candidate"><path codeLine="89" d="M1049.2813,431.6632 C1039.9583,497.1736 1018.6458,568.2986 972.9167,619.0694 C840.1563,766.4548 612.3077,801.8029 484.9432,810.7821 " fill="none" id="Raft-to-Candidate" style="stroke:#2FA4E7;stroke-width:3.125;"/><polygon fill="none" points="466.2396,812.1007,485.3827,817.0166,484.5036,804.5475,466.2396,812.1007" style="stroke:#2FA4E7;stroke-width:3.125;"/></g><!--link Raft to Raft--><g id="link_Raft_Raft"><path codeLine="90" d="M1121.9063,431.9028 C1164.25,535.7153 1209.0344,645.5097 1241.0552,724.0305 " fill="none" id="Raft-to-Raft" style="stroke:#2FA4E7;stroke-width:3.125;"/><polygon fill="none" points="1248.1354,741.3923,1246.8425,721.6704,1235.268,726.3905,1248.1354,741.3923" style="stroke:#2FA4E7;stroke-width:3.125;"/></g><!--link Raft to Raft--><g id="link_Raft_Raft"><path codeLine="91" d="M924.3958,411.8298 C918.625,418.5173 912.9063,425.1215 907.2917,431.5694 C881.8021,460.8403 865.0497,479.648 843.0393,504.0439 " fill="none" id="Raft-to-Raft-1" style="stroke:#2FA4E7;stroke-width:3.125;"/><polygon fill="none" points="830.4792,517.9653,847.6798,508.2306,838.3989,499.8571,830.4792,517.9653" style="stroke:#2FA4E7;stroke-width:3.125;"/></g><!--link Node to Voter--><g id="link_Node_Voter"><path codeLine="93" d="M537.4167,594.0694 C520.5,603.4444 501.6458,612.6528 483.3333,619.0694 C331.2604,672.3403 251.7708,579.7569 126.0417,680.5278 C92,707.8194 81.7703,741.0851 76.7599,771.783 " fill="none" id="Node-to-Voter" style="stroke:#2FA4E7;stroke-width:3.125;"/><polygon fill="none" points="73.7396,790.2882,82.9283,772.7898,70.5916,770.7763,73.7396,790.2882" style="stroke:#2FA4E7;stroke-width:3.125;"/></g><!--link Node to Follower--><g id="link_Node_Follower"><path codeLine="94" d="M645.3438,594.1632 C657.7917,602.809 671.3333,611.6423 684.375,619.0694 C820.1458,696.3715 974.5256,759.605 1054.9111,790.8759 " fill="none" id="Node-to-Follower" style="stroke:#2FA4E7;stroke-width:3.125;"/><polygon fill="none" points="1072.3854,797.6736,1057.177,785.0511,1052.6451,796.7006,1072.3854,797.6736" style="stroke:#2FA4E7;stroke-width:3.125;"/></g><text fill="#2FA4E7" font-family="Verdana" font-size="10.4167" lengthAdjust="spacing" textLength="242.7083" x="728.125" y="1006.6254">@github.com/ZiRunHua/MIT6.824-6.5840</text><!--SRC=[xHfhJ-iuzdFpAxp3_G3QRMzVb896e-ahm0nq4Esz8-rgjN8JjtX8uwxZmcKO_liSEtRYFDh2Rf5MMYo1adEEp_lXf15K10JTuhb0DzYxnmlY_4NSaIL17k7hWE2mojOYe25nvem9mj6F2ohkrhEQnvQV_qvlr-756d- -lfnsQjrckzgf7NVRTKVpGgE0U8AoyDcfN8QmUuwz3B3oLtJ3oLTWV7Y4Pem52ZHaXqVgOXJwykh5gKm4Nti24RqLoRrLvE7GfpuM10tCbO8_I4qZz8z_IivSCKZ5QrWAIFR62lrAGwFX8P0i4Gr5h8wBQL26Ud6SIg8PgrQDY0mirT12LAj__93umm4-nd43jbnIaN6R2bAiOc-r2fua2OuTP42J4A-YEoOqxCjAobEOoz0dtpJu1dn38w4zcmgunY68vgaCad2VF8NUH62nZYo0OgplpucuOejHAFXJHdXE8o3JqaaeXbXW3RzYE14bC1V9DLiLr7HP4B17wL-T5B7USKPmwIJfANK7AW4BJf8B1Prh1Z91KcOoY9fXIXspLl6BcLg0TAi5B6nL4TQUjGCyPZx9X5S3mEeB0XwO4IocrBidlE00gScpgOzVvbD8nCEGF4xjX3IcXC3LgSZ_iIRZz3un2hJIr9fp5GLieLEmPdG7Q9As9cDhIUe2LZALBfKYQh5S4qqF9Te_lnmfkCaBAXDJglqt56aOy9Wz2QBeyfbUakZbUPv9yur5lRccDpeNlAKgKRfFcQfSce2AhabGEOV6Y4m7gALD8aNgRIfKALI9LZ0dqIB7BEv2EQpcbYHl24I8qyKTw3YFyy61kaSIxlm8LuuZYZC2LdHFmnNcU8bc05nmjWxz0GiOHuBZC08KbBX5jOv8dmWy4K_0R8w3I761zNqaGJyu276OCD1z4Ap-5fuIxx9Gn9Y3fjjhZquKzE9fHVWL3UyroXsUZ1fjXG8eCHiwtLR_D85Exw3CGX95gA5WrvWlQ8WQTNLtWtsVXWlKKNUJE-opHtbVhqdy2_ofOb9Q6zh6iRnJsdkCXz1IcuhPTgCaBm-lz7WhQcVawJcyZKGAMK4RyHEwlEY3qUbeC7BplgotMeEJLWADWpLZWQyPtzayosLpCYTWaKUsojyIprQxrMlND-iG4PbGq6GtcPPZi5bWWNMSwT015PR-JcJWAdt6mP3RM88AfxMw1fzwef8W6u3CQPTHf59COyqj7oMLQ8y-nOiX_Cbw0Yr38XuPlrS3UoUh1BWv4b9bO6MNYjvKoHKA97zMObnISl14X3_eGyG-T58yCUViKR4iaLafbhRSesf0xP7Sp-q4SRlkgTlBxFnqTNb-CVtNi7VxSy7Qfh9MjuLZk3HrVYm5wOh3eH1MQ0IExlVeWzAOf8qgLQcZR5TDFUSkNTePeo_7xY_6vhoNyZ6moowZJx_N7_RTNHniLSmEuBga0Oa42pUhcvHYesFkLDbIWGFgbOLN5qsfaY1Iq2MH3pH9RYnADvVhwmKi8dxfra-_zcx7b-Dpur2BmN1utAdNJRPy_rbFl7Gu-cIEru6GMyOO7hxYzTrNmdquBNnNJgcyeXjDqoPPKLHS3L0WfOcIGMQlU2odLFO8irjUId43nplgqHMalqb1M6rRL9zzir1cPKXAyB2EBOgUx02wWwRheDlfZauxjbqm6WaJS0xGqs5GZF3GhRjDZRGhKOTP8dg5NLstVzffQAIrwzFaos0mcapYg4lqPM7liDa-ROyqqjuxx8tFHxVfrb5HsVP9jzNII7jh9jaaUboSWyUTLjVLI7jlMlOlbkiomqzHLWf9LDR2IgXCmPWiLIGftVw7ghtijlDYdrC3if0ds-STlROi9oh5yqc6TVH8bm6EUqfclsbZUNEQJcKg_LsmHATdDMb4YgmuH5uoHt0C9_u7AfuAC_8_dZXzRCXFMhrkwrG-KKAjvymQ9Sbc8303bopqjv_t4geoLsjSiVzcJLwbdMT_Lbljh1YnWilrBDo7v1nlSzv9nODhS-nAKzBEIVBljJo75tBICDYGMTizP6U1sP1cGMh_jnqrzYsZakxZ4buqgp8a0NugWL_HEP4plZIDiiXCvIMeRIhA8yMgL4c5AL7dF7tgAZd83A500LFeqlemAZkN8IaHMa3R1bd84hLkpGFPLdDJgZAJ4-ms_XjDdoH3ULSVKqLjNl2M9kqRypNBtcE1VZaIlLFbUi2Hi-2Tk0Dadqq-otmcYJ1_B_PuGU9E_VhXUwfMjjEfbMDj7dVobT5uYp2JhCNypVTcGUVG_DzcYYaaYxi6vVDdkOAdeJtEj2n_chn5VjxrRiAMX0u69ur1i_cAgGDJKRxVtk4TE0DaB35FICM7fdoeVV8spvisjKjnUB9RbnuE3zocEt17rGEYLevzZDpDtiS2pt14tgll13ZQNq-pcPYN9N5tBpWdPbTDthoKzdeJWv82xGd1wMmjoiWpkFWTG2DdDvlzHhmz7W3teRuvWRn2_NL4l7qcHTbpnkkdBmTNud0H_A_eizA_bRsnbsmxAkmurCzP4B-ptbFpsYsGozSzRvItULJjb1S9BCW-o-KrpuJ_PP70OypwtVecvczy8_3QSyAS1kHzpWWGG-z-h_xu-BRZuzkEZsyxFhxj-FYsu__jsuwR08VYo_KLUf0UXV0tQirwirrh7RgS8fVCKAE3wgspTlsiVem6aocIw2FdyFpcwg698hRcaBK-n49DSU1mvFo47p22uI5_Q3j3ykvmUds49YC31FS_KCx2fPm_FtszZedG1HEJ5SHT4dVQrJuLQ1B_cFprsXd6ltl1Le_9tuhEq7d_P-SAZgjhyFWP-ltE6S20WnvrXWRZFm40]--></g></svg>