<?xml version="1.0" encoding="us-ascii" standalone="no"?><svg xmlns="http://www.w3.org/2000/svg" xmlns:xlink="http://www.w3.org/1999/xlink" contentStyleType="text/css" height="703.125px" preserveAspectRatio="none" style="width:737px;height:703px;" version="1.1" viewBox="0 0 737 703" width="737.5px" zoomAndPan="magnify"><defs><linearGradient id="g8qbtyguaip090" x1="50%" x2="50%" y1="0%" y2="100%"><stop offset="0%" stop-color="#EDF0F2"/><stop offset="100%" stop-color="#E9ECEF"/></linearGradient><linearGradient id="g8qbtyguaip091" x1="50%" x2="50%" y1="0%" y2="100%"><stop offset="0%" stop-color="#59B6EC"/><stop offset="100%" stop-color="#2FA4E7"/></linearGradient><linearGradient id="g8qbtyguaip092" x1="50%" x2="50%" y1="0%" y2="100%"><stop offset="0%" stop-color="#2FA4E7"/><stop offset="100%" stop-color="#2683B9"/></linearGradient></defs><g><rect fill="url(#g8qbtyguaip090)" height="48.2361" id="_title" rx="4.1667" ry="4.1667" style="stroke:#BABDBF;stroke-width:1.0416666666666667;" width="191.6667" x="268.2292" y="20.8333"/><text fill="#2FA4E7" font-family="Verdana" font-size="20.8333" font-weight="bold" lengthAdjust="spacing" textLength="168.75" x="279.6875" y="53.2369">client Package</text><!--cluster RPC--><g id="cluster_RPC"><path d="M20.8333,86.7778 L57.2917,86.7778 A6.25,6.25 0 0 1 61.4583,90.9444 L68.75,118.6361 L564.5833,118.6361 A4.1667,4.1667 0 0 1 568.75,122.8027 L568.75,623.2361 A4.1667,4.1667 0 0 1 564.5833,627.4028 L20.8333,627.4028 A4.1667,4.1667 0 0 1 16.6667,623.2361 L16.6667,90.9444 A4.1667,4.1667 0 0 1 20.8333,86.7778 " fill="none" style="stroke:#59B6EC;stroke-width:2.0833333333333335;"/><line style="stroke:#59B6EC;stroke-width:2.0833333333333335;" x1="16.6667" x2="68.75" y1="118.6361" y2="118.6361"/><text fill="#2FA4E7" font-family="Verdana" font-size="12.5" font-weight="bold" lengthAdjust="spacing" textLength="28.125" x="26.0417" y="106.6366">RPC</text></g><!--cluster client--><g id="cluster_client"><path d="M54.1667,148.2361 L100,148.2361 A6.25,6.25 0 0 1 104.1667,152.4028 L111.4583,180.0944 L531.25,180.0944 A4.1667,4.1667 0 0 1 535.4167,184.2611 L535.4167,589.9028 A4.1667,4.1667 0 0 1 531.25,594.0694 L54.1667,594.0694 A4.1667,4.1667 0 0 1 50,589.9028 L50,152.4028 A4.1667,4.1667 0 0 1 54.1667,148.2361 " fill="none" style="stroke:#59B6EC;stroke-width:2.0833333333333335;"/><line style="stroke:#59B6EC;stroke-width:2.0833333333333335;" x1="50" x2="111.4583" y1="180.0944" y2="180.0944"/><text fill="#2FA4E7" font-family="Verdana" font-size="12.5" font-weight="bold" lengthAdjust="spacing" textLength="37.5" x="59.375" y="168.0949">client</text></g><!--cluster labrpc--><g id="cluster_labrpc"><path d="M597.9167,209.1736 L648.9583,209.1736 A6.25,6.25 0 0 1 653.125,213.3403 L660.4167,241.0319 L720.8333,241.0319 A4.1667,4.1667 0 0 1 725,245.1986 L725,317.5069 A4.1667,4.1667 0 0 1 720.8333,321.6736 L597.9167,321.6736 A4.1667,4.1667 0 0 1 593.75,317.5069 L593.75,213.3403 A4.1667,4.1667 0 0 1 597.9167,209.1736 " fill="none" style="stroke:#59B6EC;stroke-width:2.0833333333333335;"/><line style="stroke:#59B6EC;stroke-width:2.0833333333333335;" x1="593.75" x2="660.4167" y1="241.0319" y2="241.0319"/><text fill="#2FA4E7" font-family="Verdana" font-size="12.5" font-weight="bold" lengthAdjust="spacing" textLength="42.7083" x="603.125" y="229.0324">labrpc</text></g><!--class Clerk--><g id="elem_Clerk"><rect codeLine="8" fill="url(#g8qbtyguaip091)" height="148.7951" id="Clerk" rx="4.1667" ry="4.1667" style="stroke:#2FA4E7;stroke-width:1.0416666666666667;" width="219.7917" x="67.1875" y="428.4444"/><rect fill="url(#g8qbtyguaip092)" height="34.759" rx="4.1667" ry="4.1667" style="stroke:url(#g8qbtyguaip092);stroke-width:1.0416666666666667;" width="219.7917" x="67.1875" y="428.4444"/><rect fill="url(#g8qbtyguaip092)" height="4.1667" style="stroke:url(#g8qbtyguaip092);stroke-width:1.0416666666666667;" width="219.7917" x="67.1875" y="459.0368"/><rect codeLine="8" fill="none" height="148.7951" id="Clerk" rx="4.1667" ry="4.1667" style="stroke:#2FA4E7;stroke-width:1.0416666666666667;" width="219.7917" x="67.1875" y="428.4444"/><ellipse cx="152.0833" cy="445.8239" fill="none" rx="10.4167" ry="10.4167" style="stroke:#2683B9;stroke-width:1.0416666666666667;"/><path d="M150.651,441.7386 L150.651,441.055 L154.9479,441.055 L154.9479,441.7386 L153.6296,441.7386 Q153.4993,441.7386 153.4342,441.7875 Q153.3854,441.8363 153.3854,441.9339 L153.3854,448.9164 Q153.3854,449.014 153.4342,449.0629 Q153.4993,449.1117 153.6296,449.1117 L154.9479,449.1117 L154.9479,449.7953 L150.651,449.7953 L150.651,449.1117 L151.9694,449.1117 Q152.1322,449.1117 152.1647,449.0791 Q152.2135,449.0303 152.2135,448.9164 L152.2135,441.9339 Q152.2135,441.82 152.1647,441.7875 Q152.1322,441.7386 151.9694,441.7386 L150.651,441.7386 Z " fill="#FFFFFF"/><text fill="#F8F9FA" font-family="Verdana" font-size="11.4583" font-style="italic" lengthAdjust="spacing" textLength="31.25" x="177.0833" y="450.381">Clerk</text><line style="stroke:#2FA4E7;stroke-width:1.0416666666666667;" x1="68.2292" x2="285.9375" y1="463.2034" y2="463.2034"/><line style="stroke:#2FA4E7;stroke-width:1.0416666666666667;" x1="68.2292" x2="285.9375" y1="471.5368" y2="471.5368"/><ellipse cx="78.6458" cy="489.4371" fill="none" rx="3.125" ry="3.125" style="stroke:#2683B9;stroke-width:1.0416666666666667;"/><text fill="#F8F9FA" font-family="Verdana" font-size="11.4583" lengthAdjust="spacing" textLength="183.3333" x="92.1875" y="492.4316">NewOperationId() operation.Id</text><ellipse cx="78.6458" cy="513.7794" fill="none" rx="3.125" ry="3.125" style="stroke:#2683B9;stroke-width:1.0416666666666667;"/><text fill="#F8F9FA" font-family="Verdana" font-size="11.4583" lengthAdjust="spacing" textLength="116.6667" x="92.1875" y="516.774">GetLeader() Server</text><ellipse cx="78.6458" cy="538.1218" fill="none" rx="3.125" ry="3.125" style="stroke:#2683B9;stroke-width:1.0416666666666667;"/><text fill="#F8F9FA" font-family="Verdana" font-size="11.4583" lengthAdjust="spacing" textLength="133.3333" x="92.1875" y="541.1163">GetServers() []Server</text><ellipse cx="78.6458" cy="562.4641" fill="none" rx="3.125" ry="3.125" style="stroke:#2683B9;stroke-width:1.0416666666666667;"/><text fill="#F8F9FA" font-family="Verdana" font-size="11.4583" lengthAdjust="spacing" textLength="183.3333" x="92.1875" y="565.4587">UpdateLeader(leaderIndex int)</text></g><!--class clerk--><g id="elem_clerk"><rect codeLine="14" fill="url(#g8qbtyguaip091)" height="173.1374" id="clerk" rx="4.1667" ry="4.1667" style="stroke:#2FA4E7;stroke-width:1.0416666666666667;" width="153.125" x="107.8125" y="193.0278"/><rect fill="url(#g8qbtyguaip092)" height="34.759" rx="4.1667" ry="4.1667" style="stroke:url(#g8qbtyguaip092);stroke-width:1.0416666666666667;" width="153.125" x="107.8125" y="193.0278"/><rect fill="url(#g8qbtyguaip092)" height="4.1667" style="stroke:url(#g8qbtyguaip092);stroke-width:1.0416666666666667;" width="153.125" x="107.8125" y="223.6201"/><rect codeLine="14" fill="none" height="173.1374" id="clerk" rx="4.1667" ry="4.1667" style="stroke:#2FA4E7;stroke-width:1.0416666666666667;" width="153.125" x="107.8125" y="193.0278"/><ellipse cx="160.4167" cy="210.4073" fill="none" rx="10.4167" ry="10.4167" style="stroke:#2683B9;stroke-width:1.0416666666666667;"/><path d="M160.8561,210.3584 Q159.5052,209.7562 158.9681,209.2842 Q158.4473,208.7959 158.4473,207.7868 Q158.4473,206.973 159.1146,206.2569 Q159.7819,205.5407 160.9863,205.5407 Q161.5072,205.5407 161.9792,205.7035 Q162.4023,205.8825 162.5488,205.8825 Q162.6465,205.8825 162.7116,205.85 Q162.793,205.8011 163.1673,205.0362 L163.444,207.8682 L162.8906,208.0798 Q162.3861,206.9405 161.9629,206.6149 Q161.556,206.2731 160.8887,206.2731 Q160.0586,206.2731 159.7656,206.7289 Q159.4727,207.1683 159.4727,207.6892 Q159.4727,208.1449 159.7493,208.4216 Q160.026,208.6983 161.4095,209.3168 Q162.6139,209.8213 163.1673,210.4886 Q163.7207,211.1397 163.7207,212.0349 Q163.7207,212.9951 163.0534,213.7438 Q162.3861,214.4763 161.1328,214.4763 Q160.5957,214.4763 160.1725,214.2647 Q159.7819,214.1345 159.5703,214.1345 Q159.4889,214.1345 159.3587,214.2159 Q159.2448,214.2972 158.7891,214.6228 L158.3333,211.7582 L158.9681,211.5466 Q159.3424,212.8975 159.8958,213.3207 Q160.4655,213.7438 161.1816,213.7438 Q161.9141,213.7438 162.2721,213.3207 Q162.6465,212.8975 162.6465,212.0349 Q162.6465,211.628 162.2233,211.2048 Q161.8001,210.7816 160.8561,210.3584 Z " fill="#FFFFFF"/><text fill="#F8F9FA" font-family="Verdana" font-size="11.4583" lengthAdjust="spacing" textLength="29.1667" x="185.4167" y="214.9643">clerk</text><line style="stroke:#2FA4E7;stroke-width:1.0416666666666667;" x1="108.8542" x2="259.8958" y1="227.7868" y2="227.7868"/><rect fill="none" height="6.25" style="stroke:#2683B9;stroke-width:1.0416666666666667;" width="6.25" x="116.1458" y="242.5621"/><text fill="#F8F9FA" font-family="Verdana" font-size="11.4583" lengthAdjust="spacing" textLength="43.75" x="132.8125" y="248.6816">id int64</text><rect fill="none" height="6.25" style="stroke:#2683B9;stroke-width:1.0416666666666667;" width="6.25" x="116.1458" y="266.9044"/><text fill="#F8F9FA" font-family="Verdana" font-size="11.4583" lengthAdjust="spacing" textLength="106.25" x="132.8125" y="273.024">opId atomic.Int64</text><rect fill="none" height="6.25" style="stroke:#2683B9;stroke-width:1.0416666666666667;" width="6.25" x="116.1458" y="291.2468"/><text fill="#F8F9FA" font-family="Verdana" font-size="11.4583" lengthAdjust="spacing" textLength="116.6667" x="132.8125" y="297.3663">msgId atomic.Int64</text><rect fill="none" height="6.25" style="stroke:#2683B9;stroke-width:1.0416666666666667;" width="6.25" x="116.1458" y="315.5891"/><text fill="#F8F9FA" font-family="Verdana" font-size="11.4583" lengthAdjust="spacing" textLength="105.2083" x="132.8125" y="321.7087">servers: []Server</text><rect fill="none" height="6.25" style="stroke:#2683B9;stroke-width:1.0416666666666667;" width="6.25" x="116.1458" y="339.9315"/><text fill="#F8F9FA" font-family="Verdana" font-size="11.4583" lengthAdjust="spacing" textLength="87.5" x="132.8125" y="346.051">leader: Server</text><line style="stroke:#2FA4E7;stroke-width:1.0416666666666667;" x1="108.8542" x2="259.8958" y1="357.8318" y2="357.8318"/></g><!--class Server--><g id="elem_Server"><rect codeLine="22" fill="url(#g8qbtyguaip091)" height="51.4257" id="Server" rx="4.1667" ry="4.1667" style="stroke:#2FA4E7;stroke-width:1.0416666666666667;" width="81.25" x="323.9583" y="477.4028"/><rect fill="url(#g8qbtyguaip092)" height="34.759" rx="4.1667" ry="4.1667" style="stroke:url(#g8qbtyguaip092);stroke-width:1.0416666666666667;" width="81.25" x="323.9583" y="477.4028"/><rect fill="url(#g8qbtyguaip092)" height="4.1667" style="stroke:url(#g8qbtyguaip092);stroke-width:1.0416666666666667;" width="81.25" x="323.9583" y="507.9951"/><rect codeLine="22" fill="none" height="51.4257" id="Server" rx="4.1667" ry="4.1667" style="stroke:#2FA4E7;stroke-width:1.0416666666666667;" width="81.25" x="323.9583" y="477.4028"/><ellipse cx="338.5417" cy="494.7823" fill="none" rx="10.4167" ry="10.4167" style="stroke:#2683B9;stroke-width:1.0416666666666667;"/><path d="M337.1094,490.697 L337.1094,490.0134 L341.4063,490.0134 L341.4063,490.697 L340.0879,490.697 Q339.9577,490.697 339.8926,490.7458 Q339.8438,490.7946 339.8438,490.8923 L339.8438,497.8747 Q339.8438,497.9724 339.8926,498.0212 Q339.9577,498.07 340.0879,498.07 L341.4063,498.07 L341.4063,498.7536 L337.1094,498.7536 L337.1094,498.07 L338.4277,498.07 Q338.5905,498.07 338.623,498.0375 Q338.6719,497.9886 338.6719,497.8747 L338.6719,490.8923 Q338.6719,490.7784 338.623,490.7458 Q338.5905,490.697 338.4277,490.697 L337.1094,490.697 Z " fill="#FFFFFF"/><text fill="#F8F9FA" font-family="Verdana" font-size="11.4583" font-style="italic" lengthAdjust="spacing" textLength="39.5833" x="357.2917" y="499.3393">Server</text><line style="stroke:#2FA4E7;stroke-width:1.0416666666666667;" x1="325" x2="404.1667" y1="512.1618" y2="512.1618"/><line style="stroke:#2FA4E7;stroke-width:1.0416666666666667;" x1="325" x2="404.1667" y1="520.4951" y2="520.4951"/></g><!--class Caller--><g id="elem_Caller"><rect codeLine="23" fill="url(#g8qbtyguaip091)" height="51.4257" id="Caller" rx="4.1667" ry="4.1667" style="stroke:#2FA4E7;stroke-width:1.0416666666666667;" width="76.0417" x="442.1875" y="477.4028"/><rect fill="url(#g8qbtyguaip092)" height="34.759" rx="4.1667" ry="4.1667" style="stroke:url(#g8qbtyguaip092);stroke-width:1.0416666666666667;" width="76.0417" x="442.1875" y="477.4028"/><rect fill="url(#g8qbtyguaip092)" height="4.1667" style="stroke:url(#g8qbtyguaip092);stroke-width:1.0416666666666667;" width="76.0417" x="442.1875" y="507.9951"/><rect codeLine="23" fill="none" height="51.4257" id="Caller" rx="4.1667" ry="4.1667" style="stroke:#2FA4E7;stroke-width:1.0416666666666667;" width="76.0417" x="442.1875" y="477.4028"/><ellipse cx="456.7708" cy="494.7823" fill="none" rx="10.4167" ry="10.4167" style="stroke:#2683B9;stroke-width:1.0416666666666667;"/><path d="M455.3385,490.697 L455.3385,490.0134 L459.6354,490.0134 L459.6354,490.697 L458.3171,490.697 Q458.1868,490.697 458.1217,490.7458 Q458.0729,490.7946 458.0729,490.8923 L458.0729,497.8747 Q458.0729,497.9724 458.1217,498.0212 Q458.1868,498.07 458.3171,498.07 L459.6354,498.07 L459.6354,498.7536 L455.3385,498.7536 L455.3385,498.07 L456.6569,498.07 Q456.8197,498.07 456.8522,498.0375 Q456.901,497.9886 456.901,497.8747 L456.901,490.8923 Q456.901,490.7784 456.8522,490.7458 Q456.8197,490.697 456.6569,490.697 L455.3385,490.697 Z " fill="#FFFFFF"/><text fill="#F8F9FA" font-family="Verdana" font-size="11.4583" font-style="italic" lengthAdjust="spacing" textLength="34.375" x="475.5208" y="499.3393">Caller</text><line style="stroke:#2FA4E7;stroke-width:1.0416666666666667;" x1="443.2292" x2="517.1875" y1="512.1618" y2="512.1618"/><line style="stroke:#2FA4E7;stroke-width:1.0416666666666667;" x1="443.2292" x2="517.1875" y1="520.4951" y2="520.4951"/></g><!--class server--><g id="elem_server"><rect codeLine="24" fill="url(#g8qbtyguaip091)" height="75.768" id="server" rx="4.1667" ry="4.1667" style="stroke:#2FA4E7;stroke-width:1.0416666666666667;" width="116.6667" x="354.1667" y="241.4653"/><rect fill="url(#g8qbtyguaip092)" height="34.759" rx="4.1667" ry="4.1667" style="stroke:url(#g8qbtyguaip092);stroke-width:1.0416666666666667;" width="116.6667" x="354.1667" y="241.4653"/><rect fill="url(#g8qbtyguaip092)" height="4.1667" style="stroke:url(#g8qbtyguaip092);stroke-width:1.0416666666666667;" width="116.6667" x="354.1667" y="272.0576"/><rect codeLine="24" fill="none" height="75.768" id="server" rx="4.1667" ry="4.1667" style="stroke:#2FA4E7;stroke-width:1.0416666666666667;" width="116.6667" x="354.1667" y="241.4653"/><ellipse cx="385.1563" cy="258.8448" fill="none" rx="10.4167" ry="10.4167" style="stroke:#2683B9;stroke-width:1.0416666666666667;"/><path d="M385.5957,258.7959 Q384.2448,258.1937 383.7077,257.7217 Q383.1868,257.2334 383.1868,256.2243 Q383.1868,255.4105 383.8542,254.6944 Q384.5215,253.9782 385.7259,253.9782 Q386.2467,253.9782 386.7188,254.141 Q387.1419,254.32 387.2884,254.32 Q387.3861,254.32 387.4512,254.2875 Q387.5326,254.2386 387.9069,253.4737 L388.1836,256.3057 L387.6302,256.5173 Q387.1257,255.378 386.7025,255.0524 Q386.2956,254.7106 385.6283,254.7106 Q384.7982,254.7106 384.5052,255.1664 Q384.2122,255.6058 384.2122,256.1267 Q384.2122,256.5824 384.4889,256.8591 Q384.7656,257.1358 386.1491,257.7543 Q387.3535,258.2588 387.9069,258.9261 Q388.4603,259.5772 388.4603,260.4724 Q388.4603,261.4326 387.793,262.1813 Q387.1257,262.9138 385.8724,262.9138 Q385.3353,262.9138 384.9121,262.7022 Q384.5215,262.572 384.3099,262.572 Q384.2285,262.572 384.0983,262.6534 Q383.9844,262.7347 383.5286,263.0603 L383.0729,260.1957 L383.7077,259.9841 Q384.082,261.335 384.6354,261.7582 Q385.2051,262.1813 385.9212,262.1813 Q386.6536,262.1813 387.0117,261.7582 Q387.3861,261.335 387.3861,260.4724 Q387.3861,260.0655 386.9629,259.6423 Q386.5397,259.2191 385.5957,258.7959 Z " fill="#FFFFFF"/><text fill="#F8F9FA" font-family="Verdana" font-size="11.4583" lengthAdjust="spacing" textLength="38.5417" x="407.5521" y="263.4018">server</text><line style="stroke:#2FA4E7;stroke-width:1.0416666666666667;" x1="355.2083" x2="469.7917" y1="276.2243" y2="276.2243"/><ellipse cx="365.625" cy="294.1246" fill="none" rx="3.125" ry="3.125" style="stroke:#2683B9;stroke-width:1.0416666666666667;"/><text fill="#F8F9FA" font-family="Verdana" font-size="11.4583" lengthAdjust="spacing" textLength="80.2083" x="379.1667" y="297.1191">Caller: Caller</text><line style="stroke:#2FA4E7;stroke-width:1.0416666666666667;" x1="355.2083" x2="469.7917" y1="308.8999" y2="308.8999"/></g><!--class ClientEnd--><g id="elem_ClientEnd"><rect codeLine="39" fill="url(#g8qbtyguaip091)" height="51.4257" id="ClientEnd" rx="4.1667" ry="4.1667" style="stroke:#2FA4E7;stroke-width:1.0416666666666667;" width="97.9167" x="610.4167" y="253.9653"/><rect fill="url(#g8qbtyguaip092)" height="34.759" rx="4.1667" ry="4.1667" style="stroke:url(#g8qbtyguaip092);stroke-width:1.0416666666666667;" width="97.9167" x="610.4167" y="253.9653"/><rect fill="url(#g8qbtyguaip092)" height="4.1667" style="stroke:url(#g8qbtyguaip092);stroke-width:1.0416666666666667;" width="97.9167" x="610.4167" y="284.5576"/><rect codeLine="39" fill="none" height="51.4257" id="ClientEnd" rx="4.1667" ry="4.1667" style="stroke:#2FA4E7;stroke-width:1.0416666666666667;" width="97.9167" x="610.4167" y="253.9653"/><ellipse cx="625" cy="271.3448" fill="none" rx="10.4167" ry="10.4167" style="stroke:#2683B9;stroke-width:1.0416666666666667;"/><path d="M625.4395,271.2959 Q624.0885,270.6937 623.5514,270.2217 Q623.0306,269.7334 623.0306,268.7243 Q623.0306,267.9105 623.6979,267.1944 Q624.3652,266.4782 625.5697,266.4782 Q626.0905,266.4782 626.5625,266.641 Q626.9857,266.82 627.1322,266.82 Q627.2298,266.82 627.2949,266.7875 Q627.3763,266.7386 627.7507,265.9737 L628.0273,268.8057 L627.474,269.0173 Q626.9694,267.878 626.5462,267.5524 Q626.1393,267.2106 625.472,267.2106 Q624.6419,267.2106 624.349,267.6664 Q624.056,268.1058 624.056,268.6267 Q624.056,269.0824 624.3327,269.3591 Q624.6094,269.6358 625.9928,270.2543 Q627.1973,270.7588 627.7507,271.4261 Q628.304,272.0772 628.304,272.9724 Q628.304,273.9326 627.6367,274.6813 Q626.9694,275.4138 625.7161,275.4138 Q625.179,275.4138 624.7559,275.2022 Q624.3652,275.072 624.1536,275.072 Q624.0723,275.072 623.9421,275.1534 Q623.8281,275.2347 623.3724,275.5603 L622.9167,272.6957 L623.5514,272.4841 Q623.9258,273.835 624.4792,274.2582 Q625.0488,274.6813 625.765,274.6813 Q626.4974,274.6813 626.8555,274.2582 Q627.2298,273.835 627.2298,272.9724 Q627.2298,272.5655 626.8066,272.1423 Q626.3835,271.7191 625.4395,271.2959 Z " fill="#FFFFFF"/><text fill="#F8F9FA" font-family="Verdana" font-size="11.4583" lengthAdjust="spacing" textLength="56.25" x="643.75" y="275.9018">ClientEnd</text><line style="stroke:#2FA4E7;stroke-width:1.0416666666666667;" x1="611.4583" x2="707.2917" y1="288.7243" y2="288.7243"/><line style="stroke:#2FA4E7;stroke-width:1.0416666666666667;" x1="611.4583" x2="707.2917" y1="297.0576" y2="297.0576"/></g><!--reverse link clerk to Server--><g id="link_clerk_Server"><path codeLine="27" d="M262.3214,375.7943 C278.988,396.211 288.7917,408.2465 305.2083,428.4444 C318.4479,444.7257 333.2917,463.0903 344.8229,477.3819 " fill="none" id="clerk-backto-Server" style="stroke:#2FA4E7;stroke-width:3.125;"/><polygon fill="none" points="254.4167,366.1111,255.1413,373.5876,262.3214,375.7943,261.5968,368.3178,254.4167,366.1111" style="stroke:#2FA4E7;stroke-width:3.125;"/></g><!--link clerk to Clerk--><g id="link_clerk_Clerk"><path codeLine="28" d="M181.5521,366.1111 C180.875,386.6736 180.7724,389.7045 180.1162,409.6629 " fill="none" id="clerk-to-Clerk" style="stroke:#2FA4E7;stroke-width:3.125;stroke-dasharray:7.0,7.0;"/><polygon fill="none" points="179.5,428.4028,186.3628,409.8683,173.8696,409.4575,179.5,428.4028" style="stroke:#2FA4E7;stroke-width:3.125;"/></g><!--reverse link server to Caller--><g id="link_server_Caller"><path codeLine="31" d="M427.4897,329.5331 C441.3439,374.8248 460.75,438.2673 472.625,477.0903 " fill="none" id="server-backto-Caller" style="stroke:#2FA4E7;stroke-width:3.125;"/><polygon fill="none" points="423.8333,317.5798,421.6771,324.7753,427.4897,329.5331,429.6459,322.3377,423.8333,317.5798" style="stroke:#2FA4E7;stroke-width:3.125;"/></g><!--link server to Server--><g id="link_server_Server"><path codeLine="32" d="M404.4792,317.5798 C394.6771,362.8715 382.3221,419.942 373.9159,458.7649 " fill="none" id="server-to-Server" style="stroke:#2FA4E7;stroke-width:3.125;stroke-dasharray:7.0,7.0;"/><polygon fill="none" points="369.9479,477.0903,380.0243,460.0876,367.8074,457.4423,369.9479,477.0903" style="stroke:#2FA4E7;stroke-width:3.125;"/></g><!--link ClientEnd to Caller--><g id="link_ClientEnd_Caller"><path codeLine="43" d="M639.5208,305.059 C605.0729,347.6111 546.4525,420.0367 511.9525,462.6617 " fill="none" id="ClientEnd-to-Caller" style="stroke:#2FA4E7;stroke-width:3.125;stroke-dasharray:7.0,7.0;"/><polygon fill="none" points="500.1563,477.2361,516.8106,466.5938,507.0944,458.7297,500.1563,477.2361" style="stroke:#2FA4E7;stroke-width:3.125;"/></g><text fill="#0077BE" font-family="Verdana" font-size="10.4167" lengthAdjust="spacing" textLength="242.7083" x="242.7083" y="666.0004">@github.com/ZiRunHua/MIT6.824-6.5840</text><!--SRC=[xHdPRkCsy5dw2hRfmouAUstPLkoWAEfBIRR9DaYo-z2YA6Y9TjJ8ealHoQPj_ht3GnObqVOUxg8F9R27PePpSIxIFEO9GM4IavIZAnpUumLnl-9tP0bGmjO9mQcRtSVf2ZEyH06bdB20fdnC4yhGKQjrV3oQkdC9HpyiOdwtdZL3kdprStozJi_M-DNb-QtVx7lTXj_izRijLqj1rrTZz9VhSBeW88_1VvqSfVKH82TEWVCSXmID4yBk9Spv5hqXZp-j2CCyfkbvzE8belbNyppIDAU4Nn0S4GRe6y8U22iGwZi3p2-_bd1lLn7cHEzBv3_dQKJU8r3afQ1v5d_TSBOEEIWAAYazdGQA8q7aT_KdNPr727EwZCFckG5VPWix8bCwdPHLQY2bnObXWzIXx9q2QNWC9uc2QNsL19GxKU5F33h9M5b56ms3gO8rctz_hyx1TGLKynEa1GyDbBIQWIivFxlFxkRu4pnZgn0qqQgDvPbFqqWGkGhRt00LDmYPfegDfXRt0u4DBhT5CQmYS6S0N32wJYCLk9pXD0CKR32erXaP4Ovl-1Emc-CaarnWVPS9qFSkGWmY7Vo7O8rsy1Hu8qs2892WioU8qeiulS_Xa-DfkojH02KQwldzpcYmWTxUnU5zIh8CjINi4hD5dA9sItvTuIYAqmNovTVD7Oxee_XkDGN-6VwaD29AvPostHDVKlMGiXGEovFCgXOTUS6mEprk51e9VY5UYJpJNYXhcClK1M4NYH2qEfEXlSMXHzF1T3mDgiviTJhZuyu6gavhHfD8CxupUTfbCp8dS4uXsIb_nu5skfrXjxLTXuo8YE9qgsaL1ji5rbYhO8V4aTZuJo8EpnbH1ePSAmdoI8tLp_659vmDiWt8YdRW-KdG2hn6VWAEORgAYPnZzQHam3r6CLvCu8z8Aj0q9VoHveMoaXPbFXlcLN_r1YD_Ecve0g4ty39pHczqAXa3ML0IgIDPb2Ep61v2ASaKCqOV9K-BKAUUv6AFp0IvHqWuDIK4_M0G34ixlxauFpsx_MqolFwnPgudpTK5eYSxgihudX2aymwdd1k7mt5sVqWdM4-bg5c5JhuqFeL2KVMNb6xoQNcTLcziSv0k1keyYvmhxSw3kBvROHf7e-5eCWhAIkWC5PoNSK8oJjEQehdq8XVRVlubypRcE8d3xQBBYkPgW4WUBqaIQudR2kCsVSE4PYIoRnsrkxrMo-9l5H_VlTAjhkYA4PdZTS85_HiCSw5UNxyZBC8f_jfEAhsHbnZFf5d5oBBQe5H1b6twM6cfdboGcIsiLEyAaYlCU1p6AuZwFF34wfhIHlIzYSjNYSP60Ajda0n5xkiAQgoZlj-V3dpJEkYDX78O1dHx6DTFM1PWZJJpKCU8G0nhk_h1QE2tDTBSrHltVMyg4UUrNHElE-ZcI7FN86ZxxP54JEiQTe_xdOv6bZHK4IOGR-fzh-Tt-e56chjqYZyRRYfrEadcrCB6reuiL7bcvP4fIGgwmtVGalHADtqkZQO9MS0GAypSckQs0B2a_hF9DdkCbmbM1QJiQ5spglPuhdCh7Bv_691azOcWR1OEUVmGyoThRV-qpZB2-PRZph3V6OYx0sHtnQvfhJT0irlIDAhn1rKQHQ9jo6pErZYhpmsZLqMnEQ3THWch7rhDwxh_7KRqFeCtuqwX4ZYy8cKVaupyiHR3U2rKSmPR0ixPDR2NOYFVCAtSR8Iyz_Muq4ENm9dgw3eku9Q-Eo49VhB0B-8v4JtU6bTbP2aPDwWjhS4HuyJAgg34M5GvBQvSbY5c0laA67kQQ9-8SfRJMIJNqAP51jAYstL-9Tjvg0MLpUuDTXV_hVRVRBfo9NSiEQulmFPm_SX8BRCFQPAGKF3F3fV7LH4fPpJvWcK2p3niAzWdS2RsOlObHUA5VhEiSQ9ms0jIaJkGgynMhWhR_7vKpIVBqA67gqQbnLV2V6TmYzYUGnEnsc4MWe-OIKgHjrp1DUgGtR4ie7Zx_ClshA4dtP8aT3G-ReyzxmFw5FHMyNHf7TNaDDmucanwlXn-ozPey6xdwuSwPql5RzZdGSiJZTtt2LtRnyp02yR1j754vAgmLqXRKIkpZp37CvoHBvXnOOAp0nP9HtM6VO-WzZwHjnbBcWuvP_5ipKjjHMTH2QSU4DeLA-diTn8USfmyXFuv-GVelyv8UDYui0nBLfkiSSh0cL2EAnVBBS-QIlAUGVEpr5dfdqF-FMNAykOqKG_UphxhqBxwbOFsIcJYqUXZ1LgwrVQBQxLCOtxuSAiystxOpVCpKmUkHMlohqs1cDdRmUTF4VCu-OH6Pc6j1_lw0OVtXtJB_pzm__y3zt_w1-wh1AVyxUK54kuJLyzsqsjvtMRdHS1Y590PQlkerJdfjavQFJI-kKK2_T9zSNfryU2XZAuPU2kACrLoWCDBzpL-m0X2MFpIS8B4rulRIuYZQGv4q_GXPZHTYiRo-jsb8a9dbD-iA9V4VhSnYhbs0dftwKxK3m2mDQJYkVm4dOv-T2-WuQx19oVeppjt39d8sHCSofj_0000]--></g></svg>