<?xml version="1.0" encoding="us-ascii" standalone="no"?><svg xmlns="http://www.w3.org/2000/svg" xmlns:xlink="http://www.w3.org/1999/xlink" contentStyleType="text/css" height="852.0833px" preserveAspectRatio="none" style="width:1179px;height:852px;" version="1.1" viewBox="0 0 1179 852" width="1179.1667px" zoomAndPan="magnify"><defs><linearGradient id="g1niwk1e3offak0" x1="50%" x2="50%" y1="0%" y2="100%"><stop offset="0%" stop-color="#2FA4E7"/><stop offset="100%" stop-color="#2683B9"/></linearGradient></defs><g><rect fill="none" height="48.2361" id="_title" rx="4.1667" ry="4.1667" style="stroke:#BABDBF;stroke-width:1.0416666666666667;" width="253.125" x="458.3333" y="20.8333"/><text fill="#2FA4E7" font-family="Verdana" font-size="20.8333" font-weight="bold" lengthAdjust="spacing" textLength="230.2083" x="469.7917" y="53.2369">RPC Package Public</text><!--cluster RPC--><g id="cluster_RPC"><path d="M20.8333,273.2361 L57.2917,273.2361 A6.25,6.25 0 0 1 61.4583,277.4028 L68.75,305.0944 L1162.5,305.0944 A4.1667,4.1667 0 0 1 1166.6667,309.2611 L1166.6667,772.1944 A4.1667,4.1667 0 0 1 1162.5,776.3611 L20.8333,776.3611 A4.1667,4.1667 0 0 1 16.6667,772.1944 L16.6667,277.4028 A4.1667,4.1667 0 0 1 20.8333,273.2361 " fill="none" style="stroke:#2FA4E7;stroke-width:2.0833333333333335;"/><line style="stroke:#2FA4E7;stroke-width:2.0833333333333335;" x1="16.6667" x2="68.75" y1="305.0944" y2="305.0944"/><text fill="#2FA4E7" font-family="Verdana" font-size="12.5" font-weight="bold" lengthAdjust="spacing" textLength="28.125" x="26.0417" y="293.0949">RPC</text></g><!--cluster server--><g id="cluster_server"><path d="M545.8333,525.3194 L598.9583,525.3194 A6.25,6.25 0 0 1 603.125,529.4861 L610.4167,557.1777 L670.8333,557.1777 A4.1667,4.1667 0 0 1 675,561.3444 L675,747.1944 A4.1667,4.1667 0 0 1 670.8333,751.3611 L545.8333,751.3611 A4.1667,4.1667 0 0 1 541.6667,747.1944 L541.6667,529.4861 A4.1667,4.1667 0 0 1 545.8333,525.3194 " fill="none" style="stroke:#2FA4E7;stroke-width:2.0833333333333335;"/><line style="stroke:#2FA4E7;stroke-width:2.0833333333333335;" x1="541.6667" x2="610.4167" y1="557.1777" y2="557.1777"/><text fill="#2FA4E7" font-family="Verdana" font-size="12.5" font-weight="bold" lengthAdjust="spacing" textLength="44.7917" x="551.0417" y="545.1782">server</text></g><!--cluster client--><g id="cluster_client"><path d="M103.125,525.3194 L148.9583,525.3194 A6.25,6.25 0 0 1 153.125,529.4861 L160.4167,557.1777 L201.0417,557.1777 A4.1667,4.1667 0 0 1 205.2083,561.3444 L205.2083,633.6528 A4.1667,4.1667 0 0 1 201.0417,637.8194 L103.125,637.8194 A4.1667,4.1667 0 0 1 98.9583,633.6528 L98.9583,529.4861 A4.1667,4.1667 0 0 1 103.125,525.3194 " fill="none" style="stroke:#2FA4E7;stroke-width:2.0833333333333335;"/><line style="stroke:#2FA4E7;stroke-width:2.0833333333333335;" x1="98.9583" x2="160.4167" y1="557.1777" y2="557.1777"/><text fill="#2FA4E7" font-family="Verdana" font-size="12.5" font-weight="bold" lengthAdjust="spacing" textLength="37.5" x="108.3333" y="545.1782">client</text></g><!--cluster kvraft(lab4)--><g id="cluster_kvraft(lab4)"><path d="M122.9167,86.7778 L217.7083,86.7778 A6.25,6.25 0 0 1 221.875,90.9444 L229.1667,118.6361 L548.9583,118.6361 A4.1667,4.1667 0 0 1 553.125,122.8027 L553.125,244.0694 A4.1667,4.1667 0 0 1 548.9583,248.2361 L122.9167,248.2361 A4.1667,4.1667 0 0 1 118.75,244.0694 L118.75,90.9444 A4.1667,4.1667 0 0 1 122.9167,86.7778 " fill="none" style="stroke:#2FA4E7;stroke-width:2.0833333333333335;"/><line style="stroke:#2FA4E7;stroke-width:2.0833333333333335;" x1="118.75" x2="229.1667" y1="118.6361" y2="118.6361"/><text fill="#2FA4E7" font-family="Verdana" font-size="12.5" font-weight="bold" lengthAdjust="spacing" textLength="86.4583" x="128.125" y="106.6366">kvraft(lab4)</text></g><!--cluster shardctrler(lab5)--><g id="cluster_shardctrler(lab5)"><path d="M582.2917,86.7778 L711.4583,86.7778 A6.25,6.25 0 0 1 715.625,90.9444 L722.9167,118.6361 L1014.5833,118.6361 A4.1667,4.1667 0 0 1 1018.75,122.8027 L1018.75,244.0694 A4.1667,4.1667 0 0 1 1014.5833,248.2361 L582.2917,248.2361 A4.1667,4.1667 0 0 1 578.125,244.0694 L578.125,90.9444 A4.1667,4.1667 0 0 1 582.2917,86.7778 " fill="none" style="stroke:#2FA4E7;stroke-width:2.0833333333333335;"/><line style="stroke:#2FA4E7;stroke-width:2.0833333333333335;" x1="578.125" x2="722.9167" y1="118.6361" y2="118.6361"/><text fill="#2FA4E7" font-family="Verdana" font-size="12.5" font-weight="bold" lengthAdjust="spacing" textLength="120.8333" x="587.5" y="106.6366">shardctrler(lab5)</text></g><!--class Clerk--><g id="elem_Clerk"><rect codeLine="15" fill="none" height="174.4034" id="Clerk" rx="4.1667" ry="4.1667" style="stroke:#2FA4E7;stroke-width:1.0416666666666667;" width="219.7917" x="42.1875" y="326.3611"/><rect fill="url(#g1niwk1e3offak0)" height="60.3673" rx="4.1667" ry="4.1667" style="stroke:url(#g1niwk1e3offak0);stroke-width:1.0416666666666667;" width="219.7917" x="42.1875" y="326.3611"/><rect fill="url(#g1niwk1e3offak0)" height="4.1667" style="stroke:url(#g1niwk1e3offak0);stroke-width:1.0416666666666667;" width="219.7917" x="42.1875" y="382.5617"/><rect codeLine="15" fill="none" height="174.4034" id="Clerk" rx="4.1667" ry="4.1667" style="stroke:#2FA4E7;stroke-width:1.0416666666666667;" width="219.7917" x="42.1875" y="326.3611"/><ellipse cx="118.75" cy="356.5447" fill="none" rx="10.4167" ry="10.4167" style="stroke:#2683B9;stroke-width:1.0416666666666667;"/><path d="M117.3177,352.4595 L117.3177,351.7759 L121.6146,351.7759 L121.6146,352.4595 L120.2962,352.4595 Q120.166,352.4595 120.1009,352.5083 Q120.0521,352.5571 120.0521,352.6548 L120.0521,359.6372 Q120.0521,359.7349 120.1009,359.7837 Q120.166,359.8325 120.2962,359.8325 L121.6146,359.8325 L121.6146,360.5161 L117.3177,360.5161 L117.3177,359.8325 L118.6361,359.8325 Q118.7988,359.8325 118.8314,359.8 Q118.8802,359.7511 118.8802,359.6372 L118.8802,352.6548 Q118.8802,352.5408 118.8314,352.5083 Q118.7988,352.4595 118.6361,352.4595 L117.3177,352.4595 Z " fill="#2FA4E7"/><text fill="#343A40" font-family="Verdana" font-size="12.5" font-style="italic" lengthAdjust="spacing" textLength="52.0833" x="141.6667" y="349.3449">&#171;public&#187;</text><text fill="#343A40" font-family="Verdana" font-size="11.4583" font-style="italic" lengthAdjust="spacing" textLength="31.25" x="152.0833" y="373.9059">Clerk</text><line style="stroke:#2FA4E7;stroke-width:1.0416666666666667;" x1="43.2292" x2="260.9375" y1="386.7284" y2="386.7284"/><line style="stroke:#2FA4E7;stroke-width:1.0416666666666667;" x1="43.2292" x2="260.9375" y1="395.0617" y2="395.0617"/><ellipse cx="53.6458" cy="412.9621" fill="none" rx="3.125" ry="3.125" style="stroke:#2683B9;stroke-width:1.0416666666666667;"/><text fill="#343A40" font-family="Verdana" font-size="11.4583" lengthAdjust="spacing" textLength="183.3333" x="67.1875" y="415.9566">NewOperationId() operation.Id</text><ellipse cx="53.6458" cy="437.3044" fill="none" rx="3.125" ry="3.125" style="stroke:#2683B9;stroke-width:1.0416666666666667;"/><text fill="#343A40" font-family="Verdana" font-size="11.4583" lengthAdjust="spacing" textLength="116.6667" x="67.1875" y="440.299">GetLeader() Server</text><ellipse cx="53.6458" cy="461.6468" fill="none" rx="3.125" ry="3.125" style="stroke:#2683B9;stroke-width:1.0416666666666667;"/><text fill="#343A40" font-family="Verdana" font-size="11.4583" lengthAdjust="spacing" textLength="133.3333" x="67.1875" y="464.6413">GetServers() []Server</text><ellipse cx="53.6458" cy="485.9891" fill="none" rx="3.125" ry="3.125" style="stroke:#2683B9;stroke-width:1.0416666666666667;"/><text fill="#343A40" font-family="Verdana" font-size="11.4583" lengthAdjust="spacing" textLength="183.3333" x="67.1875" y="488.9837">UpdateLeader(leaderIndex int)</text></g><!--class Server--><g id="elem_Server"><rect codeLine="21" fill="none" height="125.7187" id="Server" rx="4.1667" ry="4.1667" style="stroke:#2FA4E7;stroke-width:1.0416666666666667;" width="428.125" x="298.4375" y="350.3194"/><rect fill="url(#g1niwk1e3offak0)" height="60.3673" rx="4.1667" ry="4.1667" style="stroke:url(#g1niwk1e3offak0);stroke-width:1.0416666666666667;" width="428.125" x="298.4375" y="350.3194"/><rect fill="url(#g1niwk1e3offak0)" height="4.1667" style="stroke:url(#g1niwk1e3offak0);stroke-width:1.0416666666666667;" width="428.125" x="298.4375" y="406.5201"/><rect codeLine="21" fill="none" height="125.7187" id="Server" rx="4.1667" ry="4.1667" style="stroke:#2FA4E7;stroke-width:1.0416666666666667;" width="428.125" x="298.4375" y="350.3194"/><ellipse cx="468.2292" cy="380.5031" fill="none" rx="10.4167" ry="10.4167" style="stroke:#2683B9;stroke-width:1.0416666666666667;"/><path d="M466.7969,376.4178 L466.7969,375.7342 L471.0938,375.7342 L471.0938,376.4178 L469.7754,376.4178 Q469.6452,376.4178 469.5801,376.4666 Q469.5313,376.5155 469.5313,376.6131 L469.5313,383.5955 Q469.5313,383.6932 469.5801,383.742 Q469.6452,383.7908 469.7754,383.7908 L471.0938,383.7908 L471.0938,384.4744 L466.7969,384.4744 L466.7969,383.7908 L468.1152,383.7908 Q468.278,383.7908 468.3105,383.7583 Q468.3594,383.7095 468.3594,383.5955 L468.3594,376.6131 Q468.3594,376.4992 468.3105,376.4666 Q468.278,376.4178 468.1152,376.4178 L466.7969,376.4178 Z " fill="#2FA4E7"/><text fill="#343A40" font-family="Verdana" font-size="12.5" font-style="italic" lengthAdjust="spacing" textLength="52.0833" x="491.1458" y="373.3032">&#171;public&#187;</text><text fill="#343A40" font-family="Verdana" font-size="11.4583" font-style="italic" lengthAdjust="spacing" textLength="39.5833" x="497.3958" y="397.8643">Server</text><rect fill="none" height="27.6917" style="stroke:#2FA4E7;stroke-width:1.0416666666666667;stroke-dasharray:2.0,2.0;" width="19.7917" x="709.8958" y="347.1944"/><text fill="#343A40" font-family="Verdana" font-size="12.5" font-style="italic" lengthAdjust="spacing" textLength="7.2917" x="716.1458" y="366.0116">T</text><line style="stroke:#2FA4E7;stroke-width:1.0416666666666667;" x1="299.4792" x2="725.5208" y1="410.6867" y2="410.6867"/><line style="stroke:#2FA4E7;stroke-width:1.0416666666666667;" x1="299.4792" x2="725.5208" y1="419.0201" y2="419.0201"/><ellipse cx="309.8958" cy="436.9204" fill="none" rx="3.125" ry="3.125" style="stroke:#2683B9;stroke-width:1.0416666666666667;"/><text fill="#343A40" font-family="Verdana" font-size="11.4583" lengthAdjust="spacing" textLength="391.6667" x="323.4375" y="439.915">WaitOperation(msgId int64, op operation.Provider) (T, rpcErr.Err)</text><ellipse cx="309.8958" cy="461.2628" fill="none" rx="3.125" ry="3.125" style="stroke:#2683B9;stroke-width:1.0416666666666667;"/><text fill="#343A40" font-family="Verdana" font-size="11.4583" lengthAdjust="spacing" textLength="28.125" x="323.4375" y="464.2573">Kill()</text></g><!--class DataStore--><g id="elem_DataStore"><rect codeLine="25" fill="none" height="174.4034" id="DataStore" rx="4.1667" ry="4.1667" style="stroke:#2FA4E7;stroke-width:1.0416666666666667;" width="378.125" x="763.0208" y="326.3611"/><rect fill="url(#g1niwk1e3offak0)" height="60.3673" rx="4.1667" ry="4.1667" style="stroke:url(#g1niwk1e3offak0);stroke-width:1.0416666666666667;" width="378.125" x="763.0208" y="326.3611"/><rect fill="url(#g1niwk1e3offak0)" height="4.1667" style="stroke:url(#g1niwk1e3offak0);stroke-width:1.0416666666666667;" width="378.125" x="763.0208" y="382.5617"/><rect codeLine="25" fill="none" height="174.4034" id="DataStore" rx="4.1667" ry="4.1667" style="stroke:#2FA4E7;stroke-width:1.0416666666666667;" width="378.125" x="763.0208" y="326.3611"/><ellipse cx="902.6042" cy="356.5447" fill="none" rx="10.4167" ry="10.4167" style="stroke:#2683B9;stroke-width:1.0416666666666667;"/><path d="M901.1719,352.4595 L901.1719,351.7759 L905.4688,351.7759 L905.4688,352.4595 L904.1504,352.4595 Q904.0202,352.4595 903.9551,352.5083 Q903.9063,352.5571 903.9063,352.6548 L903.9063,359.6372 Q903.9063,359.7349 903.9551,359.7837 Q904.0202,359.8325 904.1504,359.8325 L905.4688,359.8325 L905.4688,360.5161 L901.1719,360.5161 L901.1719,359.8325 L902.4902,359.8325 Q902.653,359.8325 902.6855,359.8 Q902.7344,359.7511 902.7344,359.6372 L902.7344,352.6548 Q902.7344,352.5408 902.6855,352.5083 Q902.653,352.4595 902.4902,352.4595 L901.1719,352.4595 Z " fill="#2FA4E7"/><text fill="#343A40" font-family="Verdana" font-size="12.5" font-style="italic" lengthAdjust="spacing" textLength="52.0833" x="930.7292" y="349.3449">&#171;public&#187;</text><text fill="#343A40" font-family="Verdana" font-size="11.4583" font-style="italic" lengthAdjust="spacing" textLength="58.3333" x="927.6042" y="373.9059">DataStore</text><rect fill="none" height="27.6917" style="stroke:#2FA4E7;stroke-width:1.0416666666666667;stroke-dasharray:2.0,2.0;" width="19.7917" x="1124.4792" y="323.2361"/><text fill="#343A40" font-family="Verdana" font-size="12.5" font-style="italic" lengthAdjust="spacing" textLength="7.2917" x="1130.7292" y="342.0532">T</text><line style="stroke:#2FA4E7;stroke-width:1.0416666666666667;" x1="764.0625" x2="1140.1042" y1="386.7284" y2="386.7284"/><line style="stroke:#2FA4E7;stroke-width:1.0416666666666667;" x1="764.0625" x2="1140.1042" y1="395.0617" y2="395.0617"/><ellipse cx="774.4792" cy="412.9621" fill="none" rx="3.125" ry="3.125" style="stroke:#2683B9;stroke-width:1.0416666666666667;"/><text fill="#343A40" font-family="Verdana" font-size="11.4583" lengthAdjust="spacing" textLength="244.7917" x="788.0208" y="415.9566">Operation(provider operation.Provider) T</text><ellipse cx="774.4792" cy="437.3044" fill="none" rx="3.125" ry="3.125" style="stroke:#2683B9;stroke-width:1.0416666666666667;"/><text fill="#343A40" font-family="Verdana" font-size="11.4583" lengthAdjust="spacing" textLength="157.2917" x="788.0208" y="440.299">GetSnapshot() interface{}</text><ellipse cx="774.4792" cy="461.6468" fill="none" rx="3.125" ry="3.125" style="stroke:#2683B9;stroke-width:1.0416666666666667;"/><text fill="#343A40" font-family="Verdana" font-size="11.4583" lengthAdjust="spacing" textLength="190.625" x="788.0208" y="464.6413">LoadFormSnapshot(interface{})</text><ellipse cx="774.4792" cy="485.9891" fill="none" rx="3.125" ry="3.125" style="stroke:#2683B9;stroke-width:1.0416666666666667;"/><text fill="#343A40" font-family="Verdana" font-size="11.4583" lengthAdjust="spacing" textLength="341.6667" x="788.0208" y="488.9837">DebugLog(name string, msg string, details ...interface{})</text></g><!--class Server--><g id="elem_Server"><rect codeLine="6" fill="none" height="51.4257" id="Server" rx="4.1667" ry="4.1667" style="stroke:#2FA4E7;stroke-width:1.0416666666666667;" width="81.25" x="562.5" y="570.1111"/><rect fill="url(#g1niwk1e3offak0)" height="34.759" rx="4.1667" ry="4.1667" style="stroke:url(#g1niwk1e3offak0);stroke-width:1.0416666666666667;" width="81.25" x="562.5" y="570.1111"/><rect fill="url(#g1niwk1e3offak0)" height="4.1667" style="stroke:url(#g1niwk1e3offak0);stroke-width:1.0416666666666667;" width="81.25" x="562.5" y="600.7034"/><rect codeLine="6" fill="none" height="51.4257" id="Server" rx="4.1667" ry="4.1667" style="stroke:#2FA4E7;stroke-width:1.0416666666666667;" width="81.25" x="562.5" y="570.1111"/><ellipse cx="577.0833" cy="587.4906" fill="none" rx="10.4167" ry="10.4167" style="stroke:#2683B9;stroke-width:1.0416666666666667;"/><path d="M575.651,583.4053 L575.651,582.7217 L579.9479,582.7217 L579.9479,583.4053 L578.6296,583.4053 Q578.4993,583.4053 578.4342,583.4541 Q578.3854,583.503 578.3854,583.6006 L578.3854,590.583 Q578.3854,590.6807 578.4342,590.7295 Q578.4993,590.7784 578.6296,590.7784 L579.9479,590.7784 L579.9479,591.4619 L575.651,591.4619 L575.651,590.7784 L576.9694,590.7784 Q577.1322,590.7784 577.1647,590.7458 Q577.2135,590.697 577.2135,590.583 L577.2135,583.6006 Q577.2135,583.4867 577.1647,583.4541 Q577.1322,583.4053 576.9694,583.4053 L575.651,583.4053 Z " fill="#2FA4E7"/><text fill="#343A40" font-family="Verdana" font-size="11.4583" font-style="italic" lengthAdjust="spacing" textLength="39.5833" x="595.8333" y="592.0476">Server</text><line style="stroke:#2FA4E7;stroke-width:1.0416666666666667;" x1="563.5417" x2="642.7083" y1="604.8701" y2="604.8701"/><line style="stroke:#2FA4E7;stroke-width:1.0416666666666667;" x1="563.5417" x2="642.7083" y1="613.2034" y2="613.2034"/></g><!--class DataStore--><g id="elem_DataStore"><rect codeLine="7" fill="none" height="51.4257" id="DataStore" rx="4.1667" ry="4.1667" style="stroke:#2FA4E7;stroke-width:1.0416666666666667;" width="100" x="558.3333" y="683.6528"/><rect fill="url(#g1niwk1e3offak0)" height="34.759" rx="4.1667" ry="4.1667" style="stroke:url(#g1niwk1e3offak0);stroke-width:1.0416666666666667;" width="100" x="558.3333" y="683.6528"/><rect fill="url(#g1niwk1e3offak0)" height="4.1667" style="stroke:url(#g1niwk1e3offak0);stroke-width:1.0416666666666667;" width="100" x="558.3333" y="714.2451"/><rect codeLine="7" fill="none" height="51.4257" id="DataStore" rx="4.1667" ry="4.1667" style="stroke:#2FA4E7;stroke-width:1.0416666666666667;" width="100" x="558.3333" y="683.6528"/><ellipse cx="572.9167" cy="701.0323" fill="none" rx="10.4167" ry="10.4167" style="stroke:#2683B9;stroke-width:1.0416666666666667;"/><path d="M571.4844,696.947 L571.4844,696.2634 L575.7813,696.2634 L575.7813,696.947 L574.4629,696.947 Q574.3327,696.947 574.2676,696.9958 Q574.2188,697.0446 574.2188,697.1423 L574.2188,704.1247 Q574.2188,704.2224 574.2676,704.2712 Q574.3327,704.32 574.4629,704.32 L575.7813,704.32 L575.7813,705.0036 L571.4844,705.0036 L571.4844,704.32 L572.8027,704.32 Q572.9655,704.32 572.998,704.2875 Q573.0469,704.2386 573.0469,704.1247 L573.0469,697.1423 Q573.0469,697.0284 572.998,696.9958 Q572.9655,696.947 572.8027,696.947 L571.4844,696.947 Z " fill="#2FA4E7"/><text fill="#343A40" font-family="Verdana" font-size="11.4583" font-style="italic" lengthAdjust="spacing" textLength="58.3333" x="591.6667" y="705.5893">DataStore</text><line style="stroke:#2FA4E7;stroke-width:1.0416666666666667;" x1="559.375" x2="657.2917" y1="718.4118" y2="718.4118"/><line style="stroke:#2FA4E7;stroke-width:1.0416666666666667;" x1="559.375" x2="657.2917" y1="726.7451" y2="726.7451"/></g><!--class Clerk--><g id="elem_Clerk"><rect codeLine="12" fill="none" height="51.4257" id="Clerk" rx="4.1667" ry="4.1667" style="stroke:#2FA4E7;stroke-width:1.0416666666666667;" width="72.9167" x="115.625" y="570.1111"/><rect fill="url(#g1niwk1e3offak0)" height="34.759" rx="4.1667" ry="4.1667" style="stroke:url(#g1niwk1e3offak0);stroke-width:1.0416666666666667;" width="72.9167" x="115.625" y="570.1111"/><rect fill="url(#g1niwk1e3offak0)" height="4.1667" style="stroke:url(#g1niwk1e3offak0);stroke-width:1.0416666666666667;" width="72.9167" x="115.625" y="600.7034"/><rect codeLine="12" fill="none" height="51.4257" id="Clerk" rx="4.1667" ry="4.1667" style="stroke:#2FA4E7;stroke-width:1.0416666666666667;" width="72.9167" x="115.625" y="570.1111"/><ellipse cx="130.2083" cy="587.4906" fill="none" rx="10.4167" ry="10.4167" style="stroke:#2683B9;stroke-width:1.0416666666666667;"/><path d="M128.776,583.4053 L128.776,582.7217 L133.0729,582.7217 L133.0729,583.4053 L131.7546,583.4053 Q131.6243,583.4053 131.5592,583.4541 Q131.5104,583.503 131.5104,583.6006 L131.5104,590.583 Q131.5104,590.6807 131.5592,590.7295 Q131.6243,590.7784 131.7546,590.7784 L133.0729,590.7784 L133.0729,591.4619 L128.776,591.4619 L128.776,590.7784 L130.0944,590.7784 Q130.2572,590.7784 130.2897,590.7458 Q130.3385,590.697 130.3385,590.583 L130.3385,583.6006 Q130.3385,583.4867 130.2897,583.4541 Q130.2572,583.4053 130.0944,583.4053 L128.776,583.4053 Z " fill="#2FA4E7"/><text fill="#343A40" font-family="Verdana" font-size="11.4583" font-style="italic" lengthAdjust="spacing" textLength="31.25" x="148.9583" y="592.0476">Clerk</text><line style="stroke:#2FA4E7;stroke-width:1.0416666666666667;" x1="116.6667" x2="187.5" y1="604.8701" y2="604.8701"/><line style="stroke:#2FA4E7;stroke-width:1.0416666666666667;" x1="116.6667" x2="187.5" y1="613.2034" y2="613.2034"/></g><!--class KVServer--><g id="elem_KVServer"><rect codeLine="39" fill="none" height="100.1104" id="KVServer" rx="4.1667" ry="4.1667" style="stroke:#2FA4E7;stroke-width:1.0416666666666667;" width="212.5" x="323.9583" y="131.5694"/><rect fill="url(#g1niwk1e3offak0)" height="34.759" rx="4.1667" ry="4.1667" style="stroke:url(#g1niwk1e3offak0);stroke-width:1.0416666666666667;" width="212.5" x="323.9583" y="131.5694"/><rect fill="url(#g1niwk1e3offak0)" height="4.1667" style="stroke:url(#g1niwk1e3offak0);stroke-width:1.0416666666666667;" width="212.5" x="323.9583" y="162.1618"/><rect codeLine="39" fill="none" height="100.1104" id="KVServer" rx="4.1667" ry="4.1667" style="stroke:#2FA4E7;stroke-width:1.0416666666666667;" width="212.5" x="323.9583" y="131.5694"/><ellipse cx="392.1875" cy="148.9489" fill="none" rx="10.4167" ry="10.4167" style="stroke:#2683B9;stroke-width:1.0416666666666667;"/><path d="M392.627,153.0179 Q391.1621,153.0179 390.2995,151.9274 Q389.4531,150.8369 389.4531,148.5746 Q389.4531,146.654 390.3483,145.3682 Q391.2598,144.0824 392.8223,144.0824 Q393.1966,144.0824 393.571,144.1963 Q393.8802,144.3265 394.0918,144.3265 Q394.2546,144.3265 394.3197,144.294 Q394.401,144.2614 394.7266,143.7731 L395.2962,146.5563 L394.6452,146.7679 Q394.3034,145.6937 393.8639,145.2543 Q393.4245,144.8148 392.7246,144.8148 Q391.8132,144.8148 391.2923,145.8728 Q390.7715,146.9144 390.7715,148.5257 Q390.7715,150.2836 391.2272,151.2438 Q391.6829,152.1879 392.6758,152.1879 Q393.3757,152.1879 393.8802,151.6833 Q394.401,151.1625 394.6289,150.0394 L395.2962,150.3812 Q395.0033,151.6019 394.2871,152.3181 Q393.5872,153.0179 392.627,153.0179 Z " fill="#2FA4E7"/><text fill="#343A40" font-family="Verdana" font-size="11.4583" lengthAdjust="spacing" textLength="57.2917" x="417.1875" y="153.506">KVServer</text><line style="stroke:#2FA4E7;stroke-width:1.0416666666666667;" x1="325" x2="535.4167" y1="166.3284" y2="166.3284"/><rect fill="none" height="6.25" style="stroke:#2683B9;stroke-width:1.0416666666666667;" width="6.25" x="332.2917" y="181.1038"/><text fill="#343A40" font-family="Verdana" font-size="11.4583" lengthAdjust="spacing" textLength="176.0417" x="348.9583" y="187.2233">rpcServer: rpc.Server[string]</text><rect fill="none" height="6.25" style="stroke:#2683B9;stroke-width:1.0416666666666667;" width="6.25" x="332.2917" y="205.4461"/><text fill="#343A40" font-family="Verdana" font-size="11.4583" lengthAdjust="spacing" textLength="138.5417" x="348.9583" y="211.5657">data: map[string]string</text><line style="stroke:#2FA4E7;stroke-width:1.0416666666666667;" x1="325" x2="535.4167" y1="223.3465" y2="223.3465"/></g><!--class Clerk--><g id="elem_Clerk"><rect codeLine="43" fill="none" height="75.768" id="Clerk" rx="4.1667" ry="4.1667" style="stroke:#2FA4E7;stroke-width:1.0416666666666667;" width="152.0833" x="135.4167" y="143.5486"/><rect fill="url(#g1niwk1e3offak0)" height="34.759" rx="4.1667" ry="4.1667" style="stroke:url(#g1niwk1e3offak0);stroke-width:1.0416666666666667;" width="152.0833" x="135.4167" y="143.5486"/><rect fill="url(#g1niwk1e3offak0)" height="4.1667" style="stroke:url(#g1niwk1e3offak0);stroke-width:1.0416666666666667;" width="152.0833" x="135.4167" y="174.1409"/><rect codeLine="43" fill="none" height="75.768" id="Clerk" rx="4.1667" ry="4.1667" style="stroke:#2FA4E7;stroke-width:1.0416666666666667;" width="152.0833" x="135.4167" y="143.5486"/><ellipse cx="185.9375" cy="160.9281" fill="none" rx="10.4167" ry="10.4167" style="stroke:#2683B9;stroke-width:1.0416666666666667;"/><path d="M186.377,164.9971 Q184.9121,164.9971 184.0495,163.9066 Q183.2031,162.8161 183.2031,160.5537 Q183.2031,158.6332 184.0983,157.3474 Q185.0098,156.0616 186.5723,156.0616 Q186.9466,156.0616 187.321,156.1755 Q187.6302,156.3057 187.8418,156.3057 Q188.0046,156.3057 188.0697,156.2731 Q188.151,156.2406 188.4766,155.7523 L189.0462,158.5355 L188.3952,158.7471 Q188.0534,157.6729 187.6139,157.2334 Q187.1745,156.794 186.4746,156.794 Q185.5632,156.794 185.0423,157.8519 Q184.5215,158.8936 184.5215,160.5049 Q184.5215,162.2627 184.9772,163.223 Q185.4329,164.167 186.4258,164.167 Q187.1257,164.167 187.6302,163.6625 Q188.151,163.1416 188.3789,162.0186 L189.0462,162.3604 Q188.7533,163.5811 188.0371,164.2972 Q187.3372,164.9971 186.377,164.9971 Z " fill="#2FA4E7"/><text fill="#343A40" font-family="Verdana" font-size="11.4583" lengthAdjust="spacing" textLength="32.2917" x="210.9375" y="165.4851">Clerk</text><line style="stroke:#2FA4E7;stroke-width:1.0416666666666667;" x1="136.4583" x2="286.4583" y1="178.3076" y2="178.3076"/><rect fill="none" height="6.25" style="stroke:#2683B9;stroke-width:1.0416666666666667;" width="6.25" x="143.75" y="193.0829"/><text fill="#343A40" font-family="Verdana" font-size="11.4583" lengthAdjust="spacing" textLength="115.625" x="160.4167" y="199.2025">rpcClerk: rpc.Clerk</text><line style="stroke:#2FA4E7;stroke-width:1.0416666666666667;" x1="136.4583" x2="286.4583" y1="210.9833" y2="210.9833"/></g><!--class ShardCtrler--><g id="elem_ShardCtrler"><rect codeLine="54" fill="none" height="100.1104" id="ShardCtrler" rx="4.1667" ry="4.1667" style="stroke:#2FA4E7;stroke-width:1.0416666666666667;" width="217.7083" x="783.8542" y="131.5694"/><rect fill="url(#g1niwk1e3offak0)" height="34.759" rx="4.1667" ry="4.1667" style="stroke:url(#g1niwk1e3offak0);stroke-width:1.0416666666666667;" width="217.7083" x="783.8542" y="131.5694"/><rect fill="url(#g1niwk1e3offak0)" height="4.1667" style="stroke:url(#g1niwk1e3offak0);stroke-width:1.0416666666666667;" width="217.7083" x="783.8542" y="162.1618"/><rect codeLine="54" fill="none" height="100.1104" id="ShardCtrler" rx="4.1667" ry="4.1667" style="stroke:#2FA4E7;stroke-width:1.0416666666666667;" width="217.7083" x="783.8542" y="131.5694"/><ellipse cx="848.4375" cy="148.9489" fill="none" rx="10.4167" ry="10.4167" style="stroke:#2683B9;stroke-width:1.0416666666666667;"/><path d="M848.877,153.0179 Q847.4121,153.0179 846.5495,151.9274 Q845.7031,150.8369 845.7031,148.5746 Q845.7031,146.654 846.5983,145.3682 Q847.5098,144.0824 849.0723,144.0824 Q849.4466,144.0824 849.821,144.1963 Q850.1302,144.3265 850.3418,144.3265 Q850.5046,144.3265 850.5697,144.294 Q850.651,144.2614 850.9766,143.7731 L851.5462,146.5563 L850.8952,146.7679 Q850.5534,145.6937 850.1139,145.2543 Q849.6745,144.8148 848.9746,144.8148 Q848.0632,144.8148 847.5423,145.8728 Q847.0215,146.9144 847.0215,148.5257 Q847.0215,150.2836 847.4772,151.2438 Q847.9329,152.1879 848.9258,152.1879 Q849.6257,152.1879 850.1302,151.6833 Q850.651,151.1625 850.8789,150.0394 L851.5462,150.3812 Q851.2533,151.6019 850.5371,152.3181 Q849.8372,153.0179 848.877,153.0179 Z " fill="#2FA4E7"/><text fill="#343A40" font-family="Verdana" font-size="11.4583" lengthAdjust="spacing" textLength="69.7917" x="873.4375" y="153.506">ShardCtrler</text><line style="stroke:#2FA4E7;stroke-width:1.0416666666666667;" x1="784.8958" x2="1000.5208" y1="166.3284" y2="166.3284"/><rect fill="none" height="6.25" style="stroke:#2683B9;stroke-width:1.0416666666666667;" width="6.25" x="792.1875" y="181.1038"/><text fill="#343A40" font-family="Verdana" font-size="11.4583" lengthAdjust="spacing" textLength="181.25" x="808.8542" y="187.2233">rpcServer: rpc.Server[Config]</text><rect fill="none" height="6.25" style="stroke:#2683B9;stroke-width:1.0416666666666667;" width="6.25" x="792.1875" y="205.4461"/><text fill="#343A40" font-family="Verdana" font-size="11.4583" lengthAdjust="spacing" textLength="100" x="808.8542" y="211.5657">configs: []Config</text><line style="stroke:#2FA4E7;stroke-width:1.0416666666666667;" x1="784.8958" x2="1000.5208" y1="223.3465" y2="223.3465"/></g><!--class Clerk--><g id="elem_Clerk"><rect codeLine="58" fill="none" height="75.768" id="Clerk" rx="4.1667" ry="4.1667" style="stroke:#2FA4E7;stroke-width:1.0416666666666667;" width="152.0833" x="594.7917" y="143.5486"/><rect fill="url(#g1niwk1e3offak0)" height="34.759" rx="4.1667" ry="4.1667" style="stroke:url(#g1niwk1e3offak0);stroke-width:1.0416666666666667;" width="152.0833" x="594.7917" y="143.5486"/><rect fill="url(#g1niwk1e3offak0)" height="4.1667" style="stroke:url(#g1niwk1e3offak0);stroke-width:1.0416666666666667;" width="152.0833" x="594.7917" y="174.1409"/><rect codeLine="58" fill="none" height="75.768" id="Clerk" rx="4.1667" ry="4.1667" style="stroke:#2FA4E7;stroke-width:1.0416666666666667;" width="152.0833" x="594.7917" y="143.5486"/><ellipse cx="645.3125" cy="160.9281" fill="none" rx="10.4167" ry="10.4167" style="stroke:#2683B9;stroke-width:1.0416666666666667;"/><path d="M645.752,164.9971 Q644.2871,164.9971 643.4245,163.9066 Q642.5781,162.8161 642.5781,160.5537 Q642.5781,158.6332 643.4733,157.3474 Q644.3848,156.0616 645.9473,156.0616 Q646.3216,156.0616 646.696,156.1755 Q647.0052,156.3057 647.2168,156.3057 Q647.3796,156.3057 647.4447,156.2731 Q647.526,156.2406 647.8516,155.7523 L648.4212,158.5355 L647.7702,158.7471 Q647.4284,157.6729 646.9889,157.2334 Q646.5495,156.794 645.8496,156.794 Q644.9382,156.794 644.4173,157.8519 Q643.8965,158.8936 643.8965,160.5049 Q643.8965,162.2627 644.3522,163.223 Q644.8079,164.167 645.8008,164.167 Q646.5007,164.167 647.0052,163.6625 Q647.526,163.1416 647.7539,162.0186 L648.4212,162.3604 Q648.1283,163.5811 647.4121,164.2972 Q646.7122,164.9971 645.752,164.9971 Z " fill="#2FA4E7"/><text fill="#343A40" font-family="Verdana" font-size="11.4583" lengthAdjust="spacing" textLength="32.2917" x="670.3125" y="165.4851">Clerk</text><line style="stroke:#2FA4E7;stroke-width:1.0416666666666667;" x1="595.8333" x2="745.8333" y1="178.3076" y2="178.3076"/><rect fill="none" height="6.25" style="stroke:#2683B9;stroke-width:1.0416666666666667;" width="6.25" x="603.125" y="193.0829"/><text fill="#343A40" font-family="Verdana" font-size="11.4583" lengthAdjust="spacing" textLength="115.625" x="619.7917" y="199.2025">rpcClerk: rpc.Clerk</text><line style="stroke:#2FA4E7;stroke-width:1.0416666666666667;" x1="595.8333" x2="745.8333" y1="210.9833" y2="210.9833"/></g><!--reverse link Server to DataStore--><g id="link_Server_DataStore"><path codeLine="9" d="M604.8658,633.8995 C605.7304,652.3682 606.3229,665.0069 607.1771,683.4653 " fill="none" id="Server-backto-DataStore" style="stroke:#2FA4E7;stroke-width:3.125;"/><polygon fill="none" points="604.2813,621.4132,600.4114,627.8512,604.8658,633.8995,608.7356,627.4615,604.2813,621.4132" style="stroke:#2FA4E7;stroke-width:3.125;"/></g><!--link Clerk to Clerk--><g id="link_Clerk_Clerk"><path codeLine="32" d="M152.0833,500.5278 C152.0833,525.8611 152.0833,532.8715 152.0833,551.0069 " fill="none" id="Clerk-to-Clerk" style="stroke:#2FA4E7;stroke-width:3.125;"/><polygon fill="none" points="152.0833,569.7569,158.3333,551.0069,145.8333,551.0069,152.0833,569.7569" style="stroke:#2FA4E7;stroke-width:3.125;"/></g><!--link Server to Server--><g id="link_Server_Server"><path codeLine="33" d="M543.6875,476.4028 C559.8646,508.5694 570.2957,529.297 582.3582,553.2866 " fill="none" id="Server-to-Server" style="stroke:#2FA4E7;stroke-width:3.125;"/><polygon fill="none" points="590.7813,570.0382,587.942,550.4789,576.7743,556.0943,590.7813,570.0382" style="stroke:#2FA4E7;stroke-width:3.125;"/></g><!--link DataStore to DataStore--><g id="link_DataStore_DataStore"><path codeLine="34" d="M851.2708,500.5278 C777.9688,563.1736 697.9938,631.5133 651.3688,671.3571 " fill="none" id="DataStore-to-DataStore" style="stroke:#2FA4E7;stroke-width:3.125;"/><polygon fill="none" points="637.1146,683.5382,655.4292,676.1085,647.3085,666.6057,637.1146,683.5382" style="stroke:#2FA4E7;stroke-width:3.125;"/></g><!--reverse link Clerk to Clerk--><g id="link_Clerk_Clerk"><path codeLine="46" d="M198.663,232.1299 C191.2359,260.859 183.8021,289.5798 174.3333,326.2361 " fill="none" id="Clerk-backto-Clerk" style="stroke:#2FA4E7;stroke-width:3.125;"/><polygon fill="#2FA4E7" points="201.7917,220.0278,196.1933,225.0359,198.663,232.1299,204.2614,227.1217,201.7917,220.0278" style="stroke:#2FA4E7;stroke-width:3.125;"/></g><!--link KVServer to DataStore--><g id="link_KVServer_DataStore"><path codeLine="48" d="M513.4896,231.7153 C533.9896,241.6736 556.3229,250.8403 578.125,256.5694 C613.9896,265.9861 709.7604,252.7465 744.7917,264.9028 C784.0104,278.5069 807.2979,290.8501 840.1416,315.1313 " fill="none" id="KVServer-to-DataStore" style="stroke:#2FA4E7;stroke-width:3.125;"/><polygon fill="none" points="855.2188,326.2778,843.8571,310.1056,836.4262,320.157,855.2188,326.2778" style="stroke:#2FA4E7;stroke-width:3.125;"/></g><!--reverse link KVServer to Server--><g id="link_KVServer_Server"><path codeLine="50" d="M451.9765,243.3682 C464.3932,278.0244 476.9167,312.9861 490.2708,350.2465 " fill="none" id="KVServer-backto-Server" style="stroke:#2FA4E7;stroke-width:3.125;"/><polygon fill="#2FA4E7" points="447.7604,231.6007,445.9459,238.8898,451.9765,243.3682,453.791,236.0791,447.7604,231.6007" style="stroke:#2FA4E7;stroke-width:3.125;"/></g><!--reverse link Clerk to Clerk--><g id="link_Clerk_Clerk"><path codeLine="61" d="M614.4459,226.7269 C593.7896,241.0915 578.6354,248.7986 553.125,256.5694 C524.1042,265.4132 307.6146,251.9028 280.2083,264.9028 C251.4167,278.559 226.4896,302.059 206.4792,326.3403 " fill="none" id="Clerk-backto-Clerk-1" style="stroke:#2FA4E7;stroke-width:3.125;"/><polygon fill="#2FA4E7" points="624.7083,219.5903,617.1982,219.7377,614.4459,226.7269,621.956,226.5794,624.7083,219.5903" style="stroke:#2FA4E7;stroke-width:3.125;"/></g><!--link ShardCtrler to DataStore--><g id="link_ShardCtrler_DataStore"><path codeLine="63" d="M905.375,231.6007 C912.4896,259.1423 916.8926,276.1552 925.153,308.124 " fill="none" id="ShardCtrler-to-DataStore" style="stroke:#2FA4E7;stroke-width:3.125;"/><polygon fill="none" points="929.8438,326.2778,931.2042,306.5604,919.1017,309.6876,929.8438,326.2778" style="stroke:#2FA4E7;stroke-width:3.125;"/></g><!--reverse link ShardCtrler to Server--><g id="link_ShardCtrler_Server"><path codeLine="65" d="M801.796,237.7402 C786.4002,246.4798 781.1146,249.0173 765.625,256.5694 C756.6667,260.9444 753.6667,260.3611 744.7917,264.9028 C695.8958,289.9236 644.0521,322.2048 601.7813,350.184 " fill="none" id="ShardCtrler-backto-Server" style="stroke:#2FA4E7;stroke-width:3.125;"/><polygon fill="#2FA4E7" points="812.6667,231.5694,805.1744,231.0313,801.796,237.7402,809.2883,238.2784,812.6667,231.5694" style="stroke:#2FA4E7;stroke-width:3.125;"/></g><text fill="#2FA4E7" font-family="Verdana" font-size="10.4167" lengthAdjust="spacing" textLength="242.7083" x="463.5417" y="814.9587">@github.com/ZiRunHua/MIT6.824-6.5840</text><!--SRC=[bLDTZzem47nEVeNx5bgIgoeEdH12bRX-eACjEcWhzNGFIx842sD7ZaChNVFVwzYE2Hojr8SezivwTcSzLbGn9FUBALb0keCSoQ9QCvg6BzGMzqXIb1L3uB6e5ACSmuqG2YLvcrErhTP9AlPNF-XznJzMSFLfjXecDsy6yJ2vlXcy3Wj7sT0_XK5ReKHvGAa30UMQQmCfagM9dOHkGS5I2OcX3bkSY3Zkn8FwI9eoYboTaauPoft9KY97BKXUmCVZmYYUJ1emU4K-uyyl1KfGLF1P5lM8Q7V9BBCf7r3D4JAK6lMTsxZTbXfuUEn2NuiC5BfJpFncFCDVHBVJqodrXN6CLvDdtNq7gdnxqRxCPrb3CHpqTP-TLXTI7AWkqYFHgazaaRwJCj5VpzBSKSQYvtNzR2-LFfOj7Fd5UglZB3WKvLOeFGnVugcsy5n0zbx8lS_fPBWURt5TvNEHHnoq4qibAS_xH4lswmmLK5QI94dEZjVcsiq5apZ-FN7-I9mbd9qCOksOj9VbHt22TinOXzxOkuE4ZOeOh0Uznk4fWx8aTz-Mtk5nCtgx7JLBL-R1AdWq6TeOC29xADge_Ha5bj5qxUdCph8T7MwbljJlGxys5m-3jXLYnJHGzrbvk3tdXj2HM6v1PgcIhB4jhAyxEfSDD3NGlwHE1TzG9pKrwtAa7uSDduia_wyoqDTvxEGlIhiPvsB_0000]--></g></svg>