<?xml version="1.0" encoding="us-ascii" standalone="no"?><svg xmlns="http://www.w3.org/2000/svg" xmlns:xlink="http://www.w3.org/1999/xlink" contentStyleType="text/css" height="800px" preserveAspectRatio="none" style="width:2352px;height:800px;" version="1.1" viewBox="0 0 2352 800" width="2352.0833px" zoomAndPan="magnify"><defs><linearGradient id="gk3x8h0kp26hq0" x1="50%" x2="50%" y1="0%" y2="100%"><stop offset="0%" stop-color="#2FA4E7"/><stop offset="100%" stop-color="#2683B9"/></linearGradient></defs><g><rect fill="none" height="48.2361" id="_title" rx="4.1667" ry="4.1667" style="stroke:#BABDBF;stroke-width:1.0416666666666667;" width="173.9583" x="1084.6354" y="20.8333"/><text fill="#2FA4E7" font-family="Verdana" font-size="20.8333" font-weight="bold" lengthAdjust="spacing" textLength="151.0417" x="1096.0938" y="53.2369">RPC Package</text><!--cluster RPC--><g id="cluster_RPC"><path d="M328.6458,86.7778 L365.1042,86.7778 A6.25,6.25 0 0 1 369.2708,90.9444 L376.5625,118.6361 L2179.6875,118.6361 A4.1667,4.1667 0 0 1 2183.8542,122.8027 L2183.8542,720.1111 A4.1667,4.1667 0 0 1 2179.6875,724.2778 L328.6458,724.2778 A4.1667,4.1667 0 0 1 324.4792,720.1111 L324.4792,90.9444 A4.1667,4.1667 0 0 1 328.6458,86.7778 " fill="none" style="stroke:#2FA4E7;stroke-width:2.0833333333333335;"/><line style="stroke:#2FA4E7;stroke-width:2.0833333333333335;" x1="324.4792" x2="376.5625" y1="118.6361" y2="118.6361"/><text fill="#2FA4E7" font-family="Verdana" font-size="12.5" font-weight="bold" lengthAdjust="spacing" textLength="28.125" x="333.8542" y="106.6366">RPC</text></g><!--cluster client--><g id="cluster_client"><path d="M1669.2708,151.8819 L1715.1042,151.8819 A6.25,6.25 0 0 1 1719.2708,156.0486 L1726.5625,183.7402 L2146.3542,183.7402 A4.1667,4.1667 0 0 1 2150.5208,187.9069 L2150.5208,581.5694 A4.1667,4.1667 0 0 1 2146.3542,585.7361 L1669.2708,585.7361 A4.1667,4.1667 0 0 1 1665.1042,581.5694 L1665.1042,156.0486 A4.1667,4.1667 0 0 1 1669.2708,151.8819 " fill="none" style="stroke:#2FA4E7;stroke-width:2.0833333333333335;"/><line style="stroke:#2FA4E7;stroke-width:2.0833333333333335;" x1="1665.1042" x2="1726.5625" y1="183.7402" y2="183.7402"/><text fill="#2FA4E7" font-family="Verdana" font-size="12.5" font-weight="bold" lengthAdjust="spacing" textLength="37.5" x="1674.4792" y="171.7407">client</text></g><!--cluster server--><g id="cluster_server"><path d="M353.6458,139.9028 L406.7708,139.9028 A6.25,6.25 0 0 1 410.9375,144.0694 L418.2292,171.7611 L1627.6042,171.7611 A4.1667,4.1667 0 0 1 1631.7708,175.9277 L1631.7708,695.1111 A4.1667,4.1667 0 0 1 1627.6042,699.2778 L353.6458,699.2778 A4.1667,4.1667 0 0 1 349.4792,695.1111 L349.4792,144.0694 A4.1667,4.1667 0 0 1 353.6458,139.9028 " fill="none" style="stroke:#2FA4E7;stroke-width:2.0833333333333335;"/><line style="stroke:#2FA4E7;stroke-width:2.0833333333333335;" x1="349.4792" x2="418.2292" y1="171.7611" y2="171.7611"/><text fill="#2FA4E7" font-family="Verdana" font-size="12.5" font-weight="bold" lengthAdjust="spacing" textLength="44.7917" x="358.8542" y="159.7616">server</text></g><!--cluster Raft--><g id="cluster_Raft"><path d="M28.6458,192.5069 L65.1042,192.5069 A6.25,6.25 0 0 1 69.2708,196.6736 L76.5625,224.3652 L286.9792,224.3652 A4.1667,4.1667 0 0 1 291.1458,228.5319 L291.1458,317.5069 A4.1667,4.1667 0 0 1 286.9792,321.6736 L28.6458,321.6736 A4.1667,4.1667 0 0 1 24.4792,317.5069 L24.4792,196.6736 A4.1667,4.1667 0 0 1 28.6458,192.5069 " fill="none" style="stroke:#2FA4E7;stroke-width:2.0833333333333335;"/><line style="stroke:#2FA4E7;stroke-width:2.0833333333333335;" x1="24.4792" x2="76.5625" y1="224.3652" y2="224.3652"/><text fill="#2FA4E7" font-family="Verdana" font-size="12.5" font-weight="bold" lengthAdjust="spacing" textLength="28.125" x="33.8542" y="212.3657">Raft</text></g><!--cluster labrpc--><g id="cluster_labrpc"><path d="M2213.0208,200.8403 L2264.0625,200.8403 A6.25,6.25 0 0 1 2268.2292,205.0069 L2275.5208,232.6986 L2335.9375,232.6986 A4.1667,4.1667 0 0 1 2340.1042,236.8652 L2340.1042,309.1736 A4.1667,4.1667 0 0 1 2335.9375,313.3403 L2213.0208,313.3403 A4.1667,4.1667 0 0 1 2208.8542,309.1736 L2208.8542,205.0069 A4.1667,4.1667 0 0 1 2213.0208,200.8403 " fill="none" style="stroke:#2FA4E7;stroke-width:2.0833333333333335;"/><line style="stroke:#2FA4E7;stroke-width:2.0833333333333335;" x1="2208.8542" x2="2275.5208" y1="232.6986" y2="232.6986"/><text fill="#2FA4E7" font-family="Verdana" font-size="12.5" font-weight="bold" lengthAdjust="spacing" textLength="42.7083" x="2218.2292" y="220.6991">labrpc</text></g><!--class Clerk--><g id="elem_Clerk"><rect codeLine="7" fill="none" height="148.7951" id="Clerk" rx="4.1667" ry="4.1667" style="stroke:#2FA4E7;stroke-width:1.0416666666666667;" width="219.7917" x="1682.2917" y="420.1111"/><rect fill="url(#gk3x8h0kp26hq0)" height="34.759" rx="4.1667" ry="4.1667" style="stroke:url(#gk3x8h0kp26hq0);stroke-width:1.0416666666666667;" width="219.7917" x="1682.2917" y="420.1111"/><rect fill="url(#gk3x8h0kp26hq0)" height="4.1667" style="stroke:url(#gk3x8h0kp26hq0);stroke-width:1.0416666666666667;" width="219.7917" x="1682.2917" y="450.7034"/><rect codeLine="7" fill="none" height="148.7951" id="Clerk" rx="4.1667" ry="4.1667" style="stroke:#2FA4E7;stroke-width:1.0416666666666667;" width="219.7917" x="1682.2917" y="420.1111"/><ellipse cx="1767.1875" cy="437.4906" fill="none" rx="10.4167" ry="10.4167" style="stroke:#2683B9;stroke-width:1.0416666666666667;"/><path d="M1765.7552,433.4053 L1765.7552,432.7217 L1770.0521,432.7217 L1770.0521,433.4053 L1768.7337,433.4053 Q1768.6035,433.4053 1768.5384,433.4541 Q1768.4896,433.503 1768.4896,433.6006 L1768.4896,440.583 Q1768.4896,440.6807 1768.5384,440.7295 Q1768.6035,440.7784 1768.7337,440.7784 L1770.0521,440.7784 L1770.0521,441.4619 L1765.7552,441.4619 L1765.7552,440.7784 L1767.0736,440.7784 Q1767.2363,440.7784 1767.2689,440.7458 Q1767.3177,440.697 1767.3177,440.583 L1767.3177,433.6006 Q1767.3177,433.4867 1767.2689,433.4541 Q1767.2363,433.4053 1767.0736,433.4053 L1765.7552,433.4053 Z " fill="#2FA4E7"/><text fill="#343A40" font-family="Verdana" font-size="11.4583" font-style="italic" lengthAdjust="spacing" textLength="31.25" x="1792.1875" y="442.0476">Clerk</text><line style="stroke:#2FA4E7;stroke-width:1.0416666666666667;" x1="1683.3333" x2="1901.0417" y1="454.8701" y2="454.8701"/><line style="stroke:#2FA4E7;stroke-width:1.0416666666666667;" x1="1683.3333" x2="1901.0417" y1="463.2034" y2="463.2034"/><ellipse cx="1693.75" cy="481.1038" fill="none" rx="3.125" ry="3.125" style="stroke:#2683B9;stroke-width:1.0416666666666667;"/><text fill="#343A40" font-family="Verdana" font-size="11.4583" lengthAdjust="spacing" textLength="183.3333" x="1707.2917" y="484.0983">NewOperationId() operation.Id</text><ellipse cx="1693.75" cy="505.4461" fill="none" rx="3.125" ry="3.125" style="stroke:#2683B9;stroke-width:1.0416666666666667;"/><text fill="#343A40" font-family="Verdana" font-size="11.4583" lengthAdjust="spacing" textLength="116.6667" x="1707.2917" y="508.4407">GetLeader() Server</text><ellipse cx="1693.75" cy="529.7885" fill="none" rx="3.125" ry="3.125" style="stroke:#2683B9;stroke-width:1.0416666666666667;"/><text fill="#343A40" font-family="Verdana" font-size="11.4583" lengthAdjust="spacing" textLength="133.3333" x="1707.2917" y="532.783">GetServers() []Server</text><ellipse cx="1693.75" cy="554.1308" fill="none" rx="3.125" ry="3.125" style="stroke:#2683B9;stroke-width:1.0416666666666667;"/><text fill="#343A40" font-family="Verdana" font-size="11.4583" lengthAdjust="spacing" textLength="183.3333" x="1707.2917" y="557.1253">UpdateLeader(leaderIndex int)</text></g><!--class clerk--><g id="elem_clerk"><rect codeLine="13" fill="none" height="148.7951" id="clerk" rx="4.1667" ry="4.1667" style="stroke:#2FA4E7;stroke-width:1.0416666666666667;" width="142.7083" x="1731.25" y="196.6736"/><rect fill="url(#gk3x8h0kp26hq0)" height="34.759" rx="4.1667" ry="4.1667" style="stroke:url(#gk3x8h0kp26hq0);stroke-width:1.0416666666666667;" width="142.7083" x="1731.25" y="196.6736"/><rect fill="url(#gk3x8h0kp26hq0)" height="4.1667" style="stroke:url(#gk3x8h0kp26hq0);stroke-width:1.0416666666666667;" width="142.7083" x="1731.25" y="227.2659"/><rect codeLine="13" fill="none" height="148.7951" id="clerk" rx="4.1667" ry="4.1667" style="stroke:#2FA4E7;stroke-width:1.0416666666666667;" width="142.7083" x="1731.25" y="196.6736"/><ellipse cx="1778.6458" cy="214.0531" fill="none" rx="10.4167" ry="10.4167" style="stroke:#2683B9;stroke-width:1.0416666666666667;"/><path d="M1779.0853,214.0043 Q1777.7344,213.402 1777.1973,212.93 Q1776.6764,212.4418 1776.6764,211.4326 Q1776.6764,210.6188 1777.3438,209.9027 Q1778.0111,209.1866 1779.2155,209.1866 Q1779.7363,209.1866 1780.2083,209.3493 Q1780.6315,209.5284 1780.778,209.5284 Q1780.8757,209.5284 1780.9408,209.4958 Q1781.0221,209.447 1781.3965,208.682 L1781.6732,211.514 L1781.1198,211.7256 Q1780.6152,210.5863 1780.1921,210.2608 Q1779.7852,209.919 1779.1178,209.919 Q1778.2878,209.919 1777.9948,210.3747 Q1777.7018,210.8142 1777.7018,211.335 Q1777.7018,211.7907 1777.9785,212.0674 Q1778.2552,212.3441 1779.6387,212.9626 Q1780.8431,213.4672 1781.3965,214.1345 Q1781.9499,214.7855 1781.9499,215.6807 Q1781.9499,216.641 1781.2826,217.3897 Q1780.6152,218.1221 1779.362,218.1221 Q1778.8249,218.1221 1778.4017,217.9105 Q1778.0111,217.7803 1777.7995,217.7803 Q1777.7181,217.7803 1777.5879,217.8617 Q1777.474,217.9431 1777.0182,218.2686 L1776.5625,215.404 L1777.1973,215.1924 Q1777.5716,216.5433 1778.125,216.9665 Q1778.6947,217.3897 1779.4108,217.3897 Q1780.1432,217.3897 1780.5013,216.9665 Q1780.8757,216.5433 1780.8757,215.6807 Q1780.8757,215.2738 1780.4525,214.8506 Q1780.0293,214.4274 1779.0853,214.0043 Z " fill="#2FA4E7"/><text fill="#343A40" font-family="Verdana" font-size="11.4583" lengthAdjust="spacing" textLength="29.1667" x="1803.6458" y="218.6101">clerk</text><line style="stroke:#2FA4E7;stroke-width:1.0416666666666667;" x1="1732.2917" x2="1872.9167" y1="231.4326" y2="231.4326"/><rect fill="none" height="6.25" style="stroke:#2683B9;stroke-width:1.0416666666666667;" width="6.25" x="1739.5833" y="246.2079"/><text fill="#343A40" font-family="Verdana" font-size="11.4583" lengthAdjust="spacing" textLength="43.75" x="1756.25" y="252.3275">id int64</text><rect fill="none" height="6.25" style="stroke:#2683B9;stroke-width:1.0416666666666667;" width="6.25" x="1739.5833" y="270.5503"/><text fill="#343A40" font-family="Verdana" font-size="11.4583" lengthAdjust="spacing" textLength="106.25" x="1756.25" y="276.6698">opId atomic.Int64</text><rect fill="none" height="6.25" style="stroke:#2683B9;stroke-width:1.0416666666666667;" width="6.25" x="1739.5833" y="294.8926"/><text fill="#343A40" font-family="Verdana" font-size="11.4583" lengthAdjust="spacing" textLength="105.2083" x="1756.25" y="301.0122">servers: []Server</text><rect fill="none" height="6.25" style="stroke:#2683B9;stroke-width:1.0416666666666667;" width="6.25" x="1739.5833" y="319.235"/><text fill="#343A40" font-family="Verdana" font-size="11.4583" lengthAdjust="spacing" textLength="87.5" x="1756.25" y="325.3545">leader: Server</text><line style="stroke:#2FA4E7;stroke-width:1.0416666666666667;" x1="1732.2917" x2="1872.9167" y1="337.1353" y2="337.1353"/></g><!--class Server--><g id="elem_Server"><rect codeLine="20" fill="none" height="51.4257" id="Server" rx="4.1667" ry="4.1667" style="stroke:#2FA4E7;stroke-width:1.0416666666666667;" width="81.25" x="1939.0625" y="469.0694"/><rect fill="url(#gk3x8h0kp26hq0)" height="34.759" rx="4.1667" ry="4.1667" style="stroke:url(#gk3x8h0kp26hq0);stroke-width:1.0416666666666667;" width="81.25" x="1939.0625" y="469.0694"/><rect fill="url(#gk3x8h0kp26hq0)" height="4.1667" style="stroke:url(#gk3x8h0kp26hq0);stroke-width:1.0416666666666667;" width="81.25" x="1939.0625" y="499.6618"/><rect codeLine="20" fill="none" height="51.4257" id="Server" rx="4.1667" ry="4.1667" style="stroke:#2FA4E7;stroke-width:1.0416666666666667;" width="81.25" x="1939.0625" y="469.0694"/><ellipse cx="1953.6458" cy="486.4489" fill="none" rx="10.4167" ry="10.4167" style="stroke:#2683B9;stroke-width:1.0416666666666667;"/><path d="M1952.2135,482.3636 L1952.2135,481.68 L1956.5104,481.68 L1956.5104,482.3636 L1955.1921,482.3636 Q1955.0618,482.3636 1954.9967,482.4125 Q1954.9479,482.4613 1954.9479,482.5589 L1954.9479,489.5414 Q1954.9479,489.639 1954.9967,489.6879 Q1955.0618,489.7367 1955.1921,489.7367 L1956.5104,489.7367 L1956.5104,490.4203 L1952.2135,490.4203 L1952.2135,489.7367 L1953.5319,489.7367 Q1953.6947,489.7367 1953.7272,489.7041 Q1953.776,489.6553 1953.776,489.5414 L1953.776,482.5589 Q1953.776,482.445 1953.7272,482.4125 Q1953.6947,482.3636 1953.5319,482.3636 L1952.2135,482.3636 Z " fill="#2FA4E7"/><text fill="#343A40" font-family="Verdana" font-size="11.4583" font-style="italic" lengthAdjust="spacing" textLength="39.5833" x="1972.3958" y="491.006">Server</text><line style="stroke:#2FA4E7;stroke-width:1.0416666666666667;" x1="1940.1042" x2="2019.2708" y1="503.8284" y2="503.8284"/><line style="stroke:#2FA4E7;stroke-width:1.0416666666666667;" x1="1940.1042" x2="2019.2708" y1="512.1618" y2="512.1618"/></g><!--class Caller--><g id="elem_Caller"><rect codeLine="21" fill="none" height="51.4257" id="Caller" rx="4.1667" ry="4.1667" style="stroke:#2FA4E7;stroke-width:1.0416666666666667;" width="76.0417" x="2057.2917" y="469.0694"/><rect fill="url(#gk3x8h0kp26hq0)" height="34.759" rx="4.1667" ry="4.1667" style="stroke:url(#gk3x8h0kp26hq0);stroke-width:1.0416666666666667;" width="76.0417" x="2057.2917" y="469.0694"/><rect fill="url(#gk3x8h0kp26hq0)" height="4.1667" style="stroke:url(#gk3x8h0kp26hq0);stroke-width:1.0416666666666667;" width="76.0417" x="2057.2917" y="499.6618"/><rect codeLine="21" fill="none" height="51.4257" id="Caller" rx="4.1667" ry="4.1667" style="stroke:#2FA4E7;stroke-width:1.0416666666666667;" width="76.0417" x="2057.2917" y="469.0694"/><ellipse cx="2071.875" cy="486.4489" fill="none" rx="10.4167" ry="10.4167" style="stroke:#2683B9;stroke-width:1.0416666666666667;"/><path d="M2070.4427,482.3636 L2070.4427,481.68 L2074.7396,481.68 L2074.7396,482.3636 L2073.4212,482.3636 Q2073.291,482.3636 2073.2259,482.4125 Q2073.1771,482.4613 2073.1771,482.5589 L2073.1771,489.5414 Q2073.1771,489.639 2073.2259,489.6879 Q2073.291,489.7367 2073.4212,489.7367 L2074.7396,489.7367 L2074.7396,490.4203 L2070.4427,490.4203 L2070.4427,489.7367 L2071.7611,489.7367 Q2071.9238,489.7367 2071.9564,489.7041 Q2072.0052,489.6553 2072.0052,489.5414 L2072.0052,482.5589 Q2072.0052,482.445 2071.9564,482.4125 Q2071.9238,482.3636 2071.7611,482.3636 L2070.4427,482.3636 Z " fill="#2FA4E7"/><text fill="#343A40" font-family="Verdana" font-size="11.4583" font-style="italic" lengthAdjust="spacing" textLength="34.375" x="2090.625" y="491.006">Caller</text><line style="stroke:#2FA4E7;stroke-width:1.0416666666666667;" x1="2058.3333" x2="2132.2917" y1="503.8284" y2="503.8284"/><line style="stroke:#2FA4E7;stroke-width:1.0416666666666667;" x1="2058.3333" x2="2132.2917" y1="512.1618" y2="512.1618"/></g><!--class server--><g id="elem_server"><rect codeLine="22" fill="none" height="75.768" id="server" rx="4.1667" ry="4.1667" style="stroke:#2FA4E7;stroke-width:1.0416666666666667;" width="116.6667" x="1969.2708" y="233.1319"/><rect fill="url(#gk3x8h0kp26hq0)" height="34.759" rx="4.1667" ry="4.1667" style="stroke:url(#gk3x8h0kp26hq0);stroke-width:1.0416666666666667;" width="116.6667" x="1969.2708" y="233.1319"/><rect fill="url(#gk3x8h0kp26hq0)" height="4.1667" style="stroke:url(#gk3x8h0kp26hq0);stroke-width:1.0416666666666667;" width="116.6667" x="1969.2708" y="263.7243"/><rect codeLine="22" fill="none" height="75.768" id="server" rx="4.1667" ry="4.1667" style="stroke:#2FA4E7;stroke-width:1.0416666666666667;" width="116.6667" x="1969.2708" y="233.1319"/><ellipse cx="2000.2604" cy="250.5114" fill="none" rx="10.4167" ry="10.4167" style="stroke:#2683B9;stroke-width:1.0416666666666667;"/><path d="M2000.6999,250.4626 Q1999.349,249.8604 1998.8118,249.3884 Q1998.291,248.9001 1998.291,247.891 Q1998.291,247.0772 1998.9583,246.361 Q1999.6257,245.6449 2000.8301,245.6449 Q2001.3509,245.6449 2001.8229,245.8076 Q2002.2461,245.9867 2002.3926,245.9867 Q2002.4902,245.9867 2002.5553,245.9541 Q2002.6367,245.9053 2003.0111,245.1403 L2003.2878,247.9724 L2002.7344,248.1839 Q2002.2298,247.0446 2001.8066,246.7191 Q2001.3997,246.3773 2000.7324,246.3773 Q1999.9023,246.3773 1999.6094,246.833 Q1999.3164,247.2725 1999.3164,247.7933 Q1999.3164,248.2491 1999.5931,248.5257 Q1999.8698,248.8024 2001.2533,249.4209 Q2002.4577,249.9255 2003.0111,250.5928 Q2003.5645,251.2438 2003.5645,252.139 Q2003.5645,253.0993 2002.8971,253.848 Q2002.2298,254.5804 2000.9766,254.5804 Q2000.4395,254.5804 2000.0163,254.3688 Q1999.6257,254.2386 1999.4141,254.2386 Q1999.3327,254.2386 1999.2025,254.32 Q1999.0885,254.4014 1998.6328,254.7269 L1998.1771,251.8623 L1998.8118,251.6507 Q1999.1862,253.0017 1999.7396,253.4248 Q2000.3092,253.848 2001.0254,253.848 Q2001.7578,253.848 2002.1159,253.4248 Q2002.4902,253.0017 2002.4902,252.139 Q2002.4902,251.7321 2002.0671,251.3089 Q2001.6439,250.8858 2000.6999,250.4626 Z " fill="#2FA4E7"/><text fill="#343A40" font-family="Verdana" font-size="11.4583" lengthAdjust="spacing" textLength="38.5417" x="2022.6563" y="255.0685">server</text><line style="stroke:#2FA4E7;stroke-width:1.0416666666666667;" x1="1970.3125" x2="2084.8958" y1="267.8909" y2="267.8909"/><ellipse cx="1980.7292" cy="285.7913" fill="none" rx="3.125" ry="3.125" style="stroke:#2683B9;stroke-width:1.0416666666666667;"/><text fill="#343A40" font-family="Verdana" font-size="11.4583" lengthAdjust="spacing" textLength="80.2083" x="1994.2708" y="288.7858">Caller: Caller</text><line style="stroke:#2FA4E7;stroke-width:1.0416666666666667;" x1="1970.3125" x2="2084.8958" y1="300.5666" y2="300.5666"/></g><!--class server--><g id="elem_server"><rect codeLine="35" fill="none" height="173.1374" id="server" rx="4.1667" ry="4.1667" style="stroke:#2FA4E7;stroke-width:1.0416666666666667;" width="266.6667" x="817.1875" y="184.6944"/><rect fill="url(#gk3x8h0kp26hq0)" height="34.759" rx="4.1667" ry="4.1667" style="stroke:url(#gk3x8h0kp26hq0);stroke-width:1.0416666666666667;" width="266.6667" x="817.1875" y="184.6944"/><rect fill="url(#gk3x8h0kp26hq0)" height="4.1667" style="stroke:url(#gk3x8h0kp26hq0);stroke-width:1.0416666666666667;" width="266.6667" x="817.1875" y="215.2868"/><rect codeLine="35" fill="none" height="173.1374" id="server" rx="4.1667" ry="4.1667" style="stroke:#2FA4E7;stroke-width:1.0416666666666667;" width="266.6667" x="817.1875" y="184.6944"/><ellipse cx="910.9375" cy="202.0739" fill="none" rx="10.4167" ry="10.4167" style="stroke:#2683B9;stroke-width:1.0416666666666667;"/><path d="M911.377,202.0251 Q910.026,201.4229 909.4889,200.9509 Q908.9681,200.4626 908.9681,199.4535 Q908.9681,198.6397 909.6354,197.9235 Q910.3027,197.2074 911.5072,197.2074 Q912.028,197.2074 912.5,197.3701 Q912.9232,197.5492 913.0697,197.5492 Q913.1673,197.5492 913.2324,197.5166 Q913.3138,197.4678 913.6882,196.7028 L913.9648,199.5349 L913.4115,199.7464 Q912.9069,198.6071 912.4837,198.2816 Q912.0768,197.9398 911.4095,197.9398 Q910.5794,197.9398 910.2865,198.3955 Q909.9935,198.835 909.9935,199.3558 Q909.9935,199.8116 910.2702,200.0882 Q910.5469,200.3649 911.9303,200.9834 Q913.1348,201.488 913.6882,202.1553 Q914.2415,202.8063 914.2415,203.7015 Q914.2415,204.6618 913.5742,205.4105 Q912.9069,206.1429 911.6536,206.1429 Q911.1165,206.1429 910.6934,205.9313 Q910.3027,205.8011 910.0911,205.8011 Q910.0098,205.8011 909.8796,205.8825 Q909.7656,205.9639 909.3099,206.2894 L908.8542,203.4248 L909.4889,203.2132 Q909.8633,204.5642 910.4167,204.9873 Q910.9863,205.4105 911.7025,205.4105 Q912.4349,205.4105 912.793,204.9873 Q913.1673,204.5642 913.1673,203.7015 Q913.1673,203.2946 912.7441,202.8714 Q912.321,202.4483 911.377,202.0251 Z " fill="#2FA4E7"/><text fill="#343A40" font-family="Verdana" font-size="11.4583" lengthAdjust="spacing" textLength="38.5417" x="935.9375" y="206.631">server</text><rect fill="none" height="27.6917" style="stroke:#2FA4E7;stroke-width:1.0416666666666667;stroke-dasharray:2.0,2.0;" width="19.7917" x="1067.1875" y="181.5694"/><text fill="#343A40" font-family="Verdana" font-size="12.5" font-style="italic" lengthAdjust="spacing" textLength="7.2917" x="1073.4375" y="200.3866">T</text><line style="stroke:#2FA4E7;stroke-width:1.0416666666666667;" x1="818.2292" x2="1082.8125" y1="219.4534" y2="219.4534"/><rect fill="none" height="6.25" style="stroke:#2683B9;stroke-width:1.0416666666666667;" width="6.25" x="825.5208" y="234.2288"/><text fill="#343A40" font-family="Verdana" font-size="11.4583" lengthAdjust="spacing" textLength="230.2083" x="842.1875" y="240.3483">clientById: map[int64]*clientState&lt;T&gt;</text><rect fill="none" height="6.25" style="stroke:#2683B9;stroke-width:1.0416666666666667;" width="6.25" x="825.5208" y="258.5711"/><text fill="#343A40" font-family="Verdana" font-size="11.4583" lengthAdjust="spacing" textLength="121.875" x="842.1875" y="264.6907">data: DataStore&lt;T&gt;</text><rect fill="none" height="6.25" style="stroke:#2683B9;stroke-width:1.0416666666666667;" width="6.25" x="825.5208" y="282.9135"/><text fill="#343A40" font-family="Verdana" font-size="11.4583" lengthAdjust="spacing" textLength="54.1667" x="842.1875" y="289.033">raft: Raft</text><rect fill="none" height="6.25" style="stroke:#2683B9;stroke-width:1.0416666666666667;" width="6.25" x="825.5208" y="307.2558"/><text fill="#343A40" font-family="Verdana" font-size="11.4583" lengthAdjust="spacing" textLength="158.3333" x="842.1875" y="313.3753">raftPersister: RaftPersister</text><rect fill="none" height="6.25" style="stroke:#2683B9;stroke-width:1.0416666666666667;" width="6.25" x="825.5208" y="331.5982"/><text fill="#343A40" font-family="Verdana" font-size="11.4583" lengthAdjust="spacing" textLength="171.875" x="842.1875" y="337.7177">applyCh: chan raft.ApplyMsg</text><line style="stroke:#2FA4E7;stroke-width:1.0416666666666667;" x1="818.2292" x2="1082.8125" y1="349.4985" y2="349.4985"/></g><!--class Server--><g id="elem_Server"><rect codeLine="42" fill="none" height="100.1104" id="Server" rx="4.1667" ry="4.1667" style="stroke:#2FA4E7;stroke-width:1.0416666666666667;" width="219.7917" x="840.625" y="444.5903"/><rect fill="url(#gk3x8h0kp26hq0)" height="34.759" rx="4.1667" ry="4.1667" style="stroke:url(#gk3x8h0kp26hq0);stroke-width:1.0416666666666667;" width="219.7917" x="840.625" y="444.5903"/><rect fill="url(#gk3x8h0kp26hq0)" height="4.1667" style="stroke:url(#gk3x8h0kp26hq0);stroke-width:1.0416666666666667;" width="219.7917" x="840.625" y="475.1826"/><rect codeLine="42" fill="none" height="100.1104" id="Server" rx="4.1667" ry="4.1667" style="stroke:#2FA4E7;stroke-width:1.0416666666666667;" width="219.7917" x="840.625" y="444.5903"/><ellipse cx="910.4167" cy="461.9698" fill="none" rx="10.4167" ry="10.4167" style="stroke:#2683B9;stroke-width:1.0416666666666667;"/><path d="M908.9844,457.8845 L908.9844,457.2009 L913.2813,457.2009 L913.2813,457.8845 L911.9629,457.8845 Q911.8327,457.8845 911.7676,457.9333 Q911.7188,457.9821 911.7188,458.0798 L911.7188,465.0622 Q911.7188,465.1599 911.7676,465.2087 Q911.8327,465.2575 911.9629,465.2575 L913.2813,465.2575 L913.2813,465.9411 L908.9844,465.9411 L908.9844,465.2575 L910.3027,465.2575 Q910.4655,465.2575 910.498,465.225 Q910.5469,465.1761 910.5469,465.0622 L910.5469,458.0798 Q910.5469,457.9659 910.498,457.9333 Q910.4655,457.8845 910.3027,457.8845 L908.9844,457.8845 Z " fill="#2FA4E7"/><text fill="#343A40" font-family="Verdana" font-size="11.4583" font-style="italic" lengthAdjust="spacing" textLength="39.5833" x="935.4167" y="466.5268">Server</text><rect fill="none" height="27.6917" style="stroke:#2FA4E7;stroke-width:1.0416666666666667;stroke-dasharray:2.0,2.0;" width="19.7917" x="1043.75" y="441.4653"/><text fill="#343A40" font-family="Verdana" font-size="12.5" font-style="italic" lengthAdjust="spacing" textLength="7.2917" x="1050" y="460.2824">T</text><line style="stroke:#2FA4E7;stroke-width:1.0416666666666667;" x1="841.6667" x2="1059.375" y1="479.3493" y2="479.3493"/><line style="stroke:#2FA4E7;stroke-width:1.0416666666666667;" x1="841.6667" x2="1059.375" y1="487.6826" y2="487.6826"/><ellipse cx="852.0833" cy="505.5829" fill="none" rx="3.125" ry="3.125" style="stroke:#2683B9;stroke-width:1.0416666666666667;"/><text fill="#343A40" font-family="Verdana" font-size="11.4583" lengthAdjust="spacing" textLength="183.3333" x="865.625" y="508.5775">WaitOperation() (T, rpcErr.Err)</text><ellipse cx="852.0833" cy="529.9253" fill="none" rx="3.125" ry="3.125" style="stroke:#2683B9;stroke-width:1.0416666666666667;"/><text fill="#343A40" font-family="Verdana" font-size="11.4583" lengthAdjust="spacing" textLength="28.125" x="865.625" y="532.9198">Kill()</text></g><!--class DataStore--><g id="elem_DataStore"><rect codeLine="46" fill="none" height="124.4527" id="DataStore" rx="4.1667" ry="4.1667" style="stroke:#2FA4E7;stroke-width:1.0416666666666667;" width="281.25" x="1097.3958" y="432.6111"/><rect fill="url(#gk3x8h0kp26hq0)" height="34.759" rx="4.1667" ry="4.1667" style="stroke:url(#gk3x8h0kp26hq0);stroke-width:1.0416666666666667;" width="281.25" x="1097.3958" y="432.6111"/><rect fill="url(#gk3x8h0kp26hq0)" height="4.1667" style="stroke:url(#gk3x8h0kp26hq0);stroke-width:1.0416666666666667;" width="281.25" x="1097.3958" y="463.2034"/><rect codeLine="46" fill="none" height="124.4527" id="DataStore" rx="4.1667" ry="4.1667" style="stroke:#2FA4E7;stroke-width:1.0416666666666667;" width="281.25" x="1097.3958" y="432.6111"/><ellipse cx="1188.5417" cy="449.9906" fill="none" rx="10.4167" ry="10.4167" style="stroke:#2683B9;stroke-width:1.0416666666666667;"/><path d="M1187.1094,445.9053 L1187.1094,445.2217 L1191.4063,445.2217 L1191.4063,445.9053 L1190.0879,445.9053 Q1189.9577,445.9053 1189.8926,445.9541 Q1189.8438,446.003 1189.8438,446.1006 L1189.8438,453.083 Q1189.8438,453.1807 1189.8926,453.2295 Q1189.9577,453.2784 1190.0879,453.2784 L1191.4063,453.2784 L1191.4063,453.9619 L1187.1094,453.9619 L1187.1094,453.2784 L1188.4277,453.2784 Q1188.5905,453.2784 1188.623,453.2458 Q1188.6719,453.197 1188.6719,453.083 L1188.6719,446.1006 Q1188.6719,445.9867 1188.623,445.9541 Q1188.5905,445.9053 1188.4277,445.9053 L1187.1094,445.9053 Z " fill="#2FA4E7"/><text fill="#343A40" font-family="Verdana" font-size="11.4583" font-style="italic" lengthAdjust="spacing" textLength="58.3333" x="1213.5417" y="454.5476">DataStore</text><rect fill="none" height="27.6917" style="stroke:#2FA4E7;stroke-width:1.0416666666666667;stroke-dasharray:2.0,2.0;" width="19.7917" x="1361.9792" y="429.4861"/><text fill="#343A40" font-family="Verdana" font-size="12.5" font-style="italic" lengthAdjust="spacing" textLength="7.2917" x="1368.2292" y="448.3032">T</text><line style="stroke:#2FA4E7;stroke-width:1.0416666666666667;" x1="1098.4375" x2="1377.6042" y1="467.3701" y2="467.3701"/><line style="stroke:#2FA4E7;stroke-width:1.0416666666666667;" x1="1098.4375" x2="1377.6042" y1="475.7034" y2="475.7034"/><ellipse cx="1108.8542" cy="493.6038" fill="none" rx="3.125" ry="3.125" style="stroke:#2683B9;stroke-width:1.0416666666666667;"/><text fill="#343A40" font-family="Verdana" font-size="11.4583" lengthAdjust="spacing" textLength="244.7917" x="1122.3958" y="496.5983">Operation(provider operation.Provider) T</text><ellipse cx="1108.8542" cy="517.9461" fill="none" rx="3.125" ry="3.125" style="stroke:#2683B9;stroke-width:1.0416666666666667;"/><text fill="#343A40" font-family="Verdana" font-size="11.4583" lengthAdjust="spacing" textLength="157.2917" x="1122.3958" y="520.9407">GetSnapshot() interface{}</text><ellipse cx="1108.8542" cy="542.2885" fill="none" rx="3.125" ry="3.125" style="stroke:#2683B9;stroke-width:1.0416666666666667;"/><text fill="#343A40" font-family="Verdana" font-size="11.4583" lengthAdjust="spacing" textLength="190.625" x="1122.3958" y="545.283">LoadFormSnapshot(interface{})</text></g><!--class Raft--><g id="elem_Raft"><rect codeLine="52" fill="none" height="124.4527" id="Raft" rx="4.1667" ry="4.1667" style="stroke:#2FA4E7;stroke-width:1.0416666666666667;" width="255.2083" x="548.9583" y="432.6111"/><rect fill="url(#gk3x8h0kp26hq0)" height="34.759" rx="4.1667" ry="4.1667" style="stroke:url(#gk3x8h0kp26hq0);stroke-width:1.0416666666666667;" width="255.2083" x="548.9583" y="432.6111"/><rect fill="url(#gk3x8h0kp26hq0)" height="4.1667" style="stroke:url(#gk3x8h0kp26hq0);stroke-width:1.0416666666666667;" width="255.2083" x="548.9583" y="463.2034"/><rect codeLine="52" fill="none" height="124.4527" id="Raft" rx="4.1667" ry="4.1667" style="stroke:#2FA4E7;stroke-width:1.0416666666666667;" width="255.2083" x="548.9583" y="432.6111"/><ellipse cx="655.2083" cy="449.9906" fill="none" rx="10.4167" ry="10.4167" style="stroke:#2683B9;stroke-width:1.0416666666666667;"/><path d="M653.776,445.9053 L653.776,445.2217 L658.0729,445.2217 L658.0729,445.9053 L656.7546,445.9053 Q656.6243,445.9053 656.5592,445.9541 Q656.5104,446.003 656.5104,446.1006 L656.5104,453.083 Q656.5104,453.1807 656.5592,453.2295 Q656.6243,453.2784 656.7546,453.2784 L658.0729,453.2784 L658.0729,453.9619 L653.776,453.9619 L653.776,453.2784 L655.0944,453.2784 Q655.2572,453.2784 655.2897,453.2458 Q655.3385,453.197 655.3385,453.083 L655.3385,446.1006 Q655.3385,445.9867 655.2897,445.9541 Q655.2572,445.9053 655.0944,445.9053 L653.776,445.9053 Z " fill="#2FA4E7"/><text fill="#343A40" font-family="Verdana" font-size="11.4583" font-style="italic" lengthAdjust="spacing" textLength="23.9583" x="680.2083" y="454.5476">Raft</text><line style="stroke:#2FA4E7;stroke-width:1.0416666666666667;" x1="550" x2="803.125" y1="467.3701" y2="467.3701"/><line style="stroke:#2FA4E7;stroke-width:1.0416666666666667;" x1="550" x2="803.125" y1="475.7034" y2="475.7034"/><ellipse cx="560.4167" cy="493.6038" fill="none" rx="3.125" ry="3.125" style="stroke:#2683B9;stroke-width:1.0416666666666667;"/><text fill="#343A40" font-family="Verdana" font-size="11.4583" lengthAdjust="spacing" textLength="202.0833" x="573.9583" y="496.5983">Start(c interface{}) (int, int, bool)</text><ellipse cx="560.4167" cy="517.9461" fill="none" rx="3.125" ry="3.125" style="stroke:#2683B9;stroke-width:1.0416666666666667;"/><text fill="#343A40" font-family="Verdana" font-size="11.4583" lengthAdjust="spacing" textLength="218.75" x="573.9583" y="520.9407">Snapshot(index int, snapshot []byte)</text><ellipse cx="560.4167" cy="542.2885" fill="none" rx="3.125" ry="3.125" style="stroke:#2683B9;stroke-width:1.0416666666666667;"/><text fill="#343A40" font-family="Verdana" font-size="11.4583" lengthAdjust="spacing" textLength="28.125" x="573.9583" y="545.283">Kill()</text></g><!--class RaftPersister--><g id="elem_RaftPersister"><rect codeLine="58" fill="none" height="75.768" id="RaftPersister" rx="4.1667" ry="4.1667" style="stroke:#2FA4E7;stroke-width:1.0416666666666667;" width="145.8333" x="366.1458" y="456.5694"/><rect fill="url(#gk3x8h0kp26hq0)" height="34.759" rx="4.1667" ry="4.1667" style="stroke:url(#gk3x8h0kp26hq0);stroke-width:1.0416666666666667;" width="145.8333" x="366.1458" y="456.5694"/><rect fill="url(#gk3x8h0kp26hq0)" height="4.1667" style="stroke:url(#gk3x8h0kp26hq0);stroke-width:1.0416666666666667;" width="145.8333" x="366.1458" y="487.1618"/><rect codeLine="58" fill="none" height="75.768" id="RaftPersister" rx="4.1667" ry="4.1667" style="stroke:#2FA4E7;stroke-width:1.0416666666666667;" width="145.8333" x="366.1458" y="456.5694"/><ellipse cx="393.3854" cy="473.9489" fill="none" rx="10.4167" ry="10.4167" style="stroke:#2683B9;stroke-width:1.0416666666666667;"/><path d="M391.9531,469.8636 L391.9531,469.18 L396.25,469.18 L396.25,469.8636 L394.9316,469.8636 Q394.8014,469.8636 394.7363,469.9125 Q394.6875,469.9613 394.6875,470.0589 L394.6875,477.0414 Q394.6875,477.139 394.7363,477.1879 Q394.8014,477.2367 394.9316,477.2367 L396.25,477.2367 L396.25,477.9203 L391.9531,477.9203 L391.9531,477.2367 L393.2715,477.2367 Q393.4342,477.2367 393.4668,477.2041 Q393.5156,477.1553 393.5156,477.0414 L393.5156,470.0589 Q393.5156,469.945 393.4668,469.9125 Q393.4342,469.8636 393.2715,469.8636 L391.9531,469.8636 Z " fill="#2FA4E7"/><text fill="#343A40" font-family="Verdana" font-size="11.4583" font-style="italic" lengthAdjust="spacing" textLength="76.0417" x="414.9479" y="478.506">RaftPersister</text><line style="stroke:#2FA4E7;stroke-width:1.0416666666666667;" x1="367.1875" x2="510.9375" y1="491.3284" y2="491.3284"/><line style="stroke:#2FA4E7;stroke-width:1.0416666666666667;" x1="367.1875" x2="510.9375" y1="499.6618" y2="499.6618"/><ellipse cx="377.6042" cy="517.5621" fill="none" rx="3.125" ry="3.125" style="stroke:#2683B9;stroke-width:1.0416666666666667;"/><text fill="#343A40" font-family="Verdana" font-size="11.4583" lengthAdjust="spacing" textLength="109.375" x="391.1458" y="520.5566">RaftStateSize() int</text></g><!--class clientState--><g id="elem_clientState"><rect codeLine="62" fill="none" height="75.768" id="clientState" rx="4.1667" ry="4.1667" style="stroke:#2FA4E7;stroke-width:1.0416666666666667;" width="200" x="1415.1042" y="456.5694"/><rect fill="url(#gk3x8h0kp26hq0)" height="34.759" rx="4.1667" ry="4.1667" style="stroke:url(#gk3x8h0kp26hq0);stroke-width:1.0416666666666667;" width="200" x="1415.1042" y="456.5694"/><rect fill="url(#gk3x8h0kp26hq0)" height="4.1667" style="stroke:url(#gk3x8h0kp26hq0);stroke-width:1.0416666666666667;" width="200" x="1415.1042" y="487.1618"/><rect codeLine="62" fill="none" height="75.768" id="clientState" rx="4.1667" ry="4.1667" style="stroke:#2FA4E7;stroke-width:1.0416666666666667;" width="200" x="1415.1042" y="456.5694"/><ellipse cx="1463.5417" cy="473.9489" fill="none" rx="10.4167" ry="10.4167" style="stroke:#2683B9;stroke-width:1.0416666666666667;"/><path d="M1463.9811,473.9001 Q1462.6302,473.2979 1462.0931,472.8259 Q1461.5723,472.3376 1461.5723,471.3285 Q1461.5723,470.5147 1462.2396,469.7985 Q1462.9069,469.0824 1464.1113,469.0824 Q1464.6322,469.0824 1465.1042,469.2451 Q1465.5273,469.4242 1465.6738,469.4242 Q1465.7715,469.4242 1465.8366,469.3916 Q1465.918,469.3428 1466.2923,468.5778 L1466.569,471.4099 L1466.0156,471.6214 Q1465.5111,470.4821 1465.0879,470.1566 Q1464.681,469.8148 1464.0137,469.8148 Q1463.1836,469.8148 1462.8906,470.2705 Q1462.5977,470.71 1462.5977,471.2308 Q1462.5977,471.6866 1462.8743,471.9632 Q1463.151,472.2399 1464.5345,472.8584 Q1465.7389,473.363 1466.2923,474.0303 Q1466.8457,474.6813 1466.8457,475.5765 Q1466.8457,476.5368 1466.1784,477.2855 Q1465.5111,478.0179 1464.2578,478.0179 Q1463.7207,478.0179 1463.2975,477.8063 Q1462.9069,477.6761 1462.6953,477.6761 Q1462.6139,477.6761 1462.4837,477.7575 Q1462.3698,477.8389 1461.9141,478.1644 L1461.4583,475.2998 L1462.0931,475.0882 Q1462.4674,476.4392 1463.0208,476.8623 Q1463.5905,477.2855 1464.3066,477.2855 Q1465.0391,477.2855 1465.3971,476.8623 Q1465.7715,476.4392 1465.7715,475.5765 Q1465.7715,475.1696 1465.3483,474.7464 Q1464.9251,474.3233 1463.9811,473.9001 Z " fill="#2FA4E7"/><text fill="#343A40" font-family="Verdana" font-size="11.4583" lengthAdjust="spacing" textLength="62.5" x="1488.5417" y="478.506">clientState</text><rect fill="none" height="27.6917" style="stroke:#2FA4E7;stroke-width:1.0416666666666667;stroke-dasharray:2.0,2.0;" width="19.7917" x="1598.4375" y="453.4444"/><text fill="#343A40" font-family="Verdana" font-size="12.5" font-style="italic" lengthAdjust="spacing" textLength="7.2917" x="1604.6875" y="472.2616">T</text><line style="stroke:#2FA4E7;stroke-width:1.0416666666666667;" x1="1416.1458" x2="1614.0625" y1="491.3284" y2="491.3284"/><rect fill="none" height="6.25" style="stroke:#2683B9;stroke-width:1.0416666666666667;" width="6.25" x="1423.4375" y="506.1038"/><text fill="#343A40" font-family="Verdana" font-size="11.4583" lengthAdjust="spacing" textLength="163.5417" x="1440.1042" y="512.2233">waiter:*OperationWaiter[T]</text><line style="stroke:#2FA4E7;stroke-width:1.0416666666666667;" x1="1416.1458" x2="1614.0625" y1="524.0041" y2="524.0041"/></g><!--class operationWaiter--><g id="elem_operationWaiter"><rect codeLine="66" fill="none" height="51.4257" id="operationWaiter" rx="4.1667" ry="4.1667" style="stroke:#2FA4E7;stroke-width:1.0416666666666667;" width="158.3333" x="1435.9375" y="631.5694"/><rect fill="url(#gk3x8h0kp26hq0)" height="34.759" rx="4.1667" ry="4.1667" style="stroke:url(#gk3x8h0kp26hq0);stroke-width:1.0416666666666667;" width="158.3333" x="1435.9375" y="631.5694"/><rect fill="url(#gk3x8h0kp26hq0)" height="4.1667" style="stroke:url(#gk3x8h0kp26hq0);stroke-width:1.0416666666666667;" width="158.3333" x="1435.9375" y="662.1618"/><rect codeLine="66" fill="none" height="51.4257" id="operationWaiter" rx="4.1667" ry="4.1667" style="stroke:#2FA4E7;stroke-width:1.0416666666666667;" width="158.3333" x="1435.9375" y="631.5694"/><ellipse cx="1450.5208" cy="648.9489" fill="none" rx="10.4167" ry="10.4167" style="stroke:#2683B9;stroke-width:1.0416666666666667;"/><path d="M1450.9603,648.9001 Q1449.6094,648.2979 1449.0723,647.8259 Q1448.5514,647.3376 1448.5514,646.3285 Q1448.5514,645.5147 1449.2188,644.7985 Q1449.8861,644.0824 1451.0905,644.0824 Q1451.6113,644.0824 1452.0833,644.2451 Q1452.5065,644.4242 1452.653,644.4242 Q1452.7507,644.4242 1452.8158,644.3916 Q1452.8971,644.3428 1453.2715,643.5778 L1453.5482,646.4099 L1452.9948,646.6214 Q1452.4902,645.4821 1452.0671,645.1566 Q1451.6602,644.8148 1450.9928,644.8148 Q1450.1628,644.8148 1449.8698,645.2705 Q1449.5768,645.71 1449.5768,646.2308 Q1449.5768,646.6866 1449.8535,646.9632 Q1450.1302,647.2399 1451.5137,647.8584 Q1452.7181,648.363 1453.2715,649.0303 Q1453.8249,649.6813 1453.8249,650.5765 Q1453.8249,651.5368 1453.1576,652.2855 Q1452.4902,653.0179 1451.237,653.0179 Q1450.6999,653.0179 1450.2767,652.8063 Q1449.8861,652.6761 1449.6745,652.6761 Q1449.5931,652.6761 1449.4629,652.7575 Q1449.349,652.8389 1448.8932,653.1644 L1448.4375,650.2998 L1449.0723,650.0882 Q1449.4466,651.4392 1450,651.8623 Q1450.5697,652.2855 1451.2858,652.2855 Q1452.0182,652.2855 1452.3763,651.8623 Q1452.7507,651.4392 1452.7507,650.5765 Q1452.7507,650.1696 1452.3275,649.7464 Q1451.9043,649.3233 1450.9603,648.9001 Z " fill="#2FA4E7"/><text fill="#343A40" font-family="Verdana" font-size="11.4583" lengthAdjust="spacing" textLength="94.7917" x="1469.2708" y="653.506">operationWaiter</text><rect fill="none" height="27.6917" style="stroke:#2FA4E7;stroke-width:1.0416666666666667;stroke-dasharray:2.0,2.0;" width="19.7917" x="1577.6042" y="628.4444"/><text fill="#343A40" font-family="Verdana" font-size="12.5" font-style="italic" lengthAdjust="spacing" textLength="7.2917" x="1583.8542" y="647.2616">T</text><line style="stroke:#2FA4E7;stroke-width:1.0416666666666667;" x1="1436.9792" x2="1593.2292" y1="666.3284" y2="666.3284"/><line style="stroke:#2FA4E7;stroke-width:1.0416666666666667;" x1="1436.9792" x2="1593.2292" y1="674.6618" y2="674.6618"/></g><!--class Persister--><g id="elem_Persister"><rect codeLine="84" fill="none" height="51.4257" id="Persister" rx="4.1667" ry="4.1667" style="stroke:#2FA4E7;stroke-width:1.0416666666666667;" width="93.75" x="69.2708" y="245.6319"/><rect fill="url(#gk3x8h0kp26hq0)" height="34.759" rx="4.1667" ry="4.1667" style="stroke:url(#gk3x8h0kp26hq0);stroke-width:1.0416666666666667;" width="93.75" x="69.2708" y="245.6319"/><rect fill="url(#gk3x8h0kp26hq0)" height="4.1667" style="stroke:url(#gk3x8h0kp26hq0);stroke-width:1.0416666666666667;" width="93.75" x="69.2708" y="276.2243"/><rect codeLine="84" fill="none" height="51.4257" id="Persister" rx="4.1667" ry="4.1667" style="stroke:#2FA4E7;stroke-width:1.0416666666666667;" width="93.75" x="69.2708" y="245.6319"/><ellipse cx="83.8542" cy="263.0114" fill="none" rx="10.4167" ry="10.4167" style="stroke:#2683B9;stroke-width:1.0416666666666667;"/><path d="M84.2936,262.9626 Q82.9427,262.3604 82.4056,261.8884 Q81.8848,261.4001 81.8848,260.391 Q81.8848,259.5772 82.5521,258.861 Q83.2194,258.1449 84.4238,258.1449 Q84.9447,258.1449 85.4167,258.3076 Q85.8398,258.4867 85.9863,258.4867 Q86.084,258.4867 86.1491,258.4541 Q86.2305,258.4053 86.6048,257.6403 L86.8815,260.4724 L86.3281,260.6839 Q85.8236,259.5446 85.4004,259.2191 Q84.9935,258.8773 84.3262,258.8773 Q83.4961,258.8773 83.2031,259.333 Q82.9102,259.7725 82.9102,260.2933 Q82.9102,260.7491 83.1868,261.0257 Q83.4635,261.3024 84.847,261.9209 Q86.0514,262.4255 86.6048,263.0928 Q87.1582,263.7438 87.1582,264.639 Q87.1582,265.5993 86.4909,266.348 Q85.8236,267.0804 84.5703,267.0804 Q84.0332,267.0804 83.61,266.8688 Q83.2194,266.7386 83.0078,266.7386 Q82.9264,266.7386 82.7962,266.82 Q82.6823,266.9014 82.2266,267.2269 L81.7708,264.3623 L82.4056,264.1507 Q82.7799,265.5017 83.3333,265.9248 Q83.903,266.348 84.6191,266.348 Q85.3516,266.348 85.7096,265.9248 Q86.084,265.5017 86.084,264.639 Q86.084,264.2321 85.6608,263.8089 Q85.2376,263.3858 84.2936,262.9626 Z " fill="#2FA4E7"/><text fill="#343A40" font-family="Verdana" font-size="11.4583" lengthAdjust="spacing" textLength="52.0833" x="102.6042" y="267.5685">Persister</text><line style="stroke:#2FA4E7;stroke-width:1.0416666666666667;" x1="70.3125" x2="161.9792" y1="280.3909" y2="280.3909"/><line style="stroke:#2FA4E7;stroke-width:1.0416666666666667;" x1="70.3125" x2="161.9792" y1="288.7243" y2="288.7243"/></g><!--class Raft--><g id="elem_Raft"><rect codeLine="87" fill="none" height="51.4257" id="Raft" rx="4.1667" ry="4.1667" style="stroke:#2FA4E7;stroke-width:1.0416666666666667;" width="65.625" x="200" y="245.6319"/><rect fill="url(#gk3x8h0kp26hq0)" height="34.759" rx="4.1667" ry="4.1667" style="stroke:url(#gk3x8h0kp26hq0);stroke-width:1.0416666666666667;" width="65.625" x="200" y="245.6319"/><rect fill="url(#gk3x8h0kp26hq0)" height="4.1667" style="stroke:url(#gk3x8h0kp26hq0);stroke-width:1.0416666666666667;" width="65.625" x="200" y="276.2243"/><rect codeLine="87" fill="none" height="51.4257" id="Raft" rx="4.1667" ry="4.1667" style="stroke:#2FA4E7;stroke-width:1.0416666666666667;" width="65.625" x="200" y="245.6319"/><ellipse cx="214.5833" cy="263.0114" fill="none" rx="10.4167" ry="10.4167" style="stroke:#2683B9;stroke-width:1.0416666666666667;"/><path d="M215.0228,262.9626 Q213.6719,262.3604 213.1348,261.8884 Q212.6139,261.4001 212.6139,260.391 Q212.6139,259.5772 213.2813,258.861 Q213.9486,258.1449 215.153,258.1449 Q215.6738,258.1449 216.1458,258.3076 Q216.569,258.4867 216.7155,258.4867 Q216.8132,258.4867 216.8783,258.4541 Q216.9596,258.4053 217.334,257.6403 L217.6107,260.4724 L217.0573,260.6839 Q216.5527,259.5446 216.1296,259.2191 Q215.7227,258.8773 215.0553,258.8773 Q214.2253,258.8773 213.9323,259.333 Q213.6393,259.7725 213.6393,260.2933 Q213.6393,260.7491 213.916,261.0257 Q214.1927,261.3024 215.5762,261.9209 Q216.7806,262.4255 217.334,263.0928 Q217.8874,263.7438 217.8874,264.639 Q217.8874,265.5993 217.2201,266.348 Q216.5527,267.0804 215.2995,267.0804 Q214.7624,267.0804 214.3392,266.8688 Q213.9486,266.7386 213.737,266.7386 Q213.6556,266.7386 213.5254,266.82 Q213.4115,266.9014 212.9557,267.2269 L212.5,264.3623 L213.1348,264.1507 Q213.5091,265.5017 214.0625,265.9248 Q214.6322,266.348 215.3483,266.348 Q216.0807,266.348 216.4388,265.9248 Q216.8132,265.5017 216.8132,264.639 Q216.8132,264.2321 216.39,263.8089 Q215.9668,263.3858 215.0228,262.9626 Z " fill="#2FA4E7"/><text fill="#343A40" font-family="Verdana" font-size="11.4583" lengthAdjust="spacing" textLength="23.9583" x="233.3333" y="267.5685">Raft</text><line style="stroke:#2FA4E7;stroke-width:1.0416666666666667;" x1="201.0417" x2="264.5833" y1="280.3909" y2="280.3909"/><line style="stroke:#2FA4E7;stroke-width:1.0416666666666667;" x1="201.0417" x2="264.5833" y1="288.7243" y2="288.7243"/></g><!--class ClientEnd--><g id="elem_ClientEnd"><rect codeLine="92" fill="none" height="51.4257" id="ClientEnd" rx="4.1667" ry="4.1667" style="stroke:#2FA4E7;stroke-width:1.0416666666666667;" width="97.9167" x="2225.5208" y="245.6319"/><rect fill="url(#gk3x8h0kp26hq0)" height="34.759" rx="4.1667" ry="4.1667" style="stroke:url(#gk3x8h0kp26hq0);stroke-width:1.0416666666666667;" width="97.9167" x="2225.5208" y="245.6319"/><rect fill="url(#gk3x8h0kp26hq0)" height="4.1667" style="stroke:url(#gk3x8h0kp26hq0);stroke-width:1.0416666666666667;" width="97.9167" x="2225.5208" y="276.2243"/><rect codeLine="92" fill="none" height="51.4257" id="ClientEnd" rx="4.1667" ry="4.1667" style="stroke:#2FA4E7;stroke-width:1.0416666666666667;" width="97.9167" x="2225.5208" y="245.6319"/><ellipse cx="2240.1042" cy="263.0114" fill="none" rx="10.4167" ry="10.4167" style="stroke:#2683B9;stroke-width:1.0416666666666667;"/><path d="M2240.5436,262.9626 Q2239.1927,262.3604 2238.6556,261.8884 Q2238.1348,261.4001 2238.1348,260.391 Q2238.1348,259.5772 2238.8021,258.861 Q2239.4694,258.1449 2240.6738,258.1449 Q2241.1947,258.1449 2241.6667,258.3076 Q2242.0898,258.4867 2242.2363,258.4867 Q2242.334,258.4867 2242.3991,258.4541 Q2242.4805,258.4053 2242.8548,257.6403 L2243.1315,260.4724 L2242.5781,260.6839 Q2242.0736,259.5446 2241.6504,259.2191 Q2241.2435,258.8773 2240.5762,258.8773 Q2239.7461,258.8773 2239.4531,259.333 Q2239.1602,259.7725 2239.1602,260.2933 Q2239.1602,260.7491 2239.4368,261.0257 Q2239.7135,261.3024 2241.097,261.9209 Q2242.3014,262.4255 2242.8548,263.0928 Q2243.4082,263.7438 2243.4082,264.639 Q2243.4082,265.5993 2242.7409,266.348 Q2242.0736,267.0804 2240.8203,267.0804 Q2240.2832,267.0804 2239.86,266.8688 Q2239.4694,266.7386 2239.2578,266.7386 Q2239.1764,266.7386 2239.0462,266.82 Q2238.9323,266.9014 2238.4766,267.2269 L2238.0208,264.3623 L2238.6556,264.1507 Q2239.0299,265.5017 2239.5833,265.9248 Q2240.153,266.348 2240.8691,266.348 Q2241.6016,266.348 2241.9596,265.9248 Q2242.334,265.5017 2242.334,264.639 Q2242.334,264.2321 2241.9108,263.8089 Q2241.4876,263.3858 2240.5436,262.9626 Z " fill="#2FA4E7"/><text fill="#343A40" font-family="Verdana" font-size="11.4583" lengthAdjust="spacing" textLength="56.25" x="2258.8542" y="267.5685">ClientEnd</text><line style="stroke:#2FA4E7;stroke-width:1.0416666666666667;" x1="2226.5625" x2="2322.3958" y1="280.3909" y2="280.3909"/><line style="stroke:#2FA4E7;stroke-width:1.0416666666666667;" x1="2226.5625" x2="2322.3958" y1="288.7243" y2="288.7243"/></g><g id="elem_GMN32"><path d="M16.6667,488.3403 L16.6667,500.8403 A4.1667,4.1667 0 0 0 20.8333,505.0069 L44.7917,505.0069 A4.1667,4.1667 0 0 0 48.9583,500.8403 L48.9583,494.5903 L38.5417,484.1736 L20.8333,484.1736 A4.1667,4.1667 0 0 0 16.6667,488.3403 " fill="none" style="stroke:#033C73;stroke-width:1.0416666666666667;"/><path d="M38.5417,484.1736 L38.5417,492.5069 A2.0833,2.0833 0 0 0 40.625,494.5903 L48.9583,494.5903 L38.5417,484.1736 " fill="none" style="stroke:#033C73;stroke-width:1.0416666666666667;"/></g><!--reverse link clerk to Server--><g id="link_clerk_Server"><path codeLine="25" d="M1869.381,355.6641 C1903.4852,398.2995 1936.3958,439.4444 1960.0313,468.9757 " fill="none" id="clerk-backto-Server" style="stroke:#2FA4E7;stroke-width:3.125;"/><polygon fill="none" points="1861.5729,345.9028,1862.2232,353.3861,1869.381,355.6641,1868.7307,348.1807,1861.5729,345.9028" style="stroke:#2FA4E7;stroke-width:3.125;"/></g><!--link clerk to Clerk--><g id="link_clerk_Clerk"><path codeLine="26" d="M1799.1354,345.9028 C1798.0208,369.6736 1797.6672,377.2779 1796.5422,401.0591 " fill="none" id="clerk-to-Clerk" style="stroke:#2FA4E7;stroke-width:3.125;stroke-dasharray:7.0,7.0;"/><polygon fill="none" points="1795.6563,419.7882,1802.7853,401.3544,1790.2992,400.7638,1795.6563,419.7882" style="stroke:#2FA4E7;stroke-width:3.125;"/></g><!--reverse link server to Caller--><g id="link_server_Caller"><path codeLine="29" d="M2042.5939,321.1998 C2056.448,366.4915 2075.8542,429.934 2087.7292,468.7569 " fill="none" id="server-backto-Caller" style="stroke:#2FA4E7;stroke-width:3.125;"/><polygon fill="none" points="2038.9375,309.2465,2036.7813,316.4419,2042.5939,321.1998,2044.7501,314.0044,2038.9375,309.2465" style="stroke:#2FA4E7;stroke-width:3.125;"/></g><!--link server to Server--><g id="link_server_Server"><path codeLine="30" d="M2019.5833,309.2465 C2009.7813,354.5382 1997.4263,411.6087 1989.02,450.4316 " fill="none" id="server-to-Server" style="stroke:#2FA4E7;stroke-width:3.125;stroke-dasharray:7.0,7.0;"/><polygon fill="none" points="1985.0521,468.7569,1995.1285,451.7542,1982.9116,449.1089,1985.0521,468.7569" style="stroke:#2FA4E7;stroke-width:3.125;"/></g><!--reverse link server to clientState--><g id="link_server_clientState"><path codeLine="68" d="M1095.8633,311.038 C1186.1341,337.1109 1294.9479,372.7257 1396.3542,420.1111 C1418.3125,430.3715 1441.2396,443.8194 1461.0208,456.4028 " fill="none" id="server-backto-clientState" style="stroke:#2FA4E7;stroke-width:3.125;"/><polygon fill="none" points="1083.8542,307.5694,1088.7025,313.3068,1095.8633,311.038,1091.0149,305.3007,1083.8542,307.5694" style="stroke:#2FA4E7;stroke-width:3.125;"/></g><!--reverse link server to DataStore--><g id="link_server_DataStore"><path codeLine="70" d="M1071.5823,365.4025 C1103.9781,390.34 1128.7917,409.4548 1158.7917,432.5486 " fill="none" id="server-backto-DataStore" style="stroke:#2FA4E7;stroke-width:3.125;"/><polygon fill="none" points="1061.6771,357.7778,1064.0881,364.8919,1071.5823,365.4025,1069.1713,358.2884,1061.6771,357.7778" style="stroke:#2FA4E7;stroke-width:3.125;"/></g><!--reverse link server to Raft--><g id="link_server_Raft"><path codeLine="72" d="M834.8812,365.6336 C804.0166,390.5711 780.6458,409.4548 752.0625,432.5486 " fill="none" id="server-backto-Raft" style="stroke:#2FA4E7;stroke-width:3.125;"/><polygon fill="none" points="844.6042,357.7778,837.1241,358.4647,834.8812,365.6336,842.3613,364.9466,844.6042,357.7778" style="stroke:#2FA4E7;stroke-width:3.125;"/></g><!--reverse link server to RaftPersister--><g id="link_server_RaftPersister"><path codeLine="74" d="M805.0478,310.2153 C720.0269,335.1736 621.2396,369.8298 530.7292,420.1111 C512.7292,430.1111 494.6563,443.6528 479.3854,456.3819 " fill="none" id="server-backto-RaftPersister" style="stroke:#2FA4E7;stroke-width:3.125;"/><polygon fill="none" points="817.0417,306.6944,809.8711,304.4569,805.0478,310.2153,812.2183,312.4528,817.0417,306.6944" style="stroke:#2FA4E7;stroke-width:3.125;"/></g><!--link server to Server--><g id="link_server_Server"><path codeLine="76" d="M950.5208,357.7778 C950.5208,387.0903 950.5208,400.1423 950.5208,425.5903 " fill="none" id="server-to-Server-1" style="stroke:#2FA4E7;stroke-width:3.125;"/><polygon fill="none" points="950.5208,444.3403,956.7708,425.5903,944.2708,425.5903,950.5208,444.3403" style="stroke:#2FA4E7;stroke-width:3.125;"/></g><!--reverse link clientState to operationWaiter--><g id="link_clientState_operationWaiter"><path codeLine="78" d="M1515.1042,545.3403 C1515.1042,575.6944 1515.1042,605.2257 1515.1042,631.5069 " fill="none" id="clientState-backto-operationWaiter" style="stroke:#2FA4E7;stroke-width:3.125;"/><polygon fill="none" points="1515.1042,532.8403,1510.9375,539.0903,1515.1042,545.3403,1519.2708,539.0903,1515.1042,532.8403" style="stroke:#2FA4E7;stroke-width:3.125;"/></g><!--link Raft to GMN32--><g id="link_Raft_GMN32"><path d="M32.8125,322.1639 C32.8125,322.4805 32.8125,322.7981 32.8125,323.1166 C32.8125,325.6645 32.8125,328.2727 32.8125,330.9327 C32.8125,341.5727 32.8125,353.0408 32.8125,364.7882 C32.8125,411.7778 32.8125,463.2361 32.8125,484.0382 " fill="none" id="Raft-GMN32" style="stroke:#2FA4E7;stroke-width:3.125;stroke-dasharray:7.0,7.0;"/></g><!--link Raft to Raft--><g id="link_Raft_Raft"><path codeLine="98" d="M261.4063,296.9132 C284.0938,315.5486 317.2396,340.7048 349.4792,357.6111 C424.5625,396.9757 451.5625,387.1944 529.6875,420.1111 C538.8854,423.9861 531.2866,420.3198 540.7033,424.6636 " fill="none" id="Raft-to-Raft" style="stroke:#2FA4E7;stroke-width:3.125;stroke-dasharray:7.0,7.0;"/><polygon fill="none" points="557.7292,432.5173,543.3212,418.9883,538.0854,430.3389,557.7292,432.5173" style="stroke:#2FA4E7;stroke-width:3.125;"/></g><!--link Persister to RaftPersister--><g id="link_Persister_RaftPersister"><path codeLine="99" d="M131.0208,296.9653 C143,315.3923 161.1875,340.2465 181.7708,357.6111 C237.2708,404.4444 294.3588,434.1165 348.8379,457.6374 " fill="none" id="Persister-to-RaftPersister" style="stroke:#2FA4E7;stroke-width:3.125;stroke-dasharray:7.0,7.0;"/><polygon fill="none" points="366.0521,465.0694,351.3153,451.8993,346.3606,463.3754,366.0521,465.0694" style="stroke:#2FA4E7;stroke-width:3.125;"/></g><!--link ClientEnd to Caller--><g id="link_ClientEnd_Caller"><path codeLine="100" d="M2254.625,296.7257 C2220.1771,339.2778 2161.5567,411.7034 2127.0567,454.3284 " fill="none" id="ClientEnd-to-Caller" style="stroke:#2FA4E7;stroke-width:3.125;stroke-dasharray:7.0,7.0;"/><polygon fill="none" points="2115.2604,468.9028,2131.9148,458.2605,2122.1985,450.3963,2115.2604,468.9028" style="stroke:#2FA4E7;stroke-width:3.125;"/></g><text fill="#2FA4E7" font-family="Verdana" font-size="10.4167" lengthAdjust="spacing" textLength="242.7083" x="1050.2604" y="762.8754">@github.com/ZiRunHua/MIT6.824-6.5840</text><!--SRC=[xHffKnivzhFzAxH3Fi1ixFZ265SgDRuQF066mavIjQdKbDmj6otjbbSjGvWi_tsVr5At-i266RCr7r0LJlgzftSVwaDGuHDqTJb0bzYzmGjI_eUu9ak2NCBNFi51XQs5JmDIdZCc24U_BAYuNi-gBbk- -nUzMWUdQ_pkV3njLpkDLgLTFUoqQcNDI_7zKIu9jY30bSD_ImRb-fG4Gc9B9He0vpbs2HhuXDyeMEcVw8BS_ROY70lAWh6tVu2OkQgEFKrpGiGPmHxXW9uGVajuWeYkGy1y_PR2VLfvM12zprV_Z0EFV4UWo86aUP0_4y7NhW15GQL8pr85KKyIjLlwagt67iA2BQbR7LlmC1BTJKkke4XOrr9LYKex8K5QZi6-7y6qMf44P7mLuRiMdM8SASyg5Ojf1AjM__iXSdUvBA6QdoHDU6YWejKCoehpWnL9MvEKSk-d7sA_HU7ktu-zBbhYrLVbn6y_H-29W700jQQ5uE0k6iBlH31k8JYUYowwWbyBS0b-fg6Gnb_Pbve4hrR-_U2wYznh7AWDrPu4dOUBs4jPruD4uzSlc8eu2I6JzgTl4L-v8ywhy7UWgJvItzy_AE1d6s5O9knMdDrIJtezJknB3Jf0KokH0xmAhva0-J7h7myQVyQmvp2-Z8ai4grIMYVf9QCBU9wBVTTc2pR2rLkaVcQC-SP8Iu2kbRSer338yzcz84N-o0kFGsIqa42L0nFw1ucCJFR6PMXdIfnNTn0V2FtFiLE_AC3NwRSS1vOcaMcLINnBHXOL1pABKDbO04loq49MAgb2Aba2rSQCYb6nWH5nFmN6qdHjaUL8LP8Qh0ESskdZ6QHjidMW98y2Jn85qDaXr0Bw66Bpo2GIU4Z2osLvMLMILH-0dbwDp57021rhKaYJ-29IenfBJyWZLrHrx_a5n9VB8ZUSO8KtD5XXZfTe1i05P-l06p2VSIGu3a900H-BQXsIFf71kmTUS-o7YWkizw44VIWZn66qWLiHhFu6dXBli414cBs6qskDZXJqz1u2TqQ36uroXaUZUakX04hCXdQdsJ-EeTDhwju490nHNS7ECL_G0DLhwkeIUnuD5gYjhYRNs6DtyhfMbVW7-0kOHoAj3MtzK5ufxLt60uX6Gp7RR9JavUALJ3ljXBHsHfu-06mYaK9Mfsh6FUBFlT7nQ31oihwiDPk3esOCZO8rOxwd6L_RF8jbSp8dO95BDihV4CzcgzbhrHxN8IGoeQ07F6PQXi7Z0dEieqI7wbHOQ88oSAK-us38LIH1XTDQ7ODFF56AaNL0PhHBALBAfx7cbesIIhGxZ-B54FvaFO6M0H5tp1oAjh6AWOz7GgeChEnIqPjAcKA1v4zBZ4fADZ_x6B83dHHFp3cxKomBP9RofIttg1fGUoJt4pj1d8vpxFHIEz-SZKzEfxyFUrSVSzOsbBMwBHog4rTKvuTIaAuu70XXXKRWy6Q7FYYCITAe4fNQodOrI3BkqgMTCdfyuVncRCvwAHi3k-nI-lHx_M7VsSR1LiNi0AvBwfDGiE1nTUDIhBVDbIfRAh1FtQBmwg8fL1942heayaugper5uUPYVLsVXSGhtFhcI-_gOdnnOXngCHWE3zkrcicMz-_qn4k6eqVcUEqBkUK2mrrVj7xwJBY70_nJCQNoYcuq3PjaHL5-rK61X2QC1vczeh6SKDaZp6vv2SKbd5kfIrUG_YO5ORLiKNtstKAPbI8fmCCwj2XwiWFe3fgilKwxCpfkstR1Q2HCm3b0JuT1Fi93f-OqDDAkH1rcYUZbTdMS_d6xhf7MhZUJJuF1Q3A9eYxHuzpUOQDrt1fffBrtsBiu6LqbMqTvPLj7dMPJ8-sjgMIJw8ly73niDpkEHjfxax9_i5oN6dwAifHBeg8MLa1b2iPagI99w7O_LErbjvq7-vpgauKyJV_OqckBSgAKFv-aM8TtTEdZgAUazfisbZMdKIvDfRzpbkZqhCIDI97bXyX3wWYENK5lgRZFpSW_FN7ws90VDNkTvh6yOu5QpvWrYfFDG606BbdWRJxlnLH5hjQuVFzDcxnAEi_khBRQMJvYEPVhMRWBoHdUvhoJY0VNPjWLfgITa-G_QtaEp-MaOV18Pctsa9q5PaEI1OdztxVKsFUKIhgFItZUhDAG-FY-07v6vqJE-C8qIYDJbHUZDgaeZnIhGYKLfa2Ta-Ikg-0WCwJgWLAkI-l3gEnSXgH0Q0vj6sGX2zIwCZTa6yrDg8fCZh6R-3zg-YGUojlwc2fgVGTSdBJFpDSqUvVvFd4b__25AjS5ZfpvByGT8BjiycdcCqc4-Kknnmlzdk7fm_TOhNIdKol3sjpkP2kZ_XnX9bdp-PljpOBEeVa_pnHJI1Pt3Shcpt85TqCxd6bf_iaJu1_RdatOaj3UuAW-Q3IUC7LWAie7dLky0sU0b2Nc3Yb_qvGDjKUUvtdJfhOf3dTswyB3uPxJS0REgB97rCgmZv3RsSkNAJCSafVgEpuETzVJR2RcOKdKtNFEYTXLuYSlXRtUnA2WG7j2S3fRYoBo52vw1b3FsCrc_oRk3W-0kr3Vd42UeFuw9EukawBeFkFfqvU3At6myFyk-gpqIvDdzf9DHuKjX_evywDdrZjgNji5Slcuvvdo7XzLM-M5wXtN3ilbAVU4Vx58u3Pc_M9z4_DdFX5uwZbXJdtoCcS4YA5xirD_l7vKylfHoUj79QyVbRn-LFBwKSd_wwEIIny7ujFv6PAzL3xngLSRjKQhsjntE4KEcQ5w6zMQtLQjMpj4WyaKIVH1UV_aykosWKAsvf1o7eXMvmVWS53-5TzY16DBlkBh8dcrFps7sJ4oG3GARYbdmL9Elby_dqT4w9I9oGgINnAtMvK-5JgGwFDvUHYzSOEjBfDlgRhefF-nV0O7vJKulul-k2uFOBGAVWyT-k9_]--></g></svg>