<?xml version="1.0" encoding="us-ascii" standalone="no"?><svg xmlns="http://www.w3.org/2000/svg" xmlns:xlink="http://www.w3.org/1999/xlink" contentStyleType="text/css" height="619px" preserveAspectRatio="none" style="width:2410px;height:619px;background:#0077BE;" version="1.1" viewBox="0 0 2410 619" width="2410px" zoomAndPan="magnify"><defs/><g><rect fill="#0077BE" height="619" style="stroke:none;stroke-width:1.0;" width="2410" x="0" y="0"/><text fill="#FFFFFF" font-family="Verdana" font-size="22" font-weight="bold" lengthAdjust="spacing" textLength="161" x="1120.25" y="37.1182">RPC Package</text><!--cluster RPC--><g id="cluster_RPC"><path d="M297,58.7373 L330,58.7373 A3.75,3.75 0 0 1 332.5,61.2373 L339.5,81.752 L2251,81.752 A2.5,2.5 0 0 1 2253.5,84.252 L2253.5,581.2373 A2.5,2.5 0 0 1 2251,583.7373 L297,583.7373 A2.5,2.5 0 0 1 294.5,581.2373 L294.5,61.2373 A2.5,2.5 0 0 1 297,58.7373 " fill="#0B58A8" style="stroke:#FFFFFF;stroke-width:1.0;"/><line style="stroke:#FFFFFF;stroke-width:1.0;" x1="294.5" x2="339.5" y1="81.752" y2="81.752"/><text fill="#FFFFFF" font-family="Verdana" font-size="14" font-weight="bold" lengthAdjust="spacing" textLength="32" x="298.5" y="74.8125">RPC</text></g><!--cluster client--><g id="cluster_client"><path d="M1741,111.2373 L1783,111.2373 A3.75,3.75 0 0 1 1785.5,113.7373 L1792.5,134.252 L2219,134.252 A2.5,2.5 0 0 1 2221.5,136.752 L2221.5,453.2373 A2.5,2.5 0 0 1 2219,455.7373 L1741,455.7373 A2.5,2.5 0 0 1 1738.5,453.2373 L1738.5,113.7373 A2.5,2.5 0 0 1 1741,111.2373 " fill="#0B58A8" style="stroke:#FFFFFF;stroke-width:1.0;"/><line style="stroke:#FFFFFF;stroke-width:1.0;" x1="1738.5" x2="1792.5" y1="134.252" y2="134.252"/><text fill="#FFFFFF" font-family="Verdana" font-size="14" font-weight="bold" lengthAdjust="spacing" textLength="41" x="1742.5" y="127.3125">client</text></g><!--cluster server--><g id="cluster_server"><path d="M321,102.7373 L371,102.7373 A3.75,3.75 0 0 1 373.5,105.2373 L380.5,125.752 L1704,125.752 A2.5,2.5 0 0 1 1706.5,128.252 L1706.5,557.2373 A2.5,2.5 0 0 1 1704,559.7373 L321,559.7373 A2.5,2.5 0 0 1 318.5,557.2373 L318.5,105.2373 A2.5,2.5 0 0 1 321,102.7373 " fill="#0B58A8" style="stroke:#FFFFFF;stroke-width:1.0;"/><line style="stroke:#FFFFFF;stroke-width:1.0;" x1="318.5" x2="380.5" y1="125.752" y2="125.752"/><text fill="#FFFFFF" font-family="Verdana" font-size="14" font-weight="bold" lengthAdjust="spacing" textLength="49" x="322.5" y="118.8125">server</text></g><!--cluster Raft--><g id="cluster_Raft"><path d="M16,137.2373 L49,137.2373 A3.75,3.75 0 0 1 51.5,139.7373 L58.5,160.252 L260,160.252 A2.5,2.5 0 0 1 262.5,162.752 L262.5,246.7373 A2.5,2.5 0 0 1 260,249.2373 L16,249.2373 A2.5,2.5 0 0 1 13.5,246.7373 L13.5,139.7373 A2.5,2.5 0 0 1 16,137.2373 " fill="#0B58A8" style="stroke:#FFFFFF;stroke-width:1.0;"/><line style="stroke:#FFFFFF;stroke-width:1.0;" x1="13.5" x2="58.5" y1="160.252" y2="160.252"/><text fill="#FFFFFF" font-family="Verdana" font-size="14" font-weight="bold" lengthAdjust="spacing" textLength="32" x="17.5" y="153.3125">Raft</text></g><!--cluster labrpc--><g id="cluster_labrpc"><path d="M2280,145.2373 L2329,145.2373 A3.75,3.75 0 0 1 2331.5,147.7373 L2338.5,168.252 L2401,168.252 A2.5,2.5 0 0 1 2403.5,170.752 L2403.5,238.7373 A2.5,2.5 0 0 1 2401,241.2373 L2280,241.2373 A2.5,2.5 0 0 1 2277.5,238.7373 L2277.5,147.7373 A2.5,2.5 0 0 1 2280,145.2373 " fill="#0B58A8" style="stroke:#FFFFFF;stroke-width:1.0;"/><line style="stroke:#FFFFFF;stroke-width:1.0;" x1="2277.5" x2="2338.5" y1="168.252" y2="168.252"/><text fill="#FFFFFF" font-family="Verdana" font-size="14" font-weight="bold" lengthAdjust="spacing" textLength="48" x="2281.5" y="161.3125">labrpc</text></g><!--class Clerk--><g id="elem_Clerk"><rect codeLine="8" fill="#0B58A8" height="112.0586" id="Clerk" rx="2.5" ry="2.5" style="stroke:#FFFFFF;stroke-width:1.0;" width="239" x="1755" y="327.7373"/><ellipse cx="1852.75" cy="341.7373" fill="#0B58A8" rx="9" ry="9" style="stroke:#FFFFFF;stroke-width:1.0;"/><path d="M1851.9063,347.7373 L1851.9063,335.5654 L1854.375,335.5654 L1854.375,347.7373 L1851.9063,347.7373 Z " fill="#FFFFFF"/><text fill="#FFFFFF" font-family="Verdana" font-size="14" font-style="italic" lengthAdjust="spacing" textLength="36" x="1870.25" y="347.3052">Clerk</text><line style="stroke:#FFFFFF;stroke-width:1.0;" x1="1756" x2="1993" y1="355.7373" y2="355.7373"/><line style="stroke:#FFFFFF;stroke-width:1.0;" x1="1756" x2="1993" y1="363.7373" y2="363.7373"/><ellipse cx="1766" cy="377.7446" fill="#0B58A8" rx="3" ry="3" style="stroke:#FFFFFF;stroke-width:1.0;"/><text fill="#FFFFFF" font-family="Verdana" font-size="14" lengthAdjust="spacing" textLength="215" x="1773" y="381.8125">NewOperationId() operation.Id</text><ellipse cx="1766" cy="394.7593" fill="#0B58A8" rx="3" ry="3" style="stroke:#FFFFFF;stroke-width:1.0;"/><text fill="#FFFFFF" font-family="Verdana" font-size="14" lengthAdjust="spacing" textLength="135" x="1773" y="398.8271">GetLeader() Server</text><ellipse cx="1766" cy="411.7739" fill="#0B58A8" rx="3" ry="3" style="stroke:#FFFFFF;stroke-width:1.0;"/><text fill="#FFFFFF" font-family="Verdana" font-size="14" lengthAdjust="spacing" textLength="154" x="1773" y="415.8418">GetServers() []Server</text><ellipse cx="1766" cy="428.7886" fill="#0B58A8" rx="3" ry="3" style="stroke:#FFFFFF;stroke-width:1.0;"/><text fill="#FFFFFF" font-family="Verdana" font-size="14" lengthAdjust="spacing" textLength="214" x="1773" y="432.8564">UpdateLeader(leaderIndex int)</text></g><!--class clerk--><g id="elem_clerk"><rect codeLine="14" fill="#0B58A8" height="112.0586" id="clerk" rx="2.5" ry="2.5" style="stroke:#FFFFFF;stroke-width:1.0;" width="150" x="1811.5" y="147.2373"/><ellipse cx="1866.75" cy="161.2373" fill="#0B58A8" rx="9" ry="9" style="stroke:#FFFFFF;stroke-width:1.0;"/><path d="M1861.8594,163.2842 L1864.25,163.0498 Q1864.4688,164.2529 1865.125,164.8154 Q1865.7969,165.3779 1866.9063,165.3779 Q1868.0938,165.3779 1868.6875,164.8779 Q1869.2969,164.3779 1869.2969,163.7061 Q1869.2969,163.2686 1869.0469,162.9717 Q1868.7969,162.6592 1868.1719,162.4404 Q1867.7344,162.2842 1866.2031,161.9092 Q1864.2188,161.4248 1863.4219,160.7061 Q1862.2969,159.7061 1862.2969,158.2529 Q1862.2969,157.3311 1862.8281,156.5186 Q1863.3594,155.7061 1864.3438,155.2842 Q1865.3438,154.8623 1866.75,154.8623 Q1869.0313,154.8623 1870.1875,155.8623 Q1871.3594,156.8623 1871.4063,158.5498 L1868.9531,158.6592 Q1868.7969,157.7217 1868.2813,157.3154 Q1867.7656,156.8936 1866.7188,156.8936 Q1865.6563,156.8936 1865.0469,157.3311 Q1864.6563,157.6123 1864.6563,158.0967 Q1864.6563,158.5186 1865.0156,158.8311 Q1865.4844,159.2217 1867.2656,159.6436 Q1869.0625,160.0654 1869.9219,160.5186 Q1870.7813,160.9717 1871.2656,161.7529 Q1871.7656,162.5342 1871.7656,163.6904 Q1871.7656,164.7373 1871.1719,165.6592 Q1870.5938,166.5654 1869.5313,167.0186 Q1868.4688,167.4561 1866.8906,167.4561 Q1864.5781,167.4561 1863.3438,166.3936 Q1862.1094,165.3154 1861.8594,163.2842 Z " fill="#FFFFFF"/><text fill="#FFFFFF" font-family="Verdana" font-size="14" lengthAdjust="spacing" textLength="32" x="1884.25" y="166.8052">clerk</text><line style="stroke:#FFFFFF;stroke-width:1.0;" x1="1812.5" x2="1960.5" y1="175.2373" y2="175.2373"/><rect fill="none" height="6" style="stroke:#FFFFFF;stroke-width:1.0;" width="6" x="1819.5" y="186.2446"/><text fill="#FFFFFF" font-family="Verdana" font-size="14" lengthAdjust="spacing" textLength="53" x="1829.5" y="193.3125">id int64</text><rect fill="none" height="6" style="stroke:#FFFFFF;stroke-width:1.0;" width="6" x="1819.5" y="203.2593"/><text fill="#FFFFFF" font-family="Verdana" font-size="14" lengthAdjust="spacing" textLength="126" x="1829.5" y="210.3271">opId atomic.Int64</text><rect fill="none" height="6" style="stroke:#FFFFFF;stroke-width:1.0;" width="6" x="1819.5" y="220.2739"/><text fill="#FFFFFF" font-family="Verdana" font-size="14" lengthAdjust="spacing" textLength="121" x="1829.5" y="227.3418">servers: []Server</text><rect fill="none" height="6" style="stroke:#FFFFFF;stroke-width:1.0;" width="6" x="1819.5" y="237.2886"/><text fill="#FFFFFF" font-family="Verdana" font-size="14" lengthAdjust="spacing" textLength="99" x="1829.5" y="244.3564">leader: Server</text><line style="stroke:#FFFFFF;stroke-width:1.0;" x1="1812.5" x2="1960.5" y1="251.2959" y2="251.2959"/></g><!--class Server--><g id="elem_Server"><rect codeLine="21" fill="#0B58A8" height="44" id="Server" rx="2.5" ry="2.5" style="stroke:#FFFFFF;stroke-width:1.0;" width="73" x="2029" y="361.7373"/><ellipse cx="2042" cy="375.7373" fill="#0B58A8" rx="9" ry="9" style="stroke:#FFFFFF;stroke-width:1.0;"/><path d="M2041.1563,381.7373 L2041.1563,369.5654 L2043.625,369.5654 L2043.625,381.7373 L2041.1563,381.7373 Z " fill="#FFFFFF"/><text fill="#FFFFFF" font-family="Verdana" font-size="14" font-style="italic" lengthAdjust="spacing" textLength="45" x="2054" y="381.3052">Server</text><line style="stroke:#FFFFFF;stroke-width:1.0;" x1="2030" x2="2101" y1="389.7373" y2="389.7373"/><line style="stroke:#FFFFFF;stroke-width:1.0;" x1="2030" x2="2101" y1="397.7373" y2="397.7373"/></g><!--class Caller--><g id="elem_Caller"><rect codeLine="22" fill="#0B58A8" height="44" id="Caller" rx="2.5" ry="2.5" style="stroke:#FFFFFF;stroke-width:1.0;" width="68" x="2137.5" y="361.7373"/><ellipse cx="2150.5" cy="375.7373" fill="#0B58A8" rx="9" ry="9" style="stroke:#FFFFFF;stroke-width:1.0;"/><path d="M2149.6563,381.7373 L2149.6563,369.5654 L2152.125,369.5654 L2152.125,381.7373 L2149.6563,381.7373 Z " fill="#FFFFFF"/><text fill="#FFFFFF" font-family="Verdana" font-size="14" font-style="italic" lengthAdjust="spacing" textLength="40" x="2162.5" y="381.3052">Caller</text><line style="stroke:#FFFFFF;stroke-width:1.0;" x1="2138.5" x2="2204.5" y1="389.7373" y2="389.7373"/><line style="stroke:#FFFFFF;stroke-width:1.0;" x1="2138.5" x2="2204.5" y1="397.7373" y2="397.7373"/></g><!--class server--><g id="elem_server"><rect codeLine="23" fill="#0B58A8" height="61.0146" id="server" rx="2.5" ry="2.5" style="stroke:#FFFFFF;stroke-width:1.0;" width="111" x="2052" y="172.7373"/><ellipse cx="2082.55" cy="186.7373" fill="#0B58A8" rx="9" ry="9" style="stroke:#FFFFFF;stroke-width:1.0;"/><path d="M2077.6594,188.7842 L2080.05,188.5498 Q2080.2688,189.7529 2080.925,190.3154 Q2081.5969,190.8779 2082.7063,190.8779 Q2083.8938,190.8779 2084.4875,190.3779 Q2085.0969,189.8779 2085.0969,189.2061 Q2085.0969,188.7686 2084.8469,188.4717 Q2084.5969,188.1592 2083.9719,187.9404 Q2083.5344,187.7842 2082.0031,187.4092 Q2080.0188,186.9248 2079.2219,186.2061 Q2078.0969,185.2061 2078.0969,183.7529 Q2078.0969,182.8311 2078.6281,182.0186 Q2079.1594,181.2061 2080.1438,180.7842 Q2081.1438,180.3623 2082.55,180.3623 Q2084.8313,180.3623 2085.9875,181.3623 Q2087.1594,182.3623 2087.2063,184.0498 L2084.7531,184.1592 Q2084.5969,183.2217 2084.0813,182.8154 Q2083.5656,182.3936 2082.5188,182.3936 Q2081.4563,182.3936 2080.8469,182.8311 Q2080.4563,183.1123 2080.4563,183.5967 Q2080.4563,184.0186 2080.8156,184.3311 Q2081.2844,184.7217 2083.0656,185.1436 Q2084.8625,185.5654 2085.7219,186.0186 Q2086.5813,186.4717 2087.0656,187.2529 Q2087.5656,188.0342 2087.5656,189.1904 Q2087.5656,190.2373 2086.9719,191.1592 Q2086.3938,192.0654 2085.3313,192.5186 Q2084.2688,192.9561 2082.6906,192.9561 Q2080.3781,192.9561 2079.1438,191.8936 Q2077.9094,190.8154 2077.6594,188.7842 Z " fill="#FFFFFF"/><text fill="#FFFFFF" font-family="Verdana" font-size="14" lengthAdjust="spacing" textLength="44" x="2098.45" y="192.3052">server</text><line style="stroke:#FFFFFF;stroke-width:1.0;" x1="2053" x2="2162" y1="200.7373" y2="200.7373"/><ellipse cx="2063" cy="214.7446" fill="none" rx="3" ry="3" style="stroke:#FFFFFF;stroke-width:1.0;"/><text fill="#FFFFFF" font-family="Verdana" font-size="14" lengthAdjust="spacing" textLength="87" x="2070" y="218.8125">Caller: Caller</text><line style="stroke:#FFFFFF;stroke-width:1.0;" x1="2053" x2="2162" y1="225.752" y2="225.752"/></g><!--class server--><g id="elem_server"><rect codeLine="36" fill="#0B58A8" height="129.0732" id="server" rx="2.5" ry="2.5" style="stroke:#FFFFFF;stroke-width:1.0;" width="295" x="823" y="138.7373"/><ellipse cx="939.25" cy="152.7373" fill="#0B58A8" rx="9" ry="9" style="stroke:#FFFFFF;stroke-width:1.0;"/><path d="M934.3594,154.7842 L936.75,154.5498 Q936.9688,155.7529 937.625,156.3154 Q938.2969,156.8779 939.4063,156.8779 Q940.5938,156.8779 941.1875,156.3779 Q941.7969,155.8779 941.7969,155.2061 Q941.7969,154.7686 941.5469,154.4717 Q941.2969,154.1592 940.6719,153.9404 Q940.2344,153.7842 938.7031,153.4092 Q936.7188,152.9248 935.9219,152.2061 Q934.7969,151.2061 934.7969,149.7529 Q934.7969,148.8311 935.3281,148.0186 Q935.8594,147.2061 936.8438,146.7842 Q937.8438,146.3623 939.25,146.3623 Q941.5313,146.3623 942.6875,147.3623 Q943.8594,148.3623 943.9063,150.0498 L941.4531,150.1592 Q941.2969,149.2217 940.7813,148.8154 Q940.2656,148.3936 939.2188,148.3936 Q938.1563,148.3936 937.5469,148.8311 Q937.1563,149.1123 937.1563,149.5967 Q937.1563,150.0186 937.5156,150.3311 Q937.9844,150.7217 939.7656,151.1436 Q941.5625,151.5654 942.4219,152.0186 Q943.2813,152.4717 943.7656,153.2529 Q944.2656,154.0342 944.2656,155.1904 Q944.2656,156.2373 943.6719,157.1592 Q943.0938,158.0654 942.0313,158.5186 Q940.9688,158.9561 939.3906,158.9561 Q937.0781,158.9561 935.8438,157.8936 Q934.6094,156.8154 934.3594,154.7842 Z " fill="#FFFFFF"/><text fill="#FFFFFF" font-family="Verdana" font-size="14" lengthAdjust="spacing" textLength="44" x="956.75" y="158.3052">server</text><rect fill="#0077BE" height="16.584" style="stroke:#FFFFFF;stroke-width:1.0;stroke-dasharray:2.0,2.0;" width="9" x="1112" y="135.7373"/><text fill="#FFFFFF" font-family="Verdana" font-size="12" font-style="italic" lengthAdjust="spacing" textLength="7" x="1113" y="148.8018">T</text><line style="stroke:#FFFFFF;stroke-width:1.0;" x1="824" x2="1117" y1="166.7373" y2="166.7373"/><rect fill="none" height="6" style="stroke:#FFFFFF;stroke-width:1.0;" width="6" x="831" y="177.7446"/><text fill="#FFFFFF" font-family="Verdana" font-size="14" lengthAdjust="spacing" textLength="271" x="841" y="184.8125">clientById: map[int64]*clientState&lt;T&gt;</text><rect fill="none" height="6" style="stroke:#FFFFFF;stroke-width:1.0;" width="6" x="831" y="194.7593"/><text fill="#FFFFFF" font-family="Verdana" font-size="14" lengthAdjust="spacing" textLength="145" x="841" y="201.8271">data: DataStore&lt;T&gt;</text><rect fill="none" height="6" style="stroke:#FFFFFF;stroke-width:1.0;" width="6" x="831" y="211.7739"/><text fill="#FFFFFF" font-family="Verdana" font-size="14" lengthAdjust="spacing" textLength="65" x="841" y="218.8418">raft: Raft</text><rect fill="none" height="6" style="stroke:#FFFFFF;stroke-width:1.0;" width="6" x="831" y="228.7886"/><text fill="#FFFFFF" font-family="Verdana" font-size="14" lengthAdjust="spacing" textLength="187" x="841" y="235.8564">raftPersister: RaftPersister</text><rect fill="none" height="6" style="stroke:#FFFFFF;stroke-width:1.0;" width="6" x="831" y="245.8032"/><text fill="#FFFFFF" font-family="Verdana" font-size="14" lengthAdjust="spacing" textLength="202" x="841" y="252.8711">applyCh: chan raft.ApplyMsg</text><line style="stroke:#FFFFFF;stroke-width:1.0;" x1="824" x2="1117" y1="259.8105" y2="259.8105"/></g><!--class Server--><g id="elem_Server"><rect codeLine="43" fill="#0B58A8" height="78.0293" id="Server" rx="2.5" ry="2.5" style="stroke:#FFFFFF;stroke-width:1.0;" width="242" x="849.5" y="344.7373"/><ellipse cx="938.75" cy="358.7373" fill="#0B58A8" rx="9" ry="9" style="stroke:#FFFFFF;stroke-width:1.0;"/><path d="M937.9063,364.7373 L937.9063,352.5654 L940.375,352.5654 L940.375,364.7373 L937.9063,364.7373 Z " fill="#FFFFFF"/><text fill="#FFFFFF" font-family="Verdana" font-size="14" font-style="italic" lengthAdjust="spacing" textLength="45" x="956.25" y="364.3052">Server</text><rect fill="#0077BE" height="16.584" style="stroke:#FFFFFF;stroke-width:1.0;stroke-dasharray:2.0,2.0;" width="9" x="1085.5" y="341.7373"/><text fill="#FFFFFF" font-family="Verdana" font-size="12" font-style="italic" lengthAdjust="spacing" textLength="7" x="1086.5" y="354.8018">T</text><line style="stroke:#FFFFFF;stroke-width:1.0;" x1="850.5" x2="1090.5" y1="372.7373" y2="372.7373"/><line style="stroke:#FFFFFF;stroke-width:1.0;" x1="850.5" x2="1090.5" y1="380.7373" y2="380.7373"/><ellipse cx="860.5" cy="394.7446" fill="#0B58A8" rx="3" ry="3" style="stroke:#FFFFFF;stroke-width:1.0;"/><text fill="#FFFFFF" font-family="Verdana" font-size="14" lengthAdjust="spacing" textLength="218" x="867.5" y="398.8125">WaitOperation() (T, rpcErr.Err)</text><ellipse cx="860.5" cy="411.7593" fill="#0B58A8" rx="3" ry="3" style="stroke:#FFFFFF;stroke-width:1.0;"/><text fill="#FFFFFF" font-family="Verdana" font-size="14" lengthAdjust="spacing" textLength="31" x="867.5" y="415.8271">Kill()</text></g><!--class DataStore--><g id="elem_DataStore"><rect codeLine="47" fill="#0B58A8" height="95.0439" id="DataStore" rx="2.5" ry="2.5" style="stroke:#FFFFFF;stroke-width:1.0;" width="311" x="1127" y="336.2373"/><ellipse cx="1237.75" cy="350.2373" fill="#0B58A8" rx="9" ry="9" style="stroke:#FFFFFF;stroke-width:1.0;"/><path d="M1236.9063,356.2373 L1236.9063,344.0654 L1239.375,344.0654 L1239.375,356.2373 L1236.9063,356.2373 Z " fill="#FFFFFF"/><text fill="#FFFFFF" font-family="Verdana" font-size="14" font-style="italic" lengthAdjust="spacing" textLength="71" x="1255.25" y="355.8052">DataStore</text><rect fill="#0077BE" height="16.584" style="stroke:#FFFFFF;stroke-width:1.0;stroke-dasharray:2.0,2.0;" width="9" x="1432" y="333.2373"/><text fill="#FFFFFF" font-family="Verdana" font-size="12" font-style="italic" lengthAdjust="spacing" textLength="7" x="1433" y="346.3018">T</text><line style="stroke:#FFFFFF;stroke-width:1.0;" x1="1128" x2="1437" y1="364.2373" y2="364.2373"/><line style="stroke:#FFFFFF;stroke-width:1.0;" x1="1128" x2="1437" y1="372.2373" y2="372.2373"/><ellipse cx="1138" cy="386.2446" fill="#0B58A8" rx="3" ry="3" style="stroke:#FFFFFF;stroke-width:1.0;"/><text fill="#FFFFFF" font-family="Verdana" font-size="14" lengthAdjust="spacing" textLength="287" x="1145" y="390.3125">Operation(provider operation.Provider) T</text><ellipse cx="1138" cy="403.2593" fill="#0B58A8" rx="3" ry="3" style="stroke:#FFFFFF;stroke-width:1.0;"/><text fill="#FFFFFF" font-family="Verdana" font-size="14" lengthAdjust="spacing" textLength="188" x="1145" y="407.3271">GetSnapshot() interface{}</text><ellipse cx="1138" cy="420.2739" fill="#0B58A8" rx="3" ry="3" style="stroke:#FFFFFF;stroke-width:1.0;"/><text fill="#FFFFFF" font-family="Verdana" font-size="14" lengthAdjust="spacing" textLength="228" x="1145" y="424.3418">LoadFormSnapshot(interface{})</text></g><!--class Raft--><g id="elem_Raft"><rect codeLine="53" fill="#0B58A8" height="95.0439" id="Raft" rx="2.5" ry="2.5" style="stroke:#FFFFFF;stroke-width:1.0;" width="289" x="525" y="336.2373"/><ellipse cx="651.25" cy="350.2373" fill="#0B58A8" rx="9" ry="9" style="stroke:#FFFFFF;stroke-width:1.0;"/><path d="M650.4063,356.2373 L650.4063,344.0654 L652.875,344.0654 L652.875,356.2373 L650.4063,356.2373 Z " fill="#FFFFFF"/><text fill="#FFFFFF" font-family="Verdana" font-size="14" font-style="italic" lengthAdjust="spacing" textLength="29" x="668.75" y="355.8052">Raft</text><line style="stroke:#FFFFFF;stroke-width:1.0;" x1="526" x2="813" y1="364.2373" y2="364.2373"/><line style="stroke:#FFFFFF;stroke-width:1.0;" x1="526" x2="813" y1="372.2373" y2="372.2373"/><ellipse cx="536" cy="386.2446" fill="#0B58A8" rx="3" ry="3" style="stroke:#FFFFFF;stroke-width:1.0;"/><text fill="#FFFFFF" font-family="Verdana" font-size="14" lengthAdjust="spacing" textLength="241" x="543" y="390.3125">Start(c interface{}) (int, int, bool)</text><ellipse cx="536" cy="403.2593" fill="#0B58A8" rx="3" ry="3" style="stroke:#FFFFFF;stroke-width:1.0;"/><text fill="#FFFFFF" font-family="Verdana" font-size="14" lengthAdjust="spacing" textLength="265" x="543" y="407.3271">Snapshot(index int, snapshot []byte)</text><ellipse cx="536" cy="420.2739" fill="#0B58A8" rx="3" ry="3" style="stroke:#FFFFFF;stroke-width:1.0;"/><text fill="#FFFFFF" font-family="Verdana" font-size="14" lengthAdjust="spacing" textLength="31" x="543" y="424.3418">Kill()</text></g><!--class RaftPersister--><g id="elem_RaftPersister"><rect codeLine="59" fill="#0B58A8" height="61.0146" id="RaftPersister" rx="2.5" ry="2.5" style="stroke:#FFFFFF;stroke-width:1.0;" width="155" x="335" y="353.2373"/><ellipse cx="365.1" cy="367.2373" fill="#0B58A8" rx="9" ry="9" style="stroke:#FFFFFF;stroke-width:1.0;"/><path d="M364.2563,373.2373 L364.2563,361.0654 L366.725,361.0654 L366.725,373.2373 L364.2563,373.2373 Z " fill="#FFFFFF"/><text fill="#FFFFFF" font-family="Verdana" font-size="14" font-style="italic" lengthAdjust="spacing" textLength="89" x="380.9" y="372.8052">RaftPersister</text><line style="stroke:#FFFFFF;stroke-width:1.0;" x1="336" x2="489" y1="381.2373" y2="381.2373"/><line style="stroke:#FFFFFF;stroke-width:1.0;" x1="336" x2="489" y1="389.2373" y2="389.2373"/><ellipse cx="346" cy="403.2446" fill="#0B58A8" rx="3" ry="3" style="stroke:#FFFFFF;stroke-width:1.0;"/><text fill="#FFFFFF" font-family="Verdana" font-size="14" lengthAdjust="spacing" textLength="131" x="353" y="407.3125">RaftStateSize() int</text></g><!--class clientState--><g id="elem_clientState"><rect codeLine="63" fill="#0B58A8" height="61.0146" id="clientState" rx="2.5" ry="2.5" style="stroke:#FFFFFF;stroke-width:1.0;" width="217" x="1473" y="353.2373"/><ellipse cx="1535.25" cy="367.2373" fill="#0B58A8" rx="9" ry="9" style="stroke:#FFFFFF;stroke-width:1.0;"/><path d="M1530.3594,369.2842 L1532.75,369.0498 Q1532.9688,370.2529 1533.625,370.8154 Q1534.2969,371.3779 1535.4063,371.3779 Q1536.5938,371.3779 1537.1875,370.8779 Q1537.7969,370.3779 1537.7969,369.7061 Q1537.7969,369.2686 1537.5469,368.9717 Q1537.2969,368.6592 1536.6719,368.4404 Q1536.2344,368.2842 1534.7031,367.9092 Q1532.7188,367.4248 1531.9219,366.7061 Q1530.7969,365.7061 1530.7969,364.2529 Q1530.7969,363.3311 1531.3281,362.5186 Q1531.8594,361.7061 1532.8438,361.2842 Q1533.8438,360.8623 1535.25,360.8623 Q1537.5313,360.8623 1538.6875,361.8623 Q1539.8594,362.8623 1539.9063,364.5498 L1537.4531,364.6592 Q1537.2969,363.7217 1536.7813,363.3154 Q1536.2656,362.8936 1535.2188,362.8936 Q1534.1563,362.8936 1533.5469,363.3311 Q1533.1563,363.6123 1533.1563,364.0967 Q1533.1563,364.5186 1533.5156,364.8311 Q1533.9844,365.2217 1535.7656,365.6436 Q1537.5625,366.0654 1538.4219,366.5186 Q1539.2813,366.9717 1539.7656,367.7529 Q1540.2656,368.5342 1540.2656,369.6904 Q1540.2656,370.7373 1539.6719,371.6592 Q1539.0938,372.5654 1538.0313,373.0186 Q1536.9688,373.4561 1535.3906,373.4561 Q1533.0781,373.4561 1531.8438,372.3936 Q1530.6094,371.3154 1530.3594,369.2842 Z " fill="#FFFFFF"/><text fill="#FFFFFF" font-family="Verdana" font-size="14" lengthAdjust="spacing" textLength="74" x="1552.75" y="372.8052">clientState</text><rect fill="#0077BE" height="16.584" style="stroke:#FFFFFF;stroke-width:1.0;stroke-dasharray:2.0,2.0;" width="9" x="1684" y="350.2373"/><text fill="#FFFFFF" font-family="Verdana" font-size="12" font-style="italic" lengthAdjust="spacing" textLength="7" x="1685" y="363.3018">T</text><line style="stroke:#FFFFFF;stroke-width:1.0;" x1="1474" x2="1689" y1="381.2373" y2="381.2373"/><rect fill="none" height="6" style="stroke:#FFFFFF;stroke-width:1.0;" width="6" x="1481" y="392.2446"/><text fill="#FFFFFF" font-family="Verdana" font-size="14" lengthAdjust="spacing" textLength="193" x="1491" y="399.3125">waiter:*OperationWaiter[T]</text><line style="stroke:#FFFFFF;stroke-width:1.0;" x1="1474" x2="1689" y1="406.252" y2="406.252"/></g><!--class operationWaiter--><g id="elem_operationWaiter"><rect codeLine="67" fill="#0B58A8" height="44" id="operationWaiter" rx="2.5" ry="2.5" style="stroke:#FFFFFF;stroke-width:1.0;" width="152" x="1505.5" y="499.7373"/><ellipse cx="1518.5" cy="513.7373" fill="#0B58A8" rx="9" ry="9" style="stroke:#FFFFFF;stroke-width:1.0;"/><path d="M1513.6094,515.7842 L1516,515.5498 Q1516.2188,516.7529 1516.875,517.3154 Q1517.5469,517.8779 1518.6563,517.8779 Q1519.8438,517.8779 1520.4375,517.3779 Q1521.0469,516.8779 1521.0469,516.2061 Q1521.0469,515.7686 1520.7969,515.4717 Q1520.5469,515.1592 1519.9219,514.9404 Q1519.4844,514.7842 1517.9531,514.4092 Q1515.9688,513.9248 1515.1719,513.2061 Q1514.0469,512.2061 1514.0469,510.7529 Q1514.0469,509.8311 1514.5781,509.0186 Q1515.1094,508.2061 1516.0938,507.7842 Q1517.0938,507.3623 1518.5,507.3623 Q1520.7813,507.3623 1521.9375,508.3623 Q1523.1094,509.3623 1523.1563,511.0498 L1520.7031,511.1592 Q1520.5469,510.2217 1520.0313,509.8154 Q1519.5156,509.3936 1518.4688,509.3936 Q1517.4063,509.3936 1516.7969,509.8311 Q1516.4063,510.1123 1516.4063,510.5967 Q1516.4063,511.0186 1516.7656,511.3311 Q1517.2344,511.7217 1519.0156,512.1436 Q1520.8125,512.5654 1521.6719,513.0186 Q1522.5313,513.4717 1523.0156,514.2529 Q1523.5156,515.0342 1523.5156,516.1904 Q1523.5156,517.2373 1522.9219,518.1592 Q1522.3438,519.0654 1521.2813,519.5186 Q1520.2188,519.9561 1518.6406,519.9561 Q1516.3281,519.9561 1515.0938,518.8936 Q1513.8594,517.8154 1513.6094,515.7842 Z " fill="#FFFFFF"/><text fill="#FFFFFF" font-family="Verdana" font-size="14" lengthAdjust="spacing" textLength="113" x="1530.5" y="519.3052">operationWaiter</text><rect fill="#0077BE" height="16.584" style="stroke:#FFFFFF;stroke-width:1.0;stroke-dasharray:2.0,2.0;" width="9" x="1651.5" y="496.7373"/><text fill="#FFFFFF" font-family="Verdana" font-size="12" font-style="italic" lengthAdjust="spacing" textLength="7" x="1652.5" y="509.8018">T</text><line style="stroke:#FFFFFF;stroke-width:1.0;" x1="1506.5" x2="1656.5" y1="527.7373" y2="527.7373"/><line style="stroke:#FFFFFF;stroke-width:1.0;" x1="1506.5" x2="1656.5" y1="535.7373" y2="535.7373"/></g><!--class Persister--><g id="elem_Persister"><rect codeLine="85" fill="#0B58A8" height="44" id="Persister" rx="2.5" ry="2.5" style="stroke:#FFFFFF;stroke-width:1.0;" width="89" x="57" y="181.2373"/><ellipse cx="70" cy="195.2373" fill="#0B58A8" rx="9" ry="9" style="stroke:#FFFFFF;stroke-width:1.0;"/><path d="M65.1094,197.2842 L67.5,197.0498 Q67.7188,198.2529 68.375,198.8154 Q69.0469,199.3779 70.1563,199.3779 Q71.3438,199.3779 71.9375,198.8779 Q72.5469,198.3779 72.5469,197.7061 Q72.5469,197.2686 72.2969,196.9717 Q72.0469,196.6592 71.4219,196.4404 Q70.9844,196.2842 69.4531,195.9092 Q67.4688,195.4248 66.6719,194.7061 Q65.5469,193.7061 65.5469,192.2529 Q65.5469,191.3311 66.0781,190.5186 Q66.6094,189.7061 67.5938,189.2842 Q68.5938,188.8623 70,188.8623 Q72.2813,188.8623 73.4375,189.8623 Q74.6094,190.8623 74.6563,192.5498 L72.2031,192.6592 Q72.0469,191.7217 71.5313,191.3154 Q71.0156,190.8936 69.9688,190.8936 Q68.9063,190.8936 68.2969,191.3311 Q67.9063,191.6123 67.9063,192.0967 Q67.9063,192.5186 68.2656,192.8311 Q68.7344,193.2217 70.5156,193.6436 Q72.3125,194.0654 73.1719,194.5186 Q74.0313,194.9717 74.5156,195.7529 Q75.0156,196.5342 75.0156,197.6904 Q75.0156,198.7373 74.4219,199.6592 Q73.8438,200.5654 72.7813,201.0186 Q71.7188,201.4561 70.1406,201.4561 Q67.8281,201.4561 66.5938,200.3936 Q65.3594,199.3154 65.1094,197.2842 Z " fill="#FFFFFF"/><text fill="#FFFFFF" font-family="Verdana" font-size="14" lengthAdjust="spacing" textLength="61" x="82" y="200.8052">Persister</text><line style="stroke:#FFFFFF;stroke-width:1.0;" x1="58" x2="145" y1="209.2373" y2="209.2373"/><line style="stroke:#FFFFFF;stroke-width:1.0;" x1="58" x2="145" y1="217.2373" y2="217.2373"/></g><!--class Raft--><g id="elem_Raft"><rect codeLine="88" fill="#0B58A8" height="44" id="Raft" rx="2.5" ry="2.5" style="stroke:#FFFFFF;stroke-width:1.0;" width="57" x="181" y="181.2373"/><ellipse cx="194" cy="195.2373" fill="#0B58A8" rx="9" ry="9" style="stroke:#FFFFFF;stroke-width:1.0;"/><path d="M189.1094,197.2842 L191.5,197.0498 Q191.7188,198.2529 192.375,198.8154 Q193.0469,199.3779 194.1563,199.3779 Q195.3438,199.3779 195.9375,198.8779 Q196.5469,198.3779 196.5469,197.7061 Q196.5469,197.2686 196.2969,196.9717 Q196.0469,196.6592 195.4219,196.4404 Q194.9844,196.2842 193.4531,195.9092 Q191.4688,195.4248 190.6719,194.7061 Q189.5469,193.7061 189.5469,192.2529 Q189.5469,191.3311 190.0781,190.5186 Q190.6094,189.7061 191.5938,189.2842 Q192.5938,188.8623 194,188.8623 Q196.2813,188.8623 197.4375,189.8623 Q198.6094,190.8623 198.6563,192.5498 L196.2031,192.6592 Q196.0469,191.7217 195.5313,191.3154 Q195.0156,190.8936 193.9688,190.8936 Q192.9063,190.8936 192.2969,191.3311 Q191.9063,191.6123 191.9063,192.0967 Q191.9063,192.5186 192.2656,192.8311 Q192.7344,193.2217 194.5156,193.6436 Q196.3125,194.0654 197.1719,194.5186 Q198.0313,194.9717 198.5156,195.7529 Q199.0156,196.5342 199.0156,197.6904 Q199.0156,198.7373 198.4219,199.6592 Q197.8438,200.5654 196.7813,201.0186 Q195.7188,201.4561 194.1406,201.4561 Q191.8281,201.4561 190.5938,200.3936 Q189.3594,199.3154 189.1094,197.2842 Z " fill="#FFFFFF"/><text fill="#FFFFFF" font-family="Verdana" font-size="14" lengthAdjust="spacing" textLength="29" x="206" y="200.8052">Raft</text><line style="stroke:#FFFFFF;stroke-width:1.0;" x1="182" x2="237" y1="209.2373" y2="209.2373"/><line style="stroke:#FFFFFF;stroke-width:1.0;" x1="182" x2="237" y1="217.2373" y2="217.2373"/></g><!--class ClientEnd--><g id="elem_ClientEnd"><rect codeLine="93" fill="#0B58A8" height="44" id="ClientEnd" rx="2.5" ry="2.5" style="stroke:#FFFFFF;stroke-width:1.0;" width="94" x="2293.5" y="181.2373"/><ellipse cx="2306.5" cy="195.2373" fill="#0B58A8" rx="9" ry="9" style="stroke:#FFFFFF;stroke-width:1.0;"/><path d="M2301.6094,197.2842 L2304,197.0498 Q2304.2188,198.2529 2304.875,198.8154 Q2305.5469,199.3779 2306.6563,199.3779 Q2307.8438,199.3779 2308.4375,198.8779 Q2309.0469,198.3779 2309.0469,197.7061 Q2309.0469,197.2686 2308.7969,196.9717 Q2308.5469,196.6592 2307.9219,196.4404 Q2307.4844,196.2842 2305.9531,195.9092 Q2303.9688,195.4248 2303.1719,194.7061 Q2302.0469,193.7061 2302.0469,192.2529 Q2302.0469,191.3311 2302.5781,190.5186 Q2303.1094,189.7061 2304.0938,189.2842 Q2305.0938,188.8623 2306.5,188.8623 Q2308.7813,188.8623 2309.9375,189.8623 Q2311.1094,190.8623 2311.1563,192.5498 L2308.7031,192.6592 Q2308.5469,191.7217 2308.0313,191.3154 Q2307.5156,190.8936 2306.4688,190.8936 Q2305.4063,190.8936 2304.7969,191.3311 Q2304.4063,191.6123 2304.4063,192.0967 Q2304.4063,192.5186 2304.7656,192.8311 Q2305.2344,193.2217 2307.0156,193.6436 Q2308.8125,194.0654 2309.6719,194.5186 Q2310.5313,194.9717 2311.0156,195.7529 Q2311.5156,196.5342 2311.5156,197.6904 Q2311.5156,198.7373 2310.9219,199.6592 Q2310.3438,200.5654 2309.2813,201.0186 Q2308.2188,201.4561 2306.6406,201.4561 Q2304.3281,201.4561 2303.0938,200.3936 Q2301.8594,199.3154 2301.6094,197.2842 Z " fill="#FFFFFF"/><text fill="#FFFFFF" font-family="Verdana" font-size="14" lengthAdjust="spacing" textLength="66" x="2318.5" y="200.8052">ClientEnd</text><line style="stroke:#FFFFFF;stroke-width:1.0;" x1="2294.5" x2="2386.5" y1="209.2373" y2="209.2373"/><line style="stroke:#FFFFFF;stroke-width:1.0;" x1="2294.5" x2="2386.5" y1="217.2373" y2="217.2373"/></g><g id="elem_GMN32"><path d="M11,378.7373 L11,388.7373 L32,388.7373 L32,388.7373 L22,378.7373 L11,378.7373 " fill="#0B58A8" style="stroke:#FFFFFF;stroke-width:1.0;"/><path d="M22,378.7373 L22,388.7373 L32,388.7373 L22,378.7373 " fill="#0B58A8" style="stroke:#FFFFFF;stroke-width:1.0;"/></g><!--reverse link clerk to Server--><g id="link_clerk_Server"><path codeLine="26" d="M1951.2244,267.813 C1972.8144,289.103 1989.1,305.2673 2011.5,327.7373 C2022.55,338.8273 2034.78,351.2673 2044.8,361.5073 " fill="none" id="clerk-backto-Server" style="stroke:#FFFFFF;stroke-width:1.0;"/><polygon fill="none" points="1942.68,259.3873,1944.1436,266.4483,1951.2244,267.813,1949.7608,260.752,1942.68,259.3873" style="stroke:#FFFFFF;stroke-width:1.0;"/></g><!--link clerk to Clerk--><g id="link_clerk_Clerk"><path codeLine="27" d="M1882.8,259.2473 C1881.34,280.9673 1880.8767,287.9078 1879.4167,309.6378 " fill="none" id="clerk-to-Clerk" style="stroke:#FFFFFF;stroke-width:1.0;stroke-dasharray:7.0,7.0;"/><polygon fill="none" points="1878.21,327.5973,1885.4032,310.04,1873.4302,309.2356,1878.21,327.5973" style="stroke:#FFFFFF;stroke-width:1.0;"/></g><!--reverse link server to Caller--><g id="link_server_Caller"><path codeLine="30" d="M2122.2599,245.4132 C2135.2099,281.5332 2152.63,330.1173 2163.96,361.7173 " fill="none" id="server-backto-Caller" style="stroke:#FFFFFF;stroke-width:1.0;"/><polygon fill="none" points="2118.21,234.1173,2116.4696,241.1152,2122.2599,245.4132,2124.0003,238.4153,2118.21,234.1173" style="stroke:#FFFFFF;stroke-width:1.0;"/></g><!--link server to Server--><g id="link_server_Server"><path codeLine="31" d="M2100.47,234.1173 C2091.97,270.2373 2081.9999,312.5951 2074.5699,344.1951 " fill="none" id="server-to-Server" style="stroke:#FFFFFF;stroke-width:1.0;stroke-dasharray:7.0,7.0;"/><polygon fill="none" points="2070.45,361.7173,2080.4106,345.5685,2068.7292,342.8218,2070.45,361.7173" style="stroke:#FFFFFF;stroke-width:1.0;"/></g><!--reverse link server to clientState--><g id="link_server_clientState"><path codeLine="69" d="M1129.933,237.9508 C1226.963,259.9508 1344.34,289.6073 1455.5,327.7373 C1476.61,334.9773 1499.11,344.2673 1519.16,353.1373 " fill="none" id="server-backto-clientState" style="stroke:#FFFFFF;stroke-width:1.0;"/><polygon fill="none" points="1118.23,235.2973,1123.197,240.525,1129.933,237.9508,1124.966,232.723,1118.23,235.2973" style="stroke:#FFFFFF;stroke-width:1.0;"/></g><!--reverse link server to DataStore--><g id="link_server_DataStore"><path codeLine="71" d="M1092.2363,273.8855 C1131.6063,296.4055 1164.72,315.3473 1201.14,336.1873 " fill="none" id="server-backto-DataStore" style="stroke:#FFFFFF;stroke-width:1.0;"/><polygon fill="none" points="1081.82,267.9273,1085.0421,274.3785,1092.2363,273.8855,1089.0142,267.4343,1081.82,267.9273" style="stroke:#FFFFFF;stroke-width:1.0;"/></g><!--reverse link server to Raft--><g id="link_server_Raft"><path codeLine="73" d="M852.7874,274.0464 C814.7974,296.5664 783.13,315.3473 747.99,336.1873 " fill="none" id="server-backto-Raft" style="stroke:#FFFFFF;stroke-width:1.0;"/><polygon fill="none" points="863.11,267.9273,855.909,267.546,852.7874,274.0464,859.9884,274.4277,863.11,267.9273" style="stroke:#FFFFFF;stroke-width:1.0;"/></g><!--reverse link server to RaftPersister--><g id="link_server_RaftPersister"><path codeLine="75" d="M811.1183,235.7719 C718.5283,256.4419 609.53,285.4673 507.5,327.7373 C490.77,334.6673 473.38,344.0273 458.12,353.0573 " fill="none" id="server-backto-RaftPersister" style="stroke:#FFFFFF;stroke-width:1.0;"/><polygon fill="none" points="822.83,233.1573,816.1026,230.5607,811.1183,235.7719,817.8457,238.3685,822.83,233.1573" style="stroke:#FFFFFF;stroke-width:1.0;"/></g><!--link server to Server--><g id="link_server_Server"><path codeLine="77" d="M970.5,267.9273 C970.5,293.5573 970.5,304.2573 970.5,326.5573 " fill="none" id="server-to-Server-1" style="stroke:#FFFFFF;stroke-width:1.0;"/><polygon fill="none" points="970.5,344.5573,976.5,326.5573,964.5,326.5573,970.5,344.5573" style="stroke:#FFFFFF;stroke-width:1.0;"/></g><!--reverse link clientState to operationWaiter--><g id="link_clientState_operationWaiter"><path codeLine="79" d="M1581.5,426.2473 C1581.5,452.0273 1581.5,476.8173 1581.5,499.7073 " fill="none" id="clientState-backto-operationWaiter" style="stroke:#FFFFFF;stroke-width:1.0;"/><polygon fill="none" points="1581.5,414.2473,1577.5,420.2473,1581.5,426.2473,1585.5,420.2473,1581.5,414.2473" style="stroke:#FFFFFF;stroke-width:1.0;"/></g><!--link Raft to GMN32--><g id="link_Raft_GMN32"><path d="M21.5,249.5471 C21.5,250.0965 21.5,250.649 21.5,251.2043 C21.5,252.3148 21.5,253.4367 21.5,254.569 C21.5,263.6275 21.5,273.3511 21.5,283.2448 C21.5,322.8198 21.5,365.1173 21.5,378.4573 " fill="none" id="Raft-GMN32" style="stroke:#FFFFFF;stroke-width:1.0;stroke-dasharray:7.0,7.0;"/></g><!--link Raft to Raft--><g id="link_Raft_Raft"><path codeLine="99" d="M238.18,223.2973 C259.64,236.9673 290.07,255.1273 318.5,267.7373 C399.06,303.4673 423.77,300.2373 507.5,327.7373 C515.82,330.4673 507.2997,327.6271 515.9297,330.4971 " fill="none" id="Raft-to-Raft" style="stroke:#FFFFFF;stroke-width:1.0;stroke-dasharray:7.0,7.0;"/><polygon fill="none" points="533.01,336.1773,517.8232,324.8037,514.0363,336.1905,533.01,336.1773" style="stroke:#FFFFFF;stroke-width:1.0;"/></g><!--link Persister to RaftPersister--><g id="link_Persister_RaftPersister"><path codeLine="100" d="M118.57,225.3373 C130.2,238.7373 146.51,255.7373 163.5,267.7373 C216.49,305.1673 266.8464,328.7812 318.0364,348.8012 " fill="none" id="Persister-to-RaftPersister" style="stroke:#FFFFFF;stroke-width:1.0;stroke-dasharray:7.0,7.0;"/><polygon fill="none" points="334.8,355.3573,320.2218,343.2133,315.8511,354.3891,334.8,355.3573" style="stroke:#FFFFFF;stroke-width:1.0;"/></g><!--link ClientEnd to Caller--><g id="link_ClientEnd_Caller"><path codeLine="101" d="M2320.45,225.4173 C2287.92,259.7673 2236.4049,314.1759 2203.8949,348.5159 " fill="none" id="ClientEnd-to-Caller" style="stroke:#FFFFFF;stroke-width:1.0;stroke-dasharray:7.0,7.0;"/><polygon fill="none" points="2191.52,361.5873,2208.252,352.6408,2199.5377,344.3909,2191.52,361.5873" style="stroke:#FFFFFF;stroke-width:1.0;"/></g><text fill="#FFFFFF" font-family="Verdana" font-size="10" lengthAdjust="spacing" textLength="233" x="1084.25" y="604.791">@github.com/ZiRunHua/MIT6.824-6.5840</text><!--SRC=[xLXjSnet4FxC_Gfr-WMduOBnIrmcauaX9YO5Xp4ucMac7yH9WEf3kkfqs2JbltVrSeSES5uST_h5p82jtTMpgsTNgpiffcAABWTjDC3HDPxIu1SretEAy9nDSP1UCvvWYUUe1Ugf51adRH4BYNwjrvy_Rvq54o4KbUZLbAbPDWuZCN_s9xlC-7c6d_Mxe-Fmf75OEmwFJWxhWNDXt7q9AafCAJYJy6ybLqKnernfRQN2E21FS4HHEwRosiWglw4BUlCkeH8h9dYNLFUGo4TXbpYRDrJrA2PKWdf8vOBAjSAEKz1y_5JINIK4A-hcnUPFbnDwYo2GFMspqZz39RD8GQ0GaespKaECQAFZGpSKIPSWhCISHM7NawVMTRFikOQiiwONgd5L9c6jz8Z1SMnbBYph0ULSMNtJipF0DdXHgtcWLXQ6_xoqT0U1bZeyRRh6S49Zwm02WxpoCkb7KWhknUXbmPjDTslP9Kqqnyb7G-Ad9rOyL90Ei7Qsa1pSHA_XTwY4z1GIJrGJNSAl9nW0ponLUl6N_j2Pu2I9b-rP4qKppCs4y5IB-kcqO6cJUl2Oy_e1CrKK8LHITVGKoIGwapA4xvwp-eF5SNLl1vw_Y1no3PT8iM14iruKzi29zj38AsIEatGc5FWleB-idBudCEa8EI-CF1CNKZacpL8U2p0lLJNoOM6DC7gApCzOY3XVfEV0xPMdA7KogFFnKj5TV6mxBrAKHw65fWQ6x3ErYrpFBRQXNob5NTr0VY3rJmfIFnZ1nz6dBGHHDj5bjL7udezDLP78JOMfnXsoTHrwobgjj94gdaCpSID4kzbW4KK_1M2zTBSYZqYp9PtO9RWqCyPZADlrrBRnVCQ9DkBGsI7L2leO4XEx9Ce9ql8WqCFGU3Pz07fwQ9TZX5PTHBBJPis53ICilA_DBHMXwpslm7qGgAqpotvUf6ePqvS1GX8E9I04mMVxt6eTdPoU65r7SEMa7VCff1SOZi3tL1BCiH6UBo47FSQlS_lNfmUD8wC2ATr6qTBHZ4NNdAOfsZUoFfPJnf6Uje8l4L4sjwUTraOuqJbseqs4kf6kpAyxSxzjE3FdodSOMafpEys0tdEeqVZ6JFtLx2RdlgSjpZVOtPs9eSuUr5jC730N98-fZs_PF9j_O4JDq46zxYmadL19UKJ_2_SfrKy-iBaV4lR5CrUatgFLgPJYfYVYc2KYAMD_xVdB-bbRlAOJdCLggtotBFg2YpI1jaiAsxR898CDjhRjiGcD8UlG6A0DJPUGZLJ4Z7Wc0pWaMCGIpDK04yBu5EtNFVsG_ftfv6WeNK0j8I59TormECD4t6YG2OvJwcckKjgYkizg9g5FqH9vaM8BffOcINTlzXQMcrdR5Sxkdh15wSfFZ7Q7fGrWUtRPzDPOvMmTbRHj9k4PZBHdC8ho_RshiBQoXg0t4vQbwFSoO8nXitw3buSXmRWwLKgoSQRe7LHy3yOG5aw5WcvxFv3EkZN-y5olYVpuN7q-m7wvDjFBXuHlruq4pmzVtx8eoZiojOKXsGAhdyK0hg3IoC-XPEEOHVU6k13thPTtuxyWUblVEwfuLUfKQyOVgEBjqzcFRwuoHbxifxkHljghTYEr7mpfxC6GkW-6TF6JI72Kj75ABU3etbtcyJBayJBayJBayJBayJBayJBaVxuC6SJm-dNLxo7TI_NrmNxOg3SEmuDgHpBKeMEqVupg1yt3UhD-XDh34TBglQ3wPj1RD50Ahn1GSWHScsTtGDWBtk85Hd1iAJQdJQH7rL4VpewpN8ZE-899mVNjHV3sVTyQeNEXXWaKlpO-Fgorc7A9HE_xWNlvXAcHq6y_JNGrwjHEWXxcqmpeRwBFim3UQBYII-ZH5_y2]--></g></svg>