<?xml version="1.0" encoding="us-ascii" standalone="no"?><svg xmlns="http://www.w3.org/2000/svg" xmlns:xlink="http://www.w3.org/1999/xlink" contentStyleType="text/css" height="775px" preserveAspectRatio="none" style="width:1826px;height:775px;" version="1.1" viewBox="0 0 1826 775" width="1826.0417px" zoomAndPan="magnify"><defs><linearGradient id="g18pg9cwr1tvjf0" x1="50%" x2="50%" y1="0%" y2="100%"><stop offset="0%" stop-color="#2FA4E7"/><stop offset="100%" stop-color="#2683B9"/></linearGradient></defs><g><rect fill="none" height="48.2361" id="_title" rx="4.1667" ry="4.1667" style="stroke:#BABDBF;stroke-width:1.0416666666666667;" width="203.125" x="806.7708" y="20.8333"/><text fill="#2FA4E7" font-family="Verdana" font-size="20.8333" font-weight="bold" lengthAdjust="spacing" textLength="180.2083" x="818.2292" y="53.2369">Server Package</text><!--cluster RPC--><g id="cluster_RPC"><path d="M20.8333,86.7778 L57.2917,86.7778 A6.25,6.25 0 0 1 61.4583,90.9444 L68.75,118.6361 L1554.1667,118.6361 A4.1667,4.1667 0 0 1 1558.3333,122.8027 L1558.3333,695.1111 A4.1667,4.1667 0 0 1 1554.1667,699.2778 L20.8333,699.2778 A4.1667,4.1667 0 0 1 16.6667,695.1111 L16.6667,90.9444 A4.1667,4.1667 0 0 1 20.8333,86.7778 " fill="none" style="stroke:#2FA4E7;stroke-width:2.0833333333333335;"/><line style="stroke:#2FA4E7;stroke-width:2.0833333333333335;" x1="16.6667" x2="68.75" y1="118.6361" y2="118.6361"/><text fill="#2FA4E7" font-family="Verdana" font-size="12.5" font-weight="bold" lengthAdjust="spacing" textLength="28.125" x="26.0417" y="106.6366">RPC</text></g><!--cluster server--><g id="cluster_server"><path d="M45.8333,139.9028 L98.9583,139.9028 A6.25,6.25 0 0 1 103.125,144.0694 L110.4167,171.7611 L1529.1667,171.7611 A4.1667,4.1667 0 0 1 1533.3333,175.9277 L1533.3333,670.1111 A4.1667,4.1667 0 0 1 1529.1667,674.2778 L45.8333,674.2778 A4.1667,4.1667 0 0 1 41.6667,670.1111 L41.6667,144.0694 A4.1667,4.1667 0 0 1 45.8333,139.9028 " fill="none" style="stroke:#2FA4E7;stroke-width:2.0833333333333335;"/><line style="stroke:#2FA4E7;stroke-width:2.0833333333333335;" x1="41.6667" x2="110.4167" y1="171.7611" y2="171.7611"/><text fill="#2FA4E7" font-family="Verdana" font-size="12.5" font-weight="bold" lengthAdjust="spacing" textLength="44.7917" x="51.0417" y="159.7616">server</text></g><!--cluster Raft--><g id="cluster_Raft"><path d="M1587.5,200.8403 L1623.9583,200.8403 A6.25,6.25 0 0 1 1628.125,205.0069 L1635.4167,232.6986 L1809.375,232.6986 A4.1667,4.1667 0 0 1 1813.5417,236.8652 L1813.5417,309.1736 A4.1667,4.1667 0 0 1 1809.375,313.3403 L1587.5,313.3403 A4.1667,4.1667 0 0 1 1583.3333,309.1736 L1583.3333,205.0069 A4.1667,4.1667 0 0 1 1587.5,200.8403 " fill="none" style="stroke:#2FA4E7;stroke-width:2.0833333333333335;"/><line style="stroke:#2FA4E7;stroke-width:2.0833333333333335;" x1="1583.3333" x2="1635.4167" y1="232.6986" y2="232.6986"/><text fill="#2FA4E7" font-family="Verdana" font-size="12.5" font-weight="bold" lengthAdjust="spacing" textLength="28.125" x="1592.7083" y="220.6991">Raft</text></g><!--class server--><g id="elem_server"><rect codeLine="6" fill="none" height="173.1374" id="server" rx="4.1667" ry="4.1667" style="stroke:#2FA4E7;stroke-width:1.0416666666666667;" width="266.6667" x="767.7083" y="184.6944"/><rect fill="url(#g18pg9cwr1tvjf0)" height="34.759" rx="4.1667" ry="4.1667" style="stroke:url(#g18pg9cwr1tvjf0);stroke-width:1.0416666666666667;" width="266.6667" x="767.7083" y="184.6944"/><rect fill="url(#g18pg9cwr1tvjf0)" height="4.1667" style="stroke:url(#g18pg9cwr1tvjf0);stroke-width:1.0416666666666667;" width="266.6667" x="767.7083" y="215.2868"/><rect codeLine="6" fill="none" height="173.1374" id="server" rx="4.1667" ry="4.1667" style="stroke:#2FA4E7;stroke-width:1.0416666666666667;" width="266.6667" x="767.7083" y="184.6944"/><ellipse cx="861.4583" cy="202.0739" fill="none" rx="10.4167" ry="10.4167" style="stroke:#2683B9;stroke-width:1.0416666666666667;"/><path d="M861.8978,202.0251 Q860.5469,201.4229 860.0098,200.9509 Q859.4889,200.4626 859.4889,199.4535 Q859.4889,198.6397 860.1563,197.9235 Q860.8236,197.2074 862.028,197.2074 Q862.5488,197.2074 863.0208,197.3701 Q863.444,197.5492 863.5905,197.5492 Q863.6882,197.5492 863.7533,197.5166 Q863.8346,197.4678 864.209,196.7028 L864.4857,199.5349 L863.9323,199.7464 Q863.4277,198.6071 863.0046,198.2816 Q862.5977,197.9398 861.9303,197.9398 Q861.1003,197.9398 860.8073,198.3955 Q860.5143,198.835 860.5143,199.3558 Q860.5143,199.8116 860.791,200.0882 Q861.0677,200.3649 862.4512,200.9834 Q863.6556,201.488 864.209,202.1553 Q864.7624,202.8063 864.7624,203.7015 Q864.7624,204.6618 864.0951,205.4105 Q863.4277,206.1429 862.1745,206.1429 Q861.6374,206.1429 861.2142,205.9313 Q860.8236,205.8011 860.612,205.8011 Q860.5306,205.8011 860.4004,205.8825 Q860.2865,205.9639 859.8307,206.2894 L859.375,203.4248 L860.0098,203.2132 Q860.3841,204.5642 860.9375,204.9873 Q861.5072,205.4105 862.2233,205.4105 Q862.9557,205.4105 863.3138,204.9873 Q863.6882,204.5642 863.6882,203.7015 Q863.6882,203.2946 863.265,202.8714 Q862.8418,202.4483 861.8978,202.0251 Z " fill="#2FA4E7"/><text fill="#343A40" font-family="Verdana" font-size="11.4583" lengthAdjust="spacing" textLength="38.5417" x="886.4583" y="206.631">server</text><rect fill="none" height="27.6917" style="stroke:#2FA4E7;stroke-width:1.0416666666666667;stroke-dasharray:2.0,2.0;" width="19.7917" x="1017.7083" y="181.5694"/><text fill="#343A40" font-family="Verdana" font-size="12.5" font-style="italic" lengthAdjust="spacing" textLength="7.2917" x="1023.9583" y="200.3866">T</text><line style="stroke:#2FA4E7;stroke-width:1.0416666666666667;" x1="768.75" x2="1033.3333" y1="219.4534" y2="219.4534"/><rect fill="none" height="6.25" style="stroke:#2683B9;stroke-width:1.0416666666666667;" width="6.25" x="776.0417" y="234.2288"/><text fill="#343A40" font-family="Verdana" font-size="11.4583" lengthAdjust="spacing" textLength="230.2083" x="792.7083" y="240.3483">clientById: map[int64]*clientState&lt;T&gt;</text><rect fill="none" height="6.25" style="stroke:#2683B9;stroke-width:1.0416666666666667;" width="6.25" x="776.0417" y="258.5711"/><text fill="#343A40" font-family="Verdana" font-size="11.4583" lengthAdjust="spacing" textLength="121.875" x="792.7083" y="264.6907">data: DataStore&lt;T&gt;</text><rect fill="none" height="6.25" style="stroke:#2683B9;stroke-width:1.0416666666666667;" width="6.25" x="776.0417" y="282.9135"/><text fill="#343A40" font-family="Verdana" font-size="11.4583" lengthAdjust="spacing" textLength="54.1667" x="792.7083" y="289.033">raft: Raft</text><rect fill="none" height="6.25" style="stroke:#2683B9;stroke-width:1.0416666666666667;" width="6.25" x="776.0417" y="307.2558"/><text fill="#343A40" font-family="Verdana" font-size="11.4583" lengthAdjust="spacing" textLength="158.3333" x="792.7083" y="313.3753">raftPersister: RaftPersister</text><rect fill="none" height="6.25" style="stroke:#2683B9;stroke-width:1.0416666666666667;" width="6.25" x="776.0417" y="331.5982"/><text fill="#343A40" font-family="Verdana" font-size="11.4583" lengthAdjust="spacing" textLength="171.875" x="792.7083" y="337.7177">applyCh: chan raft.ApplyMsg</text><line style="stroke:#2FA4E7;stroke-width:1.0416666666666667;" x1="768.75" x2="1033.3333" y1="349.4985" y2="349.4985"/></g><!--class Server--><g id="elem_Server"><rect codeLine="13" fill="none" height="100.1104" id="Server" rx="4.1667" ry="4.1667" style="stroke:#2FA4E7;stroke-width:1.0416666666666667;" width="428.125" x="295.3125" y="432.0903"/><rect fill="url(#g18pg9cwr1tvjf0)" height="34.759" rx="4.1667" ry="4.1667" style="stroke:url(#g18pg9cwr1tvjf0);stroke-width:1.0416666666666667;" width="428.125" x="295.3125" y="432.0903"/><rect fill="url(#g18pg9cwr1tvjf0)" height="4.1667" style="stroke:url(#g18pg9cwr1tvjf0);stroke-width:1.0416666666666667;" width="428.125" x="295.3125" y="462.6826"/><rect codeLine="13" fill="none" height="100.1104" id="Server" rx="4.1667" ry="4.1667" style="stroke:#2FA4E7;stroke-width:1.0416666666666667;" width="428.125" x="295.3125" y="432.0903"/><ellipse cx="469.2708" cy="449.4698" fill="none" rx="10.4167" ry="10.4167" style="stroke:#2683B9;stroke-width:1.0416666666666667;"/><path d="M467.8385,445.3845 L467.8385,444.7009 L472.1354,444.7009 L472.1354,445.3845 L470.8171,445.3845 Q470.6868,445.3845 470.6217,445.4333 Q470.5729,445.4821 470.5729,445.5798 L470.5729,452.5622 Q470.5729,452.6599 470.6217,452.7087 Q470.6868,452.7575 470.8171,452.7575 L472.1354,452.7575 L472.1354,453.4411 L467.8385,453.4411 L467.8385,452.7575 L469.1569,452.7575 Q469.3197,452.7575 469.3522,452.725 Q469.401,452.6761 469.401,452.5622 L469.401,445.5798 Q469.401,445.4659 469.3522,445.4333 Q469.3197,445.3845 469.1569,445.3845 L467.8385,445.3845 Z " fill="#2FA4E7"/><text fill="#343A40" font-family="Verdana" font-size="11.4583" font-style="italic" lengthAdjust="spacing" textLength="39.5833" x="494.2708" y="454.0268">Server</text><rect fill="none" height="27.6917" style="stroke:#2FA4E7;stroke-width:1.0416666666666667;stroke-dasharray:2.0,2.0;" width="19.7917" x="706.7708" y="428.9653"/><text fill="#343A40" font-family="Verdana" font-size="12.5" font-style="italic" lengthAdjust="spacing" textLength="7.2917" x="713.0208" y="447.7824">T</text><line style="stroke:#2FA4E7;stroke-width:1.0416666666666667;" x1="296.3542" x2="722.3958" y1="466.8493" y2="466.8493"/><line style="stroke:#2FA4E7;stroke-width:1.0416666666666667;" x1="296.3542" x2="722.3958" y1="475.1826" y2="475.1826"/><ellipse cx="306.7708" cy="493.0829" fill="none" rx="3.125" ry="3.125" style="stroke:#2683B9;stroke-width:1.0416666666666667;"/><text fill="#343A40" font-family="Verdana" font-size="11.4583" lengthAdjust="spacing" textLength="391.6667" x="320.3125" y="496.0775">WaitOperation(msgId int64, op operation.Provider) (T, rpcErr.Err)</text><ellipse cx="306.7708" cy="517.4253" fill="none" rx="3.125" ry="3.125" style="stroke:#2683B9;stroke-width:1.0416666666666667;"/><text fill="#343A40" font-family="Verdana" font-size="11.4583" lengthAdjust="spacing" textLength="28.125" x="320.3125" y="520.4198">Kill()</text></g><!--class DataStore--><g id="elem_DataStore"><rect codeLine="17" fill="none" height="124.4527" id="DataStore" rx="4.1667" ry="4.1667" style="stroke:#2FA4E7;stroke-width:1.0416666666666667;" width="281.25" x="760.4167" y="420.1111"/><rect fill="url(#g18pg9cwr1tvjf0)" height="34.759" rx="4.1667" ry="4.1667" style="stroke:url(#g18pg9cwr1tvjf0);stroke-width:1.0416666666666667;" width="281.25" x="760.4167" y="420.1111"/><rect fill="url(#g18pg9cwr1tvjf0)" height="4.1667" style="stroke:url(#g18pg9cwr1tvjf0);stroke-width:1.0416666666666667;" width="281.25" x="760.4167" y="450.7034"/><rect codeLine="17" fill="none" height="124.4527" id="DataStore" rx="4.1667" ry="4.1667" style="stroke:#2FA4E7;stroke-width:1.0416666666666667;" width="281.25" x="760.4167" y="420.1111"/><ellipse cx="851.5625" cy="437.4906" fill="none" rx="10.4167" ry="10.4167" style="stroke:#2683B9;stroke-width:1.0416666666666667;"/><path d="M850.1302,433.4053 L850.1302,432.7217 L854.4271,432.7217 L854.4271,433.4053 L853.1087,433.4053 Q852.9785,433.4053 852.9134,433.4541 Q852.8646,433.503 852.8646,433.6006 L852.8646,440.583 Q852.8646,440.6807 852.9134,440.7295 Q852.9785,440.7784 853.1087,440.7784 L854.4271,440.7784 L854.4271,441.4619 L850.1302,441.4619 L850.1302,440.7784 L851.4486,440.7784 Q851.6113,440.7784 851.6439,440.7458 Q851.6927,440.697 851.6927,440.583 L851.6927,433.6006 Q851.6927,433.4867 851.6439,433.4541 Q851.6113,433.4053 851.4486,433.4053 L850.1302,433.4053 Z " fill="#2FA4E7"/><text fill="#343A40" font-family="Verdana" font-size="11.4583" font-style="italic" lengthAdjust="spacing" textLength="58.3333" x="876.5625" y="442.0476">DataStore</text><rect fill="none" height="27.6917" style="stroke:#2FA4E7;stroke-width:1.0416666666666667;stroke-dasharray:2.0,2.0;" width="19.7917" x="1025" y="416.9861"/><text fill="#343A40" font-family="Verdana" font-size="12.5" font-style="italic" lengthAdjust="spacing" textLength="7.2917" x="1031.25" y="435.8032">T</text><line style="stroke:#2FA4E7;stroke-width:1.0416666666666667;" x1="761.4583" x2="1040.625" y1="454.8701" y2="454.8701"/><line style="stroke:#2FA4E7;stroke-width:1.0416666666666667;" x1="761.4583" x2="1040.625" y1="463.2034" y2="463.2034"/><ellipse cx="771.875" cy="481.1038" fill="none" rx="3.125" ry="3.125" style="stroke:#2683B9;stroke-width:1.0416666666666667;"/><text fill="#343A40" font-family="Verdana" font-size="11.4583" lengthAdjust="spacing" textLength="244.7917" x="785.4167" y="484.0983">Operation(provider operation.Provider) T</text><ellipse cx="771.875" cy="505.4461" fill="none" rx="3.125" ry="3.125" style="stroke:#2683B9;stroke-width:1.0416666666666667;"/><text fill="#343A40" font-family="Verdana" font-size="11.4583" lengthAdjust="spacing" textLength="157.2917" x="785.4167" y="508.4407">GetSnapshot() interface{}</text><ellipse cx="771.875" cy="529.7885" fill="none" rx="3.125" ry="3.125" style="stroke:#2683B9;stroke-width:1.0416666666666667;"/><text fill="#343A40" font-family="Verdana" font-size="11.4583" lengthAdjust="spacing" textLength="190.625" x="785.4167" y="532.783">LoadFormSnapshot(interface{})</text></g><!--class Raft--><g id="elem_Raft"><rect codeLine="23" fill="none" height="124.4527" id="Raft" rx="4.1667" ry="4.1667" style="stroke:#2FA4E7;stroke-width:1.0416666666666667;" width="255.2083" x="1260.9375" y="420.1111"/><rect fill="url(#g18pg9cwr1tvjf0)" height="34.759" rx="4.1667" ry="4.1667" style="stroke:url(#g18pg9cwr1tvjf0);stroke-width:1.0416666666666667;" width="255.2083" x="1260.9375" y="420.1111"/><rect fill="url(#g18pg9cwr1tvjf0)" height="4.1667" style="stroke:url(#g18pg9cwr1tvjf0);stroke-width:1.0416666666666667;" width="255.2083" x="1260.9375" y="450.7034"/><rect codeLine="23" fill="none" height="124.4527" id="Raft" rx="4.1667" ry="4.1667" style="stroke:#2FA4E7;stroke-width:1.0416666666666667;" width="255.2083" x="1260.9375" y="420.1111"/><ellipse cx="1367.1875" cy="437.4906" fill="none" rx="10.4167" ry="10.4167" style="stroke:#2683B9;stroke-width:1.0416666666666667;"/><path d="M1365.7552,433.4053 L1365.7552,432.7217 L1370.0521,432.7217 L1370.0521,433.4053 L1368.7337,433.4053 Q1368.6035,433.4053 1368.5384,433.4541 Q1368.4896,433.503 1368.4896,433.6006 L1368.4896,440.583 Q1368.4896,440.6807 1368.5384,440.7295 Q1368.6035,440.7784 1368.7337,440.7784 L1370.0521,440.7784 L1370.0521,441.4619 L1365.7552,441.4619 L1365.7552,440.7784 L1367.0736,440.7784 Q1367.2363,440.7784 1367.2689,440.7458 Q1367.3177,440.697 1367.3177,440.583 L1367.3177,433.6006 Q1367.3177,433.4867 1367.2689,433.4541 Q1367.2363,433.4053 1367.0736,433.4053 L1365.7552,433.4053 Z " fill="#2FA4E7"/><text fill="#343A40" font-family="Verdana" font-size="11.4583" font-style="italic" lengthAdjust="spacing" textLength="23.9583" x="1392.1875" y="442.0476">Raft</text><line style="stroke:#2FA4E7;stroke-width:1.0416666666666667;" x1="1261.9792" x2="1515.1042" y1="454.8701" y2="454.8701"/><line style="stroke:#2FA4E7;stroke-width:1.0416666666666667;" x1="1261.9792" x2="1515.1042" y1="463.2034" y2="463.2034"/><ellipse cx="1272.3958" cy="481.1038" fill="none" rx="3.125" ry="3.125" style="stroke:#2683B9;stroke-width:1.0416666666666667;"/><text fill="#343A40" font-family="Verdana" font-size="11.4583" lengthAdjust="spacing" textLength="202.0833" x="1285.9375" y="484.0983">Start(c interface{}) (int, int, bool)</text><ellipse cx="1272.3958" cy="505.4461" fill="none" rx="3.125" ry="3.125" style="stroke:#2683B9;stroke-width:1.0416666666666667;"/><text fill="#343A40" font-family="Verdana" font-size="11.4583" lengthAdjust="spacing" textLength="218.75" x="1285.9375" y="508.4407">Snapshot(index int, snapshot []byte)</text><ellipse cx="1272.3958" cy="529.7885" fill="none" rx="3.125" ry="3.125" style="stroke:#2683B9;stroke-width:1.0416666666666667;"/><text fill="#343A40" font-family="Verdana" font-size="11.4583" lengthAdjust="spacing" textLength="28.125" x="1285.9375" y="532.783">Kill()</text></g><!--class RaftPersister--><g id="elem_RaftPersister"><rect codeLine="29" fill="none" height="75.768" id="RaftPersister" rx="4.1667" ry="4.1667" style="stroke:#2FA4E7;stroke-width:1.0416666666666667;" width="145.8333" x="1078.125" y="444.0694"/><rect fill="url(#g18pg9cwr1tvjf0)" height="34.759" rx="4.1667" ry="4.1667" style="stroke:url(#g18pg9cwr1tvjf0);stroke-width:1.0416666666666667;" width="145.8333" x="1078.125" y="444.0694"/><rect fill="url(#g18pg9cwr1tvjf0)" height="4.1667" style="stroke:url(#g18pg9cwr1tvjf0);stroke-width:1.0416666666666667;" width="145.8333" x="1078.125" y="474.6618"/><rect codeLine="29" fill="none" height="75.768" id="RaftPersister" rx="4.1667" ry="4.1667" style="stroke:#2FA4E7;stroke-width:1.0416666666666667;" width="145.8333" x="1078.125" y="444.0694"/><ellipse cx="1105.3646" cy="461.4489" fill="none" rx="10.4167" ry="10.4167" style="stroke:#2683B9;stroke-width:1.0416666666666667;"/><path d="M1103.9323,457.3636 L1103.9323,456.68 L1108.2292,456.68 L1108.2292,457.3636 L1106.9108,457.3636 Q1106.7806,457.3636 1106.7155,457.4125 Q1106.6667,457.4613 1106.6667,457.5589 L1106.6667,464.5414 Q1106.6667,464.639 1106.7155,464.6879 Q1106.7806,464.7367 1106.9108,464.7367 L1108.2292,464.7367 L1108.2292,465.4203 L1103.9323,465.4203 L1103.9323,464.7367 L1105.2507,464.7367 Q1105.4134,464.7367 1105.446,464.7041 Q1105.4948,464.6553 1105.4948,464.5414 L1105.4948,457.5589 Q1105.4948,457.445 1105.446,457.4125 Q1105.4134,457.3636 1105.2507,457.3636 L1103.9323,457.3636 Z " fill="#2FA4E7"/><text fill="#343A40" font-family="Verdana" font-size="11.4583" font-style="italic" lengthAdjust="spacing" textLength="76.0417" x="1126.9271" y="466.006">RaftPersister</text><line style="stroke:#2FA4E7;stroke-width:1.0416666666666667;" x1="1079.1667" x2="1222.9167" y1="478.8284" y2="478.8284"/><line style="stroke:#2FA4E7;stroke-width:1.0416666666666667;" x1="1079.1667" x2="1222.9167" y1="487.1618" y2="487.1618"/><ellipse cx="1089.5833" cy="505.0621" fill="none" rx="3.125" ry="3.125" style="stroke:#2683B9;stroke-width:1.0416666666666667;"/><text fill="#343A40" font-family="Verdana" font-size="11.4583" lengthAdjust="spacing" textLength="109.375" x="1103.125" y="508.0566">RaftStateSize() int</text></g><!--class clientState--><g id="elem_clientState"><rect codeLine="33" fill="none" height="75.768" id="clientState" rx="4.1667" ry="4.1667" style="stroke:#2FA4E7;stroke-width:1.0416666666666667;" width="200" x="58.3333" y="444.0694"/><rect fill="url(#g18pg9cwr1tvjf0)" height="34.759" rx="4.1667" ry="4.1667" style="stroke:url(#g18pg9cwr1tvjf0);stroke-width:1.0416666666666667;" width="200" x="58.3333" y="444.0694"/><rect fill="url(#g18pg9cwr1tvjf0)" height="4.1667" style="stroke:url(#g18pg9cwr1tvjf0);stroke-width:1.0416666666666667;" width="200" x="58.3333" y="474.6618"/><rect codeLine="33" fill="none" height="75.768" id="clientState" rx="4.1667" ry="4.1667" style="stroke:#2FA4E7;stroke-width:1.0416666666666667;" width="200" x="58.3333" y="444.0694"/><ellipse cx="106.7708" cy="461.4489" fill="none" rx="10.4167" ry="10.4167" style="stroke:#2683B9;stroke-width:1.0416666666666667;"/><path d="M107.2103,461.4001 Q105.8594,460.7979 105.3223,460.3259 Q104.8014,459.8376 104.8014,458.8285 Q104.8014,458.0147 105.4688,457.2985 Q106.1361,456.5824 107.3405,456.5824 Q107.8613,456.5824 108.3333,456.7451 Q108.7565,456.9242 108.903,456.9242 Q109.0007,456.9242 109.0658,456.8916 Q109.1471,456.8428 109.5215,456.0778 L109.7982,458.9099 L109.2448,459.1214 Q108.7402,457.9821 108.3171,457.6566 Q107.9102,457.3148 107.2428,457.3148 Q106.4128,457.3148 106.1198,457.7705 Q105.8268,458.21 105.8268,458.7308 Q105.8268,459.1866 106.1035,459.4632 Q106.3802,459.7399 107.7637,460.3584 Q108.9681,460.863 109.5215,461.5303 Q110.0749,462.1813 110.0749,463.0765 Q110.0749,464.0368 109.4076,464.7855 Q108.7402,465.5179 107.487,465.5179 Q106.9499,465.5179 106.5267,465.3063 Q106.1361,465.1761 105.9245,465.1761 Q105.8431,465.1761 105.7129,465.2575 Q105.599,465.3389 105.1432,465.6644 L104.6875,462.7998 L105.3223,462.5882 Q105.6966,463.9392 106.25,464.3623 Q106.8197,464.7855 107.5358,464.7855 Q108.2682,464.7855 108.6263,464.3623 Q109.0007,463.9392 109.0007,463.0765 Q109.0007,462.6696 108.5775,462.2464 Q108.1543,461.8233 107.2103,461.4001 Z " fill="#2FA4E7"/><text fill="#343A40" font-family="Verdana" font-size="11.4583" lengthAdjust="spacing" textLength="62.5" x="131.7708" y="466.006">clientState</text><rect fill="none" height="27.6917" style="stroke:#2FA4E7;stroke-width:1.0416666666666667;stroke-dasharray:2.0,2.0;" width="19.7917" x="241.6667" y="440.9444"/><text fill="#343A40" font-family="Verdana" font-size="12.5" font-style="italic" lengthAdjust="spacing" textLength="7.2917" x="247.9167" y="459.7616">T</text><line style="stroke:#2FA4E7;stroke-width:1.0416666666666667;" x1="59.375" x2="257.2917" y1="478.8284" y2="478.8284"/><rect fill="none" height="6.25" style="stroke:#2683B9;stroke-width:1.0416666666666667;" width="6.25" x="66.6667" y="493.6038"/><text fill="#343A40" font-family="Verdana" font-size="11.4583" lengthAdjust="spacing" textLength="163.5417" x="83.3333" y="499.7233">waiter:*OperationWaiter[T]</text><line style="stroke:#2FA4E7;stroke-width:1.0416666666666667;" x1="59.375" x2="257.2917" y1="511.5041" y2="511.5041"/></g><!--class operationWaiter--><g id="elem_operationWaiter"><rect codeLine="37" fill="none" height="51.4257" id="operationWaiter" rx="4.1667" ry="4.1667" style="stroke:#2FA4E7;stroke-width:1.0416666666666667;" width="158.3333" x="79.1667" y="606.5694"/><rect fill="url(#g18pg9cwr1tvjf0)" height="34.759" rx="4.1667" ry="4.1667" style="stroke:url(#g18pg9cwr1tvjf0);stroke-width:1.0416666666666667;" width="158.3333" x="79.1667" y="606.5694"/><rect fill="url(#g18pg9cwr1tvjf0)" height="4.1667" style="stroke:url(#g18pg9cwr1tvjf0);stroke-width:1.0416666666666667;" width="158.3333" x="79.1667" y="637.1618"/><rect codeLine="37" fill="none" height="51.4257" id="operationWaiter" rx="4.1667" ry="4.1667" style="stroke:#2FA4E7;stroke-width:1.0416666666666667;" width="158.3333" x="79.1667" y="606.5694"/><ellipse cx="93.75" cy="623.9489" fill="none" rx="10.4167" ry="10.4167" style="stroke:#2683B9;stroke-width:1.0416666666666667;"/><path d="M94.1895,623.9001 Q92.8385,623.2979 92.3014,622.8259 Q91.7806,622.3376 91.7806,621.3285 Q91.7806,620.5147 92.4479,619.7985 Q93.1152,619.0824 94.3197,619.0824 Q94.8405,619.0824 95.3125,619.2451 Q95.7357,619.4242 95.8822,619.4242 Q95.9798,619.4242 96.0449,619.3916 Q96.1263,619.3428 96.5007,618.5778 L96.7773,621.4099 L96.224,621.6214 Q95.7194,620.4821 95.2962,620.1566 Q94.8893,619.8148 94.222,619.8148 Q93.3919,619.8148 93.099,620.2705 Q92.806,620.71 92.806,621.2308 Q92.806,621.6866 93.0827,621.9632 Q93.3594,622.2399 94.7428,622.8584 Q95.9473,623.363 96.5007,624.0303 Q97.054,624.6813 97.054,625.5765 Q97.054,626.5368 96.3867,627.2855 Q95.7194,628.0179 94.4661,628.0179 Q93.929,628.0179 93.5059,627.8063 Q93.1152,627.6761 92.9036,627.6761 Q92.8223,627.6761 92.6921,627.7575 Q92.5781,627.8389 92.1224,628.1644 L91.6667,625.2998 L92.3014,625.0882 Q92.6758,626.4392 93.2292,626.8623 Q93.7988,627.2855 94.515,627.2855 Q95.2474,627.2855 95.6055,626.8623 Q95.9798,626.4392 95.9798,625.5765 Q95.9798,625.1696 95.5566,624.7464 Q95.1335,624.3233 94.1895,623.9001 Z " fill="#2FA4E7"/><text fill="#343A40" font-family="Verdana" font-size="11.4583" lengthAdjust="spacing" textLength="94.7917" x="112.5" y="628.506">operationWaiter</text><rect fill="none" height="27.6917" style="stroke:#2FA4E7;stroke-width:1.0416666666666667;stroke-dasharray:2.0,2.0;" width="19.7917" x="220.8333" y="603.4444"/><text fill="#343A40" font-family="Verdana" font-size="12.5" font-style="italic" lengthAdjust="spacing" textLength="7.2917" x="227.0833" y="622.2616">T</text><line style="stroke:#2FA4E7;stroke-width:1.0416666666666667;" x1="80.2083" x2="236.4583" y1="641.3284" y2="641.3284"/><line style="stroke:#2FA4E7;stroke-width:1.0416666666666667;" x1="80.2083" x2="236.4583" y1="649.6618" y2="649.6618"/></g><!--class Persister--><g id="elem_Persister"><rect codeLine="55" fill="none" height="51.4257" id="Persister" rx="4.1667" ry="4.1667" style="stroke:#2FA4E7;stroke-width:1.0416666666666667;" width="93.75" x="1600" y="245.6319"/><rect fill="url(#g18pg9cwr1tvjf0)" height="34.759" rx="4.1667" ry="4.1667" style="stroke:url(#g18pg9cwr1tvjf0);stroke-width:1.0416666666666667;" width="93.75" x="1600" y="245.6319"/><rect fill="url(#g18pg9cwr1tvjf0)" height="4.1667" style="stroke:url(#g18pg9cwr1tvjf0);stroke-width:1.0416666666666667;" width="93.75" x="1600" y="276.2243"/><rect codeLine="55" fill="none" height="51.4257" id="Persister" rx="4.1667" ry="4.1667" style="stroke:#2FA4E7;stroke-width:1.0416666666666667;" width="93.75" x="1600" y="245.6319"/><ellipse cx="1614.5833" cy="263.0114" fill="none" rx="10.4167" ry="10.4167" style="stroke:#2683B9;stroke-width:1.0416666666666667;"/><path d="M1615.0228,262.9626 Q1613.6719,262.3604 1613.1348,261.8884 Q1612.6139,261.4001 1612.6139,260.391 Q1612.6139,259.5772 1613.2813,258.861 Q1613.9486,258.1449 1615.153,258.1449 Q1615.6738,258.1449 1616.1458,258.3076 Q1616.569,258.4867 1616.7155,258.4867 Q1616.8132,258.4867 1616.8783,258.4541 Q1616.9596,258.4053 1617.334,257.6403 L1617.6107,260.4724 L1617.0573,260.6839 Q1616.5527,259.5446 1616.1296,259.2191 Q1615.7227,258.8773 1615.0553,258.8773 Q1614.2253,258.8773 1613.9323,259.333 Q1613.6393,259.7725 1613.6393,260.2933 Q1613.6393,260.7491 1613.916,261.0257 Q1614.1927,261.3024 1615.5762,261.9209 Q1616.7806,262.4255 1617.334,263.0928 Q1617.8874,263.7438 1617.8874,264.639 Q1617.8874,265.5993 1617.2201,266.348 Q1616.5527,267.0804 1615.2995,267.0804 Q1614.7624,267.0804 1614.3392,266.8688 Q1613.9486,266.7386 1613.737,266.7386 Q1613.6556,266.7386 1613.5254,266.82 Q1613.4115,266.9014 1612.9557,267.2269 L1612.5,264.3623 L1613.1348,264.1507 Q1613.5091,265.5017 1614.0625,265.9248 Q1614.6322,266.348 1615.3483,266.348 Q1616.0807,266.348 1616.4388,265.9248 Q1616.8132,265.5017 1616.8132,264.639 Q1616.8132,264.2321 1616.39,263.8089 Q1615.9668,263.3858 1615.0228,262.9626 Z " fill="#2FA4E7"/><text fill="#343A40" font-family="Verdana" font-size="11.4583" lengthAdjust="spacing" textLength="52.0833" x="1633.3333" y="267.5685">Persister</text><line style="stroke:#2FA4E7;stroke-width:1.0416666666666667;" x1="1601.0417" x2="1692.7083" y1="280.3909" y2="280.3909"/><line style="stroke:#2FA4E7;stroke-width:1.0416666666666667;" x1="1601.0417" x2="1692.7083" y1="288.7243" y2="288.7243"/></g><!--class Raft--><g id="elem_Raft"><rect codeLine="58" fill="none" height="51.4257" id="Raft" rx="4.1667" ry="4.1667" style="stroke:#2FA4E7;stroke-width:1.0416666666666667;" width="65.625" x="1730.7292" y="245.6319"/><rect fill="url(#g18pg9cwr1tvjf0)" height="34.759" rx="4.1667" ry="4.1667" style="stroke:url(#g18pg9cwr1tvjf0);stroke-width:1.0416666666666667;" width="65.625" x="1730.7292" y="245.6319"/><rect fill="url(#g18pg9cwr1tvjf0)" height="4.1667" style="stroke:url(#g18pg9cwr1tvjf0);stroke-width:1.0416666666666667;" width="65.625" x="1730.7292" y="276.2243"/><rect codeLine="58" fill="none" height="51.4257" id="Raft" rx="4.1667" ry="4.1667" style="stroke:#2FA4E7;stroke-width:1.0416666666666667;" width="65.625" x="1730.7292" y="245.6319"/><ellipse cx="1745.3125" cy="263.0114" fill="none" rx="10.4167" ry="10.4167" style="stroke:#2683B9;stroke-width:1.0416666666666667;"/><path d="M1745.752,262.9626 Q1744.401,262.3604 1743.8639,261.8884 Q1743.3431,261.4001 1743.3431,260.391 Q1743.3431,259.5772 1744.0104,258.861 Q1744.6777,258.1449 1745.8822,258.1449 Q1746.403,258.1449 1746.875,258.3076 Q1747.2982,258.4867 1747.4447,258.4867 Q1747.5423,258.4867 1747.6074,258.4541 Q1747.6888,258.4053 1748.0632,257.6403 L1748.3398,260.4724 L1747.7865,260.6839 Q1747.2819,259.5446 1746.8587,259.2191 Q1746.4518,258.8773 1745.7845,258.8773 Q1744.9544,258.8773 1744.6615,259.333 Q1744.3685,259.7725 1744.3685,260.2933 Q1744.3685,260.7491 1744.6452,261.0257 Q1744.9219,261.3024 1746.3053,261.9209 Q1747.5098,262.4255 1748.0632,263.0928 Q1748.6165,263.7438 1748.6165,264.639 Q1748.6165,265.5993 1747.9492,266.348 Q1747.2819,267.0804 1746.0286,267.0804 Q1745.4915,267.0804 1745.0684,266.8688 Q1744.6777,266.7386 1744.4661,266.7386 Q1744.3848,266.7386 1744.2546,266.82 Q1744.1406,266.9014 1743.6849,267.2269 L1743.2292,264.3623 L1743.8639,264.1507 Q1744.2383,265.5017 1744.7917,265.9248 Q1745.3613,266.348 1746.0775,266.348 Q1746.8099,266.348 1747.168,265.9248 Q1747.5423,265.5017 1747.5423,264.639 Q1747.5423,264.2321 1747.1191,263.8089 Q1746.696,263.3858 1745.752,262.9626 Z " fill="#2FA4E7"/><text fill="#343A40" font-family="Verdana" font-size="11.4583" lengthAdjust="spacing" textLength="23.9583" x="1764.0625" y="267.5685">Raft</text><line style="stroke:#2FA4E7;stroke-width:1.0416666666666667;" x1="1731.7708" x2="1795.3125" y1="280.3909" y2="280.3909"/><line style="stroke:#2FA4E7;stroke-width:1.0416666666666667;" x1="1731.7708" x2="1795.3125" y1="288.7243" y2="288.7243"/></g><!--reverse link server to clientState--><g id="link_server_clientState"><path codeLine="39" d="M755.1606,296.434 C626.921,319.7882 441.3229,359.5173 277.0833,420.1111 C259.2604,426.684 240.6667,435.2986 223.6354,443.9757 " fill="none" id="server-backto-clientState" style="stroke:#2FA4E7;stroke-width:3.125;"/><polygon fill="none" points="767.4583,294.1944,760.5629,291.215,755.1606,296.434,762.056,299.4135,767.4583,294.1944" style="stroke:#2FA4E7;stroke-width:3.125;"/></g><!--reverse link server to DataStore--><g id="link_server_DataStore"><path codeLine="41" d="M901.0417,370.2465 C901.0417,391.0903 901.0417,400.4653 901.0417,419.9132 " fill="none" id="server-backto-DataStore" style="stroke:#2FA4E7;stroke-width:3.125;"/><polygon fill="none" points="901.0417,357.7465,896.875,363.9965,901.0417,370.2465,905.2083,363.9965,901.0417,357.7465" style="stroke:#2FA4E7;stroke-width:3.125;"/></g><!--reverse link server to Raft--><g id="link_server_Raft"><path codeLine="43" d="M1046.0633,334.3243 C1116.5425,364.5118 1191.0938,396.4548 1260.6979,426.2778 " fill="none" id="server-backto-Raft" style="stroke:#2FA4E7;stroke-width:3.125;"/><polygon fill="none" points="1034.5729,329.4028,1038.6776,335.6936,1046.0633,334.3243,1041.9586,328.0334,1034.5729,329.4028" style="stroke:#2FA4E7;stroke-width:3.125;"/></g><!--reverse link server to RaftPersister--><g id="link_server_RaftPersister"><path codeLine="45" d="M1013.0411,365.7603 C1049.0411,395.8332 1078.0417,420.059 1106.7292,444.0278 " fill="none" id="server-backto-RaftPersister" style="stroke:#2FA4E7;stroke-width:3.125;"/><polygon fill="none" points="1003.4479,357.7465,1005.5733,364.9511,1013.0411,365.7603,1010.9158,358.5556,1003.4479,357.7465" style="stroke:#2FA4E7;stroke-width:3.125;"/></g><!--link server to Server--><g id="link_server_Server"><path codeLine="47" d="M767.625,343.3403 C712.8646,372.5382 667.3775,396.7876 617.8462,423.2042 " fill="none" id="server-to-Server" style="stroke:#2FA4E7;stroke-width:3.125;"/><polygon fill="none" points="601.3021,432.0278,620.7874,428.7189,614.905,417.6895,601.3021,432.0278" style="stroke:#2FA4E7;stroke-width:3.125;"/></g><!--reverse link clientState to operationWaiter--><g id="link_clientState_operationWaiter"><path codeLine="49" d="M158.3333,532.9548 C158.3333,559.8298 158.3333,582.8403 158.3333,606.2778 " fill="none" id="clientState-backto-operationWaiter" style="stroke:#2FA4E7;stroke-width:3.125;"/><polygon fill="none" points="158.3333,520.4548,154.1667,526.7048,158.3333,532.9548,162.5,526.7048,158.3333,520.4548" style="stroke:#2FA4E7;stroke-width:3.125;"/></g><!--link Raft to Raft--><g id="link_Raft_Raft"><path codeLine="63" d="M1754.0729,296.9757 C1745.7083,315.8923 1731.8229,341.4028 1712.5,357.6111 C1656.4792,404.6111 1598.665,429.5532 1534.4566,448.3032 " fill="none" id="Raft-to-Raft" style="stroke:#2FA4E7;stroke-width:3.125;stroke-dasharray:7.0,7.0;"/><polygon fill="none" points="1516.4583,453.559,1536.2086,454.3026,1532.7047,442.3037,1516.4583,453.559" style="stroke:#2FA4E7;stroke-width:3.125;"/></g><!--link Persister to RaftPersister--><g id="link_Persister_RaftPersister"><path codeLine="64" d="M1621.0313,296.8819 C1599.3021,316.2673 1566.5417,342.4444 1533.3333,357.6111 C1413.1563,412.4965 1364.4375,368.7465 1242.7083,420.1111 C1227.9167,426.3507 1228.607,424.7145 1215.1903,433.5895 " fill="none" id="Persister-to-RaftPersister" style="stroke:#2FA4E7;stroke-width:3.125;stroke-dasharray:7.0,7.0;"/><polygon fill="none" points="1199.5521,443.934,1218.6385,438.8022,1211.7421,428.3767,1199.5521,443.934" style="stroke:#2FA4E7;stroke-width:3.125;"/></g><text fill="#2FA4E7" font-family="Verdana" font-size="10.4167" lengthAdjust="spacing" textLength="242.7083" x="786.9792" y="737.8754">@github.com/ZiRunHua/MIT6.824-6.5840</text><!--SRC=[xHfhRziuyhFzAtYRVaZsQjUlE8vH5EkNacoJR11xM-2Aua1BjCEDBEeeEccsc_- -GugKg4VivCu1xaE9n83cFSEPuL2seC8dQ4hu7U7e2hktU4cg_n0tP4MGI_ZQ9pYeiRNmQK2g2yO4aFsofE9cFQ-xRFNkN_Hw7PokyRkBircttcjrQjtwOQ_Jg6fPwFfgXBvNAnNp7CMg9AWo5Npj2WrwF_iGGoirvFgK16BuSERrqGg7NsWWkfslFyVWgS220BMczR30VJI6pwbWt49ml11zT0sV5k2Ay8X6u4MCIHur2Gv3_s5qqqVk3GuKGtqWGHVHKb8yoWymXl05TatOG6Dizp_HPqp5Ro7XM50MxA-YvPc7bErl4GlXJsFgLvpTKO_m0xG_Uujuw4uuhyF_WPRpaVh-_a69HjjDepHL66gnfPfcclo4Y6c0m-Y6YVq3b8Z-_gZnvmnx3kEhXCWYqIPbRP9nDBR0td2nxzfYmKTuUelKnvmntpXfAV38jnWVQHZwydN-84XPF8hAaqqqLaYWof8f_PF4JgQyEkcokPHatZti82J7pqbGFol0bzdNWWIM9P699x4wmLcjPkl8evADp2DKlfR0qaoraBNQNnzq5YgmfL0nvaoKD8zLS28fJX0iNTSUMO6ioipJOBt1YhCg7-gAhru7vL3UzTWO1OpHYPnIcjIJNqZWLQkYh0N1Ycvf46AELsWEm2Ldwy0RCPzn93WE8a21hnRLEY938gFw0E8Ms8-K55Zl8mdwK4M8GmC3Vn6iuGQP4k-mGCIOlPOpw4oE5FJq0I9wJeDRZNB6HvDcHw40IWn3jzSU7YVGsGrrRmCIHQYfO1UOBsc0cWtrT8KzZmPBr5LFqnliiNlvtAXB_2Fy1ymZiTM6jdaedvJrBkC1nAsbX6rsIifoSIZpGGSXQvtHfzly9XAf93mbs4leyght9iUJqSJ9nxBHRe-EsWaqtgmvypqj-CQMMQwRamK1ZrooKV-6_MntseDEusaR8Y8J2ehpATTo0fvMM10TvpeKay92Tv8RLnao3evSnnhKTbghP_1f92e9iWd8d7KPGoh5DDRIyhka4ktUetWvXdzPJs1bGCGzuxTnTzmcAW4-lHFIP11bbufcgkGA1P8_gp4kATcLx0bY1pOfcPXpTgz4bkYi54jRygWQK3nI-ecT84xFENO66SutvsSdfxD_ZmVN7mlUjfItkYqSgc4fhlD3gKXN70w4iBP6uEXsXp4etPEqKQKcTPNl0NI8VBXqQMUSFhjqVZC-vwEKtmExx3Bs30V3yT3P9i4snN20r1NrIIHOyBIvIIask-P9bIqLsATksVRgeYar4bGAkY9oNavoOrdAN6wlwxE8UAMiRpuFhY_FBazCG2q1u_5Xjz4msVB-dJxnqiFH8mkyzeLakSGmsyVhfq-4UpZ0FvLJggZeHjEoIKAAYgi91gGqKNAGsIi-bbCg-mYpMrvASGK39NLf2EblKX1MnrOrPDyib5aPaX8yh4EBOY0xWEwWwThhTNkJuwxj5noDX0cO0_JfC2hkyDXfE2sDj2jHRxD430fSFMTut6rgfCNrPlhxQ3IPJkDTb-Yp0k-urJdkJ3JIvXqFBaycrodhf6XivwZNRckapPf9Dec-B9w3Xzrspz58cpSj-qShT9d3Jr5M2abKri9Ag4p1c2nL92dTxWzLUzbjvz6UKtsoX8bMUhYnrvRbHAKudsH4H_TqvUEufsJuJHlBkzEgLcOotWLFT7hMaaQao8g7o6Dc1CUke7TKF1JEoF_wn1bYGtxK7lJQn_Aw0RMUSskI99k1m1cuOe6tUTvBgCf2hN75_fjrEKmxp-wyjjfPSSSA8TTduIuqvsIRUITL3w7DYIjDIJidoN_MSWulvAGHy4HcROwGdGM68Ss2rFzlMshiMyOatSSblEXMPKny_502FwSB8i_uqZJA8ZELbw0scIX7Yh3KI8KfCUSalNML339Zgjxq5Bgq7aPbvp8a9KeBQDiX2rbYrhMva6rqDwKgSpd1RfB_fElJv53UriTKKUiRS7dIlZ1Vi-9Tvll4bVAZLwfS5oHovh-IT83iiibdXSyb4UQl9HulITofdt_u7gkLxNHgvKIRwqw-CfelKMQIjPY_-Tuiw0AQ_yjSCOLaITUWVFwiGhWDxV1CoyfFNyr-t_PkmjQ4zaP7pL6hzOnJ1qv5-UvoItHW1iXuOcv8nKjJVgizyhB8cpQrpN2usQrBXyCzf-MCd4bjZwYL4nyZjukNtuFCSKHUg-_uEDfTJxE5c9SbSNSl12SMLqlUl9JsUhC79GKw48BJ-LgKaMTmyJk0PivlDl-3k3iS07TXlfb0dc7-EYBkBfEYx9xn_DENGoXniFJ_N-m9zVSWB-mbcqQ5BKFzWldnE-iTDQ_j2hbytVD2VKyVLLlrHUhBfnsMotFkXFzZaS0rPlrgVHFp5xuHUEwSiA0-UPqP0VRGlTrfF7xyTE37JmT-_7JWnqy7TlpJWIiV1-BtYtDq9n5mgM_MMurMfzxUTpX53fcZPXSrslrEezyuHAFf34dqGNN_vEhyheKYjkQG21w8L4S4I3Ye_ehlC8BE9B_5wIFvj3-xE43JYG6YIN17EGjMihdz-kaY9aAdJ4n3I4b9tEtKXbIOtpHykgYEuozLWDLbyek8FZePVgoUmooqXc3sqPytrH5qJy4V-cXq-JS0]--></g></svg>