<?xml version="1.0" encoding="us-ascii" standalone="no"?><svg xmlns="http://www.w3.org/2000/svg" xmlns:xlink="http://www.w3.org/1999/xlink" contentStyleType="text/css" height="531px" preserveAspectRatio="none" style="width:715px;height:531px;background:#0B58A8;" version="1.1" viewBox="0 0 715 531" width="715px" zoomAndPan="magnify"><defs/><g><rect fill="#0B58A8" height="531" style="stroke:none;stroke-width:1.0;" width="715" x="0" y="0"/><text fill="#FFFFFF" font-family="Verdana" font-size="22" font-weight="bold" lengthAdjust="spacing" textLength="182" x="262" y="37.1182">client Package</text><!--cluster RPC--><g id="cluster_RPC"><path d="M13.5,58.7373 L46.5,58.7373 A3.75,3.75 0 0 1 49,61.2373 L56,81.752 L555.5,81.752 A2.5,2.5 0 0 1 558,84.252 L558,493.2373 A2.5,2.5 0 0 1 555.5,495.7373 L13.5,495.7373 A2.5,2.5 0 0 1 11,493.2373 L11,61.2373 A2.5,2.5 0 0 1 13.5,58.7373 " fill="#0B58A8" style="stroke:#FFFFFF;stroke-width:1.0;"/><line style="stroke:#FFFFFF;stroke-width:1.0;" x1="11" x2="56" y1="81.752" y2="81.752"/><text fill="#FFFFFF" font-family="Verdana" font-size="14" font-weight="bold" lengthAdjust="spacing" textLength="32" x="15" y="74.8125">RPC</text></g><!--cluster client--><g id="cluster_client"><path d="M45.5,110.7373 L87.5,110.7373 A3.75,3.75 0 0 1 90,113.2373 L97,133.752 L523.5,133.752 A2.5,2.5 0 0 1 526,136.252 L526,461.2373 A2.5,2.5 0 0 1 523.5,463.7373 L45.5,463.7373 A2.5,2.5 0 0 1 43,461.2373 L43,113.2373 A2.5,2.5 0 0 1 45.5,110.7373 " fill="#0B58A8" style="stroke:#FFFFFF;stroke-width:1.0;"/><line style="stroke:#FFFFFF;stroke-width:1.0;" x1="43" x2="97" y1="133.752" y2="133.752"/><text fill="#FFFFFF" font-family="Verdana" font-size="14" font-weight="bold" lengthAdjust="spacing" textLength="41" x="47" y="126.8125">client</text></g><!--cluster labrpc--><g id="cluster_labrpc"><path d="M584.5,153.2373 L633.5,153.2373 A3.75,3.75 0 0 1 636,155.7373 L643,176.252 L705.5,176.252 A2.5,2.5 0 0 1 708,178.752 L708,246.7373 A2.5,2.5 0 0 1 705.5,249.2373 L584.5,249.2373 A2.5,2.5 0 0 1 582,246.7373 L582,155.7373 A2.5,2.5 0 0 1 584.5,153.2373 " fill="#0B58A8" style="stroke:#FFFFFF;stroke-width:1.0;"/><line style="stroke:#FFFFFF;stroke-width:1.0;" x1="582" x2="643" y1="176.252" y2="176.252"/><text fill="#FFFFFF" font-family="Verdana" font-size="14" font-weight="bold" lengthAdjust="spacing" textLength="48" x="586" y="169.3125">labrpc</text></g><!--class Clerk--><g id="elem_Clerk"><rect codeLine="7" fill="#0B58A8" height="112.0586" id="Clerk" rx="2.5" ry="2.5" style="stroke:#FFFFFF;stroke-width:1.0;" width="239" x="59.5" y="335.7373"/><ellipse cx="157.25" cy="349.7373" fill="#0B58A8" rx="9" ry="9" style="stroke:#FFFFFF;stroke-width:1.0;"/><path d="M156.4063,355.7373 L156.4063,343.5654 L158.875,343.5654 L158.875,355.7373 L156.4063,355.7373 Z " fill="#FFFFFF"/><text fill="#FFFFFF" font-family="Verdana" font-size="14" font-style="italic" lengthAdjust="spacing" textLength="36" x="174.75" y="355.3052">Clerk</text><line style="stroke:#FFFFFF;stroke-width:1.0;" x1="60.5" x2="297.5" y1="363.7373" y2="363.7373"/><line style="stroke:#FFFFFF;stroke-width:1.0;" x1="60.5" x2="297.5" y1="371.7373" y2="371.7373"/><ellipse cx="70.5" cy="385.7446" fill="#0B58A8" rx="3" ry="3" style="stroke:#FFFFFF;stroke-width:1.0;"/><text fill="#FFFFFF" font-family="Verdana" font-size="14" lengthAdjust="spacing" textLength="215" x="77.5" y="389.8125">NewOperationId() operation.Id</text><ellipse cx="70.5" cy="402.7593" fill="#0B58A8" rx="3" ry="3" style="stroke:#FFFFFF;stroke-width:1.0;"/><text fill="#FFFFFF" font-family="Verdana" font-size="14" lengthAdjust="spacing" textLength="135" x="77.5" y="406.8271">GetLeader() Server</text><ellipse cx="70.5" cy="419.7739" fill="#0B58A8" rx="3" ry="3" style="stroke:#FFFFFF;stroke-width:1.0;"/><text fill="#FFFFFF" font-family="Verdana" font-size="14" lengthAdjust="spacing" textLength="154" x="77.5" y="423.8418">GetServers() []Server</text><ellipse cx="70.5" cy="436.7886" fill="#0B58A8" rx="3" ry="3" style="stroke:#FFFFFF;stroke-width:1.0;"/><text fill="#FFFFFF" font-family="Verdana" font-size="14" lengthAdjust="spacing" textLength="214" x="77.5" y="440.8564">UpdateLeader(leaderIndex int)</text></g><!--class clerk--><g id="elem_clerk"><rect codeLine="13" fill="#0B58A8" height="129.0732" id="clerk" rx="2.5" ry="2.5" style="stroke:#FFFFFF;stroke-width:1.0;" width="162" x="107" y="146.7373"/><ellipse cx="168.25" cy="160.7373" fill="#0B58A8" rx="9" ry="9" style="stroke:#FFFFFF;stroke-width:1.0;"/><path d="M163.3594,162.7842 L165.75,162.5498 Q165.9688,163.7529 166.625,164.3154 Q167.2969,164.8779 168.4063,164.8779 Q169.5938,164.8779 170.1875,164.3779 Q170.7969,163.8779 170.7969,163.2061 Q170.7969,162.7686 170.5469,162.4717 Q170.2969,162.1592 169.6719,161.9404 Q169.2344,161.7842 167.7031,161.4092 Q165.7188,160.9248 164.9219,160.2061 Q163.7969,159.2061 163.7969,157.7529 Q163.7969,156.8311 164.3281,156.0186 Q164.8594,155.2061 165.8438,154.7842 Q166.8438,154.3623 168.25,154.3623 Q170.5313,154.3623 171.6875,155.3623 Q172.8594,156.3623 172.9063,158.0498 L170.4531,158.1592 Q170.2969,157.2217 169.7813,156.8154 Q169.2656,156.3936 168.2188,156.3936 Q167.1563,156.3936 166.5469,156.8311 Q166.1563,157.1123 166.1563,157.5967 Q166.1563,158.0186 166.5156,158.3311 Q166.9844,158.7217 168.7656,159.1436 Q170.5625,159.5654 171.4219,160.0186 Q172.2813,160.4717 172.7656,161.2529 Q173.2656,162.0342 173.2656,163.1904 Q173.2656,164.2373 172.6719,165.1592 Q172.0938,166.0654 171.0313,166.5186 Q169.9688,166.9561 168.3906,166.9561 Q166.0781,166.9561 164.8438,165.8936 Q163.6094,164.8154 163.3594,162.7842 Z " fill="#FFFFFF"/><text fill="#FFFFFF" font-family="Verdana" font-size="14" lengthAdjust="spacing" textLength="32" x="185.75" y="166.3052">clerk</text><line style="stroke:#FFFFFF;stroke-width:1.0;" x1="108" x2="268" y1="174.7373" y2="174.7373"/><rect fill="none" height="6" style="stroke:#FFFFFF;stroke-width:1.0;" width="6" x="115" y="185.7446"/><text fill="#FFFFFF" font-family="Verdana" font-size="14" lengthAdjust="spacing" textLength="53" x="125" y="192.8125">id int64</text><rect fill="none" height="6" style="stroke:#FFFFFF;stroke-width:1.0;" width="6" x="115" y="202.7593"/><text fill="#FFFFFF" font-family="Verdana" font-size="14" lengthAdjust="spacing" textLength="126" x="125" y="209.8271">opId atomic.Int64</text><rect fill="none" height="6" style="stroke:#FFFFFF;stroke-width:1.0;" width="6" x="115" y="219.7739"/><text fill="#FFFFFF" font-family="Verdana" font-size="14" lengthAdjust="spacing" textLength="138" x="125" y="226.8418">msgId atomic.Int64</text><rect fill="none" height="6" style="stroke:#FFFFFF;stroke-width:1.0;" width="6" x="115" y="236.7886"/><text fill="#FFFFFF" font-family="Verdana" font-size="14" lengthAdjust="spacing" textLength="121" x="125" y="243.8564">servers: []Server</text><rect fill="none" height="6" style="stroke:#FFFFFF;stroke-width:1.0;" width="6" x="115" y="253.8032"/><text fill="#FFFFFF" font-family="Verdana" font-size="14" lengthAdjust="spacing" textLength="99" x="125" y="260.8711">leader: Server</text><line style="stroke:#FFFFFF;stroke-width:1.0;" x1="108" x2="268" y1="267.8105" y2="267.8105"/></g><!--class Server--><g id="elem_Server"><rect codeLine="21" fill="#0B58A8" height="44" id="Server" rx="2.5" ry="2.5" style="stroke:#FFFFFF;stroke-width:1.0;" width="73" x="333.5" y="369.7373"/><ellipse cx="346.5" cy="383.7373" fill="#0B58A8" rx="9" ry="9" style="stroke:#FFFFFF;stroke-width:1.0;"/><path d="M345.6563,389.7373 L345.6563,377.5654 L348.125,377.5654 L348.125,389.7373 L345.6563,389.7373 Z " fill="#FFFFFF"/><text fill="#FFFFFF" font-family="Verdana" font-size="14" font-style="italic" lengthAdjust="spacing" textLength="45" x="358.5" y="389.3052">Server</text><line style="stroke:#FFFFFF;stroke-width:1.0;" x1="334.5" x2="405.5" y1="397.7373" y2="397.7373"/><line style="stroke:#FFFFFF;stroke-width:1.0;" x1="334.5" x2="405.5" y1="405.7373" y2="405.7373"/></g><!--class Caller--><g id="elem_Caller"><rect codeLine="22" fill="#0B58A8" height="44" id="Caller" rx="2.5" ry="2.5" style="stroke:#FFFFFF;stroke-width:1.0;" width="68" x="442" y="369.7373"/><ellipse cx="455" cy="383.7373" fill="#0B58A8" rx="9" ry="9" style="stroke:#FFFFFF;stroke-width:1.0;"/><path d="M454.1563,389.7373 L454.1563,377.5654 L456.625,377.5654 L456.625,389.7373 L454.1563,389.7373 Z " fill="#FFFFFF"/><text fill="#FFFFFF" font-family="Verdana" font-size="14" font-style="italic" lengthAdjust="spacing" textLength="40" x="467" y="389.3052">Caller</text><line style="stroke:#FFFFFF;stroke-width:1.0;" x1="443" x2="509" y1="397.7373" y2="397.7373"/><line style="stroke:#FFFFFF;stroke-width:1.0;" x1="443" x2="509" y1="405.7373" y2="405.7373"/></g><!--class server--><g id="elem_server"><rect codeLine="23" fill="#0B58A8" height="61.0146" id="server" rx="2.5" ry="2.5" style="stroke:#FFFFFF;stroke-width:1.0;" width="111" x="356.5" y="180.7373"/><ellipse cx="387.05" cy="194.7373" fill="#0B58A8" rx="9" ry="9" style="stroke:#FFFFFF;stroke-width:1.0;"/><path d="M382.1594,196.7842 L384.55,196.5498 Q384.7688,197.7529 385.425,198.3154 Q386.0969,198.8779 387.2063,198.8779 Q388.3938,198.8779 388.9875,198.3779 Q389.5969,197.8779 389.5969,197.2061 Q389.5969,196.7686 389.3469,196.4717 Q389.0969,196.1592 388.4719,195.9404 Q388.0344,195.7842 386.5031,195.4092 Q384.5188,194.9248 383.7219,194.2061 Q382.5969,193.2061 382.5969,191.7529 Q382.5969,190.8311 383.1281,190.0186 Q383.6594,189.2061 384.6438,188.7842 Q385.6438,188.3623 387.05,188.3623 Q389.3313,188.3623 390.4875,189.3623 Q391.6594,190.3623 391.7063,192.0498 L389.2531,192.1592 Q389.0969,191.2217 388.5813,190.8154 Q388.0656,190.3936 387.0188,190.3936 Q385.9563,190.3936 385.3469,190.8311 Q384.9563,191.1123 384.9563,191.5967 Q384.9563,192.0186 385.3156,192.3311 Q385.7844,192.7217 387.5656,193.1436 Q389.3625,193.5654 390.2219,194.0186 Q391.0813,194.4717 391.5656,195.2529 Q392.0656,196.0342 392.0656,197.1904 Q392.0656,198.2373 391.4719,199.1592 Q390.8938,200.0654 389.8313,200.5186 Q388.7688,200.9561 387.1906,200.9561 Q384.8781,200.9561 383.6438,199.8936 Q382.4094,198.8154 382.1594,196.7842 Z " fill="#FFFFFF"/><text fill="#FFFFFF" font-family="Verdana" font-size="14" lengthAdjust="spacing" textLength="44" x="402.95" y="200.3052">server</text><line style="stroke:#FFFFFF;stroke-width:1.0;" x1="357.5" x2="466.5" y1="208.7373" y2="208.7373"/><ellipse cx="367.5" cy="222.7446" fill="none" rx="3" ry="3" style="stroke:#FFFFFF;stroke-width:1.0;"/><text fill="#FFFFFF" font-family="Verdana" font-size="14" lengthAdjust="spacing" textLength="87" x="374.5" y="226.8125">Caller: Caller</text><line style="stroke:#FFFFFF;stroke-width:1.0;" x1="357.5" x2="466.5" y1="233.752" y2="233.752"/></g><!--class ClientEnd--><g id="elem_ClientEnd"><rect codeLine="38" fill="#0B58A8" height="44" id="ClientEnd" rx="2.5" ry="2.5" style="stroke:#FFFFFF;stroke-width:1.0;" width="94" x="598" y="189.2373"/><ellipse cx="611" cy="203.2373" fill="#0B58A8" rx="9" ry="9" style="stroke:#FFFFFF;stroke-width:1.0;"/><path d="M606.1094,205.2842 L608.5,205.0498 Q608.7188,206.2529 609.375,206.8154 Q610.0469,207.3779 611.1563,207.3779 Q612.3438,207.3779 612.9375,206.8779 Q613.5469,206.3779 613.5469,205.7061 Q613.5469,205.2686 613.2969,204.9717 Q613.0469,204.6592 612.4219,204.4404 Q611.9844,204.2842 610.4531,203.9092 Q608.4688,203.4248 607.6719,202.7061 Q606.5469,201.7061 606.5469,200.2529 Q606.5469,199.3311 607.0781,198.5186 Q607.6094,197.7061 608.5938,197.2842 Q609.5938,196.8623 611,196.8623 Q613.2813,196.8623 614.4375,197.8623 Q615.6094,198.8623 615.6563,200.5498 L613.2031,200.6592 Q613.0469,199.7217 612.5313,199.3154 Q612.0156,198.8936 610.9688,198.8936 Q609.9063,198.8936 609.2969,199.3311 Q608.9063,199.6123 608.9063,200.0967 Q608.9063,200.5186 609.2656,200.8311 Q609.7344,201.2217 611.5156,201.6436 Q613.3125,202.0654 614.1719,202.5186 Q615.0313,202.9717 615.5156,203.7529 Q616.0156,204.5342 616.0156,205.6904 Q616.0156,206.7373 615.4219,207.6592 Q614.8438,208.5654 613.7813,209.0186 Q612.7188,209.4561 611.1406,209.4561 Q608.8281,209.4561 607.5938,208.3936 Q606.3594,207.3154 606.1094,205.2842 Z " fill="#FFFFFF"/><text fill="#FFFFFF" font-family="Verdana" font-size="14" lengthAdjust="spacing" textLength="66" x="623" y="208.8052">ClientEnd</text><line style="stroke:#FFFFFF;stroke-width:1.0;" x1="599" x2="691" y1="217.2373" y2="217.2373"/><line style="stroke:#FFFFFF;stroke-width:1.0;" x1="599" x2="691" y1="225.2373" y2="225.2373"/></g><!--reverse link clerk to Server--><g id="link_clerk_Server"><path codeLine="26" d="M263.4087,284.3264 C283.2187,303.4264 296.26,316.1673 316,335.7373 C327.21,346.8573 339.56,359.4073 349.62,369.7073 " fill="none" id="clerk-backto-Server" style="stroke:#FFFFFF;stroke-width:1.0;"/><polygon fill="none" points="254.77,275.9973,256.313,283.0414,263.4087,284.3264,261.8657,277.2823,254.77,275.9973" style="stroke:#FFFFFF;stroke-width:1.0;"/></g><!--link clerk to Clerk--><g id="link_clerk_Clerk"><path codeLine="27" d="M184.79,275.9273 C183.8,295.4473 183.6336,298.78 182.6836,317.68 " fill="none" id="clerk-to-Clerk" style="stroke:#FFFFFF;stroke-width:1.0;stroke-dasharray:7.0,7.0;"/><polygon fill="none" points="181.78,335.6573,188.6761,317.9812,176.6912,317.3788,181.78,335.6573" style="stroke:#FFFFFF;stroke-width:1.0;"/></g><!--reverse link server to Caller--><g id="link_server_Caller"><path codeLine="30" d="M426.7599,253.4132 C439.7099,289.5332 457.13,338.1173 468.46,369.7173 " fill="none" id="server-backto-Caller" style="stroke:#FFFFFF;stroke-width:1.0;"/><polygon fill="none" points="422.71,242.1173,420.9696,249.1152,426.7599,253.4132,428.5003,246.4153,422.71,242.1173" style="stroke:#FFFFFF;stroke-width:1.0;"/></g><!--link server to Server--><g id="link_server_Server"><path codeLine="31" d="M404.97,242.1173 C396.47,278.2373 386.4999,320.5951 379.0699,352.1951 " fill="none" id="server-to-Server" style="stroke:#FFFFFF;stroke-width:1.0;stroke-dasharray:7.0,7.0;"/><polygon fill="none" points="374.95,369.7173,384.9106,353.5685,373.2292,350.8218,374.95,369.7173" style="stroke:#FFFFFF;stroke-width:1.0;"/></g><!--link ClientEnd to Caller--><g id="link_ClientEnd_Caller"><path codeLine="42" d="M624.95,233.4173 C592.42,267.7673 540.9049,322.1759 508.3949,356.5159 " fill="none" id="ClientEnd-to-Caller" style="stroke:#FFFFFF;stroke-width:1.0;stroke-dasharray:7.0,7.0;"/><polygon fill="none" points="496.02,369.5873,512.752,360.6408,504.0377,352.3909,496.02,369.5873" style="stroke:#FFFFFF;stroke-width:1.0;"/></g><text fill="#FFFFFF" font-family="Verdana" font-size="10" lengthAdjust="spacing" textLength="233" x="236.5" y="516.791">@github.com/ZiRunHua/MIT6.824-6.5840</text><!--SRC=[xLVVR-9647wE_ugf-fAemY44eXITJXUuSE44EHH8AhNgm-8TO8lPTTThabpB_zvPhntiG9fBGjMNiyIFdVdss_7Cj-Er4IP424A1qi201NCsHUy7CyC50bk8AVCcIXdKy64gp2mP-u5Q7FughX9vaR33VdTquf_MwfKJlt5QhteP0LmDsl2NjsVK58bAqz-zt9KjPKrxGXBpX0K8xH3rFBNj_GINUFibGisCKBBBzmz0vIE_opFC9pGzP1mrkOUebwZN3ZUEoVFRxoNVTSIPmMnUcFvq9SSxe40EB6PbluP69u6XG2aa5-TU1GIte9DwDbHHbmCpQY42lrkmB-BfTaViOcgMGwg0Yw9Pk8SqXd9sriv2nbWOEbiMhri1yYGwVxE0IudTNQbAfK3gRBx_ztjN1y-prepFGjSScJ75PWHUohpoLjv3-KCsrb50aMIXjTEQdqjkGPxp-Wz6nqQIyPqs_6ov3qWJFBDDeEvw5vlx4Dzx09eqIdSETBK8CjKgaRojGgNXnsghSNfsclewIfhCsacl1-ib8xtVeEPCijHuSK-Qwmavp_4VpuvhZTH5LjnaiTRHJ0HpYN4CHwcjp_HKIB3JLlJXAaWMJlpM6x38QZeRFMQefjPL-frjmUU1irHDtm1qMSrnDWD3yHMXLdjcfltOx4ONnPKsSluekzihCRJLWx4AUKOi5SzZwhCxiKWMlmXkPd1ShMO8ZHFKA0FyBvQFCMBKPjHEQTyTPYBruhcGTe45d6cjRdig34MaeZBt6lIKZjU8ZpXXIMWsvBk1w2kfueYQ1d_0jbMY1UsnDROd9XXIrMdBKe-StbCrOXKANe0Cc3OY416JPi0u5t8AHzM2VuX_9hOubieAgAKq5Ucf6npE65UtbcJ2mXWBdkiOMsYOooHr42mbBp1YASnzMgIdDtkBwSTLsnREzfwmaT9LiJ1sEQPT09kpoz2x59Ldgr7ojeMcpilRCne5-VxU9goDgW5SCIwI67uk4uQCDkipUTbD4jAbpepHOfmOV28Lty8nf1j7PQZRlewaiswDBvvRQ28ldskV3xHVvkdqyaEYYEi6IkQFnIBoGPHFL6g3GuibCs_be5oHqlZRM99nA89NKrogr-hbo_WFYjxfUukALwLEjSxuZXG_D7dwNxQvoXovsC-sC_rhhzhErDuPq_dEcBexOxfy8nCzIjeiHaSuUc6N-Vxcy_tDvtzyync4TD2wxlV0fi- -A1pvjMgjxX_lTxI03exXw0IgnyrwjLbjG7iu0ki-yFO_3NhB6iHqMA1iSH6xfpGn77YVsP81ITY81JR1ZlP7VTBHUMw4SxaKMadxdk9zlkax45meCuoKIS4dzKfBc2m9SDFticCcJGsKFUSquNhKgPnwFIQd2MMb2Lzd7frTfD7tL9RBVm00]--></g></svg>