<?xml version="1.0" encoding="us-ascii" standalone="no"?><svg xmlns="http://www.w3.org/2000/svg" xmlns:xlink="http://www.w3.org/1999/xlink" contentStyleType="text/css" height="666px" preserveAspectRatio="none" style="width:1298px;height:666px;background:#0B58A8;" version="1.1" viewBox="0 0 1298 666" width="1298px" zoomAndPan="magnify"><defs/><g><rect fill="#0B58A8" height="666" style="stroke:none;stroke-width:1.0;" width="1298" x="0" y="0"/><text fill="#FFFFFF" font-family="Verdana" font-size="22" font-weight="bold" lengthAdjust="spacing" textLength="245" x="522" y="37.1182">RPC Package Public</text><!--cluster RPC--><g id="cluster_RPC"><path d="M13.5,212.7373 L46.5,212.7373 A3.75,3.75 0 0 1 49,215.2373 L56,235.752 L1288.5,235.752 A2.5,2.5 0 0 1 1291,238.252 L1291,628.2373 A2.5,2.5 0 0 1 1288.5,630.7373 L13.5,630.7373 A2.5,2.5 0 0 1 11,628.2373 L11,215.2373 A2.5,2.5 0 0 1 13.5,212.7373 " fill="#0B58A8" style="stroke:#FFFFFF;stroke-width:1.0;"/><line style="stroke:#FFFFFF;stroke-width:1.0;" x1="11" x2="56" y1="235.752" y2="235.752"/><text fill="#FFFFFF" font-family="Verdana" font-size="14" font-weight="bold" lengthAdjust="spacing" textLength="32" x="15" y="228.8125">RPC</text></g><!--cluster server--><g id="cluster_server"><path d="M604.5,406.7373 L654.5,406.7373 A3.75,3.75 0 0 1 657,409.2373 L664,429.752 L731.5,429.752 A2.5,2.5 0 0 1 734,432.252 L734,604.2373 A2.5,2.5 0 0 1 731.5,606.7373 L604.5,606.7373 A2.5,2.5 0 0 1 602,604.2373 L602,409.2373 A2.5,2.5 0 0 1 604.5,406.7373 " fill="#0B58A8" style="stroke:#FFFFFF;stroke-width:1.0;"/><line style="stroke:#FFFFFF;stroke-width:1.0;" x1="602" x2="664" y1="429.752" y2="429.752"/><text fill="#FFFFFF" font-family="Verdana" font-size="14" font-weight="bold" lengthAdjust="spacing" textLength="49" x="606" y="422.8125">server</text></g><!--cluster client--><g id="cluster_client"><path d="M109.5,406.7373 L151.5,406.7373 A3.75,3.75 0 0 1 154,409.2373 L161,429.752 L200.5,429.752 A2.5,2.5 0 0 1 203,432.252 L203,500.2373 A2.5,2.5 0 0 1 200.5,502.7373 L109.5,502.7373 A2.5,2.5 0 0 1 107,500.2373 L107,409.2373 A2.5,2.5 0 0 1 109.5,406.7373 " fill="#0B58A8" style="stroke:#FFFFFF;stroke-width:1.0;"/><line style="stroke:#FFFFFF;stroke-width:1.0;" x1="107" x2="161" y1="429.752" y2="429.752"/><text fill="#FFFFFF" font-family="Verdana" font-size="14" font-weight="bold" lengthAdjust="spacing" textLength="41" x="111" y="422.8125">client</text></g><!--cluster kvraft(lab4)--><g id="cluster_kvraft(lab4)"><path d="M150.5,58.7373 L246.5,58.7373 A3.75,3.75 0 0 1 249,61.2373 L256,81.752 L596.5,81.752 A2.5,2.5 0 0 1 599,84.252 L599,186.2373 A2.5,2.5 0 0 1 596.5,188.7373 L150.5,188.7373 A2.5,2.5 0 0 1 148,186.2373 L148,61.2373 A2.5,2.5 0 0 1 150.5,58.7373 " fill="#0B58A8" style="stroke:#FFFFFF;stroke-width:1.0;"/><line style="stroke:#FFFFFF;stroke-width:1.0;" x1="148" x2="256" y1="81.752" y2="81.752"/><text fill="#FFFFFF" font-family="Verdana" font-size="14" font-weight="bold" lengthAdjust="spacing" textLength="95" x="152" y="74.8125">kvraft(lab4)</text></g><!--cluster shardctrler(lab5)--><g id="cluster_shardctrler(lab5)"><path d="M625.5,58.7373 L760.5,58.7373 A3.75,3.75 0 0 1 763,61.2373 L770,81.752 L1075.5,81.752 A2.5,2.5 0 0 1 1078,84.252 L1078,186.2373 A2.5,2.5 0 0 1 1075.5,188.7373 L625.5,188.7373 A2.5,2.5 0 0 1 623,186.2373 L623,61.2373 A2.5,2.5 0 0 1 625.5,58.7373 " fill="#0B58A8" style="stroke:#FFFFFF;stroke-width:1.0;"/><line style="stroke:#FFFFFF;stroke-width:1.0;" x1="623" x2="770" y1="81.752" y2="81.752"/><text fill="#FFFFFF" font-family="Verdana" font-size="14" font-weight="bold" lengthAdjust="spacing" textLength="134" x="627" y="74.8125">shardctrler(lab5)</text></g><!--class Clerk--><g id="elem_Clerk"><rect codeLine="15" fill="#0B58A8" height="125.6572" id="Clerk" rx="2.5" ry="2.5" style="stroke:#FFFFFF;stroke-width:1.0;" width="239" x="35.5" y="256.7373"/><ellipse cx="128.25" cy="277.5366" fill="#0B58A8" rx="9" ry="9" style="stroke:#FFFFFF;stroke-width:1.0;"/><path d="M127.4063,283.5366 L127.4063,271.3647 L129.875,271.3647 L129.875,283.5366 L127.4063,283.5366 Z " fill="#FFFFFF"/><text fill="#FFFFFF" font-family="Verdana" font-size="12" font-style="italic" lengthAdjust="spacing" textLength="50" x="143.75" y="273.8018">&#171;public&#187;</text><text fill="#FFFFFF" font-family="Verdana" font-size="14" font-style="italic" lengthAdjust="spacing" textLength="36" x="150.75" y="290.3965">Clerk</text><line style="stroke:#FFFFFF;stroke-width:1.0;" x1="36.5" x2="273.5" y1="298.3359" y2="298.3359"/><line style="stroke:#FFFFFF;stroke-width:1.0;" x1="36.5" x2="273.5" y1="306.3359" y2="306.3359"/><ellipse cx="46.5" cy="320.3433" fill="#0B58A8" rx="3" ry="3" style="stroke:#FFFFFF;stroke-width:1.0;"/><text fill="#FFFFFF" font-family="Verdana" font-size="14" lengthAdjust="spacing" textLength="215" x="53.5" y="324.4111">NewOperationId() operation.Id</text><ellipse cx="46.5" cy="337.3579" fill="#0B58A8" rx="3" ry="3" style="stroke:#FFFFFF;stroke-width:1.0;"/><text fill="#FFFFFF" font-family="Verdana" font-size="14" lengthAdjust="spacing" textLength="135" x="53.5" y="341.4258">GetLeader() Server</text><ellipse cx="46.5" cy="354.3726" fill="#0B58A8" rx="3" ry="3" style="stroke:#FFFFFF;stroke-width:1.0;"/><text fill="#FFFFFF" font-family="Verdana" font-size="14" lengthAdjust="spacing" textLength="154" x="53.5" y="358.4404">GetServers() []Server</text><ellipse cx="46.5" cy="371.3872" fill="#0B58A8" rx="3" ry="3" style="stroke:#FFFFFF;stroke-width:1.0;"/><text fill="#FFFFFF" font-family="Verdana" font-size="14" lengthAdjust="spacing" textLength="214" x="53.5" y="375.4551">UpdateLeader(leaderIndex int)</text></g><!--class Server--><g id="elem_Server"><rect codeLine="21" fill="#0B58A8" height="91.6279" id="Server" rx="2.5" ry="2.5" style="stroke:#FFFFFF;stroke-width:1.0;" width="491" x="309.5" y="273.7373"/><ellipse cx="522.75" cy="294.5366" fill="#0B58A8" rx="9" ry="9" style="stroke:#FFFFFF;stroke-width:1.0;"/><path d="M521.9063,300.5366 L521.9063,288.3647 L524.375,288.3647 L524.375,300.5366 L521.9063,300.5366 Z " fill="#FFFFFF"/><text fill="#FFFFFF" font-family="Verdana" font-size="12" font-style="italic" lengthAdjust="spacing" textLength="50" x="538.25" y="290.8018">&#171;public&#187;</text><text fill="#FFFFFF" font-family="Verdana" font-size="14" font-style="italic" lengthAdjust="spacing" textLength="45" x="540.75" y="307.3965">Server</text><rect fill="#0B58A8" height="16.584" style="stroke:#FFFFFF;stroke-width:1.0;stroke-dasharray:2.0,2.0;" width="9" x="794.5" y="270.7373"/><text fill="#FFFFFF" font-family="Verdana" font-size="12" font-style="italic" lengthAdjust="spacing" textLength="7" x="795.5" y="283.8018">T</text><line style="stroke:#FFFFFF;stroke-width:1.0;" x1="310.5" x2="799.5" y1="315.3359" y2="315.3359"/><line style="stroke:#FFFFFF;stroke-width:1.0;" x1="310.5" x2="799.5" y1="323.3359" y2="323.3359"/><ellipse cx="320.5" cy="337.3433" fill="#0B58A8" rx="3" ry="3" style="stroke:#FFFFFF;stroke-width:1.0;"/><text fill="#FFFFFF" font-family="Verdana" font-size="14" lengthAdjust="spacing" textLength="467" x="327.5" y="341.4111">WaitCommand(msgId int64, op operation.Provider) (T, rpcErr.Err)</text><ellipse cx="320.5" cy="354.3579" fill="#0B58A8" rx="3" ry="3" style="stroke:#FFFFFF;stroke-width:1.0;"/><text fill="#FFFFFF" font-family="Verdana" font-size="14" lengthAdjust="spacing" textLength="31" x="327.5" y="358.4258">Kill()</text></g><!--class DataStore--><g id="elem_DataStore"><rect codeLine="25" fill="#0B58A8" height="125.6572" id="DataStore" rx="2.5" ry="2.5" style="stroke:#FFFFFF;stroke-width:1.0;" width="431" x="835.5" y="256.7373"/><ellipse cx="1006.25" cy="277.5366" fill="#0B58A8" rx="9" ry="9" style="stroke:#FFFFFF;stroke-width:1.0;"/><path d="M1005.4063,283.5366 L1005.4063,271.3647 L1007.875,271.3647 L1007.875,283.5366 L1005.4063,283.5366 Z " fill="#FFFFFF"/><text fill="#FFFFFF" font-family="Verdana" font-size="12" font-style="italic" lengthAdjust="spacing" textLength="50" x="1034.25" y="273.8018">&#171;public&#187;</text><text fill="#FFFFFF" font-family="Verdana" font-size="14" font-style="italic" lengthAdjust="spacing" textLength="71" x="1023.75" y="290.3965">DataStore</text><rect fill="#0B58A8" height="16.584" style="stroke:#FFFFFF;stroke-width:1.0;stroke-dasharray:2.0,2.0;" width="9" x="1260.5" y="253.7373"/><text fill="#FFFFFF" font-family="Verdana" font-size="12" font-style="italic" lengthAdjust="spacing" textLength="7" x="1261.5" y="266.8018">T</text><line style="stroke:#FFFFFF;stroke-width:1.0;" x1="836.5" x2="1265.5" y1="298.3359" y2="298.3359"/><line style="stroke:#FFFFFF;stroke-width:1.0;" x1="836.5" x2="1265.5" y1="306.3359" y2="306.3359"/><ellipse cx="846.5" cy="320.3433" fill="#0B58A8" rx="3" ry="3" style="stroke:#FFFFFF;stroke-width:1.0;"/><text fill="#FFFFFF" font-family="Verdana" font-size="14" lengthAdjust="spacing" textLength="287" x="853.5" y="324.4111">Operation(provider operation.Provider) T</text><ellipse cx="846.5" cy="337.3579" fill="#0B58A8" rx="3" ry="3" style="stroke:#FFFFFF;stroke-width:1.0;"/><text fill="#FFFFFF" font-family="Verdana" font-size="14" lengthAdjust="spacing" textLength="188" x="853.5" y="341.4258">GetSnapshot() interface{}</text><ellipse cx="846.5" cy="354.3726" fill="#0B58A8" rx="3" ry="3" style="stroke:#FFFFFF;stroke-width:1.0;"/><text fill="#FFFFFF" font-family="Verdana" font-size="14" lengthAdjust="spacing" textLength="228" x="853.5" y="358.4404">LoadFormSnapshot(interface{})</text><ellipse cx="846.5" cy="371.3872" fill="#0B58A8" rx="3" ry="3" style="stroke:#FFFFFF;stroke-width:1.0;"/><text fill="#FFFFFF" font-family="Verdana" font-size="14" lengthAdjust="spacing" textLength="407" x="853.5" y="375.4551">DebugLog(name string, msg string, details ...interface{})</text></g><!--class Server--><g id="elem_Server"><rect codeLine="6" fill="#0B58A8" height="44" id="Server" rx="2.5" ry="2.5" style="stroke:#FFFFFF;stroke-width:1.0;" width="73" x="624.5" y="442.7373"/><ellipse cx="637.5" cy="456.7373" fill="#0B58A8" rx="9" ry="9" style="stroke:#FFFFFF;stroke-width:1.0;"/><path d="M636.6563,462.7373 L636.6563,450.5654 L639.125,450.5654 L639.125,462.7373 L636.6563,462.7373 Z " fill="#FFFFFF"/><text fill="#FFFFFF" font-family="Verdana" font-size="14" font-style="italic" lengthAdjust="spacing" textLength="45" x="649.5" y="462.3052">Server</text><line style="stroke:#FFFFFF;stroke-width:1.0;" x1="625.5" x2="696.5" y1="470.7373" y2="470.7373"/><line style="stroke:#FFFFFF;stroke-width:1.0;" x1="625.5" x2="696.5" y1="478.7373" y2="478.7373"/></g><!--class DataStore--><g id="elem_DataStore"><rect codeLine="7" fill="#0B58A8" height="44" id="DataStore" rx="2.5" ry="2.5" style="stroke:#FFFFFF;stroke-width:1.0;" width="99" x="618.5" y="546.7373"/><ellipse cx="631.5" cy="560.7373" fill="#0B58A8" rx="9" ry="9" style="stroke:#FFFFFF;stroke-width:1.0;"/><path d="M630.6563,566.7373 L630.6563,554.5654 L633.125,554.5654 L633.125,566.7373 L630.6563,566.7373 Z " fill="#FFFFFF"/><text fill="#FFFFFF" font-family="Verdana" font-size="14" font-style="italic" lengthAdjust="spacing" textLength="71" x="643.5" y="566.3052">DataStore</text><line style="stroke:#FFFFFF;stroke-width:1.0;" x1="619.5" x2="716.5" y1="574.7373" y2="574.7373"/><line style="stroke:#FFFFFF;stroke-width:1.0;" x1="619.5" x2="716.5" y1="582.7373" y2="582.7373"/></g><!--class Clerk--><g id="elem_Clerk"><rect codeLine="12" fill="#0B58A8" height="44" id="Clerk" rx="2.5" ry="2.5" style="stroke:#FFFFFF;stroke-width:1.0;" width="64" x="123" y="442.7373"/><ellipse cx="136" cy="456.7373" fill="#0B58A8" rx="9" ry="9" style="stroke:#FFFFFF;stroke-width:1.0;"/><path d="M135.1563,462.7373 L135.1563,450.5654 L137.625,450.5654 L137.625,462.7373 L135.1563,462.7373 Z " fill="#FFFFFF"/><text fill="#FFFFFF" font-family="Verdana" font-size="14" font-style="italic" lengthAdjust="spacing" textLength="36" x="148" y="462.3052">Clerk</text><line style="stroke:#FFFFFF;stroke-width:1.0;" x1="124" x2="186" y1="470.7373" y2="470.7373"/><line style="stroke:#FFFFFF;stroke-width:1.0;" x1="124" x2="186" y1="478.7373" y2="478.7373"/></g><!--class KVServer--><g id="elem_KVServer"><rect codeLine="39" fill="#0B58A8" height="78.0293" id="KVServer" rx="2.5" ry="2.5" style="stroke:#FFFFFF;stroke-width:1.0;" width="229" x="353.5" y="94.7373"/><ellipse cx="431.25" cy="108.7373" fill="#0B58A8" rx="9" ry="9" style="stroke:#FFFFFF;stroke-width:1.0;"/><path d="M434.0156,110.2686 L436.4063,111.0186 Q435.8594,113.0029 434.5781,113.9717 Q433.3125,114.9404 431.3438,114.9404 Q428.9219,114.9404 427.3594,113.2842 Q425.8125,111.6279 425.8125,108.7529 Q425.8125,105.7217 427.375,104.0498 Q428.9375,102.3623 431.5,102.3623 Q433.7344,102.3623 435.125,103.6748 Q435.9531,104.4561 436.375,105.9248 L433.9375,106.5029 Q433.7188,105.5498 433.0313,105.0029 Q432.3594,104.4561 431.375,104.4561 Q430.0156,104.4561 429.1719,105.4404 Q428.3438,106.4092 428.3438,108.5811 Q428.3438,110.8779 429.1719,111.8623 Q430,112.8467 431.3281,112.8467 Q432.3125,112.8467 433.0156,112.2217 Q433.7188,111.5967 434.0156,110.2686 Z " fill="#FFFFFF"/><text fill="#FFFFFF" font-family="Verdana" font-size="14" lengthAdjust="spacing" textLength="66" x="448.75" y="114.3052">KVServer</text><line style="stroke:#FFFFFF;stroke-width:1.0;" x1="354.5" x2="581.5" y1="122.7373" y2="122.7373"/><rect fill="none" height="6" style="stroke:#FFFFFF;stroke-width:1.0;" width="6" x="361.5" y="133.7446"/><text fill="#FFFFFF" font-family="Verdana" font-size="14" lengthAdjust="spacing" textLength="205" x="371.5" y="140.8125">rpcServer: rpc.Server[string]</text><rect fill="none" height="6" style="stroke:#FFFFFF;stroke-width:1.0;" width="6" x="361.5" y="150.7593"/><text fill="#FFFFFF" font-family="Verdana" font-size="14" lengthAdjust="spacing" textLength="166" x="371.5" y="157.8271">data: map[string]string</text><line style="stroke:#FFFFFF;stroke-width:1.0;" x1="354.5" x2="581.5" y1="164.7666" y2="164.7666"/></g><!--class Clerk--><g id="elem_Clerk"><rect codeLine="43" fill="#0B58A8" height="61.0146" id="Clerk" rx="2.5" ry="2.5" style="stroke:#FFFFFF;stroke-width:1.0;" width="154" x="164" y="103.2373"/><ellipse cx="219.75" cy="117.2373" fill="#0B58A8" rx="9" ry="9" style="stroke:#FFFFFF;stroke-width:1.0;"/><path d="M222.5156,118.7686 L224.9063,119.5186 Q224.3594,121.5029 223.0781,122.4717 Q221.8125,123.4404 219.8438,123.4404 Q217.4219,123.4404 215.8594,121.7842 Q214.3125,120.1279 214.3125,117.2529 Q214.3125,114.2217 215.875,112.5498 Q217.4375,110.8623 220,110.8623 Q222.2344,110.8623 223.625,112.1748 Q224.4531,112.9561 224.875,114.4248 L222.4375,115.0029 Q222.2188,114.0498 221.5313,113.5029 Q220.8594,112.9561 219.875,112.9561 Q218.5156,112.9561 217.6719,113.9404 Q216.8438,114.9092 216.8438,117.0811 Q216.8438,119.3779 217.6719,120.3623 Q218.5,121.3467 219.8281,121.3467 Q220.8125,121.3467 221.5156,120.7217 Q222.2188,120.0967 222.5156,118.7686 Z " fill="#FFFFFF"/><text fill="#FFFFFF" font-family="Verdana" font-size="14" lengthAdjust="spacing" textLength="35" x="237.25" y="122.8052">Clerk</text><line style="stroke:#FFFFFF;stroke-width:1.0;" x1="165" x2="317" y1="131.2373" y2="131.2373"/><rect fill="none" height="6" style="stroke:#FFFFFF;stroke-width:1.0;" width="6" x="172" y="142.2446"/><text fill="#FFFFFF" font-family="Verdana" font-size="14" lengthAdjust="spacing" textLength="130" x="182" y="149.3125">rpcClerk: rpc.Clerk</text><line style="stroke:#FFFFFF;stroke-width:1.0;" x1="165" x2="317" y1="156.252" y2="156.252"/></g><!--class ShardCtrler--><g id="elem_ShardCtrler"><rect codeLine="54" fill="#0B58A8" height="78.0293" id="ShardCtrler" rx="2.5" ry="2.5" style="stroke:#FFFFFF;stroke-width:1.0;" width="233" x="828.5" y="94.7373"/><ellipse cx="900.75" cy="108.7373" fill="#0B58A8" rx="9" ry="9" style="stroke:#FFFFFF;stroke-width:1.0;"/><path d="M903.5156,110.2686 L905.9063,111.0186 Q905.3594,113.0029 904.0781,113.9717 Q902.8125,114.9404 900.8438,114.9404 Q898.4219,114.9404 896.8594,113.2842 Q895.3125,111.6279 895.3125,108.7529 Q895.3125,105.7217 896.875,104.0498 Q898.4375,102.3623 901,102.3623 Q903.2344,102.3623 904.625,103.6748 Q905.4531,104.4561 905.875,105.9248 L903.4375,106.5029 Q903.2188,105.5498 902.5313,105.0029 Q901.8594,104.4561 900.875,104.4561 Q899.5156,104.4561 898.6719,105.4404 Q897.8438,106.4092 897.8438,108.5811 Q897.8438,110.8779 898.6719,111.8623 Q899.5,112.8467 900.8281,112.8467 Q901.8125,112.8467 902.5156,112.2217 Q903.2188,111.5967 903.5156,110.2686 Z " fill="#FFFFFF"/><text fill="#FFFFFF" font-family="Verdana" font-size="14" lengthAdjust="spacing" textLength="81" x="918.25" y="114.3052">ShardCtrler</text><line style="stroke:#FFFFFF;stroke-width:1.0;" x1="829.5" x2="1060.5" y1="122.7373" y2="122.7373"/><rect fill="none" height="6" style="stroke:#FFFFFF;stroke-width:1.0;" width="6" x="836.5" y="133.7446"/><text fill="#FFFFFF" font-family="Verdana" font-size="14" lengthAdjust="spacing" textLength="209" x="846.5" y="140.8125">rpcServer: rpc.Server[Config]</text><rect fill="none" height="6" style="stroke:#FFFFFF;stroke-width:1.0;" width="6" x="836.5" y="150.7593"/><text fill="#FFFFFF" font-family="Verdana" font-size="14" lengthAdjust="spacing" textLength="118" x="846.5" y="157.8271">configs: []Config</text><line style="stroke:#FFFFFF;stroke-width:1.0;" x1="829.5" x2="1060.5" y1="164.7666" y2="164.7666"/></g><!--class Clerk--><g id="elem_Clerk"><rect codeLine="58" fill="#0B58A8" height="61.0146" id="Clerk" rx="2.5" ry="2.5" style="stroke:#FFFFFF;stroke-width:1.0;" width="154" x="639" y="103.2373"/><ellipse cx="694.75" cy="117.2373" fill="#0B58A8" rx="9" ry="9" style="stroke:#FFFFFF;stroke-width:1.0;"/><path d="M697.5156,118.7686 L699.9063,119.5186 Q699.3594,121.5029 698.0781,122.4717 Q696.8125,123.4404 694.8438,123.4404 Q692.4219,123.4404 690.8594,121.7842 Q689.3125,120.1279 689.3125,117.2529 Q689.3125,114.2217 690.875,112.5498 Q692.4375,110.8623 695,110.8623 Q697.2344,110.8623 698.625,112.1748 Q699.4531,112.9561 699.875,114.4248 L697.4375,115.0029 Q697.2188,114.0498 696.5313,113.5029 Q695.8594,112.9561 694.875,112.9561 Q693.5156,112.9561 692.6719,113.9404 Q691.8438,114.9092 691.8438,117.0811 Q691.8438,119.3779 692.6719,120.3623 Q693.5,121.3467 694.8281,121.3467 Q695.8125,121.3467 696.5156,120.7217 Q697.2188,120.0967 697.5156,118.7686 Z " fill="#FFFFFF"/><text fill="#FFFFFF" font-family="Verdana" font-size="14" lengthAdjust="spacing" textLength="35" x="712.25" y="122.8052">Clerk</text><line style="stroke:#FFFFFF;stroke-width:1.0;" x1="640" x2="792" y1="131.2373" y2="131.2373"/><rect fill="none" height="6" style="stroke:#FFFFFF;stroke-width:1.0;" width="6" x="647" y="142.2446"/><text fill="#FFFFFF" font-family="Verdana" font-size="14" lengthAdjust="spacing" textLength="130" x="657" y="149.3125">rpcClerk: rpc.Clerk</text><line style="stroke:#FFFFFF;stroke-width:1.0;" x1="640" x2="792" y1="156.252" y2="156.252"/></g><!--reverse link Server to DataStore--><g id="link_Server_DataStore"><path codeLine="9" d="M663.2705,498.8392 C664.4705,516.3492 665.35,529.1273 666.55,546.6273 " fill="none" id="Server-backto-DataStore" style="stroke:#FFFFFF;stroke-width:1.0;"/><polygon fill="none" points="662.45,486.8673,658.8696,493.1268,663.2705,498.8392,666.8509,492.5798,662.45,486.8673" style="stroke:#FFFFFF;stroke-width:1.0;"/></g><!--link Clerk to Clerk--><g id="link_Clerk_Clerk"><path codeLine="32" d="M155,383.0473 C155,404.4173 155,408.9073 155,424.6973 " fill="none" id="Clerk-to-Clerk" style="stroke:#FFFFFF;stroke-width:1.0;"/><polygon fill="none" points="155,442.6973,161,424.6973,149,424.6973,155,442.6973" style="stroke:#FFFFFF;stroke-width:1.0;"/></g><!--link Server to Server--><g id="link_Server_Server"><path codeLine="33" d="M588.54,365.9873 C607.58,391.6773 619.8007,408.1571 634.7007,428.2571 " fill="none" id="Server-to-Server" style="stroke:#FFFFFF;stroke-width:1.0;"/><polygon fill="none" points="645.42,442.7173,639.5208,424.684,629.8807,431.8302,645.42,442.7173" style="stroke:#FFFFFF;stroke-width:1.0;"/></g><!--link DataStore to DataStore--><g id="link_DataStore_DataStore"><path codeLine="34" d="M954.85,382.7473 C871.75,436.3373 771.6272,500.9019 715.8972,536.8419 " fill="none" id="DataStore-to-DataStore" style="stroke:#FFFFFF;stroke-width:1.0;"/><polygon fill="none" points="700.77,546.5973,719.149,541.8843,712.6454,531.7995,700.77,546.5973" style="stroke:#FFFFFF;stroke-width:1.0;"/></g><!--reverse link Clerk to Clerk--><g id="link_Clerk_Clerk"><path codeLine="46" d="M222.1013,175.1696 C210.5213,199.9596 198.66,225.3273 184.1,256.4673 " fill="none" id="Clerk-backto-Clerk" style="stroke:#FFFFFF;stroke-width:1.0;"/><polygon fill="#FFFFFF" points="227.18,164.2973,221.0165,168.0405,222.1013,175.1696,228.2647,171.4264,227.18,164.2973" style="stroke:#FFFFFF;stroke-width:1.0;"/></g><!--link KVServer to DataStore--><g id="link_KVServer_DataStore"><path codeLine="48" d="M548.02,172.7373 C571.65,182.3073 597.92,191.3673 623,196.7373 C707.82,214.8873 733.91,183.4473 818,204.7373 C862.42,215.9873 892.3719,227.9895 931.5819,248.3895 " fill="none" id="KVServer-to-DataStore" style="stroke:#FFFFFF;stroke-width:1.0;"/><polygon fill="none" points="947.55,256.6973,934.3512,243.0668,928.8126,253.7122,947.55,256.6973" style="stroke:#FFFFFF;stroke-width:1.0;"/></g><!--reverse link KVServer to Server--><g id="link_KVServer_Server"><path codeLine="50" d="M491.1565,183.7071 C504.9865,212.9771 519.01,242.6173 533.62,273.5173 " fill="none" id="KVServer-backto-Server" style="stroke:#FFFFFF;stroke-width:1.0;"/><polygon fill="#FFFFFF" points="486.03,172.8573,484.9766,179.9911,491.1565,183.7071,492.2099,176.5734,486.03,172.8573" style="stroke:#FFFFFF;stroke-width:1.0;"/></g><!--reverse link Clerk to Clerk--><g id="link_Clerk_Clerk"><path codeLine="61" d="M661.5644,170.4514 C640.4544,182.9514 624.57,190.0273 599,196.7373 C566,205.3973 323.93,192.7173 292,204.7373 C262.46,215.8573 234.71,236.2173 212.02,256.6773 " fill="none" id="Clerk-backto-Clerk-1" style="stroke:#FFFFFF;stroke-width:1.0;"/><polygon fill="#FFFFFF" points="671.89,164.3373,664.6892,163.9525,661.5644,170.4514,668.7653,170.8362,671.89,164.3373" style="stroke:#FFFFFF;stroke-width:1.0;"/></g><!--link ShardCtrler to DataStore--><g id="link_ShardCtrler_DataStore"><path codeLine="63" d="M966.96,172.8573 C980.85,196.9673 990.1462,213.0895 1006.1062,240.7995 " fill="none" id="ShardCtrler-to-DataStore" style="stroke:#FFFFFF;stroke-width:1.0;"/><polygon fill="none" points="1015.09,256.3973,1011.3055,237.8049,1000.9069,243.7941,1015.09,256.3973" style="stroke:#FFFFFF;stroke-width:1.0;"/></g><!--reverse link ShardCtrler to Server--><g id="link_ShardCtrler_Server"><path codeLine="65" d="M853.3377,177.9786 C791.2077,207.2986 716.03,242.7673 650.5,273.6873 " fill="none" id="ShardCtrler-backto-Server" style="stroke:#FFFFFF;stroke-width:1.0;"/><polygon fill="#FFFFFF" points="864.19,172.8573,857.0567,171.8005,853.3377,177.9786,860.471,179.0354,864.19,172.8573" style="stroke:#FFFFFF;stroke-width:1.0;"/></g><text fill="#FFFFFF" font-family="Verdana" font-size="10" lengthAdjust="spacing" textLength="233" x="528" y="651.791">@github.com/ZiRunHua/MIT6.824-6.5840</text><!--SRC=[dLDDZzCm43qdlyBS4cYo27MhLLLLI5a-eYrGRGj8hFOmJQQfLIUE7BSWBVtlEBRZfjt2WKCKUzxupRpniwII8RcV9sGEsHOA9FFTYj7CVo4tM2A1aXRWhpcNACZRWihDRXLdlBpwGUztrSSTN7rAbwFuviqm6iNNDyFNVcrvMiudt-je6nHx52hWqKfnhI53ij2naz0jI5X8Bj1NOOCJ7aMzk7SuacQCOYLFIHE6Ogkp92zGgH0NyCcarZAdqnRqNf7F-FDBZG8avLMQ1o7XtIvESvFo0UKC8KUXKDUvYPjjeu27npxqjSv1eZt5z2-jSln5L3kXIZbS6CTaENtMtNUWCk5b2LKUb4sHvYt1Q3XGNVOQdGk-fwf4I8BbW8WwUoT4hBxGaDnHneBdLTraBnLsCmbgItwntl8uYGhgPiEb6eKhyNGmy8n3_fwBqkNqCcoFjxZQ5JDU11KeypLIqAeO42NPhNEKG5b3uZW-EtxGbwwlbqJHxwbrHsmDOSsa4MF6kBigDu8Jj6V5W-zilTqBMCk0mMeOjlxE63GDkVksSFwEsj6RxRXTsZ8FHi6Zpb2sW34feUwYvgSL64RTjQFJEyDszBUH-bAz3lNMRDptkbQ84TD2_KVbuEwS7K9FOhC1aMTIiDQqiBhkwLoqKAAXVqbDUBMcLcgcryrOFGqJFXT9_aTbhv6_2Erdd6lz0m00]--></g></svg>