<?xml version="1.0" encoding="us-ascii" standalone="no"?><svg xmlns="http://www.w3.org/2000/svg" xmlns:xlink="http://www.w3.org/1999/xlink" contentStyleType="text/css" height="635px" preserveAspectRatio="none" style="width:2794px;height:635px;background:#0B58A8;" version="1.1" viewBox="0 0 2794 635" width="2794px" zoomAndPan="magnify"><defs/><g><rect fill="#0B58A8" height="635" style="stroke:none;stroke-width:1.0;" width="2794" x="0" y="0"/><text fill="#FFFFFF" font-family="Verdana" font-size="22" font-weight="bold" lengthAdjust="spacing" textLength="161" x="1312.25" y="37.1182">RPC Package</text><!--cluster RPC--><g id="cluster_RPC"><path d="M297,58.7373 L330,58.7373 A3.75,3.75 0 0 1 332.5,61.2373 L339.5,81.752 L2635,81.752 A2.5,2.5 0 0 1 2637.5,84.252 L2637.5,597.2373 A2.5,2.5 0 0 1 2635,599.7373 L297,599.7373 A2.5,2.5 0 0 1 294.5,597.2373 L294.5,61.2373 A2.5,2.5 0 0 1 297,58.7373 " fill="#0B58A8" style="stroke:#FFFFFF;stroke-width:1.0;"/><line style="stroke:#FFFFFF;stroke-width:1.0;" x1="294.5" x2="339.5" y1="81.752" y2="81.752"/><text fill="#FFFFFF" font-family="Verdana" font-size="14" font-weight="bold" lengthAdjust="spacing" textLength="32" x="298.5" y="74.8125">RPC</text></g><!--cluster client--><g id="cluster_client"><path d="M2125,119.2373 L2167,119.2373 A3.75,3.75 0 0 1 2169.5,121.7373 L2176.5,142.252 L2603,142.252 A2.5,2.5 0 0 1 2605.5,144.752 L2605.5,461.2373 A2.5,2.5 0 0 1 2603,463.7373 L2125,463.7373 A2.5,2.5 0 0 1 2122.5,461.2373 L2122.5,121.7373 A2.5,2.5 0 0 1 2125,119.2373 " fill="#0B58A8" style="stroke:#FFFFFF;stroke-width:1.0;"/><line style="stroke:#FFFFFF;stroke-width:1.0;" x1="2122.5" x2="2176.5" y1="142.252" y2="142.252"/><text fill="#FFFFFF" font-family="Verdana" font-size="14" font-weight="bold" lengthAdjust="spacing" textLength="41" x="2126.5" y="135.3125">client</text></g><!--cluster server--><g id="cluster_server"><path d="M329,110.7373 L379,110.7373 A3.75,3.75 0 0 1 381.5,113.2373 L388.5,133.752 L2080,133.752 A2.5,2.5 0 0 1 2082.5,136.252 L2082.5,565.2373 A2.5,2.5 0 0 1 2080,567.7373 L329,567.7373 A2.5,2.5 0 0 1 326.5,565.2373 L326.5,113.2373 A2.5,2.5 0 0 1 329,110.7373 " fill="#0B58A8" style="stroke:#FFFFFF;stroke-width:1.0;"/><line style="stroke:#FFFFFF;stroke-width:1.0;" x1="326.5" x2="388.5" y1="133.752" y2="133.752"/><text fill="#FFFFFF" font-family="Verdana" font-size="14" font-weight="bold" lengthAdjust="spacing" textLength="49" x="330.5" y="126.8125">server</text></g><!--cluster Raft--><g id="cluster_Raft"><path d="M16,145.2373 L49,145.2373 A3.75,3.75 0 0 1 51.5,147.7373 L58.5,168.252 L260,168.252 A2.5,2.5 0 0 1 262.5,170.752 L262.5,254.7373 A2.5,2.5 0 0 1 260,257.2373 L16,257.2373 A2.5,2.5 0 0 1 13.5,254.7373 L13.5,147.7373 A2.5,2.5 0 0 1 16,145.2373 " fill="#0B58A8" style="stroke:#FFFFFF;stroke-width:1.0;"/><line style="stroke:#FFFFFF;stroke-width:1.0;" x1="13.5" x2="58.5" y1="168.252" y2="168.252"/><text fill="#FFFFFF" font-family="Verdana" font-size="14" font-weight="bold" lengthAdjust="spacing" textLength="32" x="17.5" y="161.3125">Raft</text></g><!--cluster labrpc--><g id="cluster_labrpc"><path d="M2664,153.2373 L2713,153.2373 A3.75,3.75 0 0 1 2715.5,155.7373 L2722.5,176.252 L2785,176.252 A2.5,2.5 0 0 1 2787.5,178.752 L2787.5,246.7373 A2.5,2.5 0 0 1 2785,249.2373 L2664,249.2373 A2.5,2.5 0 0 1 2661.5,246.7373 L2661.5,155.7373 A2.5,2.5 0 0 1 2664,153.2373 " fill="#0B58A8" style="stroke:#FFFFFF;stroke-width:1.0;"/><line style="stroke:#FFFFFF;stroke-width:1.0;" x1="2661.5" x2="2722.5" y1="176.252" y2="176.252"/><text fill="#FFFFFF" font-family="Verdana" font-size="14" font-weight="bold" lengthAdjust="spacing" textLength="48" x="2665.5" y="169.3125">labrpc</text></g><!--class Clerk--><g id="elem_Clerk"><rect codeLine="7" fill="#0B58A8" height="112.0586" id="Clerk" rx="2.5" ry="2.5" style="stroke:#FFFFFF;stroke-width:1.0;" width="239" x="2139" y="335.7373"/><ellipse cx="2236.75" cy="349.7373" fill="#0B58A8" rx="9" ry="9" style="stroke:#FFFFFF;stroke-width:1.0;"/><path d="M2235.9063,355.7373 L2235.9063,343.5654 L2238.375,343.5654 L2238.375,355.7373 L2235.9063,355.7373 Z " fill="#FFFFFF"/><text fill="#FFFFFF" font-family="Verdana" font-size="14" font-style="italic" lengthAdjust="spacing" textLength="36" x="2254.25" y="355.3052">Clerk</text><line style="stroke:#FFFFFF;stroke-width:1.0;" x1="2140" x2="2377" y1="363.7373" y2="363.7373"/><line style="stroke:#FFFFFF;stroke-width:1.0;" x1="2140" x2="2377" y1="371.7373" y2="371.7373"/><ellipse cx="2150" cy="385.7446" fill="#0B58A8" rx="3" ry="3" style="stroke:#FFFFFF;stroke-width:1.0;"/><text fill="#FFFFFF" font-family="Verdana" font-size="14" lengthAdjust="spacing" textLength="215" x="2157" y="389.8125">NewOperationId() operation.Id</text><ellipse cx="2150" cy="402.7593" fill="#0B58A8" rx="3" ry="3" style="stroke:#FFFFFF;stroke-width:1.0;"/><text fill="#FFFFFF" font-family="Verdana" font-size="14" lengthAdjust="spacing" textLength="135" x="2157" y="406.8271">GetLeader() Server</text><ellipse cx="2150" cy="419.7739" fill="#0B58A8" rx="3" ry="3" style="stroke:#FFFFFF;stroke-width:1.0;"/><text fill="#FFFFFF" font-family="Verdana" font-size="14" lengthAdjust="spacing" textLength="154" x="2157" y="423.8418">GetServers() []Server</text><ellipse cx="2150" cy="436.7886" fill="#0B58A8" rx="3" ry="3" style="stroke:#FFFFFF;stroke-width:1.0;"/><text fill="#FFFFFF" font-family="Verdana" font-size="14" lengthAdjust="spacing" textLength="214" x="2157" y="440.8564">UpdateLeader(leaderIndex int)</text></g><!--class clerk--><g id="elem_clerk"><rect codeLine="13" fill="#0B58A8" height="112.0586" id="clerk" rx="2.5" ry="2.5" style="stroke:#FFFFFF;stroke-width:1.0;" width="150" x="2195.5" y="155.2373"/><ellipse cx="2250.75" cy="169.2373" fill="#0B58A8" rx="9" ry="9" style="stroke:#FFFFFF;stroke-width:1.0;"/><path d="M2245.8594,171.2842 L2248.25,171.0498 Q2248.4688,172.2529 2249.125,172.8154 Q2249.7969,173.3779 2250.9063,173.3779 Q2252.0938,173.3779 2252.6875,172.8779 Q2253.2969,172.3779 2253.2969,171.7061 Q2253.2969,171.2686 2253.0469,170.9717 Q2252.7969,170.6592 2252.1719,170.4404 Q2251.7344,170.2842 2250.2031,169.9092 Q2248.2188,169.4248 2247.4219,168.7061 Q2246.2969,167.7061 2246.2969,166.2529 Q2246.2969,165.3311 2246.8281,164.5186 Q2247.3594,163.7061 2248.3438,163.2842 Q2249.3438,162.8623 2250.75,162.8623 Q2253.0313,162.8623 2254.1875,163.8623 Q2255.3594,164.8623 2255.4063,166.5498 L2252.9531,166.6592 Q2252.7969,165.7217 2252.2813,165.3154 Q2251.7656,164.8936 2250.7188,164.8936 Q2249.6563,164.8936 2249.0469,165.3311 Q2248.6563,165.6123 2248.6563,166.0967 Q2248.6563,166.5186 2249.0156,166.8311 Q2249.4844,167.2217 2251.2656,167.6436 Q2253.0625,168.0654 2253.9219,168.5186 Q2254.7813,168.9717 2255.2656,169.7529 Q2255.7656,170.5342 2255.7656,171.6904 Q2255.7656,172.7373 2255.1719,173.6592 Q2254.5938,174.5654 2253.5313,175.0186 Q2252.4688,175.4561 2250.8906,175.4561 Q2248.5781,175.4561 2247.3438,174.3936 Q2246.1094,173.3154 2245.8594,171.2842 Z " fill="#FFFFFF"/><text fill="#FFFFFF" font-family="Verdana" font-size="14" lengthAdjust="spacing" textLength="32" x="2268.25" y="174.8052">clerk</text><line style="stroke:#FFFFFF;stroke-width:1.0;" x1="2196.5" x2="2344.5" y1="183.2373" y2="183.2373"/><rect fill="none" height="6" style="stroke:#FFFFFF;stroke-width:1.0;" width="6" x="2203.5" y="194.2446"/><text fill="#FFFFFF" font-family="Verdana" font-size="14" lengthAdjust="spacing" textLength="53" x="2213.5" y="201.3125">id int64</text><rect fill="none" height="6" style="stroke:#FFFFFF;stroke-width:1.0;" width="6" x="2203.5" y="211.2593"/><text fill="#FFFFFF" font-family="Verdana" font-size="14" lengthAdjust="spacing" textLength="126" x="2213.5" y="218.3271">opId atomic.Int64</text><rect fill="none" height="6" style="stroke:#FFFFFF;stroke-width:1.0;" width="6" x="2203.5" y="228.2739"/><text fill="#FFFFFF" font-family="Verdana" font-size="14" lengthAdjust="spacing" textLength="121" x="2213.5" y="235.3418">servers: []Server</text><rect fill="none" height="6" style="stroke:#FFFFFF;stroke-width:1.0;" width="6" x="2203.5" y="245.2886"/><text fill="#FFFFFF" font-family="Verdana" font-size="14" lengthAdjust="spacing" textLength="99" x="2213.5" y="252.3564">leader: Server</text><line style="stroke:#FFFFFF;stroke-width:1.0;" x1="2196.5" x2="2344.5" y1="259.2959" y2="259.2959"/></g><!--class Server--><g id="elem_Server"><rect codeLine="20" fill="#0B58A8" height="44" id="Server" rx="2.5" ry="2.5" style="stroke:#FFFFFF;stroke-width:1.0;" width="73" x="2413" y="369.7373"/><ellipse cx="2426" cy="383.7373" fill="#0B58A8" rx="9" ry="9" style="stroke:#FFFFFF;stroke-width:1.0;"/><path d="M2425.1563,389.7373 L2425.1563,377.5654 L2427.625,377.5654 L2427.625,389.7373 L2425.1563,389.7373 Z " fill="#FFFFFF"/><text fill="#FFFFFF" font-family="Verdana" font-size="14" font-style="italic" lengthAdjust="spacing" textLength="45" x="2438" y="389.3052">Server</text><line style="stroke:#FFFFFF;stroke-width:1.0;" x1="2414" x2="2485" y1="397.7373" y2="397.7373"/><line style="stroke:#FFFFFF;stroke-width:1.0;" x1="2414" x2="2485" y1="405.7373" y2="405.7373"/></g><!--class Caller--><g id="elem_Caller"><rect codeLine="21" fill="#0B58A8" height="44" id="Caller" rx="2.5" ry="2.5" style="stroke:#FFFFFF;stroke-width:1.0;" width="68" x="2521.5" y="369.7373"/><ellipse cx="2534.5" cy="383.7373" fill="#0B58A8" rx="9" ry="9" style="stroke:#FFFFFF;stroke-width:1.0;"/><path d="M2533.6563,389.7373 L2533.6563,377.5654 L2536.125,377.5654 L2536.125,389.7373 L2533.6563,389.7373 Z " fill="#FFFFFF"/><text fill="#FFFFFF" font-family="Verdana" font-size="14" font-style="italic" lengthAdjust="spacing" textLength="40" x="2546.5" y="389.3052">Caller</text><line style="stroke:#FFFFFF;stroke-width:1.0;" x1="2522.5" x2="2588.5" y1="397.7373" y2="397.7373"/><line style="stroke:#FFFFFF;stroke-width:1.0;" x1="2522.5" x2="2588.5" y1="405.7373" y2="405.7373"/></g><!--class server--><g id="elem_server"><rect codeLine="22" fill="#0B58A8" height="61.0146" id="server" rx="2.5" ry="2.5" style="stroke:#FFFFFF;stroke-width:1.0;" width="111" x="2436" y="180.7373"/><ellipse cx="2466.55" cy="194.7373" fill="#0B58A8" rx="9" ry="9" style="stroke:#FFFFFF;stroke-width:1.0;"/><path d="M2461.6594,196.7842 L2464.05,196.5498 Q2464.2688,197.7529 2464.925,198.3154 Q2465.5969,198.8779 2466.7063,198.8779 Q2467.8938,198.8779 2468.4875,198.3779 Q2469.0969,197.8779 2469.0969,197.2061 Q2469.0969,196.7686 2468.8469,196.4717 Q2468.5969,196.1592 2467.9719,195.9404 Q2467.5344,195.7842 2466.0031,195.4092 Q2464.0188,194.9248 2463.2219,194.2061 Q2462.0969,193.2061 2462.0969,191.7529 Q2462.0969,190.8311 2462.6281,190.0186 Q2463.1594,189.2061 2464.1438,188.7842 Q2465.1438,188.3623 2466.55,188.3623 Q2468.8313,188.3623 2469.9875,189.3623 Q2471.1594,190.3623 2471.2063,192.0498 L2468.7531,192.1592 Q2468.5969,191.2217 2468.0813,190.8154 Q2467.5656,190.3936 2466.5188,190.3936 Q2465.4563,190.3936 2464.8469,190.8311 Q2464.4563,191.1123 2464.4563,191.5967 Q2464.4563,192.0186 2464.8156,192.3311 Q2465.2844,192.7217 2467.0656,193.1436 Q2468.8625,193.5654 2469.7219,194.0186 Q2470.5813,194.4717 2471.0656,195.2529 Q2471.5656,196.0342 2471.5656,197.1904 Q2471.5656,198.2373 2470.9719,199.1592 Q2470.3938,200.0654 2469.3313,200.5186 Q2468.2688,200.9561 2466.6906,200.9561 Q2464.3781,200.9561 2463.1438,199.8936 Q2461.9094,198.8154 2461.6594,196.7842 Z " fill="#FFFFFF"/><text fill="#FFFFFF" font-family="Verdana" font-size="14" lengthAdjust="spacing" textLength="44" x="2482.45" y="200.3052">server</text><line style="stroke:#FFFFFF;stroke-width:1.0;" x1="2437" x2="2546" y1="208.7373" y2="208.7373"/><ellipse cx="2447" cy="222.7446" fill="none" rx="3" ry="3" style="stroke:#FFFFFF;stroke-width:1.0;"/><text fill="#FFFFFF" font-family="Verdana" font-size="14" lengthAdjust="spacing" textLength="87" x="2454" y="226.8125">Caller: Caller</text><line style="stroke:#FFFFFF;stroke-width:1.0;" x1="2437" x2="2546" y1="233.752" y2="233.752"/></g><!--class server--><g id="elem_server"><rect codeLine="36" fill="#0B58A8" height="129.0732" id="server" rx="2.5" ry="2.5" style="stroke:#FFFFFF;stroke-width:1.0;" width="295" x="955" y="146.7373"/><ellipse cx="1071.25" cy="160.7373" fill="#0B58A8" rx="9" ry="9" style="stroke:#FFFFFF;stroke-width:1.0;"/><path d="M1066.3594,162.7842 L1068.75,162.5498 Q1068.9688,163.7529 1069.625,164.3154 Q1070.2969,164.8779 1071.4063,164.8779 Q1072.5938,164.8779 1073.1875,164.3779 Q1073.7969,163.8779 1073.7969,163.2061 Q1073.7969,162.7686 1073.5469,162.4717 Q1073.2969,162.1592 1072.6719,161.9404 Q1072.2344,161.7842 1070.7031,161.4092 Q1068.7188,160.9248 1067.9219,160.2061 Q1066.7969,159.2061 1066.7969,157.7529 Q1066.7969,156.8311 1067.3281,156.0186 Q1067.8594,155.2061 1068.8438,154.7842 Q1069.8438,154.3623 1071.25,154.3623 Q1073.5313,154.3623 1074.6875,155.3623 Q1075.8594,156.3623 1075.9063,158.0498 L1073.4531,158.1592 Q1073.2969,157.2217 1072.7813,156.8154 Q1072.2656,156.3936 1071.2188,156.3936 Q1070.1563,156.3936 1069.5469,156.8311 Q1069.1563,157.1123 1069.1563,157.5967 Q1069.1563,158.0186 1069.5156,158.3311 Q1069.9844,158.7217 1071.7656,159.1436 Q1073.5625,159.5654 1074.4219,160.0186 Q1075.2813,160.4717 1075.7656,161.2529 Q1076.2656,162.0342 1076.2656,163.1904 Q1076.2656,164.2373 1075.6719,165.1592 Q1075.0938,166.0654 1074.0313,166.5186 Q1072.9688,166.9561 1071.3906,166.9561 Q1069.0781,166.9561 1067.8438,165.8936 Q1066.6094,164.8154 1066.3594,162.7842 Z " fill="#FFFFFF"/><text fill="#FFFFFF" font-family="Verdana" font-size="14" lengthAdjust="spacing" textLength="44" x="1088.75" y="166.3052">server</text><rect fill="#0B58A8" height="16.584" style="stroke:#FFFFFF;stroke-width:1.0;stroke-dasharray:2.0,2.0;" width="9" x="1244" y="143.7373"/><text fill="#FFFFFF" font-family="Verdana" font-size="12" font-style="italic" lengthAdjust="spacing" textLength="7" x="1245" y="156.8018">T</text><line style="stroke:#FFFFFF;stroke-width:1.0;" x1="956" x2="1249" y1="174.7373" y2="174.7373"/><rect fill="none" height="6" style="stroke:#FFFFFF;stroke-width:1.0;" width="6" x="963" y="185.7446"/><text fill="#FFFFFF" font-family="Verdana" font-size="14" lengthAdjust="spacing" textLength="271" x="973" y="192.8125">clientById: map[int64]*clientState&lt;T&gt;</text><rect fill="none" height="6" style="stroke:#FFFFFF;stroke-width:1.0;" width="6" x="963" y="202.7593"/><text fill="#FFFFFF" font-family="Verdana" font-size="14" lengthAdjust="spacing" textLength="145" x="973" y="209.8271">data: DataStore&lt;T&gt;</text><rect fill="none" height="6" style="stroke:#FFFFFF;stroke-width:1.0;" width="6" x="963" y="219.7739"/><text fill="#FFFFFF" font-family="Verdana" font-size="14" lengthAdjust="spacing" textLength="65" x="973" y="226.8418">raft: Raft</text><rect fill="none" height="6" style="stroke:#FFFFFF;stroke-width:1.0;" width="6" x="963" y="236.7886"/><text fill="#FFFFFF" font-family="Verdana" font-size="14" lengthAdjust="spacing" textLength="187" x="973" y="243.8564">raftPersister: RaftPersister</text><rect fill="none" height="6" style="stroke:#FFFFFF;stroke-width:1.0;" width="6" x="963" y="253.8032"/><text fill="#FFFFFF" font-family="Verdana" font-size="14" lengthAdjust="spacing" textLength="202" x="973" y="260.8711">applyCh: chan raft.ApplyMsg</text><line style="stroke:#FFFFFF;stroke-width:1.0;" x1="956" x2="1249" y1="267.8105" y2="267.8105"/></g><!--class Server--><g id="elem_Server"><rect codeLine="43" fill="#0B58A8" height="78.0293" id="Server" rx="2.5" ry="2.5" style="stroke:#FFFFFF;stroke-width:1.0;" width="491" x="857" y="352.7373"/><ellipse cx="1070.75" cy="366.7373" fill="#0B58A8" rx="9" ry="9" style="stroke:#FFFFFF;stroke-width:1.0;"/><path d="M1069.9063,372.7373 L1069.9063,360.5654 L1072.375,360.5654 L1072.375,372.7373 L1069.9063,372.7373 Z " fill="#FFFFFF"/><text fill="#FFFFFF" font-family="Verdana" font-size="14" font-style="italic" lengthAdjust="spacing" textLength="45" x="1088.25" y="372.3052">Server</text><rect fill="#0B58A8" height="16.584" style="stroke:#FFFFFF;stroke-width:1.0;stroke-dasharray:2.0,2.0;" width="9" x="1342" y="349.7373"/><text fill="#FFFFFF" font-family="Verdana" font-size="12" font-style="italic" lengthAdjust="spacing" textLength="7" x="1343" y="362.8018">T</text><line style="stroke:#FFFFFF;stroke-width:1.0;" x1="858" x2="1347" y1="380.7373" y2="380.7373"/><line style="stroke:#FFFFFF;stroke-width:1.0;" x1="858" x2="1347" y1="388.7373" y2="388.7373"/><ellipse cx="868" cy="402.7446" fill="#0B58A8" rx="3" ry="3" style="stroke:#FFFFFF;stroke-width:1.0;"/><text fill="#FFFFFF" font-family="Verdana" font-size="14" lengthAdjust="spacing" textLength="467" x="875" y="406.8125">WaitCommand(msgId int64, op operation.Provider) (T, rpcErr.Err)</text><ellipse cx="868" cy="419.7593" fill="#0B58A8" rx="3" ry="3" style="stroke:#FFFFFF;stroke-width:1.0;"/><text fill="#FFFFFF" font-family="Verdana" font-size="14" lengthAdjust="spacing" textLength="31" x="875" y="423.8271">Kill()</text></g><!--class DataStore--><g id="elem_DataStore"><rect codeLine="47" fill="#0B58A8" height="112.0586" id="DataStore" rx="2.5" ry="2.5" style="stroke:#FFFFFF;stroke-width:1.0;" width="431" x="1383" y="335.7373"/><ellipse cx="1553.75" cy="349.7373" fill="#0B58A8" rx="9" ry="9" style="stroke:#FFFFFF;stroke-width:1.0;"/><path d="M1552.9063,355.7373 L1552.9063,343.5654 L1555.375,343.5654 L1555.375,355.7373 L1552.9063,355.7373 Z " fill="#FFFFFF"/><text fill="#FFFFFF" font-family="Verdana" font-size="14" font-style="italic" lengthAdjust="spacing" textLength="71" x="1571.25" y="355.3052">DataStore</text><rect fill="#0B58A8" height="16.584" style="stroke:#FFFFFF;stroke-width:1.0;stroke-dasharray:2.0,2.0;" width="9" x="1808" y="332.7373"/><text fill="#FFFFFF" font-family="Verdana" font-size="12" font-style="italic" lengthAdjust="spacing" textLength="7" x="1809" y="345.8018">T</text><line style="stroke:#FFFFFF;stroke-width:1.0;" x1="1384" x2="1813" y1="363.7373" y2="363.7373"/><line style="stroke:#FFFFFF;stroke-width:1.0;" x1="1384" x2="1813" y1="371.7373" y2="371.7373"/><ellipse cx="1394" cy="385.7446" fill="#0B58A8" rx="3" ry="3" style="stroke:#FFFFFF;stroke-width:1.0;"/><text fill="#FFFFFF" font-family="Verdana" font-size="14" lengthAdjust="spacing" textLength="287" x="1401" y="389.8125">Operation(provider operation.Provider) T</text><ellipse cx="1394" cy="402.7593" fill="#0B58A8" rx="3" ry="3" style="stroke:#FFFFFF;stroke-width:1.0;"/><text fill="#FFFFFF" font-family="Verdana" font-size="14" lengthAdjust="spacing" textLength="188" x="1401" y="406.8271">GetSnapshot() interface{}</text><ellipse cx="1394" cy="419.7739" fill="#0B58A8" rx="3" ry="3" style="stroke:#FFFFFF;stroke-width:1.0;"/><text fill="#FFFFFF" font-family="Verdana" font-size="14" lengthAdjust="spacing" textLength="228" x="1401" y="423.8418">LoadFormSnapshot(interface{})</text><ellipse cx="1394" cy="436.7886" fill="#0B58A8" rx="3" ry="3" style="stroke:#FFFFFF;stroke-width:1.0;"/><text fill="#FFFFFF" font-family="Verdana" font-size="14" lengthAdjust="spacing" textLength="407" x="1401" y="440.8564">DebugLog(name string, msg string, details ...interface{})</text></g><!--class Raft--><g id="elem_Raft"><rect codeLine="54" fill="#0B58A8" height="95.0439" id="Raft" rx="2.5" ry="2.5" style="stroke:#FFFFFF;stroke-width:1.0;" width="289" x="533" y="344.2373"/><ellipse cx="659.25" cy="358.2373" fill="#0B58A8" rx="9" ry="9" style="stroke:#FFFFFF;stroke-width:1.0;"/><path d="M658.4063,364.2373 L658.4063,352.0654 L660.875,352.0654 L660.875,364.2373 L658.4063,364.2373 Z " fill="#FFFFFF"/><text fill="#FFFFFF" font-family="Verdana" font-size="14" font-style="italic" lengthAdjust="spacing" textLength="29" x="676.75" y="363.8052">Raft</text><line style="stroke:#FFFFFF;stroke-width:1.0;" x1="534" x2="821" y1="372.2373" y2="372.2373"/><line style="stroke:#FFFFFF;stroke-width:1.0;" x1="534" x2="821" y1="380.2373" y2="380.2373"/><ellipse cx="544" cy="394.2446" fill="#0B58A8" rx="3" ry="3" style="stroke:#FFFFFF;stroke-width:1.0;"/><text fill="#FFFFFF" font-family="Verdana" font-size="14" lengthAdjust="spacing" textLength="241" x="551" y="398.3125">Start(c interface{}) (int, int, bool)</text><ellipse cx="544" cy="411.2593" fill="#0B58A8" rx="3" ry="3" style="stroke:#FFFFFF;stroke-width:1.0;"/><text fill="#FFFFFF" font-family="Verdana" font-size="14" lengthAdjust="spacing" textLength="265" x="551" y="415.3271">Snapshot(index int, snapshot []byte)</text><ellipse cx="544" cy="428.2739" fill="#0B58A8" rx="3" ry="3" style="stroke:#FFFFFF;stroke-width:1.0;"/><text fill="#FFFFFF" font-family="Verdana" font-size="14" lengthAdjust="spacing" textLength="31" x="551" y="432.3418">Kill()</text></g><!--class RaftPersister--><g id="elem_RaftPersister"><rect codeLine="60" fill="#0B58A8" height="61.0146" id="RaftPersister" rx="2.5" ry="2.5" style="stroke:#FFFFFF;stroke-width:1.0;" width="155" x="343" y="361.2373"/><ellipse cx="373.1" cy="375.2373" fill="#0B58A8" rx="9" ry="9" style="stroke:#FFFFFF;stroke-width:1.0;"/><path d="M372.2563,381.2373 L372.2563,369.0654 L374.725,369.0654 L374.725,381.2373 L372.2563,381.2373 Z " fill="#FFFFFF"/><text fill="#FFFFFF" font-family="Verdana" font-size="14" font-style="italic" lengthAdjust="spacing" textLength="89" x="388.9" y="380.8052">RaftPersister</text><line style="stroke:#FFFFFF;stroke-width:1.0;" x1="344" x2="497" y1="389.2373" y2="389.2373"/><line style="stroke:#FFFFFF;stroke-width:1.0;" x1="344" x2="497" y1="397.2373" y2="397.2373"/><ellipse cx="354" cy="411.2446" fill="#0B58A8" rx="3" ry="3" style="stroke:#FFFFFF;stroke-width:1.0;"/><text fill="#FFFFFF" font-family="Verdana" font-size="14" lengthAdjust="spacing" textLength="131" x="361" y="415.3125">RaftStateSize() int</text></g><!--class clientState--><g id="elem_clientState"><rect codeLine="64" fill="#0B58A8" height="61.0146" id="clientState" rx="2.5" ry="2.5" style="stroke:#FFFFFF;stroke-width:1.0;" width="217" x="1849" y="361.2373"/><ellipse cx="1911.25" cy="375.2373" fill="#0B58A8" rx="9" ry="9" style="stroke:#FFFFFF;stroke-width:1.0;"/><path d="M1906.3594,377.2842 L1908.75,377.0498 Q1908.9688,378.2529 1909.625,378.8154 Q1910.2969,379.3779 1911.4063,379.3779 Q1912.5938,379.3779 1913.1875,378.8779 Q1913.7969,378.3779 1913.7969,377.7061 Q1913.7969,377.2686 1913.5469,376.9717 Q1913.2969,376.6592 1912.6719,376.4404 Q1912.2344,376.2842 1910.7031,375.9092 Q1908.7188,375.4248 1907.9219,374.7061 Q1906.7969,373.7061 1906.7969,372.2529 Q1906.7969,371.3311 1907.3281,370.5186 Q1907.8594,369.7061 1908.8438,369.2842 Q1909.8438,368.8623 1911.25,368.8623 Q1913.5313,368.8623 1914.6875,369.8623 Q1915.8594,370.8623 1915.9063,372.5498 L1913.4531,372.6592 Q1913.2969,371.7217 1912.7813,371.3154 Q1912.2656,370.8936 1911.2188,370.8936 Q1910.1563,370.8936 1909.5469,371.3311 Q1909.1563,371.6123 1909.1563,372.0967 Q1909.1563,372.5186 1909.5156,372.8311 Q1909.9844,373.2217 1911.7656,373.6436 Q1913.5625,374.0654 1914.4219,374.5186 Q1915.2813,374.9717 1915.7656,375.7529 Q1916.2656,376.5342 1916.2656,377.6904 Q1916.2656,378.7373 1915.6719,379.6592 Q1915.0938,380.5654 1914.0313,381.0186 Q1912.9688,381.4561 1911.3906,381.4561 Q1909.0781,381.4561 1907.8438,380.3936 Q1906.6094,379.3154 1906.3594,377.2842 Z " fill="#FFFFFF"/><text fill="#FFFFFF" font-family="Verdana" font-size="14" lengthAdjust="spacing" textLength="74" x="1928.75" y="380.8052">clientState</text><rect fill="#0B58A8" height="16.584" style="stroke:#FFFFFF;stroke-width:1.0;stroke-dasharray:2.0,2.0;" width="9" x="2060" y="358.2373"/><text fill="#FFFFFF" font-family="Verdana" font-size="12" font-style="italic" lengthAdjust="spacing" textLength="7" x="2061" y="371.3018">T</text><line style="stroke:#FFFFFF;stroke-width:1.0;" x1="1850" x2="2065" y1="389.2373" y2="389.2373"/><rect fill="none" height="6" style="stroke:#FFFFFF;stroke-width:1.0;" width="6" x="1857" y="400.2446"/><text fill="#FFFFFF" font-family="Verdana" font-size="14" lengthAdjust="spacing" textLength="193" x="1867" y="407.3125">waiter:*OperationWaiter[T]</text><line style="stroke:#FFFFFF;stroke-width:1.0;" x1="1850" x2="2065" y1="414.252" y2="414.252"/></g><!--class operationWaiter--><g id="elem_operationWaiter"><rect codeLine="68" fill="#0B58A8" height="44" id="operationWaiter" rx="2.5" ry="2.5" style="stroke:#FFFFFF;stroke-width:1.0;" width="152" x="1881.5" y="507.7373"/><ellipse cx="1894.5" cy="521.7373" fill="#0B58A8" rx="9" ry="9" style="stroke:#FFFFFF;stroke-width:1.0;"/><path d="M1889.6094,523.7842 L1892,523.5498 Q1892.2188,524.7529 1892.875,525.3154 Q1893.5469,525.8779 1894.6563,525.8779 Q1895.8438,525.8779 1896.4375,525.3779 Q1897.0469,524.8779 1897.0469,524.2061 Q1897.0469,523.7686 1896.7969,523.4717 Q1896.5469,523.1592 1895.9219,522.9404 Q1895.4844,522.7842 1893.9531,522.4092 Q1891.9688,521.9248 1891.1719,521.2061 Q1890.0469,520.2061 1890.0469,518.7529 Q1890.0469,517.8311 1890.5781,517.0186 Q1891.1094,516.2061 1892.0938,515.7842 Q1893.0938,515.3623 1894.5,515.3623 Q1896.7813,515.3623 1897.9375,516.3623 Q1899.1094,517.3623 1899.1563,519.0498 L1896.7031,519.1592 Q1896.5469,518.2217 1896.0313,517.8154 Q1895.5156,517.3936 1894.4688,517.3936 Q1893.4063,517.3936 1892.7969,517.8311 Q1892.4063,518.1123 1892.4063,518.5967 Q1892.4063,519.0186 1892.7656,519.3311 Q1893.2344,519.7217 1895.0156,520.1436 Q1896.8125,520.5654 1897.6719,521.0186 Q1898.5313,521.4717 1899.0156,522.2529 Q1899.5156,523.0342 1899.5156,524.1904 Q1899.5156,525.2373 1898.9219,526.1592 Q1898.3438,527.0654 1897.2813,527.5186 Q1896.2188,527.9561 1894.6406,527.9561 Q1892.3281,527.9561 1891.0938,526.8936 Q1889.8594,525.8154 1889.6094,523.7842 Z " fill="#FFFFFF"/><text fill="#FFFFFF" font-family="Verdana" font-size="14" lengthAdjust="spacing" textLength="113" x="1906.5" y="527.3052">operationWaiter</text><rect fill="#0B58A8" height="16.584" style="stroke:#FFFFFF;stroke-width:1.0;stroke-dasharray:2.0,2.0;" width="9" x="2027.5" y="504.7373"/><text fill="#FFFFFF" font-family="Verdana" font-size="12" font-style="italic" lengthAdjust="spacing" textLength="7" x="2028.5" y="517.8018">T</text><line style="stroke:#FFFFFF;stroke-width:1.0;" x1="1882.5" x2="2032.5" y1="535.7373" y2="535.7373"/><line style="stroke:#FFFFFF;stroke-width:1.0;" x1="1882.5" x2="2032.5" y1="543.7373" y2="543.7373"/></g><!--class Persister--><g id="elem_Persister"><rect codeLine="87" fill="#0B58A8" height="44" id="Persister" rx="2.5" ry="2.5" style="stroke:#FFFFFF;stroke-width:1.0;" width="89" x="57" y="189.2373"/><ellipse cx="70" cy="203.2373" fill="#0B58A8" rx="9" ry="9" style="stroke:#FFFFFF;stroke-width:1.0;"/><path d="M65.1094,205.2842 L67.5,205.0498 Q67.7188,206.2529 68.375,206.8154 Q69.0469,207.3779 70.1563,207.3779 Q71.3438,207.3779 71.9375,206.8779 Q72.5469,206.3779 72.5469,205.7061 Q72.5469,205.2686 72.2969,204.9717 Q72.0469,204.6592 71.4219,204.4404 Q70.9844,204.2842 69.4531,203.9092 Q67.4688,203.4248 66.6719,202.7061 Q65.5469,201.7061 65.5469,200.2529 Q65.5469,199.3311 66.0781,198.5186 Q66.6094,197.7061 67.5938,197.2842 Q68.5938,196.8623 70,196.8623 Q72.2813,196.8623 73.4375,197.8623 Q74.6094,198.8623 74.6563,200.5498 L72.2031,200.6592 Q72.0469,199.7217 71.5313,199.3154 Q71.0156,198.8936 69.9688,198.8936 Q68.9063,198.8936 68.2969,199.3311 Q67.9063,199.6123 67.9063,200.0967 Q67.9063,200.5186 68.2656,200.8311 Q68.7344,201.2217 70.5156,201.6436 Q72.3125,202.0654 73.1719,202.5186 Q74.0313,202.9717 74.5156,203.7529 Q75.0156,204.5342 75.0156,205.6904 Q75.0156,206.7373 74.4219,207.6592 Q73.8438,208.5654 72.7813,209.0186 Q71.7188,209.4561 70.1406,209.4561 Q67.8281,209.4561 66.5938,208.3936 Q65.3594,207.3154 65.1094,205.2842 Z " fill="#FFFFFF"/><text fill="#FFFFFF" font-family="Verdana" font-size="14" lengthAdjust="spacing" textLength="61" x="82" y="208.8052">Persister</text><line style="stroke:#FFFFFF;stroke-width:1.0;" x1="58" x2="145" y1="217.2373" y2="217.2373"/><line style="stroke:#FFFFFF;stroke-width:1.0;" x1="58" x2="145" y1="225.2373" y2="225.2373"/></g><!--class Raft--><g id="elem_Raft"><rect codeLine="90" fill="#0B58A8" height="44" id="Raft" rx="2.5" ry="2.5" style="stroke:#FFFFFF;stroke-width:1.0;" width="57" x="181" y="189.2373"/><ellipse cx="194" cy="203.2373" fill="#0B58A8" rx="9" ry="9" style="stroke:#FFFFFF;stroke-width:1.0;"/><path d="M189.1094,205.2842 L191.5,205.0498 Q191.7188,206.2529 192.375,206.8154 Q193.0469,207.3779 194.1563,207.3779 Q195.3438,207.3779 195.9375,206.8779 Q196.5469,206.3779 196.5469,205.7061 Q196.5469,205.2686 196.2969,204.9717 Q196.0469,204.6592 195.4219,204.4404 Q194.9844,204.2842 193.4531,203.9092 Q191.4688,203.4248 190.6719,202.7061 Q189.5469,201.7061 189.5469,200.2529 Q189.5469,199.3311 190.0781,198.5186 Q190.6094,197.7061 191.5938,197.2842 Q192.5938,196.8623 194,196.8623 Q196.2813,196.8623 197.4375,197.8623 Q198.6094,198.8623 198.6563,200.5498 L196.2031,200.6592 Q196.0469,199.7217 195.5313,199.3154 Q195.0156,198.8936 193.9688,198.8936 Q192.9063,198.8936 192.2969,199.3311 Q191.9063,199.6123 191.9063,200.0967 Q191.9063,200.5186 192.2656,200.8311 Q192.7344,201.2217 194.5156,201.6436 Q196.3125,202.0654 197.1719,202.5186 Q198.0313,202.9717 198.5156,203.7529 Q199.0156,204.5342 199.0156,205.6904 Q199.0156,206.7373 198.4219,207.6592 Q197.8438,208.5654 196.7813,209.0186 Q195.7188,209.4561 194.1406,209.4561 Q191.8281,209.4561 190.5938,208.3936 Q189.3594,207.3154 189.1094,205.2842 Z " fill="#FFFFFF"/><text fill="#FFFFFF" font-family="Verdana" font-size="14" lengthAdjust="spacing" textLength="29" x="206" y="208.8052">Raft</text><line style="stroke:#FFFFFF;stroke-width:1.0;" x1="182" x2="237" y1="217.2373" y2="217.2373"/><line style="stroke:#FFFFFF;stroke-width:1.0;" x1="182" x2="237" y1="225.2373" y2="225.2373"/></g><!--class ClientEnd--><g id="elem_ClientEnd"><rect codeLine="95" fill="#0B58A8" height="44" id="ClientEnd" rx="2.5" ry="2.5" style="stroke:#FFFFFF;stroke-width:1.0;" width="94" x="2677.5" y="189.2373"/><ellipse cx="2690.5" cy="203.2373" fill="#0B58A8" rx="9" ry="9" style="stroke:#FFFFFF;stroke-width:1.0;"/><path d="M2685.6094,205.2842 L2688,205.0498 Q2688.2188,206.2529 2688.875,206.8154 Q2689.5469,207.3779 2690.6563,207.3779 Q2691.8438,207.3779 2692.4375,206.8779 Q2693.0469,206.3779 2693.0469,205.7061 Q2693.0469,205.2686 2692.7969,204.9717 Q2692.5469,204.6592 2691.9219,204.4404 Q2691.4844,204.2842 2689.9531,203.9092 Q2687.9688,203.4248 2687.1719,202.7061 Q2686.0469,201.7061 2686.0469,200.2529 Q2686.0469,199.3311 2686.5781,198.5186 Q2687.1094,197.7061 2688.0938,197.2842 Q2689.0938,196.8623 2690.5,196.8623 Q2692.7813,196.8623 2693.9375,197.8623 Q2695.1094,198.8623 2695.1563,200.5498 L2692.7031,200.6592 Q2692.5469,199.7217 2692.0313,199.3154 Q2691.5156,198.8936 2690.4688,198.8936 Q2689.4063,198.8936 2688.7969,199.3311 Q2688.4063,199.6123 2688.4063,200.0967 Q2688.4063,200.5186 2688.7656,200.8311 Q2689.2344,201.2217 2691.0156,201.6436 Q2692.8125,202.0654 2693.6719,202.5186 Q2694.5313,202.9717 2695.0156,203.7529 Q2695.5156,204.5342 2695.5156,205.6904 Q2695.5156,206.7373 2694.9219,207.6592 Q2694.3438,208.5654 2693.2813,209.0186 Q2692.2188,209.4561 2690.6406,209.4561 Q2688.3281,209.4561 2687.0938,208.3936 Q2685.8594,207.3154 2685.6094,205.2842 Z " fill="#FFFFFF"/><text fill="#FFFFFF" font-family="Verdana" font-size="14" lengthAdjust="spacing" textLength="66" x="2702.5" y="208.8052">ClientEnd</text><line style="stroke:#FFFFFF;stroke-width:1.0;" x1="2678.5" x2="2770.5" y1="217.2373" y2="217.2373"/><line style="stroke:#FFFFFF;stroke-width:1.0;" x1="2678.5" x2="2770.5" y1="225.2373" y2="225.2373"/></g><g id="elem_GMN32"><path d="M11,386.7373 L11,396.7373 L32,396.7373 L32,396.7373 L22,386.7373 L11,386.7373 " fill="#0B58A8" style="stroke:#FFFFFF;stroke-width:1.0;"/><path d="M22,386.7373 L22,396.7373 L32,396.7373 L22,386.7373 " fill="#0B58A8" style="stroke:#FFFFFF;stroke-width:1.0;"/></g><!--reverse link clerk to Server--><g id="link_clerk_Server"><path codeLine="25" d="M2335.2244,275.813 C2356.8144,297.103 2373.1,313.2673 2395.5,335.7373 C2406.55,346.8273 2418.78,359.2673 2428.8,369.5073 " fill="none" id="clerk-backto-Server" style="stroke:#FFFFFF;stroke-width:1.0;"/><polygon fill="none" points="2326.68,267.3873,2328.1436,274.4483,2335.2244,275.813,2333.7608,268.752,2326.68,267.3873" style="stroke:#FFFFFF;stroke-width:1.0;"/></g><!--link clerk to Clerk--><g id="link_clerk_Clerk"><path codeLine="26" d="M2266.8,267.2473 C2265.34,288.9673 2264.8767,295.9078 2263.4167,317.6378 " fill="none" id="clerk-to-Clerk" style="stroke:#FFFFFF;stroke-width:1.0;stroke-dasharray:7.0,7.0;"/><polygon fill="none" points="2262.21,335.5973,2269.4032,318.04,2257.4302,317.2356,2262.21,335.5973" style="stroke:#FFFFFF;stroke-width:1.0;"/></g><!--reverse link server to Caller--><g id="link_server_Caller"><path codeLine="29" d="M2506.2599,253.4132 C2519.2099,289.5332 2536.63,338.1173 2547.96,369.7173 " fill="none" id="server-backto-Caller" style="stroke:#FFFFFF;stroke-width:1.0;"/><polygon fill="none" points="2502.21,242.1173,2500.4696,249.1152,2506.2599,253.4132,2508.0003,246.4153,2502.21,242.1173" style="stroke:#FFFFFF;stroke-width:1.0;"/></g><!--link server to Server--><g id="link_server_Server"><path codeLine="30" d="M2484.47,242.1173 C2475.97,278.2373 2465.9999,320.5951 2458.5699,352.1951 " fill="none" id="server-to-Server" style="stroke:#FFFFFF;stroke-width:1.0;stroke-dasharray:7.0,7.0;"/><polygon fill="none" points="2454.45,369.7173,2464.4106,353.5685,2452.7292,350.8218,2454.45,369.7173" style="stroke:#FFFFFF;stroke-width:1.0;"/></g><!--reverse link server to clientState--><g id="link_server_clientState"><path codeLine="70" d="M1262.0433,227.9122 C1411.0333,244.8422 1634.67,277.0673 1831.5,335.7373 C1853.69,342.3473 1877.15,351.8473 1897.74,361.0973 " fill="none" id="server-backto-clientState" style="stroke:#FFFFFF;stroke-width:1.0;"/><polygon fill="none" points="1250.12,226.5573,1255.63,231.2092,1262.0433,227.9122,1256.5333,223.2603,1250.12,226.5573" style="stroke:#FFFFFF;stroke-width:1.0;"/></g><!--reverse link server to DataStore--><g id="link_server_DataStore"><path codeLine="72" d="M1261.6007,269.4918 C1323.1307,291.6418 1383.25,313.2773 1445.34,335.6173 " fill="none" id="server-backto-DataStore" style="stroke:#FFFFFF;stroke-width:1.0;"/><polygon fill="none" points="1250.31,265.4273,1254.6005,271.2231,1261.6007,269.4918,1257.3102,263.696,1250.31,265.4273" style="stroke:#FFFFFF;stroke-width:1.0;"/></g><!--reverse link server to Raft--><g id="link_server_Raft"><path codeLine="74" d="M943.6863,278.9343 C889.0463,301.8843 839.15,322.8473 788.34,344.1873 " fill="none" id="server-backto-Raft" style="stroke:#FFFFFF;stroke-width:1.0;"/><polygon fill="none" points="954.75,274.2873,947.6692,272.9229,943.6863,278.9343,950.7671,280.2987,954.75,274.2873" style="stroke:#FFFFFF;stroke-width:1.0;"/></g><!--reverse link server to RaftPersister--><g id="link_server_RaftPersister"><path codeLine="76" d="M943.1165,231.7753 C822.1265,249.4853 659.78,280.4273 515.5,335.7373 C498.24,342.3573 480.42,351.8573 464.94,361.0973 " fill="none" id="server-backto-RaftPersister" style="stroke:#FFFFFF;stroke-width:1.0;"/><polygon fill="none" points="954.99,230.0373,948.4739,226.9485,943.1165,231.7753,949.6326,234.8641,954.99,230.0373" style="stroke:#FFFFFF;stroke-width:1.0;"/></g><!--link server to Server--><g id="link_server_Server"><path codeLine="78" d="M1102.5,275.9273 C1102.5,301.5573 1102.5,312.2573 1102.5,334.5573 " fill="none" id="server-to-Server-1" style="stroke:#FFFFFF;stroke-width:1.0;"/><polygon fill="none" points="1102.5,352.5573,1108.5,334.5573,1096.5,334.5573,1102.5,352.5573" style="stroke:#FFFFFF;stroke-width:1.0;"/></g><!--reverse link clientState to operationWaiter--><g id="link_clientState_operationWaiter"><path codeLine="80" d="M1957.5,434.2473 C1957.5,460.0273 1957.5,484.8173 1957.5,507.7073 " fill="none" id="clientState-backto-operationWaiter" style="stroke:#FFFFFF;stroke-width:1.0;"/><polygon fill="none" points="1957.5,422.2473,1953.5,428.2473,1957.5,434.2473,1961.5,428.2473,1957.5,422.2473" style="stroke:#FFFFFF;stroke-width:1.0;"/></g><!--link Raft to GMN32--><g id="link_Raft_GMN32"><path d="M21.5,257.5471 C21.5,258.0965 21.5,258.649 21.5,259.2043 C21.5,260.3148 21.5,261.4367 21.5,262.569 C21.5,271.6275 21.5,281.3511 21.5,291.2448 C21.5,330.8198 21.5,373.1173 21.5,386.4573 " fill="none" id="Raft-GMN32" style="stroke:#FFFFFF;stroke-width:1.0;stroke-dasharray:7.0,7.0;"/></g><!--link Raft to Raft--><g id="link_Raft_Raft"><path codeLine="101" d="M238.07,229.7373 C261.3,243.4673 295.24,262.4373 326.5,275.7373 C407.59,310.2473 431.77,308.2373 515.5,335.7373 C523.82,338.4673 515.2997,335.6271 523.9297,338.4971 " fill="none" id="Raft-to-Raft" style="stroke:#FFFFFF;stroke-width:1.0;stroke-dasharray:7.0,7.0;"/><polygon fill="none" points="541.01,344.1773,525.8232,332.8037,522.0363,344.1905,541.01,344.1773" style="stroke:#FFFFFF;stroke-width:1.0;"/></g><!--link Persister to RaftPersister--><g id="link_Persister_RaftPersister"><path codeLine="102" d="M118.53,233.4073 C130.13,246.8273 146.44,263.8373 163.5,275.7373 C219.03,314.4673 272.8348,338.6573 326.0048,358.4873 " fill="none" id="Persister-to-RaftPersister" style="stroke:#FFFFFF;stroke-width:1.0;stroke-dasharray:7.0,7.0;"/><polygon fill="none" points="342.87,364.7773,328.1014,352.8656,323.9081,364.1091,342.87,364.7773" style="stroke:#FFFFFF;stroke-width:1.0;"/></g><!--link ClientEnd to Caller--><g id="link_ClientEnd_Caller"><path codeLine="103" d="M2704.45,233.4173 C2671.92,267.7673 2620.4049,322.1759 2587.8949,356.5159 " fill="none" id="ClientEnd-to-Caller" style="stroke:#FFFFFF;stroke-width:1.0;stroke-dasharray:7.0,7.0;"/><polygon fill="none" points="2575.52,369.5873,2592.252,360.6408,2583.5377,352.3909,2575.52,369.5873" style="stroke:#FFFFFF;stroke-width:1.0;"/></g><text fill="#FFFFFF" font-family="Verdana" font-size="10" lengthAdjust="spacing" textLength="233" x="1276.25" y="620.791">@github.com/ZiRunHua/MIT6.824-6.5840</text><!--SRC=[xLZVSzeu47x6VuLkxeNqWal8ZyandKu32GqzI9b0sfdhz45O0dIn9LUMIMcF__rMicpBGAvDctkv2JCuqUwdRrUxgnMMOYgaw7hKHICStE8vzNvH2nfHX2CsnzvC24KbUZLdQf5E_K14p_zaroc_JF7pONzouf-sZXed_l7fKTEp18RigrTJOaw1IiA_jLmLX8nofRMr6kF0FCC1HTsGobiZg_s6hkZTsvXAh9ZWVLBVGo8V-NrYCQ-f6b1Cg0JrcCebbQKY6oUW-V2nehk92LRKpWlDdpudz3C2H_OqPgqVOoNJG86Zu5BcPws16D6WaoCx576V8An4n0A_xyYJp7IxQhc1CcDjnrLZgXg4Kka41eTX9hDkPHPG7gjCttPmXZXpNZGQ3cacy_s_NsRXzZmjjNmQMd9OeS5Q0iymhyka8ZUhhbSLHrzCNXOnp5BVMVL96qKu_c02-l5P9XuhI0sWBHOIXTle79vZ9QIZa7YcskWQdevW135dYTA1k7Q75eBZE5nr5sqKB30t4_mpBHecyo9Ycsa0YtcCtsEckYAAC2VrA9dtRIdiGnKufJcIOiaWoNkeFjb7CWukfFJXksTP_c1XMD_ROSzTP6wogFzwR6btMfeuHSznd2o4WgelgB-khNuWCEa96HKW1vBxTqwdwNmWvdMEOUydIZ8-tqUmtk9_GXLcOG9buM_ENtlLDUaiv6k1p4fL3rot84OmsaVcCHKYp9rm7BJxSXybLWPxQhfIT5SyjuqN9P1xeOMcniRi2ys2LCujjhnRYKNTta7-eRIU5KbvRmGV9X-t64GLeijsOvCvDZPLHI5iAaorxv2LTUue6utAfgqv1it43HUBZGthADetSElLsqKviJGTm8fjZYipGpo5oY-dTetn2quqYCD10jbMq3QHc6MhefmWBVSyFVIDPTDsu0ZninKPOQOkFDc9ASEHkU4Nraju5WtVjhfNODxprDO1c7rU96eLqfSUGXBEG0W8Way787CfKaww8XGI_Thi79-UdHfTJt1bfJtpAQHNUa-zev9WZetmSWLf631-c-FFpmvRnqO5KhhDegMJ1GjkEKqIT61aGopdZ2CzRGrV8e8qoWvNhGrmhDDiHviCJIDTcwSzuhyDN9XZx3k0MKXpd8w0tdQerVh6JFtLqOqlNKjRCT-8xkvCZ7NseDv2Oecv8BbFG_oPHMdqdX6rG8VDfaL8EgEIye3-5-OJ6cFOUU9HQLyyjqNg9RUCQmCHEfDIt0r46B9On5Nk4dHV7PU8Sph3QQYsodSBCHHS935qNb9WkoAL33POYHsm6GqXwz0Oe1FDLv2DH8ICE90Hd1CiO37cQeG9WJC77JGT_PX-IdLoD9Kke8wGaAJx5ZXUO2BkDCaCXmbrD3S9xL3TQdKaeK_HIl02nPPChKoIxj_i7ImtixRBdTqzOIkaQpSnsXoMcGFRiwlGpmQLH-kuekqo2J_vI7S1eo3VtxiAQojh27epOMc2VgyIXXWswpVYyZX1CARE5FpmcAQAtXEAx-4OmyAfKD1jVuoaLxR61yzrciZ3v-hp0VRBhPbUFIHSN3yGF3zyNMHHbFTaQej3iYLMFyi1iO9A8p_7aav35lmmnPNuqNfvE_qBlC_gUqSLhokTgepu8rLyzWFjuPkhof4N-zbkfd_jLRkPke_6TF5eJFr7OxhwIIOuIheueHdXv85TvkbcvUbcvUbcvUbcvUbcvUbcvVzvip8AuLtkPZX0kdNhkuW3lzLi7Vc7zPvag4UdwE04DG_RHyrsynXrnnEarNjU_VLei6oX1Dv7eEe8Ix8N0M3OyzxW9KPmIYeMqJRIe_fa24VLHIv45tp9fE3wAiHxyswOWT2bKECOwb-3JuuQ7QPiBj6xeMVVP65g8FIhL1lTJ7gDKs-0-Jo5yBVHbuK7hqTSoHKS2LV_0000]--></g></svg>