<?xml version="1.0" encoding="us-ascii" standalone="no"?><svg xmlns="http://www.w3.org/2000/svg" xmlns:xlink="http://www.w3.org/1999/xlink" contentStyleType="text/css" height="619px" preserveAspectRatio="none" style="width:2060px;height:619px;background:#0B58A8;" version="1.1" viewBox="0 0 2060 619" width="2060px" zoomAndPan="magnify"><defs/><g><rect fill="#0B58A8" height="619" style="stroke:none;stroke-width:1.0;" width="2060" x="0" y="0"/><text fill="#FFFFFF" font-family="Verdana" font-size="22" font-weight="bold" lengthAdjust="spacing" textLength="194" x="928.5" y="37.1182">Server Package</text><!--cluster RPC--><g id="cluster_RPC"><path d="M13.5,58.7373 L46.5,58.7373 A3.75,3.75 0 0 1 49,61.2373 L56,81.752 L1812.5,81.752 A2.5,2.5 0 0 1 1815,84.252 L1815,581.2373 A2.5,2.5 0 0 1 1812.5,583.7373 L13.5,583.7373 A2.5,2.5 0 0 1 11,581.2373 L11,61.2373 A2.5,2.5 0 0 1 13.5,58.7373 " fill="#0B58A8" style="stroke:#FFFFFF;stroke-width:1.0;"/><line style="stroke:#FFFFFF;stroke-width:1.0;" x1="11" x2="56" y1="81.752" y2="81.752"/><text fill="#FFFFFF" font-family="Verdana" font-size="14" font-weight="bold" lengthAdjust="spacing" textLength="32" x="15" y="74.8125">RPC</text></g><!--cluster server--><g id="cluster_server"><path d="M37.5,102.7373 L87.5,102.7373 A3.75,3.75 0 0 1 90,105.2373 L97,125.752 L1788.5,125.752 A2.5,2.5 0 0 1 1791,128.252 L1791,557.2373 A2.5,2.5 0 0 1 1788.5,559.7373 L37.5,559.7373 A2.5,2.5 0 0 1 35,557.2373 L35,105.2373 A2.5,2.5 0 0 1 37.5,102.7373 " fill="#0B58A8" style="stroke:#FFFFFF;stroke-width:1.0;"/><line style="stroke:#FFFFFF;stroke-width:1.0;" x1="35" x2="97" y1="125.752" y2="125.752"/><text fill="#FFFFFF" font-family="Verdana" font-size="14" font-weight="bold" lengthAdjust="spacing" textLength="49" x="39" y="118.8125">server</text></g><!--cluster Raft--><g id="cluster_Raft"><path d="M1841.5,145.2373 L1874.5,145.2373 A3.75,3.75 0 0 1 1877,147.7373 L1884,168.252 L2050.5,168.252 A2.5,2.5 0 0 1 2053,170.752 L2053,238.7373 A2.5,2.5 0 0 1 2050.5,241.2373 L1841.5,241.2373 A2.5,2.5 0 0 1 1839,238.7373 L1839,147.7373 A2.5,2.5 0 0 1 1841.5,145.2373 " fill="#0B58A8" style="stroke:#FFFFFF;stroke-width:1.0;"/><line style="stroke:#FFFFFF;stroke-width:1.0;" x1="1839" x2="1884" y1="168.252" y2="168.252"/><text fill="#FFFFFF" font-family="Verdana" font-size="14" font-weight="bold" lengthAdjust="spacing" textLength="32" x="1843" y="161.3125">Raft</text></g><!--class server--><g id="elem_server"><rect codeLine="6" fill="#0B58A8" height="129.0732" id="server" rx="2.5" ry="2.5" style="stroke:#FFFFFF;stroke-width:1.0;" width="295" x="897.5" y="138.7373"/><ellipse cx="1013.75" cy="152.7373" fill="#0B58A8" rx="9" ry="9" style="stroke:#FFFFFF;stroke-width:1.0;"/><path d="M1008.8594,154.7842 L1011.25,154.5498 Q1011.4688,155.7529 1012.125,156.3154 Q1012.7969,156.8779 1013.9063,156.8779 Q1015.0938,156.8779 1015.6875,156.3779 Q1016.2969,155.8779 1016.2969,155.2061 Q1016.2969,154.7686 1016.0469,154.4717 Q1015.7969,154.1592 1015.1719,153.9404 Q1014.7344,153.7842 1013.2031,153.4092 Q1011.2188,152.9248 1010.4219,152.2061 Q1009.2969,151.2061 1009.2969,149.7529 Q1009.2969,148.8311 1009.8281,148.0186 Q1010.3594,147.2061 1011.3438,146.7842 Q1012.3438,146.3623 1013.75,146.3623 Q1016.0313,146.3623 1017.1875,147.3623 Q1018.3594,148.3623 1018.4063,150.0498 L1015.9531,150.1592 Q1015.7969,149.2217 1015.2813,148.8154 Q1014.7656,148.3936 1013.7188,148.3936 Q1012.6563,148.3936 1012.0469,148.8311 Q1011.6563,149.1123 1011.6563,149.5967 Q1011.6563,150.0186 1012.0156,150.3311 Q1012.4844,150.7217 1014.2656,151.1436 Q1016.0625,151.5654 1016.9219,152.0186 Q1017.7813,152.4717 1018.2656,153.2529 Q1018.7656,154.0342 1018.7656,155.1904 Q1018.7656,156.2373 1018.1719,157.1592 Q1017.5938,158.0654 1016.5313,158.5186 Q1015.4688,158.9561 1013.8906,158.9561 Q1011.5781,158.9561 1010.3438,157.8936 Q1009.1094,156.8154 1008.8594,154.7842 Z " fill="#FFFFFF"/><text fill="#FFFFFF" font-family="Verdana" font-size="14" lengthAdjust="spacing" textLength="44" x="1031.25" y="158.3052">server</text><rect fill="#0B58A8" height="16.584" style="stroke:#FFFFFF;stroke-width:1.0;stroke-dasharray:2.0,2.0;" width="9" x="1186.5" y="135.7373"/><text fill="#FFFFFF" font-family="Verdana" font-size="12" font-style="italic" lengthAdjust="spacing" textLength="7" x="1187.5" y="148.8018">T</text><line style="stroke:#FFFFFF;stroke-width:1.0;" x1="898.5" x2="1191.5" y1="166.7373" y2="166.7373"/><rect fill="none" height="6" style="stroke:#FFFFFF;stroke-width:1.0;" width="6" x="905.5" y="177.7446"/><text fill="#FFFFFF" font-family="Verdana" font-size="14" lengthAdjust="spacing" textLength="271" x="915.5" y="184.8125">clientById: map[int64]*clientState&lt;T&gt;</text><rect fill="none" height="6" style="stroke:#FFFFFF;stroke-width:1.0;" width="6" x="905.5" y="194.7593"/><text fill="#FFFFFF" font-family="Verdana" font-size="14" lengthAdjust="spacing" textLength="145" x="915.5" y="201.8271">data: DataStore&lt;T&gt;</text><rect fill="none" height="6" style="stroke:#FFFFFF;stroke-width:1.0;" width="6" x="905.5" y="211.7739"/><text fill="#FFFFFF" font-family="Verdana" font-size="14" lengthAdjust="spacing" textLength="65" x="915.5" y="218.8418">raft: Raft</text><rect fill="none" height="6" style="stroke:#FFFFFF;stroke-width:1.0;" width="6" x="905.5" y="228.7886"/><text fill="#FFFFFF" font-family="Verdana" font-size="14" lengthAdjust="spacing" textLength="187" x="915.5" y="235.8564">raftPersister: RaftPersister</text><rect fill="none" height="6" style="stroke:#FFFFFF;stroke-width:1.0;" width="6" x="905.5" y="245.8032"/><text fill="#FFFFFF" font-family="Verdana" font-size="14" lengthAdjust="spacing" textLength="202" x="915.5" y="252.8711">applyCh: chan raft.ApplyMsg</text><line style="stroke:#FFFFFF;stroke-width:1.0;" x1="898.5" x2="1191.5" y1="259.8105" y2="259.8105"/></g><!--class Server--><g id="elem_Server"><rect codeLine="13" fill="#0B58A8" height="78.0293" id="Server" rx="2.5" ry="2.5" style="stroke:#FFFFFF;stroke-width:1.0;" width="491" x="303.5" y="344.7373"/><ellipse cx="517.25" cy="358.7373" fill="#0B58A8" rx="9" ry="9" style="stroke:#FFFFFF;stroke-width:1.0;"/><path d="M516.4063,364.7373 L516.4063,352.5654 L518.875,352.5654 L518.875,364.7373 L516.4063,364.7373 Z " fill="#FFFFFF"/><text fill="#FFFFFF" font-family="Verdana" font-size="14" font-style="italic" lengthAdjust="spacing" textLength="45" x="534.75" y="364.3052">Server</text><rect fill="#0B58A8" height="16.584" style="stroke:#FFFFFF;stroke-width:1.0;stroke-dasharray:2.0,2.0;" width="9" x="788.5" y="341.7373"/><text fill="#FFFFFF" font-family="Verdana" font-size="12" font-style="italic" lengthAdjust="spacing" textLength="7" x="789.5" y="354.8018">T</text><line style="stroke:#FFFFFF;stroke-width:1.0;" x1="304.5" x2="793.5" y1="372.7373" y2="372.7373"/><line style="stroke:#FFFFFF;stroke-width:1.0;" x1="304.5" x2="793.5" y1="380.7373" y2="380.7373"/><ellipse cx="314.5" cy="394.7446" fill="#0B58A8" rx="3" ry="3" style="stroke:#FFFFFF;stroke-width:1.0;"/><text fill="#FFFFFF" font-family="Verdana" font-size="14" lengthAdjust="spacing" textLength="467" x="321.5" y="398.8125">WaitCommand(msgId int64, op operation.Provider) (T, rpcErr.Err)</text><ellipse cx="314.5" cy="411.7593" fill="#0B58A8" rx="3" ry="3" style="stroke:#FFFFFF;stroke-width:1.0;"/><text fill="#FFFFFF" font-family="Verdana" font-size="14" lengthAdjust="spacing" textLength="31" x="321.5" y="415.8271">Kill()</text></g><!--class DataStore--><g id="elem_DataStore"><rect codeLine="17" fill="#0B58A8" height="112.0586" id="DataStore" rx="2.5" ry="2.5" style="stroke:#FFFFFF;stroke-width:1.0;" width="431" x="829.5" y="327.7373"/><ellipse cx="1000.25" cy="341.7373" fill="#0B58A8" rx="9" ry="9" style="stroke:#FFFFFF;stroke-width:1.0;"/><path d="M999.4063,347.7373 L999.4063,335.5654 L1001.875,335.5654 L1001.875,347.7373 L999.4063,347.7373 Z " fill="#FFFFFF"/><text fill="#FFFFFF" font-family="Verdana" font-size="14" font-style="italic" lengthAdjust="spacing" textLength="71" x="1017.75" y="347.3052">DataStore</text><rect fill="#0B58A8" height="16.584" style="stroke:#FFFFFF;stroke-width:1.0;stroke-dasharray:2.0,2.0;" width="9" x="1254.5" y="324.7373"/><text fill="#FFFFFF" font-family="Verdana" font-size="12" font-style="italic" lengthAdjust="spacing" textLength="7" x="1255.5" y="337.8018">T</text><line style="stroke:#FFFFFF;stroke-width:1.0;" x1="830.5" x2="1259.5" y1="355.7373" y2="355.7373"/><line style="stroke:#FFFFFF;stroke-width:1.0;" x1="830.5" x2="1259.5" y1="363.7373" y2="363.7373"/><ellipse cx="840.5" cy="377.7446" fill="#0B58A8" rx="3" ry="3" style="stroke:#FFFFFF;stroke-width:1.0;"/><text fill="#FFFFFF" font-family="Verdana" font-size="14" lengthAdjust="spacing" textLength="287" x="847.5" y="381.8125">Operation(provider operation.Provider) T</text><ellipse cx="840.5" cy="394.7593" fill="#0B58A8" rx="3" ry="3" style="stroke:#FFFFFF;stroke-width:1.0;"/><text fill="#FFFFFF" font-family="Verdana" font-size="14" lengthAdjust="spacing" textLength="188" x="847.5" y="398.8271">GetSnapshot() interface{}</text><ellipse cx="840.5" cy="411.7739" fill="#0B58A8" rx="3" ry="3" style="stroke:#FFFFFF;stroke-width:1.0;"/><text fill="#FFFFFF" font-family="Verdana" font-size="14" lengthAdjust="spacing" textLength="228" x="847.5" y="415.8418">LoadFormSnapshot(interface{})</text><ellipse cx="840.5" cy="428.7886" fill="#0B58A8" rx="3" ry="3" style="stroke:#FFFFFF;stroke-width:1.0;"/><text fill="#FFFFFF" font-family="Verdana" font-size="14" lengthAdjust="spacing" textLength="407" x="847.5" y="432.8564">DebugLog(name string, msg string, details ...interface{})</text></g><!--class Raft--><g id="elem_Raft"><rect codeLine="24" fill="#0B58A8" height="95.0439" id="Raft" rx="2.5" ry="2.5" style="stroke:#FFFFFF;stroke-width:1.0;" width="289" x="1485.5" y="336.2373"/><ellipse cx="1611.75" cy="350.2373" fill="#0B58A8" rx="9" ry="9" style="stroke:#FFFFFF;stroke-width:1.0;"/><path d="M1610.9063,356.2373 L1610.9063,344.0654 L1613.375,344.0654 L1613.375,356.2373 L1610.9063,356.2373 Z " fill="#FFFFFF"/><text fill="#FFFFFF" font-family="Verdana" font-size="14" font-style="italic" lengthAdjust="spacing" textLength="29" x="1629.25" y="355.8052">Raft</text><line style="stroke:#FFFFFF;stroke-width:1.0;" x1="1486.5" x2="1773.5" y1="364.2373" y2="364.2373"/><line style="stroke:#FFFFFF;stroke-width:1.0;" x1="1486.5" x2="1773.5" y1="372.2373" y2="372.2373"/><ellipse cx="1496.5" cy="386.2446" fill="#0B58A8" rx="3" ry="3" style="stroke:#FFFFFF;stroke-width:1.0;"/><text fill="#FFFFFF" font-family="Verdana" font-size="14" lengthAdjust="spacing" textLength="241" x="1503.5" y="390.3125">Start(c interface{}) (int, int, bool)</text><ellipse cx="1496.5" cy="403.2593" fill="#0B58A8" rx="3" ry="3" style="stroke:#FFFFFF;stroke-width:1.0;"/><text fill="#FFFFFF" font-family="Verdana" font-size="14" lengthAdjust="spacing" textLength="265" x="1503.5" y="407.3271">Snapshot(index int, snapshot []byte)</text><ellipse cx="1496.5" cy="420.2739" fill="#0B58A8" rx="3" ry="3" style="stroke:#FFFFFF;stroke-width:1.0;"/><text fill="#FFFFFF" font-family="Verdana" font-size="14" lengthAdjust="spacing" textLength="31" x="1503.5" y="424.3418">Kill()</text></g><!--class RaftPersister--><g id="elem_RaftPersister"><rect codeLine="30" fill="#0B58A8" height="61.0146" id="RaftPersister" rx="2.5" ry="2.5" style="stroke:#FFFFFF;stroke-width:1.0;" width="155" x="1295.5" y="353.2373"/><ellipse cx="1325.6" cy="367.2373" fill="#0B58A8" rx="9" ry="9" style="stroke:#FFFFFF;stroke-width:1.0;"/><path d="M1324.7563,373.2373 L1324.7563,361.0654 L1327.225,361.0654 L1327.225,373.2373 L1324.7563,373.2373 Z " fill="#FFFFFF"/><text fill="#FFFFFF" font-family="Verdana" font-size="14" font-style="italic" lengthAdjust="spacing" textLength="89" x="1341.4" y="372.8052">RaftPersister</text><line style="stroke:#FFFFFF;stroke-width:1.0;" x1="1296.5" x2="1449.5" y1="381.2373" y2="381.2373"/><line style="stroke:#FFFFFF;stroke-width:1.0;" x1="1296.5" x2="1449.5" y1="389.2373" y2="389.2373"/><ellipse cx="1306.5" cy="403.2446" fill="#0B58A8" rx="3" ry="3" style="stroke:#FFFFFF;stroke-width:1.0;"/><text fill="#FFFFFF" font-family="Verdana" font-size="14" lengthAdjust="spacing" textLength="131" x="1313.5" y="407.3125">RaftStateSize() int</text></g><!--class clientState--><g id="elem_clientState"><rect codeLine="34" fill="#0B58A8" height="61.0146" id="clientState" rx="2.5" ry="2.5" style="stroke:#FFFFFF;stroke-width:1.0;" width="217" x="51.5" y="353.2373"/><ellipse cx="113.75" cy="367.2373" fill="#0B58A8" rx="9" ry="9" style="stroke:#FFFFFF;stroke-width:1.0;"/><path d="M108.8594,369.2842 L111.25,369.0498 Q111.4688,370.2529 112.125,370.8154 Q112.7969,371.3779 113.9063,371.3779 Q115.0938,371.3779 115.6875,370.8779 Q116.2969,370.3779 116.2969,369.7061 Q116.2969,369.2686 116.0469,368.9717 Q115.7969,368.6592 115.1719,368.4404 Q114.7344,368.2842 113.2031,367.9092 Q111.2188,367.4248 110.4219,366.7061 Q109.2969,365.7061 109.2969,364.2529 Q109.2969,363.3311 109.8281,362.5186 Q110.3594,361.7061 111.3438,361.2842 Q112.3438,360.8623 113.75,360.8623 Q116.0313,360.8623 117.1875,361.8623 Q118.3594,362.8623 118.4063,364.5498 L115.9531,364.6592 Q115.7969,363.7217 115.2813,363.3154 Q114.7656,362.8936 113.7188,362.8936 Q112.6563,362.8936 112.0469,363.3311 Q111.6563,363.6123 111.6563,364.0967 Q111.6563,364.5186 112.0156,364.8311 Q112.4844,365.2217 114.2656,365.6436 Q116.0625,366.0654 116.9219,366.5186 Q117.7813,366.9717 118.2656,367.7529 Q118.7656,368.5342 118.7656,369.6904 Q118.7656,370.7373 118.1719,371.6592 Q117.5938,372.5654 116.5313,373.0186 Q115.4688,373.4561 113.8906,373.4561 Q111.5781,373.4561 110.3438,372.3936 Q109.1094,371.3154 108.8594,369.2842 Z " fill="#FFFFFF"/><text fill="#FFFFFF" font-family="Verdana" font-size="14" lengthAdjust="spacing" textLength="74" x="131.25" y="372.8052">clientState</text><rect fill="#0B58A8" height="16.584" style="stroke:#FFFFFF;stroke-width:1.0;stroke-dasharray:2.0,2.0;" width="9" x="262.5" y="350.2373"/><text fill="#FFFFFF" font-family="Verdana" font-size="12" font-style="italic" lengthAdjust="spacing" textLength="7" x="263.5" y="363.3018">T</text><line style="stroke:#FFFFFF;stroke-width:1.0;" x1="52.5" x2="267.5" y1="381.2373" y2="381.2373"/><rect fill="none" height="6" style="stroke:#FFFFFF;stroke-width:1.0;" width="6" x="59.5" y="392.2446"/><text fill="#FFFFFF" font-family="Verdana" font-size="14" lengthAdjust="spacing" textLength="193" x="69.5" y="399.3125">waiter:*OperationWaiter[T]</text><line style="stroke:#FFFFFF;stroke-width:1.0;" x1="52.5" x2="267.5" y1="406.252" y2="406.252"/></g><!--class operationWaiter--><g id="elem_operationWaiter"><rect codeLine="38" fill="#0B58A8" height="44" id="operationWaiter" rx="2.5" ry="2.5" style="stroke:#FFFFFF;stroke-width:1.0;" width="152" x="84" y="499.7373"/><ellipse cx="97" cy="513.7373" fill="#0B58A8" rx="9" ry="9" style="stroke:#FFFFFF;stroke-width:1.0;"/><path d="M92.1094,515.7842 L94.5,515.5498 Q94.7188,516.7529 95.375,517.3154 Q96.0469,517.8779 97.1563,517.8779 Q98.3438,517.8779 98.9375,517.3779 Q99.5469,516.8779 99.5469,516.2061 Q99.5469,515.7686 99.2969,515.4717 Q99.0469,515.1592 98.4219,514.9404 Q97.9844,514.7842 96.4531,514.4092 Q94.4688,513.9248 93.6719,513.2061 Q92.5469,512.2061 92.5469,510.7529 Q92.5469,509.8311 93.0781,509.0186 Q93.6094,508.2061 94.5938,507.7842 Q95.5938,507.3623 97,507.3623 Q99.2813,507.3623 100.4375,508.3623 Q101.6094,509.3623 101.6563,511.0498 L99.2031,511.1592 Q99.0469,510.2217 98.5313,509.8154 Q98.0156,509.3936 96.9688,509.3936 Q95.9063,509.3936 95.2969,509.8311 Q94.9063,510.1123 94.9063,510.5967 Q94.9063,511.0186 95.2656,511.3311 Q95.7344,511.7217 97.5156,512.1436 Q99.3125,512.5654 100.1719,513.0186 Q101.0313,513.4717 101.5156,514.2529 Q102.0156,515.0342 102.0156,516.1904 Q102.0156,517.2373 101.4219,518.1592 Q100.8438,519.0654 99.7813,519.5186 Q98.7188,519.9561 97.1406,519.9561 Q94.8281,519.9561 93.5938,518.8936 Q92.3594,517.8154 92.1094,515.7842 Z " fill="#FFFFFF"/><text fill="#FFFFFF" font-family="Verdana" font-size="14" lengthAdjust="spacing" textLength="113" x="109" y="519.3052">operationWaiter</text><rect fill="#0B58A8" height="16.584" style="stroke:#FFFFFF;stroke-width:1.0;stroke-dasharray:2.0,2.0;" width="9" x="230" y="496.7373"/><text fill="#FFFFFF" font-family="Verdana" font-size="12" font-style="italic" lengthAdjust="spacing" textLength="7" x="231" y="509.8018">T</text><line style="stroke:#FFFFFF;stroke-width:1.0;" x1="85" x2="235" y1="527.7373" y2="527.7373"/><line style="stroke:#FFFFFF;stroke-width:1.0;" x1="85" x2="235" y1="535.7373" y2="535.7373"/></g><!--class Persister--><g id="elem_Persister"><rect codeLine="56" fill="#0B58A8" height="44" id="Persister" rx="2.5" ry="2.5" style="stroke:#FFFFFF;stroke-width:1.0;" width="89" x="1855.5" y="181.2373"/><ellipse cx="1868.5" cy="195.2373" fill="#0B58A8" rx="9" ry="9" style="stroke:#FFFFFF;stroke-width:1.0;"/><path d="M1863.6094,197.2842 L1866,197.0498 Q1866.2188,198.2529 1866.875,198.8154 Q1867.5469,199.3779 1868.6563,199.3779 Q1869.8438,199.3779 1870.4375,198.8779 Q1871.0469,198.3779 1871.0469,197.7061 Q1871.0469,197.2686 1870.7969,196.9717 Q1870.5469,196.6592 1869.9219,196.4404 Q1869.4844,196.2842 1867.9531,195.9092 Q1865.9688,195.4248 1865.1719,194.7061 Q1864.0469,193.7061 1864.0469,192.2529 Q1864.0469,191.3311 1864.5781,190.5186 Q1865.1094,189.7061 1866.0938,189.2842 Q1867.0938,188.8623 1868.5,188.8623 Q1870.7813,188.8623 1871.9375,189.8623 Q1873.1094,190.8623 1873.1563,192.5498 L1870.7031,192.6592 Q1870.5469,191.7217 1870.0313,191.3154 Q1869.5156,190.8936 1868.4688,190.8936 Q1867.4063,190.8936 1866.7969,191.3311 Q1866.4063,191.6123 1866.4063,192.0967 Q1866.4063,192.5186 1866.7656,192.8311 Q1867.2344,193.2217 1869.0156,193.6436 Q1870.8125,194.0654 1871.6719,194.5186 Q1872.5313,194.9717 1873.0156,195.7529 Q1873.5156,196.5342 1873.5156,197.6904 Q1873.5156,198.7373 1872.9219,199.6592 Q1872.3438,200.5654 1871.2813,201.0186 Q1870.2188,201.4561 1868.6406,201.4561 Q1866.3281,201.4561 1865.0938,200.3936 Q1863.8594,199.3154 1863.6094,197.2842 Z " fill="#FFFFFF"/><text fill="#FFFFFF" font-family="Verdana" font-size="14" lengthAdjust="spacing" textLength="61" x="1880.5" y="200.8052">Persister</text><line style="stroke:#FFFFFF;stroke-width:1.0;" x1="1856.5" x2="1943.5" y1="209.2373" y2="209.2373"/><line style="stroke:#FFFFFF;stroke-width:1.0;" x1="1856.5" x2="1943.5" y1="217.2373" y2="217.2373"/></g><!--class Raft--><g id="elem_Raft"><rect codeLine="59" fill="#0B58A8" height="44" id="Raft" rx="2.5" ry="2.5" style="stroke:#FFFFFF;stroke-width:1.0;" width="57" x="1979.5" y="181.2373"/><ellipse cx="1992.5" cy="195.2373" fill="#0B58A8" rx="9" ry="9" style="stroke:#FFFFFF;stroke-width:1.0;"/><path d="M1987.6094,197.2842 L1990,197.0498 Q1990.2188,198.2529 1990.875,198.8154 Q1991.5469,199.3779 1992.6563,199.3779 Q1993.8438,199.3779 1994.4375,198.8779 Q1995.0469,198.3779 1995.0469,197.7061 Q1995.0469,197.2686 1994.7969,196.9717 Q1994.5469,196.6592 1993.9219,196.4404 Q1993.4844,196.2842 1991.9531,195.9092 Q1989.9688,195.4248 1989.1719,194.7061 Q1988.0469,193.7061 1988.0469,192.2529 Q1988.0469,191.3311 1988.5781,190.5186 Q1989.1094,189.7061 1990.0938,189.2842 Q1991.0938,188.8623 1992.5,188.8623 Q1994.7813,188.8623 1995.9375,189.8623 Q1997.1094,190.8623 1997.1563,192.5498 L1994.7031,192.6592 Q1994.5469,191.7217 1994.0313,191.3154 Q1993.5156,190.8936 1992.4688,190.8936 Q1991.4063,190.8936 1990.7969,191.3311 Q1990.4063,191.6123 1990.4063,192.0967 Q1990.4063,192.5186 1990.7656,192.8311 Q1991.2344,193.2217 1993.0156,193.6436 Q1994.8125,194.0654 1995.6719,194.5186 Q1996.5313,194.9717 1997.0156,195.7529 Q1997.5156,196.5342 1997.5156,197.6904 Q1997.5156,198.7373 1996.9219,199.6592 Q1996.3438,200.5654 1995.2813,201.0186 Q1994.2188,201.4561 1992.6406,201.4561 Q1990.3281,201.4561 1989.0938,200.3936 Q1987.8594,199.3154 1987.6094,197.2842 Z " fill="#FFFFFF"/><text fill="#FFFFFF" font-family="Verdana" font-size="14" lengthAdjust="spacing" textLength="29" x="2004.5" y="200.8052">Raft</text><line style="stroke:#FFFFFF;stroke-width:1.0;" x1="1980.5" x2="2035.5" y1="209.2373" y2="209.2373"/><line style="stroke:#FFFFFF;stroke-width:1.0;" x1="1980.5" x2="2035.5" y1="217.2373" y2="217.2373"/></g><!--reverse link server to clientState--><g id="link_server_clientState"><path codeLine="40" d="M885.4848,218.453 C730.7448,234.603 493.62,266.5873 286,327.7373 C263.68,334.3173 240.08,343.8573 219.42,353.1573 " fill="none" id="server-backto-clientState" style="stroke:#FFFFFF;stroke-width:1.0;"/><polygon fill="none" points="897.42,217.2073,891.0372,213.8517,885.4848,218.453,891.8676,221.8085,897.42,217.2073" style="stroke:#FFFFFF;stroke-width:1.0;"/></g><!--reverse link server to DataStore--><g id="link_server_DataStore"><path codeLine="42" d="M1045,279.9273 C1045,299.4473 1045,308.7573 1045,327.6573 " fill="none" id="server-backto-DataStore" style="stroke:#FFFFFF;stroke-width:1.0;"/><polygon fill="none" points="1045,267.9273,1041,273.9273,1045,279.9273,1049,273.9273,1045,267.9273" style="stroke:#FFFFFF;stroke-width:1.0;"/></g><!--reverse link server to Raft--><g id="link_server_Raft"><path codeLine="44" d="M1204.3183,248.9838 C1285.7683,272.2538 1376.99,299.0173 1468,327.7373 C1476.5,330.4173 1485.23,333.2273 1494.02,336.0973 " fill="none" id="server-backto-Raft" style="stroke:#FFFFFF;stroke-width:1.0;"/><polygon fill="none" points="1192.78,245.6873,1197.4503,251.1817,1204.3183,248.9838,1199.648,243.4894,1192.78,245.6873" style="stroke:#FFFFFF;stroke-width:1.0;"/></g><!--reverse link server to RaftPersister--><g id="link_server_RaftPersister"><path codeLine="46" d="M1177.605,273.4129 C1213.505,292.4229 1242.16,307.8773 1278,327.7373 C1292.5,335.7773 1308.12,344.6973 1322.42,352.9873 " fill="none" id="server-backto-RaftPersister" style="stroke:#FFFFFF;stroke-width:1.0;"/><polygon fill="none" points="1167,267.7973,1170.4306,274.1401,1177.605,273.4129,1174.1743,267.0701,1167,267.7973" style="stroke:#FFFFFF;stroke-width:1.0;"/></g><!--link server to Server--><g id="link_server_Server"><path codeLine="48" d="M897.19,257.4273 C819.25,285.4773 742.3672,313.1538 671.7672,338.5538 " fill="none" id="server-to-Server" style="stroke:#FFFFFF;stroke-width:1.0;"/><polygon fill="none" points="654.83,344.6473,673.7984,344.1995,669.736,332.908,654.83,344.6473" style="stroke:#FFFFFF;stroke-width:1.0;"/></g><!--reverse link clientState to operationWaiter--><g id="link_clientState_operationWaiter"><path codeLine="50" d="M160,426.2473 C160,452.0273 160,476.8173 160,499.7073 " fill="none" id="clientState-backto-operationWaiter" style="stroke:#FFFFFF;stroke-width:1.0;"/><polygon fill="none" points="160,414.2473,156,420.2473,160,426.2473,164,420.2473,160,414.2473" style="stroke:#FFFFFF;stroke-width:1.0;"/></g><!--link Raft to Raft--><g id="link_Raft_Raft"><path codeLine="64" d="M1997.13,225.4373 C1989.09,239.2173 1976.97,256.6173 1962,267.7373 C1907.15,308.4673 1854.0525,330.6401 1792.2125,348.2401 " fill="none" id="Raft-to-Raft" style="stroke:#FFFFFF;stroke-width:1.0;stroke-dasharray:7.0,7.0;"/><polygon fill="none" points="1774.9,353.1673,1793.8549,354.0109,1790.5701,342.4692,1774.9,353.1673" style="stroke:#FFFFFF;stroke-width:1.0;"/></g><!--link Persister to RaftPersister--><g id="link_Persister_RaftPersister"><path codeLine="65" d="M1870.39,225.2673 C1849.22,239.3273 1819.54,257.1373 1791,267.7373 C1654.12,318.5673 1604.95,277.0873 1468,327.7373 C1450.48,334.2173 1447.894,334.5349 1432.314,343.8849 " fill="none" id="Persister-to-RaftPersister" style="stroke:#FFFFFF;stroke-width:1.0;stroke-dasharray:7.0,7.0;"/><polygon fill="none" points="1416.88,353.1473,1435.4015,349.0296,1429.2265,338.7403,1416.88,353.1473" style="stroke:#FFFFFF;stroke-width:1.0;"/></g><text fill="#FFFFFF" font-family="Verdana" font-size="10" lengthAdjust="spacing" textLength="233" x="909" y="604.791">@github.com/ZiRunHua/MIT6.824-6.5840</text><!--SRC=[xLTHJ-Cu47uclyAdUsdtQBQKWhWAeQM5BkorR4KAI8TuS6CtzP7OMSSfTFVwts-SE6dQXcE1ddGFH3GYCvy_ZsS-JsB5b4-HG-MKIZJ0xZtsgFMBcj208Xmm3rjZ8HJuFdbCJUAHxOhWuv_iCkPdCVxOFn_ksmUDPctVtZjerYr3W2u77VJ3sjhAdgEKNvks72LZLndJuV0ejMxLaEipobLxTavQAC3XBUDgltdt8JKx2YiAQ8CbME4MEe6xeuGiE2GUgnQwX7l1CA0oOX6i8lNaZmQ2mz2VTIOjv4umJmROnzhKZpoDcEiR14Fb6BjPhc36DExVq0rcgYE207DI2IBldA0aycqaGlYZ4Yick3sGOie8bLLK6MuZ6RgdKjhmgngMFvZlLwebynKNcKtvDQEjX8QsTAQXWN-cok4uZ2P2LQeef_unD_wUmAGhP9232f0ilXCwYhsUy2eSWpGY9HdtjX6iD_-VK8MP7o7RjbV7pwtbDUagP6k1oafLSOjXGOxWQHibjv4GVXP48K127rD_P6pezcuqKxGid-kJvnB8ej36H6CE-qxJ92t66iakAp7NxGFK7wJr8I_AJMAu7TwjCOXbY9Qjzfhj8MgruXohhbm8guv4xIMsXSuBpbhjxoEZuSHSc30Pk1AYnimjM4I-jO5OBzsig918IolNc4s1av6MVh2JSRODaqDpiDDW4cFgpdbACOkLVAASM9OgwrhfTHYfcK-FB8GaD2w85C7L1eWdHSn9H_X2eb_hxRs3uuF4rnLS6MitkNBhXLRwDPK4SvmOpsQGd1xZznd-v7YtiPUum4hNMRHrE67kFQTHX7OIMnzBZt6aXytXHuGR1r014wcBGvryyxJAK4-iy-Hk-lBpm0d5vAU0QLOpdCw0tWoeqNXcfFxfx8PdnPdMShwItV9AEBfwiETzOeYv85bCVVp8WZYuOKHDq6wzRX2IZgcatAN_nVGH3J7i1x5HsiEFHgHMTC-udY10nrAAXvxmVHQAS9bx0NfAnml42HtZs5Thybr3z0KNKGZzaEJOZeWbWpssmFROcFfGTTZLq1-y6LGZ4ZuZ1SW0kZTpMOYv6c12u4s0Tke5lqE_nReucaeBg2qa5Ecf1JeJJCI39XbZFw85prL4srGtG9r9Q39qANckObEcPacHdjxiRInNgrOMJdbFM4lfl5WOFHsMQG3hevUXZmagozRUahV3fEjJqfd0avljxp9XhLKDGTCbB8xGxyk4FeRD-anUDfE4PAfZ1Py3erZH9rBnCnmEB9mA1TtsTIJTHMjyyTX24tdvMFr-WFrodmnVVaaKSUUkuDdxj8ZCHVb4fTOu99jYzLOEo1KeZRoD9Hxvp7qrnOLuhLw-Zlw2w5DzbwXuljIf5XdVaEBJpwQNRwvbZapin-LC_zghofaw6sCwtHZJ-SQOBjx81A-I3eveIZXyOPTvFmw_7uVVZyFln-7_qt5uuCFNzrM_XwRQ0QV77RjHRpJjtKfNCjIb8xIpZ-gxhMQzLTz37MU8jBjgLJuFUjC6Yk0B4eH0M9H-kW53rVg2fnX1NrCie2sadoh3VXKvfvaHdV8fauBhmwlrvRgVWj2PK4u8ajJW_MQjpLHsJh_kM-Ri0KDTeJz-M-XgsAqTM3tClHZIsKBV9nPyq78bPotKkVW7]--></g></svg>