<?xml version="1.0" encoding="us-ascii" standalone="no"?><svg xmlns="http://www.w3.org/2000/svg" xmlns:xlink="http://www.w3.org/1999/xlink" contentStyleType="text/css" height="498px" preserveAspectRatio="none" style="width:1131px;height:498px;background:#0B58A8;" version="1.1" viewBox="0 0 1131 498" width="1131px" zoomAndPan="magnify"><defs/><g><rect fill="#0B58A8" height="498" style="stroke:none;stroke-width:1.0;" width="1131" x="0" y="0"/><text fill="#FFFFFF" font-family="Verdana" font-size="22" font-weight="bold" lengthAdjust="spacing" textLength="207" x="457.75" y="37.1182">Commit Package</text><!--cluster Commit--><g id="cluster_Commit"><path d="M226,58.7373 L286,58.7373 A3.75,3.75 0 0 1 288.5,61.2373 L295.5,81.752 L1002,81.752 A2.5,2.5 0 0 1 1004.5,84.252 L1004.5,460.2373 A2.5,2.5 0 0 1 1002,462.7373 L226,462.7373 A2.5,2.5 0 0 1 223.5,460.2373 L223.5,61.2373 A2.5,2.5 0 0 1 226,58.7373 " fill="#0B58A8" style="stroke:#FFFFFF;stroke-width:1.0;"/><line style="stroke:#FFFFFF;stroke-width:1.0;" x1="223.5" x2="295.5" y1="81.752" y2="81.752"/><text fill="#FFFFFF" font-family="Verdana" font-size="14" font-weight="bold" lengthAdjust="spacing" textLength="59" x="227.5" y="74.8125">Commit</text></g><!--cluster Node--><g id="cluster_Node"><path d="M1031,84.2373 L1072,84.2373 A3.75,3.75 0 0 1 1074.5,86.7373 L1081.5,107.252 L1122,107.252 A2.5,2.5 0 0 1 1124.5,109.752 L1124.5,177.7373 A2.5,2.5 0 0 1 1122,180.2373 L1031,180.2373 A2.5,2.5 0 0 1 1028.5,177.7373 L1028.5,86.7373 A2.5,2.5 0 0 1 1031,84.2373 " fill="#0B58A8" style="stroke:#FFFFFF;stroke-width:1.0;"/><line style="stroke:#FFFFFF;stroke-width:1.0;" x1="1028.5" x2="1081.5" y1="107.252" y2="107.252"/><text fill="#FFFFFF" font-family="Verdana" font-size="14" font-weight="bold" lengthAdjust="spacing" textLength="40" x="1032.5" y="100.3125">Node</text></g><!--class Raft--><g id="elem_Raft"><rect codeLine="5" fill="#0B58A8" height="112.0586" id="Raft" rx="2.5" ry="2.5" style="stroke:#FFFFFF;stroke-width:1.0;" width="165" x="240" y="292.2373"/><ellipse cx="304.25" cy="306.2373" fill="#0B58A8" rx="9" ry="9" style="stroke:#FFFFFF;stroke-width:1.0;"/><path d="M303.4063,312.2373 L303.4063,300.0654 L305.875,300.0654 L305.875,312.2373 L303.4063,312.2373 Z " fill="#FFFFFF"/><text fill="#FFFFFF" font-family="Verdana" font-size="14" font-style="italic" lengthAdjust="spacing" textLength="29" x="321.75" y="311.8052">Raft</text><line style="stroke:#FFFFFF;stroke-width:1.0;" x1="241" x2="404" y1="320.2373" y2="320.2373"/><line style="stroke:#FFFFFF;stroke-width:1.0;" x1="241" x2="404" y1="328.2373" y2="328.2373"/><ellipse cx="251" cy="342.2446" fill="#0B58A8" rx="3" ry="3" style="stroke:#FFFFFF;stroke-width:1.0;"/><text fill="#FFFFFF" font-family="Verdana" font-size="14" lengthAdjust="spacing" textLength="122" x="258" y="346.3125">ApplyCommand()</text><ellipse cx="251" cy="359.2593" fill="#0B58A8" rx="3" ry="3" style="stroke:#FFFFFF;stroke-width:1.0;"/><text fill="#FFFFFF" font-family="Verdana" font-size="14" lengthAdjust="spacing" textLength="119" x="258" y="363.3271">ApplySnapshot()</text><ellipse cx="251" cy="376.2739" fill="#0B58A8" rx="3" ry="3" style="stroke:#FFFFFF;stroke-width:1.0;"/><text fill="#FFFFFF" font-family="Verdana" font-size="14" lengthAdjust="spacing" textLength="141" x="258" y="380.3418">UpdateApplyIndex()</text><ellipse cx="251" cy="393.2886" fill="#0B58A8" rx="3" ry="3" style="stroke:#FFFFFF;stroke-width:1.0;"/><text fill="#FFFFFF" font-family="Verdana" font-size="14" lengthAdjust="spacing" textLength="59" x="258" y="397.3564">Persist()</text></g><!--class Manager--><g id="elem_Manager"><rect codeLine="11" fill="#0B58A8" height="197.1318" id="Manager" rx="2.5" ry="2.5" style="stroke:#FFFFFF;stroke-width:1.0;" width="164" x="440.5" y="249.7373"/><ellipse cx="488.75" cy="263.7373" fill="#0B58A8" rx="9" ry="9" style="stroke:#FFFFFF;stroke-width:1.0;"/><path d="M487.9063,269.7373 L487.9063,257.5654 L490.375,257.5654 L490.375,269.7373 L487.9063,269.7373 Z " fill="#FFFFFF"/><text fill="#FFFFFF" font-family="Verdana" font-size="14" font-style="italic" lengthAdjust="spacing" textLength="60" x="506.25" y="269.3052">Manager</text><line style="stroke:#FFFFFF;stroke-width:1.0;" x1="441.5" x2="603.5" y1="277.7373" y2="277.7373"/><line style="stroke:#FFFFFF;stroke-width:1.0;" x1="441.5" x2="603.5" y1="285.7373" y2="285.7373"/><ellipse cx="451.5" cy="299.7446" fill="#0B58A8" rx="3" ry="3" style="stroke:#FFFFFF;stroke-width:1.0;"/><text fill="#FFFFFF" font-family="Verdana" font-size="14" lengthAdjust="spacing" textLength="66" x="458.5" y="303.8125">Append()</text><ellipse cx="451.5" cy="316.7593" fill="#0B58A8" rx="3" ry="3" style="stroke:#FFFFFF;stroke-width:1.0;"/><text fill="#FFFFFF" font-family="Verdana" font-size="14" lengthAdjust="spacing" textLength="93" x="458.5" y="320.8271">SyncStatus()</text><ellipse cx="451.5" cy="333.7739" fill="#0B58A8" rx="3" ry="3" style="stroke:#FFFFFF;stroke-width:1.0;"/><text fill="#FFFFFF" font-family="Verdana" font-size="14" lengthAdjust="spacing" textLength="85" x="458.5" y="337.8418">SyncApply()</text><ellipse cx="451.5" cy="350.7886" fill="#0B58A8" rx="3" ry="3" style="stroke:#FFFFFF;stroke-width:1.0;"/><text fill="#FFFFFF" font-family="Verdana" font-size="14" lengthAdjust="spacing" textLength="101" x="458.5" y="354.8564">GetLogEntry()</text><ellipse cx="451.5" cy="367.8032" fill="#0B58A8" rx="3" ry="3" style="stroke:#FFFFFF;stroke-width:1.0;"/><text fill="#FFFFFF" font-family="Verdana" font-size="14" lengthAdjust="spacing" textLength="130" x="458.5" y="371.8711">UpdateSnapshot()</text><ellipse cx="451.5" cy="384.8179" fill="#0B58A8" rx="3" ry="3" style="stroke:#FFFFFF;stroke-width:1.0;"/><text fill="#FFFFFF" font-family="Verdana" font-size="14" lengthAdjust="spacing" textLength="140" x="458.5" y="388.8857">GetPersistentData()</text><ellipse cx="451.5" cy="401.8325" fill="#0B58A8" rx="3" ry="3" style="stroke:#FFFFFF;stroke-width:1.0;"/><text fill="#FFFFFF" font-family="Verdana" font-size="14" lengthAdjust="spacing" textLength="46" x="458.5" y="405.9004">Load()</text><ellipse cx="451.5" cy="418.8472" fill="#0B58A8" rx="3" ry="3" style="stroke:#FFFFFF;stroke-width:1.0;"/><text fill="#FFFFFF" font-family="Verdana" font-size="14" lengthAdjust="spacing" textLength="48" x="458.5" y="422.915">Start()</text><ellipse cx="451.5" cy="435.8618" fill="#0B58A8" rx="3" ry="3" style="stroke:#FFFFFF;stroke-width:1.0;"/><text fill="#FFFFFF" font-family="Verdana" font-size="14" lengthAdjust="spacing" textLength="46" x="458.5" y="439.9297">Stop()</text></g><!--class Follower--><g id="elem_Follower"><rect codeLine="22" fill="#0B58A8" height="163.1025" id="Follower" rx="2.5" ry="2.5" style="stroke:#FFFFFF;stroke-width:1.0;" width="159" x="829" y="266.7373"/><ellipse cx="875.25" cy="280.7373" fill="#0B58A8" rx="9" ry="9" style="stroke:#FFFFFF;stroke-width:1.0;"/><path d="M874.4063,286.7373 L874.4063,274.5654 L876.875,274.5654 L876.875,286.7373 L874.4063,286.7373 Z " fill="#FFFFFF"/><text fill="#FFFFFF" font-family="Verdana" font-size="14" font-style="italic" lengthAdjust="spacing" textLength="59" x="892.75" y="286.3052">Follower</text><line style="stroke:#FFFFFF;stroke-width:1.0;" x1="830" x2="987" y1="294.7373" y2="294.7373"/><line style="stroke:#FFFFFF;stroke-width:1.0;" x1="830" x2="987" y1="302.7373" y2="302.7373"/><ellipse cx="840" cy="316.7446" fill="#0B58A8" rx="3" ry="3" style="stroke:#FFFFFF;stroke-width:1.0;"/><text fill="#FFFFFF" font-family="Verdana" font-size="14" lengthAdjust="spacing" textLength="84" x="847" y="320.8125">SyncState()</text><ellipse cx="840" cy="333.7593" fill="#0B58A8" rx="3" ry="3" style="stroke:#FFFFFF;stroke-width:1.0;"/><text fill="#FFFFFF" font-family="Verdana" font-size="14" lengthAdjust="spacing" textLength="130" x="847" y="337.8271">GetPrepareIndex()</text><ellipse cx="840" cy="350.7739" fill="#0B58A8" rx="3" ry="3" style="stroke:#FFFFFF;stroke-width:1.0;"/><text fill="#FFFFFF" font-family="Verdana" font-size="14" lengthAdjust="spacing" textLength="119" x="847" y="354.8418">PrepareCommit()</text><ellipse cx="840" cy="367.7886" fill="#0B58A8" rx="3" ry="3" style="stroke:#FFFFFF;stroke-width:1.0;"/><text fill="#FFFFFF" font-family="Verdana" font-size="14" lengthAdjust="spacing" textLength="121" x="847" y="371.8564">ConfirmCommit()</text><ellipse cx="840" cy="384.8032" fill="#0B58A8" rx="3" ry="3" style="stroke:#FFFFFF;stroke-width:1.0;"/><text fill="#FFFFFF" font-family="Verdana" font-size="14" lengthAdjust="spacing" textLength="103" x="847" y="388.8711">GetLogIndex()</text><ellipse cx="840" cy="401.8179" fill="#0B58A8" rx="3" ry="3" style="stroke:#FFFFFF;stroke-width:1.0;"/><text fill="#FFFFFF" font-family="Verdana" font-size="14" lengthAdjust="spacing" textLength="106" x="847" y="405.8857">AddLogIndex()</text><ellipse cx="840" cy="418.8325" fill="#0B58A8" rx="3" ry="3" style="stroke:#FFFFFF;stroke-width:1.0;"/><text fill="#FFFFFF" font-family="Verdana" font-size="14" lengthAdjust="spacing" textLength="135" x="847" y="422.9004">RollbackLogIndex()</text></g><!--class Manage--><g id="elem_Manage"><rect codeLine="31" fill="#0B58A8" height="95.0439" id="Manage" rx="2.5" ry="2.5" style="stroke:#FFFFFF;stroke-width:1.0;" width="160" x="539.5" y="94.7373"/><ellipse cx="589.25" cy="108.7373" fill="#0B58A8" rx="9" ry="9" style="stroke:#FFFFFF;stroke-width:1.0;"/><path d="M584.3594,110.7842 L586.75,110.5498 Q586.9688,111.7529 587.625,112.3154 Q588.2969,112.8779 589.4063,112.8779 Q590.5938,112.8779 591.1875,112.3779 Q591.7969,111.8779 591.7969,111.2061 Q591.7969,110.7686 591.5469,110.4717 Q591.2969,110.1592 590.6719,109.9404 Q590.2344,109.7842 588.7031,109.4092 Q586.7188,108.9248 585.9219,108.2061 Q584.7969,107.2061 584.7969,105.7529 Q584.7969,104.8311 585.3281,104.0186 Q585.8594,103.2061 586.8438,102.7842 Q587.8438,102.3623 589.25,102.3623 Q591.5313,102.3623 592.6875,103.3623 Q593.8594,104.3623 593.9063,106.0498 L591.4531,106.1592 Q591.2969,105.2217 590.7813,104.8154 Q590.2656,104.3936 589.2188,104.3936 Q588.1563,104.3936 587.5469,104.8311 Q587.1563,105.1123 587.1563,105.5967 Q587.1563,106.0186 587.5156,106.3311 Q587.9844,106.7217 589.7656,107.1436 Q591.5625,107.5654 592.4219,108.0186 Q593.2813,108.4717 593.7656,109.2529 Q594.2656,110.0342 594.2656,111.1904 Q594.2656,112.2373 593.6719,113.1592 Q593.0938,114.0654 592.0313,114.5186 Q590.9688,114.9561 589.3906,114.9561 Q587.0781,114.9561 585.8438,113.8936 Q584.6094,112.8154 584.3594,110.7842 Z " fill="#FFFFFF"/><text fill="#FFFFFF" font-family="Verdana" font-size="14" lengthAdjust="spacing" textLength="53" x="606.75" y="114.3052">Manage</text><line style="stroke:#FFFFFF;stroke-width:1.0;" x1="540.5" x2="698.5" y1="122.7373" y2="122.7373"/><rect fill="none" height="6" style="stroke:#FFFFFF;stroke-width:1.0;" width="6" x="547.5" y="133.7446"/><text fill="#FFFFFF" font-family="Verdana" font-size="14" lengthAdjust="spacing" textLength="59" x="557.5" y="140.8125">raft Raft</text><rect fill="none" height="6" style="stroke:#FFFFFF;stroke-width:1.0;" width="6" x="547.5" y="150.7593"/><text fill="#FFFFFF" font-family="Verdana" font-size="14" lengthAdjust="spacing" textLength="135" x="557.5" y="157.8271">LogStore LogStore</text><rect fill="none" height="6" style="stroke:#FFFFFF;stroke-width:1.0;" width="6" x="547.5" y="167.7739"/><text fill="#FFFFFF" font-family="Verdana" font-size="14" lengthAdjust="spacing" textLength="136" x="557.5" y="174.8418">followers []Follower</text><line style="stroke:#FFFFFF;stroke-width:1.0;" x1="540.5" x2="698.5" y1="181.7813" y2="181.7813"/></g><!--class LogStore--><g id="elem_LogStore"><rect codeLine="36" fill="#0B58A8" height="146.0879" id="LogStore" rx="2.5" ry="2.5" style="stroke:#FFFFFF;stroke-width:1.0;" width="154" x="639.5" y="275.2373"/><ellipse cx="680.25" cy="289.2373" fill="#0B58A8" rx="9" ry="9" style="stroke:#FFFFFF;stroke-width:1.0;"/><path d="M675.3594,291.2842 L677.75,291.0498 Q677.9688,292.2529 678.625,292.8154 Q679.2969,293.3779 680.4063,293.3779 Q681.5938,293.3779 682.1875,292.8779 Q682.7969,292.3779 682.7969,291.7061 Q682.7969,291.2686 682.5469,290.9717 Q682.2969,290.6592 681.6719,290.4404 Q681.2344,290.2842 679.7031,289.9092 Q677.7188,289.4248 676.9219,288.7061 Q675.7969,287.7061 675.7969,286.2529 Q675.7969,285.3311 676.3281,284.5186 Q676.8594,283.7061 677.8438,283.2842 Q678.8438,282.8623 680.25,282.8623 Q682.5313,282.8623 683.6875,283.8623 Q684.8594,284.8623 684.9063,286.5498 L682.4531,286.6592 Q682.2969,285.7217 681.7813,285.3154 Q681.2656,284.8936 680.2188,284.8936 Q679.1563,284.8936 678.5469,285.3311 Q678.1563,285.6123 678.1563,286.0967 Q678.1563,286.5186 678.5156,286.8311 Q678.9844,287.2217 680.7656,287.6436 Q682.5625,288.0654 683.4219,288.5186 Q684.2813,288.9717 684.7656,289.7529 Q685.2656,290.5342 685.2656,291.6904 Q685.2656,292.7373 684.6719,293.6592 Q684.0938,294.5654 683.0313,295.0186 Q681.9688,295.4561 680.3906,295.4561 Q678.0781,295.4561 676.8438,294.3936 Q675.6094,293.3154 675.3594,291.2842 Z " fill="#FFFFFF"/><text fill="#FFFFFF" font-family="Verdana" font-size="14" lengthAdjust="spacing" textLength="65" x="697.75" y="294.8052">LogStore</text><line style="stroke:#FFFFFF;stroke-width:1.0;" x1="640.5" x2="792.5" y1="303.2373" y2="303.2373"/><line style="stroke:#FFFFFF;stroke-width:1.0;" x1="640.5" x2="792.5" y1="311.2373" y2="311.2373"/><ellipse cx="650.5" cy="325.2446" fill="#0B58A8" rx="3" ry="3" style="stroke:#FFFFFF;stroke-width:1.0;"/><text fill="#FFFFFF" font-family="Verdana" font-size="14" lengthAdjust="spacing" textLength="46" x="657.5" y="329.3125">Load()</text><ellipse cx="650.5" cy="342.2593" fill="#0B58A8" rx="3" ry="3" style="stroke:#FFFFFF;stroke-width:1.0;"/><text fill="#FFFFFF" font-family="Verdana" font-size="14" lengthAdjust="spacing" textLength="66" x="657.5" y="346.3271">Append()</text><ellipse cx="650.5" cy="359.2739" fill="#0B58A8" rx="3" ry="3" style="stroke:#FFFFFF;stroke-width:1.0;"/><text fill="#FFFFFF" font-family="Verdana" font-size="14" lengthAdjust="spacing" textLength="46" x="657.5" y="363.3418">Save()</text><ellipse cx="650.5" cy="376.2886" fill="#0B58A8" rx="3" ry="3" style="stroke:#FFFFFF;stroke-width:1.0;"/><text fill="#FFFFFF" font-family="Verdana" font-size="14" lengthAdjust="spacing" textLength="101" x="657.5" y="380.3564">GetLogEntry()</text><ellipse cx="650.5" cy="393.3032" fill="#0B58A8" rx="3" ry="3" style="stroke:#FFFFFF;stroke-width:1.0;"/><text fill="#FFFFFF" font-family="Verdana" font-size="14" lengthAdjust="spacing" textLength="105" x="657.5" y="397.3711">GetSnapshot()</text><ellipse cx="650.5" cy="410.3179" fill="#0B58A8" rx="3" ry="3" style="stroke:#FFFFFF;stroke-width:1.0;"/><text fill="#FFFFFF" font-family="Verdana" font-size="14" lengthAdjust="spacing" textLength="130" x="657.5" y="414.3857">UpdateSnapshot()</text></g><!--class Node--><g id="elem_Node"><rect codeLine="57" fill="#0B58A8" height="44" id="Node" rx="2.5" ry="2.5" style="stroke:#FFFFFF;stroke-width:1.0;" width="64" x="1044.5" y="120.2373"/><ellipse cx="1057.5" cy="134.2373" fill="#0B58A8" rx="9" ry="9" style="stroke:#FFFFFF;stroke-width:1.0;"/><path d="M1056.6563,140.2373 L1056.6563,128.0654 L1059.125,128.0654 L1059.125,140.2373 L1056.6563,140.2373 Z " fill="#FFFFFF"/><text fill="#FFFFFF" font-family="Verdana" font-size="14" font-style="italic" lengthAdjust="spacing" textLength="36" x="1069.5" y="139.8052">Node</text><line style="stroke:#FFFFFF;stroke-width:1.0;" x1="1045.5" x2="1107.5" y1="148.2373" y2="148.2373"/><line style="stroke:#FFFFFF;stroke-width:1.0;" x1="1045.5" x2="1107.5" y1="156.2373" y2="156.2373"/></g><!--class Raft--><g id="elem_Raft"><rect codeLine="50" fill="#0B58A8" height="95.0439" id="Raft" rx="2.5" ry="2.5" style="stroke:#FFFFFF;stroke-width:1.0;" width="195" x="12" y="94.7373"/><ellipse cx="91.25" cy="108.7373" fill="#0B58A8" rx="9" ry="9" style="stroke:#FFFFFF;stroke-width:1.0;"/><path d="M86.3594,110.7842 L88.75,110.5498 Q88.9688,111.7529 89.625,112.3154 Q90.2969,112.8779 91.4063,112.8779 Q92.5938,112.8779 93.1875,112.3779 Q93.7969,111.8779 93.7969,111.2061 Q93.7969,110.7686 93.5469,110.4717 Q93.2969,110.1592 92.6719,109.9404 Q92.2344,109.7842 90.7031,109.4092 Q88.7188,108.9248 87.9219,108.2061 Q86.7969,107.2061 86.7969,105.7529 Q86.7969,104.8311 87.3281,104.0186 Q87.8594,103.2061 88.8438,102.7842 Q89.8438,102.3623 91.25,102.3623 Q93.5313,102.3623 94.6875,103.3623 Q95.8594,104.3623 95.9063,106.0498 L93.4531,106.1592 Q93.2969,105.2217 92.7813,104.8154 Q92.2656,104.3936 91.2188,104.3936 Q90.1563,104.3936 89.5469,104.8311 Q89.1563,105.1123 89.1563,105.5967 Q89.1563,106.0186 89.5156,106.3311 Q89.9844,106.7217 91.7656,107.1436 Q93.5625,107.5654 94.4219,108.0186 Q95.2813,108.4717 95.7656,109.2529 Q96.2656,110.0342 96.2656,111.1904 Q96.2656,112.2373 95.6719,113.1592 Q95.0938,114.0654 94.0313,114.5186 Q92.9688,114.9561 91.3906,114.9561 Q89.0781,114.9561 87.8438,113.8936 Q86.6094,112.8154 86.3594,110.7842 Z " fill="#FFFFFF"/><text fill="#FFFFFF" font-family="Verdana" font-size="14" lengthAdjust="spacing" textLength="29" x="108.75" y="114.3052">Raft</text><line style="stroke:#FFFFFF;stroke-width:1.0;" x1="13" x2="206" y1="122.7373" y2="122.7373"/><rect fill="none" height="6" style="stroke:#FFFFFF;stroke-width:1.0;" width="6" x="20" y="133.7446"/><text fill="#FFFFFF" font-family="Verdana" font-size="14" lengthAdjust="spacing" textLength="171" x="30" y="140.8125">election Election.Election</text><rect fill="none" height="6" style="stroke:#FFFFFF;stroke-width:1.0;" width="6" x="20" y="150.7593"/><text fill="#FFFFFF" font-family="Verdana" font-size="14" lengthAdjust="spacing" textLength="144" x="30" y="157.8271">log Commit.Manager</text><rect fill="none" height="6" style="stroke:#FFFFFF;stroke-width:1.0;" width="6" x="20" y="167.7739"/><text fill="#FFFFFF" font-family="Verdana" font-size="14" lengthAdjust="spacing" textLength="137" x="30" y="174.8418">nodes []Node.Node</text><line style="stroke:#FFFFFF;stroke-width:1.0;" x1="13" x2="206" y1="181.7813" y2="181.7813"/></g><!--reverse link Manage to Raft--><g id="link_Manage_Raft"><path codeLine="44" d="M528.6097,186.0391 C491.9097,204.6691 459.41,223.3973 423.5,249.7373 C406.5,262.2073 389.46,277.3773 374.34,292.0073 " fill="none" id="Manage-backto-Raft" style="stroke:#FFFFFF;stroke-width:1.0;"/><polygon fill="none" points="539.31,180.6073,532.1493,179.7564,528.6097,186.0391,535.7705,186.8899,539.31,180.6073" style="stroke:#FFFFFF;stroke-width:1.0;"/></g><!--reverse link Manage to Follower--><g id="link_Manage_Follower"><path codeLine="45" d="M710.3113,186.7745 C745.9813,205.2845 776.99,223.6473 811.5,249.7373 C818.45,254.9873 825.39,260.7273 832.19,266.7073 " fill="none" id="Manage-backto-Follower" style="stroke:#FFFFFF;stroke-width:1.0;"/><polygon fill="none" points="699.66,181.2473,703.1432,187.5613,710.3113,186.7745,706.828,180.4605,699.66,181.2473" style="stroke:#FFFFFF;stroke-width:1.0;"/></g><!--reverse link Manage to LogStore--><g id="link_Manage_LogStore"><path codeLine="46" d="M646.7854,200.6235 C658.7554,225.7835 668.64,246.5873 682.1,274.8873 " fill="none" id="Manage-backto-LogStore" style="stroke:#FFFFFF;stroke-width:1.0;"/><polygon fill="none" points="641.63,189.7873,640.5956,196.9238,646.7854,200.6235,647.8197,193.4869,641.63,189.7873" style="stroke:#FFFFFF;stroke-width:1.0;"/></g><!--link Manage to Manager--><g id="link_Manage_Manager"><path codeLine="47" d="M597.37,189.7873 C588.87,207.6573 586.554,212.5435 576.614,233.4335 " fill="none" id="Manage-to-Manager" style="stroke:#FFFFFF;stroke-width:1.0;"/><polygon fill="none" points="568.88,249.6873,582.0319,236.0115,571.196,230.8555,568.88,249.6873" style="stroke:#FFFFFF;stroke-width:1.0;"/></g><!--reverse link Raft to Manager--><g id="link_Raft_Manager"><path codeLine="59" d="M218.4451,188.003 C223.9351,190.063 218.16,187.8473 223.5,189.7373 C310.59,220.5473 342.93,202.8173 422.5,249.7373 C428.56,253.3073 434.53,257.3273 440.35,261.6373 " fill="none" id="Raft-backto-Manager" style="stroke:#FFFFFF;stroke-width:1.0;"/><polygon fill="none" points="207.21,183.7873,211.4223,189.6402,218.4451,188.003,214.2328,182.1501,207.21,183.7873" style="stroke:#FFFFFF;stroke-width:1.0;"/></g><!--link Raft to Raft--><g id="link_Raft_Raft"><path codeLine="60" d="M158.1,189.7873 C189.9,220.2373 218.601,247.7264 252.041,279.7564 " fill="none" id="Raft-to-Raft" style="stroke:#FFFFFF;stroke-width:1.0;"/><polygon fill="none" points="265.04,292.2073,256.1913,275.4234,247.8907,284.0894,265.04,292.2073" style="stroke:#FFFFFF;stroke-width:1.0;"/></g><!--link Node to Follower--><g id="link_Node_Follower"><path codeLine="61" d="M1059.15,164.2973 C1039.28,188.4273 1016.9731,215.5229 986.4431,252.5929 " fill="none" id="Node-to-Follower" style="stroke:#FFFFFF;stroke-width:1.0;"/><polygon fill="none" points="975,266.4873,991.0746,256.4073,981.8117,248.7785,975,266.4873" style="stroke:#FFFFFF;stroke-width:1.0;"/></g><text fill="#FFFFFF" font-family="Verdana" font-size="10" lengthAdjust="spacing" textLength="233" x="444.75" y="483.791">@github.com/ZiRunHua/MIT6.824-6.5840</text><!--SRC=[xLTRR-8u57wU_0gFzgNL2aefhRfeD1gWPSe8kgYXNMbN-s2I0tYRs5d7eMLc-Uzpx3WXuRATjkp3IaK2ui_7tpa-jzYAgG18HuGXKsH8lNiw1UUzca48X8PiIfs940ea-JHbQfQCgvu8ZtvdDmc_IkZHe3SwgvxN6vMpwkbve-PO0iltpNdNuxXsGZqWDtIYWNS_arOK1GijGRb_SBY2N4wZU2QKnMuZdoemCptkmwE5Xo1Z5XkXPP5_G3bgbhaAoCdT1VTSHLKI5m33QyUVGVN5z98hkIZfNZC8nQnouEg2Achnlg2vAaMbofz5j65bLmI1UCZCp2o3WWO94PLGsd4AfJwrM4Vm2PDX2KktKLpPylqrv0RrZp58HHWDT9LCF6Lzg6sh48dnCa4p8vJ7_KZ87mmwiRk9oHz_PZihykMhlgqxgXmWEaSFa1snG6HhPXH1L9dQJaIbOgqk02lR2k1g9nQiLFxvcAMHitGSkmcRk1K20NYA2KukxKCrUz2pWPZQjAzc78XouOFspZN-L_MF9iwgH8-HcUNPOGMqHcFY6f_1ZPLsmcmqfovDvLl-X7vs7BMjpDFFXrWj0lZe42AnqZ5K13zj59bAaN2_8m8XoK-rzkbvwzpCTGLN5ksQJuvUK-mQTo1zDDY0Lui8P9_n-qp-edLIFpLJYC8cYqP7C-RTSuXZScom0PLJnebUjiIlBxman0gqbdeqCa59H-iCDOCkpQzjP4yBpe3wFoIOUZMJqnvmsLSWzVeJA_LNUpUwAchQyFcQTxT7mjNH8sCH-9POfvnb7D175YRXRynNCt9Igra92HEGm3tuBzJ7kbbHBAnzqduuiadgnFUCQmKXQKaf7lgOvYmIKPbx9RGhZrSI5p2XIQ0sqdT3OY2uY2CiKp-NxOX4CgonbMoVJI30g6Flm1OrNM0qOX4mlo0on5S4yrX4kHfItsTyIevhXNaN_avqS3ILJg2sa1YaNHjqPzGN3vfaGeCO2ZEtCRH1qTIJsCgWv3piMtEc5YP8kukzJULwrBQPixqdRBXqMGoCLaTbQi3cwhBeev7Al7LQckqmwGNWTsOuyhBwtfPO6r4ZsDfzbiJabp9XGB5Od_3BVfnWLBMKacoSADZXYX_XS77Z81HssvUHT5UjyTbh2qta-Mlr-m7hvTuiBxyaYd8zJ_3ihLcKp9DoHwGsE2IRK_LQ3lGLPfh_EfPa733lnHJNugNvykluBxG-pUyjMRmiTQgLn_UKyUQq-uBYAdDaoTxQplIllMexKsTlJ9TxO-hjZUdwbKpuAkdG65B2qJExpDlzyUt- -7P__9_V7uS17bTl1tqorncCUpYkrclrHlNae2iPwSAO79-HsacpKMlMJad77H4zVUWSV1xsvtKIuv4BxVCnzyrP1naEdIzqJWas0iL2Q18zEXWD3ebxcO7aai-P55pVzfmlTuDKY5m9vKOODoryrgYqyKRhWaJ3oDt0iOTrNEe9VLfiajjHjtBkz2cV9kY59lawS_04g1EaIJhNtm40]--></g></svg>