<?xml version="1.0" encoding="us-ascii" standalone="no"?><svg xmlns="http://www.w3.org/2000/svg" xmlns:xlink="http://www.w3.org/1999/xlink" contentStyleType="text/css" height="388px" preserveAspectRatio="none" style="width:847px;height:388px;background:#0B58A8;" version="1.1" viewBox="0 0 847 388" width="847px" zoomAndPan="magnify"><defs/><g><rect fill="#0B58A8" height="388" style="stroke:none;stroke-width:1.0;" width="847" x="0" y="0"/><text fill="#FFFFFF" font-family="Verdana" font-size="22" font-weight="bold" lengthAdjust="spacing" textLength="212" x="313.25" y="37.1182">Election Package</text><!--cluster Election--><g id="cluster_Election"><path d="M226,58.7373 L288,58.7373 A3.75,3.75 0 0 1 290.5,61.2373 L297.5,81.752 L718,81.752 A2.5,2.5 0 0 1 720.5,84.252 L720.5,349.7373 A2.5,2.5 0 0 1 718,352.2373 L226,352.2373 A2.5,2.5 0 0 1 223.5,349.7373 L223.5,61.2373 A2.5,2.5 0 0 1 226,58.7373 " fill="#0B58A8" style="stroke:#FFFFFF;stroke-width:1.0;"/><line style="stroke:#FFFFFF;stroke-width:1.0;" x1="223.5" x2="297.5" y1="81.752" y2="81.752"/><text fill="#FFFFFF" font-family="Verdana" font-size="14" font-weight="bold" lengthAdjust="spacing" textLength="61" x="227.5" y="74.8125">Election</text></g><!--cluster Node--><g id="cluster_Node"><path d="M747,75.7373 L788,75.7373 A3.75,3.75 0 0 1 790.5,78.2373 L797.5,98.752 L838,98.752 A2.5,2.5 0 0 1 840.5,101.252 L840.5,169.2373 A2.5,2.5 0 0 1 838,171.7373 L747,171.7373 A2.5,2.5 0 0 1 744.5,169.2373 L744.5,78.2373 A2.5,2.5 0 0 1 747,75.7373 " fill="#0B58A8" style="stroke:#FFFFFF;stroke-width:1.0;"/><line style="stroke:#FFFFFF;stroke-width:1.0;" x1="744.5" x2="797.5" y1="98.752" y2="98.752"/><text fill="#FFFFFF" font-family="Verdana" font-size="14" font-weight="bold" lengthAdjust="spacing" textLength="40" x="748.5" y="91.8125">Node</text></g><!--class Election--><g id="elem_Election"><rect codeLine="8" fill="#0B58A8" height="95.0439" id="Election" rx="2.5" ry="2.5" style="stroke:#FFFFFF;stroke-width:1.0;" width="126" x="239.5" y="241.2373"/><ellipse cx="270.95" cy="255.2373" fill="#0B58A8" rx="9" ry="9" style="stroke:#FFFFFF;stroke-width:1.0;"/><path d="M270.1063,261.2373 L270.1063,249.0654 L272.575,249.0654 L272.575,261.2373 L270.1063,261.2373 Z " fill="#FFFFFF"/><text fill="#FFFFFF" font-family="Verdana" font-size="14" font-style="italic" lengthAdjust="spacing" textLength="57" x="287.05" y="260.8052">Election</text><line style="stroke:#FFFFFF;stroke-width:1.0;" x1="240.5" x2="364.5" y1="269.2373" y2="269.2373"/><line style="stroke:#FFFFFF;stroke-width:1.0;" x1="240.5" x2="364.5" y1="277.2373" y2="277.2373"/><ellipse cx="250.5" cy="291.2446" fill="#0B58A8" rx="3" ry="3" style="stroke:#FFFFFF;stroke-width:1.0;"/><text fill="#FFFFFF" font-family="Verdana" font-size="14" lengthAdjust="spacing" textLength="102" x="257.5" y="295.3125">PreVote() bool</text><ellipse cx="250.5" cy="308.2593" fill="#0B58A8" rx="3" ry="3" style="stroke:#FFFFFF;stroke-width:1.0;"/><text fill="#FFFFFF" font-family="Verdana" font-size="14" lengthAdjust="spacing" textLength="32" x="257.5" y="312.3271">Do()</text><ellipse cx="250.5" cy="325.2739" fill="#0B58A8" rx="3" ry="3" style="stroke:#FFFFFF;stroke-width:1.0;"/><text fill="#FFFFFF" font-family="Verdana" font-size="14" lengthAdjust="spacing" textLength="39" x="257.5" y="329.3418">End()</text></g><!--class Candidate--><g id="elem_Candidate"><rect codeLine="13" fill="#0B58A8" height="78.0293" id="Candidate" rx="2.5" ry="2.5" style="stroke:#FFFFFF;stroke-width:1.0;" width="173" x="401" y="249.7373"/><ellipse cx="448.25" cy="263.7373" fill="#0B58A8" rx="9" ry="9" style="stroke:#FFFFFF;stroke-width:1.0;"/><path d="M447.4063,269.7373 L447.4063,257.5654 L449.875,257.5654 L449.875,269.7373 L447.4063,269.7373 Z " fill="#FFFFFF"/><text fill="#FFFFFF" font-family="Verdana" font-size="14" font-style="italic" lengthAdjust="spacing" textLength="71" x="465.75" y="269.3052">Candidate</text><line style="stroke:#FFFFFF;stroke-width:1.0;" x1="402" x2="573" y1="277.7373" y2="277.7373"/><line style="stroke:#FFFFFF;stroke-width:1.0;" x1="402" x2="573" y1="285.7373" y2="285.7373"/><ellipse cx="412" cy="299.7446" fill="#0B58A8" rx="3" ry="3" style="stroke:#FFFFFF;stroke-width:1.0;"/><text fill="#FFFFFF" font-family="Verdana" font-size="14" lengthAdjust="spacing" textLength="149" x="419" y="303.8125">WinElection(term int)</text><ellipse cx="412" cy="316.7593" fill="#0B58A8" rx="3" ry="3" style="stroke:#FFFFFF;stroke-width:1.0;"/><text fill="#FFFFFF" font-family="Verdana" font-size="14" lengthAdjust="spacing" textLength="144" x="419" y="320.8271">FailElection(term int)</text></g><!--class Voter--><g id="elem_Voter"><rect codeLine="17" fill="#0B58A8" height="78.0293" id="Voter" rx="2.5" ry="2.5" style="stroke:#FFFFFF;stroke-width:1.0;" width="95" x="609" y="249.7373"/><ellipse cx="634.6" cy="263.7373" fill="#0B58A8" rx="9" ry="9" style="stroke:#FFFFFF;stroke-width:1.0;"/><path d="M633.7563,269.7373 L633.7563,257.5654 L636.225,257.5654 L636.225,269.7373 L633.7563,269.7373 Z " fill="#FFFFFF"/><text fill="#FFFFFF" font-family="Verdana" font-size="14" font-style="italic" lengthAdjust="spacing" textLength="39" x="649.4" y="269.3052">Voter</text><line style="stroke:#FFFFFF;stroke-width:1.0;" x1="610" x2="703" y1="277.7373" y2="277.7373"/><line style="stroke:#FFFFFF;stroke-width:1.0;" x1="610" x2="703" y1="285.7373" y2="285.7373"/><ellipse cx="620" cy="299.7446" fill="#0B58A8" rx="3" ry="3" style="stroke:#FFFFFF;stroke-width:1.0;"/><text fill="#FFFFFF" font-family="Verdana" font-size="14" lengthAdjust="spacing" textLength="67" x="627" y="303.8125">PreVote()</text><ellipse cx="620" cy="316.7593" fill="#0B58A8" rx="3" ry="3" style="stroke:#FFFFFF;stroke-width:1.0;"/><text fill="#FFFFFF" font-family="Verdana" font-size="14" lengthAdjust="spacing" textLength="71" x="627" y="320.8271">AskVote()</text></g><!--class election--><g id="elem_election"><rect codeLine="21" fill="#0B58A8" height="78.0293" id="election" rx="2.5" ry="2.5" style="stroke:#FFFFFF;stroke-width:1.0;" width="166" x="404.5" y="94.7373"/><ellipse cx="457.25" cy="108.7373" fill="#0B58A8" rx="9" ry="9" style="stroke:#FFFFFF;stroke-width:1.0;"/><path d="M452.3594,110.7842 L454.75,110.5498 Q454.9688,111.7529 455.625,112.3154 Q456.2969,112.8779 457.4063,112.8779 Q458.5938,112.8779 459.1875,112.3779 Q459.7969,111.8779 459.7969,111.2061 Q459.7969,110.7686 459.5469,110.4717 Q459.2969,110.1592 458.6719,109.9404 Q458.2344,109.7842 456.7031,109.4092 Q454.7188,108.9248 453.9219,108.2061 Q452.7969,107.2061 452.7969,105.7529 Q452.7969,104.8311 453.3281,104.0186 Q453.8594,103.2061 454.8438,102.7842 Q455.8438,102.3623 457.25,102.3623 Q459.5313,102.3623 460.6875,103.3623 Q461.8594,104.3623 461.9063,106.0498 L459.4531,106.1592 Q459.2969,105.2217 458.7813,104.8154 Q458.2656,104.3936 457.2188,104.3936 Q456.1563,104.3936 455.5469,104.8311 Q455.1563,105.1123 455.1563,105.5967 Q455.1563,106.0186 455.5156,106.3311 Q455.9844,106.7217 457.7656,107.1436 Q459.5625,107.5654 460.4219,108.0186 Q461.2813,108.4717 461.7656,109.2529 Q462.2656,110.0342 462.2656,111.1904 Q462.2656,112.2373 461.6719,113.1592 Q461.0938,114.0654 460.0313,114.5186 Q458.9688,114.9561 457.3906,114.9561 Q455.0781,114.9561 453.8438,113.8936 Q452.6094,112.8154 452.3594,110.7842 Z " fill="#FFFFFF"/><text fill="#FFFFFF" font-family="Verdana" font-size="14" lengthAdjust="spacing" textLength="53" x="474.75" y="114.3052">election</text><line style="stroke:#FFFFFF;stroke-width:1.0;" x1="405.5" x2="569.5" y1="122.7373" y2="122.7373"/><rect fill="none" height="6" style="stroke:#FFFFFF;stroke-width:1.0;" width="6" x="412.5" y="133.7446"/><text fill="#FFFFFF" font-family="Verdana" font-size="14" lengthAdjust="spacing" textLength="142" x="422.5" y="140.8125">candidate Candidate</text><rect fill="none" height="6" style="stroke:#FFFFFF;stroke-width:1.0;" width="6" x="412.5" y="150.7593"/><text fill="#FFFFFF" font-family="Verdana" font-size="14" lengthAdjust="spacing" textLength="101" x="422.5" y="157.8271">voters []Voter</text><line style="stroke:#FFFFFF;stroke-width:1.0;" x1="405.5" x2="569.5" y1="164.7666" y2="164.7666"/></g><!--class Node--><g id="elem_Node"><rect codeLine="37" fill="#0B58A8" height="44" id="Node" rx="2.5" ry="2.5" style="stroke:#FFFFFF;stroke-width:1.0;" width="64" x="760.5" y="111.7373"/><ellipse cx="773.5" cy="125.7373" fill="#0B58A8" rx="9" ry="9" style="stroke:#FFFFFF;stroke-width:1.0;"/><path d="M772.6563,131.7373 L772.6563,119.5654 L775.125,119.5654 L775.125,131.7373 L772.6563,131.7373 Z " fill="#FFFFFF"/><text fill="#FFFFFF" font-family="Verdana" font-size="14" font-style="italic" lengthAdjust="spacing" textLength="36" x="785.5" y="131.3052">Node</text><line style="stroke:#FFFFFF;stroke-width:1.0;" x1="761.5" x2="823.5" y1="139.7373" y2="139.7373"/><line style="stroke:#FFFFFF;stroke-width:1.0;" x1="761.5" x2="823.5" y1="147.7373" y2="147.7373"/></g><!--class Raft--><g id="elem_Raft"><rect codeLine="30" fill="#0B58A8" height="95.0439" id="Raft" rx="2.5" ry="2.5" style="stroke:#FFFFFF;stroke-width:1.0;" width="195" x="12" y="86.2373"/><ellipse cx="91.25" cy="100.2373" fill="#0B58A8" rx="9" ry="9" style="stroke:#FFFFFF;stroke-width:1.0;"/><path d="M86.3594,102.2842 L88.75,102.0498 Q88.9688,103.2529 89.625,103.8154 Q90.2969,104.3779 91.4063,104.3779 Q92.5938,104.3779 93.1875,103.8779 Q93.7969,103.3779 93.7969,102.7061 Q93.7969,102.2686 93.5469,101.9717 Q93.2969,101.6592 92.6719,101.4404 Q92.2344,101.2842 90.7031,100.9092 Q88.7188,100.4248 87.9219,99.7061 Q86.7969,98.7061 86.7969,97.2529 Q86.7969,96.3311 87.3281,95.5186 Q87.8594,94.7061 88.8438,94.2842 Q89.8438,93.8623 91.25,93.8623 Q93.5313,93.8623 94.6875,94.8623 Q95.8594,95.8623 95.9063,97.5498 L93.4531,97.6592 Q93.2969,96.7217 92.7813,96.3154 Q92.2656,95.8936 91.2188,95.8936 Q90.1563,95.8936 89.5469,96.3311 Q89.1563,96.6123 89.1563,97.0967 Q89.1563,97.5186 89.5156,97.8311 Q89.9844,98.2217 91.7656,98.6436 Q93.5625,99.0654 94.4219,99.5186 Q95.2813,99.9717 95.7656,100.7529 Q96.2656,101.5342 96.2656,102.6904 Q96.2656,103.7373 95.6719,104.6592 Q95.0938,105.5654 94.0313,106.0186 Q92.9688,106.4561 91.3906,106.4561 Q89.0781,106.4561 87.8438,105.3936 Q86.6094,104.3154 86.3594,102.2842 Z " fill="#FFFFFF"/><text fill="#FFFFFF" font-family="Verdana" font-size="14" lengthAdjust="spacing" textLength="29" x="108.75" y="105.8052">Raft</text><line style="stroke:#FFFFFF;stroke-width:1.0;" x1="13" x2="206" y1="114.2373" y2="114.2373"/><rect fill="none" height="6" style="stroke:#FFFFFF;stroke-width:1.0;" width="6" x="20" y="125.2446"/><text fill="#FFFFFF" font-family="Verdana" font-size="14" lengthAdjust="spacing" textLength="171" x="30" y="132.3125">election Election.Election</text><rect fill="none" height="6" style="stroke:#FFFFFF;stroke-width:1.0;" width="6" x="20" y="142.2593"/><text fill="#FFFFFF" font-family="Verdana" font-size="14" lengthAdjust="spacing" textLength="144" x="30" y="149.3271">log Commit.Manager</text><rect fill="none" height="6" style="stroke:#FFFFFF;stroke-width:1.0;" width="6" x="20" y="159.2739"/><text fill="#FFFFFF" font-family="Verdana" font-size="14" lengthAdjust="spacing" textLength="137" x="30" y="166.3418">nodes []Node.Node</text><line style="stroke:#FFFFFF;stroke-width:1.0;" x1="13" x2="206" y1="173.2813" y2="173.2813"/></g><!--reverse link election to Candidate--><g id="link_election_Candidate"><path codeLine="25" d="M487.5,184.9473 C487.5,208.3173 487.5,226.1073 487.5,249.4773 " fill="none" id="election-backto-Candidate" style="stroke:#FFFFFF;stroke-width:1.0;"/><polygon fill="none" points="487.5,172.9473,483.5,178.9473,487.5,184.9473,491.5,178.9473,487.5,172.9473" style="stroke:#FFFFFF;stroke-width:1.0;"/></g><!--reverse link election to Voter--><g id="link_election_Voter"><path codeLine="26" d="M538.6053,181.0017 C564.4153,204.3717 588.42,226.1073 614.24,249.4773 " fill="none" id="election-backto-Voter" style="stroke:#FFFFFF;stroke-width:1.0;"/><polygon fill="none" points="529.71,172.9473,531.4729,179.9396,538.6053,181.0017,536.8425,174.0094,529.71,172.9473" style="stroke:#FFFFFF;stroke-width:1.0;"/></g><!--link election to Election--><g id="link_election_Election"><path codeLine="27" d="M441.29,172.9473 C416.36,193.5773 399.241,207.7258 372.881,229.5258 " fill="none" id="election-to-Election" style="stroke:#FFFFFF;stroke-width:1.0;"/><polygon fill="none" points="359.01,240.9973,376.7048,234.1495,369.0572,224.9022,359.01,240.9973" style="stroke:#FFFFFF;stroke-width:1.0;"/></g><!--reverse link Raft to Election--><g id="link_Raft_Election"><path codeLine="39" d="M177.5944,188.721 C201.5544,207.711 219.79,222.1773 243.75,241.1673 " fill="none" id="Raft-backto-Election" style="stroke:#FFFFFF;stroke-width:1.0;"/><polygon fill="none" points="168.19,181.2673,170.4077,188.1289,177.5944,188.721,175.3768,181.8593,168.19,181.2673" style="stroke:#FFFFFF;stroke-width:1.0;"/></g><!--link Raft to Candidate--><g id="link_Raft_Candidate"><path codeLine="40" d="M207.06,174.7473 C212.62,176.9573 218.13,179.1373 223.5,181.2373 C294.22,208.9173 313.24,212.3873 383.5,241.2373 C390.09,243.9373 380.3404,239.705 387.1404,242.625 " fill="none" id="Raft-to-Candidate" style="stroke:#FFFFFF;stroke-width:1.0;"/><polygon fill="none" points="403.68,249.7273,389.5079,237.1118,384.773,248.1382,403.68,249.7273" style="stroke:#FFFFFF;stroke-width:1.0;"/></g><!--link Node to Voter--><g id="link_Node_Voter"><path codeLine="41" d="M773.59,156.0073 C752.13,180.1473 728.6697,206.5449 702.3897,236.1049 " fill="none" id="Node-to-Voter" style="stroke:#FFFFFF;stroke-width:1.0;"/><polygon fill="none" points="690.43,249.5573,706.8738,240.0915,697.9056,232.1184,690.43,249.5573" style="stroke:#FFFFFF;stroke-width:1.0;"/></g><text fill="#FFFFFF" font-family="Verdana" font-size="10" lengthAdjust="spacing" textLength="233" x="302.75" y="373.291">@github.com/ZiRunHua/MIT6.824-6.5840</text><!--SRC=[xLTRazes57vU_ugJwKDXEcQzB6meaya4MEXk1YWJivkPTleWR04gjaHbcOIa_FSS-GO6axtHFeKPm3hwpgUZSvEicF8eT3tgA2OuZ8Yp83Dgl59pwbCWFfiHusS85emlYIG-j14maoBaRaTuGi9FblNwTRkRmzXAXevw339PxXXqAeIY4jxDc9g7aueZ_FC_s8UGtuJaV70xlgeqgZNpgb9lr2pZBE7AzlBLE3jZ7FMdnCbBptw1aQJto5qgmqG8BvPTYr8vVkfoDthSv2WwXBlC9Oec71yPJrbBYF41eGb1Zp2lS2xFg4sG-nR5mrQmo8PQAVOfqDrjcE2a9csDYoTMcZc0F_-AbaWuKcKGffbJo4sa6fdGDFzzc_dFG2OZCUO3cIeqnCoiob2LBTm4JyoW8toVgSg0S0oHr58kNAeD7E9_HVyOI9p6K8-HUUkf1A1NZ8myN2YQofbQsMunMsGF4U_r7UMkOQZYIeW_RmArzkXR0q1YJi9NV822McZN6wr6DDSJN2NINlJ9f4E2XNLFfOk-Y8GtwoMLVSONAVwwTLcjHrCefOSiMZgUCsV1QH30HIGR43bZ7BJQ1h-kS4AVyjHIXooZJSMZVGOhacwYtwJa7WREAN4V1OpzckAq1spsXKAr-e2c_chlBczsLphm-PvtYoDXw-XXgNjkGgopBs4SaC_C3_sFp5LpkBIi127fb4hA7VfVB1zGtV-KE2djc_CaIOrjWsr9AJxrXUUnfLZckR_Nq-DrjeXhEYMXfmxIzm0n45m4IwnODyDsH2WPLjaMssTJwc7KiOrWSSxM68r0UCmrTWy6gPZ3beIh4N5TncTmOUtCs_IVK0T7K-a4QWk9GJgsGNjENF59aqo95z2TcRk0jgaYiIUngz6Syx0Jh9XQHq4wNknj8lUZLcHESKyuSEbcDp1wEI9Z0mwryz3F4IhrLZqtss7IyQZRcUF8IUkxAB4EeWROvLqM1l1hdj0ZMAmF-EKqJeYMQYabsIHKz8Wh7iDXuyQfKDXjdqVIsxR69-lkD96dw-hp0Ujb4Qdd3ubTtAqZU7g0xYApf3mIgGCEoLP4lPG3VOMPvhwC9Pnup7asnL0yDrz-d_oDriVvNP356-FW2diK-upLRPMw_sd5bUT8axrLpFJTNbNCr3aPK_TaJBSdOng-a0cFaWu9Q4muVcAN-V6cy-DDvtzxqnbvUAsw6_HXXPxJcxceLArghN9Pwaa6FJg1YokmBfirgsdLeMEFGK-NZT9le_wg2W5U3T1GbmNncOmCPUCzMH70X5NCfqtGez9uK0QxcmenrLPC2gxVIeptzuCO13T2sKkX8l1LpMmpXNSxYOR1_S18BfMewWXzgsd2tRXdDem-uRCGlTU4BtC3RofSoNKJEiDl]--></g></svg>