<?xml version="1.0" encoding="us-ascii" standalone="no"?><svg xmlns="http://www.w3.org/2000/svg" xmlns:xlink="http://www.w3.org/1999/xlink" contentStyleType="text/css" height="788px" preserveAspectRatio="none" style="width:796px;height:788px;background:#0B58A8;" version="1.1" viewBox="0 0 796 788" width="796px" zoomAndPan="magnify"><defs/><g><rect fill="#0B58A8" height="788" style="stroke:none;stroke-width:1.0;" width="796" x="0" y="0"/><text fill="#FFFFFF" font-family="Verdana" font-size="22" font-weight="bold" lengthAdjust="spacing" textLength="176" x="305.75" y="37.1182">Node Package</text><!--cluster Node--><g id="cluster_Node"><path d="M226,58.7373 L267,58.7373 A3.75,3.75 0 0 1 269.5,61.2373 L276.5,81.752 L787,81.752 A2.5,2.5 0 0 1 789.5,84.252 L789.5,511.2373 A2.5,2.5 0 0 1 787,513.7373 L226,513.7373 A2.5,2.5 0 0 1 223.5,511.2373 L223.5,61.2373 A2.5,2.5 0 0 1 226,58.7373 " fill="#0B58A8" style="stroke:#FFFFFF;stroke-width:1.0;"/><line style="stroke:#FFFFFF;stroke-width:1.0;" x1="223.5" x2="276.5" y1="81.752" y2="81.752"/><text fill="#FFFFFF" font-family="Verdana" font-size="14" font-weight="bold" lengthAdjust="spacing" textLength="40" x="227.5" y="74.8125">Node</text></g><!--cluster Election--><g id="cluster_Election"><path d="M150,580.2373 L212,580.2373 A3.75,3.75 0 0 1 214.5,582.7373 L221.5,603.252 L273,603.252 A2.5,2.5 0 0 1 275.5,605.752 L275.5,707.7373 A2.5,2.5 0 0 1 273,710.2373 L150,710.2373 A2.5,2.5 0 0 1 147.5,707.7373 L147.5,582.7373 A2.5,2.5 0 0 1 150,580.2373 " fill="#0B58A8" style="stroke:#FFFFFF;stroke-width:1.0;"/><line style="stroke:#FFFFFF;stroke-width:1.0;" x1="147.5" x2="221.5" y1="603.252" y2="603.252"/><text fill="#FFFFFF" font-family="Verdana" font-size="14" font-weight="bold" lengthAdjust="spacing" textLength="61" x="151.5" y="596.3125">Election</text></g><!--cluster Commit--><g id="cluster_Commit"><path d="M302,537.7373 L362,537.7373 A3.75,3.75 0 0 1 364.5,540.2373 L371.5,560.752 L489,560.752 A2.5,2.5 0 0 1 491.5,563.252 L491.5,750.2373 A2.5,2.5 0 0 1 489,752.7373 L302,752.7373 A2.5,2.5 0 0 1 299.5,750.2373 L299.5,540.2373 A2.5,2.5 0 0 1 302,537.7373 " fill="#0B58A8" style="stroke:#FFFFFF;stroke-width:1.0;"/><line style="stroke:#FFFFFF;stroke-width:1.0;" x1="299.5" x2="371.5" y1="560.752" y2="560.752"/><text fill="#FFFFFF" font-family="Verdana" font-size="14" font-weight="bold" lengthAdjust="spacing" textLength="59" x="303.5" y="553.8125">Commit</text></g><!--class Node--><g id="elem_Node"><rect codeLine="5" fill="#0B58A8" height="214.1465" id="Node" rx="2.5" ry="2.5" style="stroke:#FFFFFF;stroke-width:1.0;" width="159" x="240" y="283.7373"/><ellipse cx="297.75" cy="297.7373" fill="#0B58A8" rx="9" ry="9" style="stroke:#FFFFFF;stroke-width:1.0;"/><path d="M296.9063,303.7373 L296.9063,291.5654 L299.375,291.5654 L299.375,303.7373 L296.9063,303.7373 Z " fill="#FFFFFF"/><text fill="#FFFFFF" font-family="Verdana" font-size="14" font-style="italic" lengthAdjust="spacing" textLength="36" x="315.25" y="303.3052">Node</text><line style="stroke:#FFFFFF;stroke-width:1.0;" x1="241" x2="398" y1="311.7373" y2="311.7373"/><line style="stroke:#FFFFFF;stroke-width:1.0;" x1="241" x2="398" y1="319.7373" y2="319.7373"/><ellipse cx="251" cy="333.7446" fill="#0B58A8" rx="3" ry="3" style="stroke:#FFFFFF;stroke-width:1.0;"/><text fill="#FFFFFF" font-family="Verdana" font-size="14" lengthAdjust="spacing" textLength="122" x="258" y="337.8125">HeartbeatTicker()</text><ellipse cx="251" cy="350.7593" fill="#0B58A8" rx="3" ry="3" style="stroke:#FFFFFF;stroke-width:1.0;"/><text fill="#FFFFFF" font-family="Verdana" font-size="14" lengthAdjust="spacing" textLength="67" x="258" y="354.8271">PreVote()</text><ellipse cx="251" cy="367.7739" fill="#0B58A8" rx="3" ry="3" style="stroke:#FFFFFF;stroke-width:1.0;"/><text fill="#FFFFFF" font-family="Verdana" font-size="14" lengthAdjust="spacing" textLength="71" x="258" y="371.8418">AskVote()</text><ellipse cx="251" cy="384.7886" fill="#0B58A8" rx="3" ry="3" style="stroke:#FFFFFF;stroke-width:1.0;"/><text fill="#FFFFFF" font-family="Verdana" font-size="14" lengthAdjust="spacing" textLength="84" x="258" y="388.8564">SyncState()</text><ellipse cx="251" cy="401.8032" fill="#0B58A8" rx="3" ry="3" style="stroke:#FFFFFF;stroke-width:1.0;"/><text fill="#FFFFFF" font-family="Verdana" font-size="14" lengthAdjust="spacing" textLength="103" x="258" y="405.8711">GetLogIndex()</text><ellipse cx="251" cy="418.8179" fill="#0B58A8" rx="3" ry="3" style="stroke:#FFFFFF;stroke-width:1.0;"/><text fill="#FFFFFF" font-family="Verdana" font-size="14" lengthAdjust="spacing" textLength="106" x="258" y="422.8857">AddLogIndex()</text><ellipse cx="251" cy="435.8325" fill="#0B58A8" rx="3" ry="3" style="stroke:#FFFFFF;stroke-width:1.0;"/><text fill="#FFFFFF" font-family="Verdana" font-size="14" lengthAdjust="spacing" textLength="135" x="258" y="439.9004">RollbackLogIndex()</text><ellipse cx="251" cy="452.8472" fill="#0B58A8" rx="3" ry="3" style="stroke:#FFFFFF;stroke-width:1.0;"/><text fill="#FFFFFF" font-family="Verdana" font-size="14" lengthAdjust="spacing" textLength="130" x="258" y="456.915">GetPrepareIndex()</text><ellipse cx="251" cy="469.8618" fill="#0B58A8" rx="3" ry="3" style="stroke:#FFFFFF;stroke-width:1.0;"/><text fill="#FFFFFF" font-family="Verdana" font-size="14" lengthAdjust="spacing" textLength="119" x="258" y="473.9297">PrepareCommit()</text><ellipse cx="251" cy="486.8765" fill="#0B58A8" rx="3" ry="3" style="stroke:#FFFFFF;stroke-width:1.0;"/><text fill="#FFFFFF" font-family="Verdana" font-size="14" lengthAdjust="spacing" textLength="121" x="258" y="490.9443">ConfirmCommit()</text></g><!--class Raft--><g id="elem_Raft"><rect codeLine="17" fill="#0B58A8" height="61.0146" id="Raft" rx="2.5" ry="2.5" style="stroke:#FFFFFF;stroke-width:1.0;" width="202" x="434.5" y="360.2373"/><ellipse cx="517.25" cy="374.2373" fill="#0B58A8" rx="9" ry="9" style="stroke:#FFFFFF;stroke-width:1.0;"/><path d="M516.4063,380.2373 L516.4063,368.0654 L518.875,368.0654 L518.875,380.2373 L516.4063,380.2373 Z " fill="#FFFFFF"/><text fill="#FFFFFF" font-family="Verdana" font-size="14" font-style="italic" lengthAdjust="spacing" textLength="29" x="534.75" y="379.8052">Raft</text><line style="stroke:#FFFFFF;stroke-width:1.0;" x1="435.5" x2="635.5" y1="388.2373" y2="388.2373"/><line style="stroke:#FFFFFF;stroke-width:1.0;" x1="435.5" x2="635.5" y1="396.2373" y2="396.2373"/><ellipse cx="445.5" cy="410.2446" fill="#0B58A8" rx="3" ry="3" style="stroke:#FFFFFF;stroke-width:1.0;"/><text fill="#FFFFFF" font-family="Verdana" font-size="14" lengthAdjust="spacing" textLength="178" x="452.5" y="414.3125">EndOfTerm(newTerm int)</text></g><!--class node--><g id="elem_node"><rect codeLine="20" fill="#0B58A8" height="129.0732" id="node" rx="2.5" ry="2.5" style="stroke:#FFFFFF;stroke-width:1.0;" width="191" x="440" y="94.7373"/><ellipse cx="514.25" cy="108.7373" fill="#0B58A8" rx="9" ry="9" style="stroke:#FFFFFF;stroke-width:1.0;"/><path d="M509.3594,110.7842 L511.75,110.5498 Q511.9688,111.7529 512.625,112.3154 Q513.2969,112.8779 514.4063,112.8779 Q515.5938,112.8779 516.1875,112.3779 Q516.7969,111.8779 516.7969,111.2061 Q516.7969,110.7686 516.5469,110.4717 Q516.2969,110.1592 515.6719,109.9404 Q515.2344,109.7842 513.7031,109.4092 Q511.7188,108.9248 510.9219,108.2061 Q509.7969,107.2061 509.7969,105.7529 Q509.7969,104.8311 510.3281,104.0186 Q510.8594,103.2061 511.8438,102.7842 Q512.8438,102.3623 514.25,102.3623 Q516.5313,102.3623 517.6875,103.3623 Q518.8594,104.3623 518.9063,106.0498 L516.4531,106.1592 Q516.2969,105.2217 515.7813,104.8154 Q515.2656,104.3936 514.2188,104.3936 Q513.1563,104.3936 512.5469,104.8311 Q512.1563,105.1123 512.1563,105.5967 Q512.1563,106.0186 512.5156,106.3311 Q512.9844,106.7217 514.7656,107.1436 Q516.5625,107.5654 517.4219,108.0186 Q518.2813,108.4717 518.7656,109.2529 Q519.2656,110.0342 519.2656,111.1904 Q519.2656,112.2373 518.6719,113.1592 Q518.0938,114.0654 517.0313,114.5186 Q515.9688,114.9561 514.3906,114.9561 Q512.0781,114.9561 510.8438,113.8936 Q509.6094,112.8154 509.3594,110.7842 Z " fill="#FFFFFF"/><text fill="#FFFFFF" font-family="Verdana" font-size="14" lengthAdjust="spacing" textLength="35" x="531.75" y="114.3052">node</text><line style="stroke:#FFFFFF;stroke-width:1.0;" x1="441" x2="630" y1="122.7373" y2="122.7373"/><rect fill="none" height="6" style="stroke:#FFFFFF;stroke-width:1.0;" width="6" x="448" y="133.7446"/><text fill="#FFFFFF" font-family="Verdana" font-size="14" lengthAdjust="spacing" textLength="59" x="458" y="140.8125">raft Raft</text><rect fill="none" height="6" style="stroke:#FFFFFF;stroke-width:1.0;" width="6" x="448" y="150.7593"/><text fill="#FFFFFF" font-family="Verdana" font-size="14" lengthAdjust="spacing" textLength="84" x="458" y="157.8271">logIndex int</text><rect fill="none" height="6" style="stroke:#FFFFFF;stroke-width:1.0;" width="6" x="448" y="167.7739"/><text fill="#FFFFFF" font-family="Verdana" font-size="14" lengthAdjust="spacing" textLength="79" x="458" y="174.8418">apply apply</text><rect fill="none" height="6" style="stroke:#FFFFFF;stroke-width:1.0;" width="6" x="448" y="184.7886"/><text fill="#FFFFFF" font-family="Verdana" font-size="14" lengthAdjust="spacing" textLength="167" x="458" y="191.8564">lastHeartbeat time.Time</text><rect fill="none" height="6" style="stroke:#FFFFFF;stroke-width:1.0;" width="6" x="448" y="201.8032"/><text fill="#FFFFFF" font-family="Verdana" font-size="14" lengthAdjust="spacing" textLength="158" x="458" y="208.8711">peer *labrpc.ClientEnd</text><line style="stroke:#FFFFFF;stroke-width:1.0;" x1="441" x2="630" y1="215.8105" y2="215.8105"/></g><!--class apply--><g id="elem_apply"><rect codeLine="27" fill="#0B58A8" height="78.0293" id="apply" rx="2.5" ry="2.5" style="stroke:#FFFFFF;stroke-width:1.0;" width="101" x="672" y="351.7373"/><ellipse cx="701.2" cy="365.7373" fill="#0B58A8" rx="9" ry="9" style="stroke:#FFFFFF;stroke-width:1.0;"/><path d="M696.3094,367.7842 L698.7,367.5498 Q698.9188,368.7529 699.575,369.3154 Q700.2469,369.8779 701.3563,369.8779 Q702.5438,369.8779 703.1375,369.3779 Q703.7469,368.8779 703.7469,368.2061 Q703.7469,367.7686 703.4969,367.4717 Q703.2469,367.1592 702.6219,366.9404 Q702.1844,366.7842 700.6531,366.4092 Q698.6688,365.9248 697.8719,365.2061 Q696.7469,364.2061 696.7469,362.7529 Q696.7469,361.8311 697.2781,361.0186 Q697.8094,360.2061 698.7938,359.7842 Q699.7938,359.3623 701.2,359.3623 Q703.4813,359.3623 704.6375,360.3623 Q705.8094,361.3623 705.8563,363.0498 L703.4031,363.1592 Q703.2469,362.2217 702.7313,361.8154 Q702.2156,361.3936 701.1688,361.3936 Q700.1063,361.3936 699.4969,361.8311 Q699.1063,362.1123 699.1063,362.5967 Q699.1063,363.0186 699.4656,363.3311 Q699.9344,363.7217 701.7156,364.1436 Q703.5125,364.5654 704.3719,365.0186 Q705.2313,365.4717 705.7156,366.2529 Q706.2156,367.0342 706.2156,368.1904 Q706.2156,369.2373 705.6219,370.1592 Q705.0438,371.0654 703.9813,371.5186 Q702.9188,371.9561 701.3406,371.9561 Q699.0281,371.9561 697.7938,370.8936 Q696.5594,369.8154 696.3094,367.7842 Z " fill="#FFFFFF"/><text fill="#FFFFFF" font-family="Verdana" font-size="14" lengthAdjust="spacing" textLength="37" x="716.8" y="371.3052">apply</text><line style="stroke:#FFFFFF;stroke-width:1.0;" x1="673" x2="772" y1="379.7373" y2="379.7373"/><rect fill="none" height="6" style="stroke:#FFFFFF;stroke-width:1.0;" width="6" x="680" y="390.7446"/><text fill="#FFFFFF" font-family="Verdana" font-size="14" lengthAdjust="spacing" textLength="77" x="690" y="397.8125">prepare int</text><rect fill="none" height="6" style="stroke:#FFFFFF;stroke-width:1.0;" width="6" x="680" y="407.7593"/><text fill="#FFFFFF" font-family="Verdana" font-size="14" lengthAdjust="spacing" textLength="75" x="690" y="414.8271">confirm int</text><line style="stroke:#FFFFFF;stroke-width:1.0;" x1="673" x2="772" y1="421.7666" y2="421.7666"/></g><!--class Voter--><g id="elem_Voter"><rect codeLine="43" fill="#0B58A8" height="78.0293" id="Voter" rx="2.5" ry="2.5" style="stroke:#FFFFFF;stroke-width:1.0;" width="95" x="164" y="616.2373"/><ellipse cx="189.6" cy="630.2373" fill="#0B58A8" rx="9" ry="9" style="stroke:#FFFFFF;stroke-width:1.0;"/><path d="M188.7563,636.2373 L188.7563,624.0654 L191.225,624.0654 L191.225,636.2373 L188.7563,636.2373 Z " fill="#FFFFFF"/><text fill="#FFFFFF" font-family="Verdana" font-size="14" font-style="italic" lengthAdjust="spacing" textLength="39" x="204.4" y="635.8052">Voter</text><line style="stroke:#FFFFFF;stroke-width:1.0;" x1="165" x2="258" y1="644.2373" y2="644.2373"/><line style="stroke:#FFFFFF;stroke-width:1.0;" x1="165" x2="258" y1="652.2373" y2="652.2373"/><ellipse cx="175" cy="666.2446" fill="#0B58A8" rx="3" ry="3" style="stroke:#FFFFFF;stroke-width:1.0;"/><text fill="#FFFFFF" font-family="Verdana" font-size="14" lengthAdjust="spacing" textLength="67" x="182" y="670.3125">PreVote()</text><ellipse cx="175" cy="683.2593" fill="#0B58A8" rx="3" ry="3" style="stroke:#FFFFFF;stroke-width:1.0;"/><text fill="#FFFFFF" font-family="Verdana" font-size="14" lengthAdjust="spacing" textLength="71" x="182" y="687.3271">AskVote()</text></g><!--class Follower--><g id="elem_Follower"><rect codeLine="50" fill="#0B58A8" height="163.1025" id="Follower" rx="2.5" ry="2.5" style="stroke:#FFFFFF;stroke-width:1.0;" width="159" x="316" y="573.7373"/><ellipse cx="362.25" cy="587.7373" fill="#0B58A8" rx="9" ry="9" style="stroke:#FFFFFF;stroke-width:1.0;"/><path d="M361.4063,593.7373 L361.4063,581.5654 L363.875,581.5654 L363.875,593.7373 L361.4063,593.7373 Z " fill="#FFFFFF"/><text fill="#FFFFFF" font-family="Verdana" font-size="14" font-style="italic" lengthAdjust="spacing" textLength="59" x="379.75" y="593.3052">Follower</text><line style="stroke:#FFFFFF;stroke-width:1.0;" x1="317" x2="474" y1="601.7373" y2="601.7373"/><line style="stroke:#FFFFFF;stroke-width:1.0;" x1="317" x2="474" y1="609.7373" y2="609.7373"/><ellipse cx="327" cy="623.7446" fill="#0B58A8" rx="3" ry="3" style="stroke:#FFFFFF;stroke-width:1.0;"/><text fill="#FFFFFF" font-family="Verdana" font-size="14" lengthAdjust="spacing" textLength="84" x="334" y="627.8125">SyncState()</text><ellipse cx="327" cy="640.7593" fill="#0B58A8" rx="3" ry="3" style="stroke:#FFFFFF;stroke-width:1.0;"/><text fill="#FFFFFF" font-family="Verdana" font-size="14" lengthAdjust="spacing" textLength="130" x="334" y="644.8271">GetPrepareIndex()</text><ellipse cx="327" cy="657.7739" fill="#0B58A8" rx="3" ry="3" style="stroke:#FFFFFF;stroke-width:1.0;"/><text fill="#FFFFFF" font-family="Verdana" font-size="14" lengthAdjust="spacing" textLength="119" x="334" y="661.8418">PrepareCommit()</text><ellipse cx="327" cy="674.7886" fill="#0B58A8" rx="3" ry="3" style="stroke:#FFFFFF;stroke-width:1.0;"/><text fill="#FFFFFF" font-family="Verdana" font-size="14" lengthAdjust="spacing" textLength="121" x="334" y="678.8564">ConfirmCommit()</text><ellipse cx="327" cy="691.8032" fill="#0B58A8" rx="3" ry="3" style="stroke:#FFFFFF;stroke-width:1.0;"/><text fill="#FFFFFF" font-family="Verdana" font-size="14" lengthAdjust="spacing" textLength="103" x="334" y="695.8711">GetLogIndex()</text><ellipse cx="327" cy="708.8179" fill="#0B58A8" rx="3" ry="3" style="stroke:#FFFFFF;stroke-width:1.0;"/><text fill="#FFFFFF" font-family="Verdana" font-size="14" lengthAdjust="spacing" textLength="106" x="334" y="712.8857">AddLogIndex()</text><ellipse cx="327" cy="725.8325" fill="#0B58A8" rx="3" ry="3" style="stroke:#FFFFFF;stroke-width:1.0;"/><text fill="#FFFFFF" font-family="Verdana" font-size="14" lengthAdjust="spacing" textLength="135" x="334" y="729.9004">RollbackLogIndex()</text></g><!--class Raft--><g id="elem_Raft"><rect codeLine="36" fill="#0B58A8" height="95.0439" id="Raft" rx="2.5" ry="2.5" style="stroke:#FFFFFF;stroke-width:1.0;" width="195" x="12" y="111.7373"/><ellipse cx="91.25" cy="125.7373" fill="#0B58A8" rx="9" ry="9" style="stroke:#FFFFFF;stroke-width:1.0;"/><path d="M86.3594,127.7842 L88.75,127.5498 Q88.9688,128.7529 89.625,129.3154 Q90.2969,129.8779 91.4063,129.8779 Q92.5938,129.8779 93.1875,129.3779 Q93.7969,128.8779 93.7969,128.2061 Q93.7969,127.7686 93.5469,127.4717 Q93.2969,127.1592 92.6719,126.9404 Q92.2344,126.7842 90.7031,126.4092 Q88.7188,125.9248 87.9219,125.2061 Q86.7969,124.2061 86.7969,122.7529 Q86.7969,121.8311 87.3281,121.0186 Q87.8594,120.2061 88.8438,119.7842 Q89.8438,119.3623 91.25,119.3623 Q93.5313,119.3623 94.6875,120.3623 Q95.8594,121.3623 95.9063,123.0498 L93.4531,123.1592 Q93.2969,122.2217 92.7813,121.8154 Q92.2656,121.3936 91.2188,121.3936 Q90.1563,121.3936 89.5469,121.8311 Q89.1563,122.1123 89.1563,122.5967 Q89.1563,123.0186 89.5156,123.3311 Q89.9844,123.7217 91.7656,124.1436 Q93.5625,124.5654 94.4219,125.0186 Q95.2813,125.4717 95.7656,126.2529 Q96.2656,127.0342 96.2656,128.1904 Q96.2656,129.2373 95.6719,130.1592 Q95.0938,131.0654 94.0313,131.5186 Q92.9688,131.9561 91.3906,131.9561 Q89.0781,131.9561 87.8438,130.8936 Q86.6094,129.8154 86.3594,127.7842 Z " fill="#FFFFFF"/><text fill="#FFFFFF" font-family="Verdana" font-size="14" lengthAdjust="spacing" textLength="29" x="108.75" y="131.3052">Raft</text><line style="stroke:#FFFFFF;stroke-width:1.0;" x1="13" x2="206" y1="139.7373" y2="139.7373"/><rect fill="none" height="6" style="stroke:#FFFFFF;stroke-width:1.0;" width="6" x="20" y="150.7446"/><text fill="#FFFFFF" font-family="Verdana" font-size="14" lengthAdjust="spacing" textLength="171" x="30" y="157.8125">election Election.Election</text><rect fill="none" height="6" style="stroke:#FFFFFF;stroke-width:1.0;" width="6" x="20" y="167.7593"/><text fill="#FFFFFF" font-family="Verdana" font-size="14" lengthAdjust="spacing" textLength="144" x="30" y="174.8271">log Commit.Manager</text><rect fill="none" height="6" style="stroke:#FFFFFF;stroke-width:1.0;" width="6" x="20" y="184.7739"/><text fill="#FFFFFF" font-family="Verdana" font-size="14" lengthAdjust="spacing" textLength="137" x="30" y="191.8418">nodes []Node.Node</text><line style="stroke:#FFFFFF;stroke-width:1.0;" x1="13" x2="206" y1="198.7813" y2="198.7813"/></g><!--reverse link node to Raft--><g id="link_node_Raft"><path codeLine="31" d="M535.5,235.8573 C535.5,280.4373 535.5,325.9373 535.5,360.2073 " fill="none" id="node-backto-Raft" style="stroke:#FFFFFF;stroke-width:1.0;"/><polygon fill="none" points="535.5,223.8573,531.5,229.8573,535.5,235.8573,539.5,229.8573,535.5,223.8573" style="stroke:#FFFFFF;stroke-width:1.0;"/></g><!--reverse link node to apply--><g id="link_node_apply"><path codeLine="32" d="M609.6507,232.3748 C627.6807,251.0248 638.35,263.2973 654.5,283.7373 C671.44,305.1873 688.05,330.9573 700.61,351.7173 " fill="none" id="node-backto-apply" style="stroke:#FFFFFF;stroke-width:1.0;"/><polygon fill="#FFFFFF" points="601.31,223.7473,602.6045,230.8413,609.6507,232.3748,608.3562,225.2808,601.31,223.7473" style="stroke:#FFFFFF;stroke-width:1.0;"/></g><!--link node to Node--><g id="link_node_Node"><path codeLine="33" d="M474.36,223.8273 C456.01,243.0173 435.88,264.1773 417.5,283.7373 C411.49,290.1273 417.5866,283.6029 411.3566,290.2729 " fill="none" id="node-to-Node" style="stroke:#FFFFFF;stroke-width:1.0;"/><polygon fill="none" points="399.07,303.4273,415.7414,294.3685,406.9718,286.1774,399.07,303.4273" style="stroke:#FFFFFF;stroke-width:1.0;"/></g><!--link Node to Voter--><g id="link_Node_Voter"><path codeLine="60" d="M275.88,497.7473 C258.67,539.5873 246.8473,568.3205 234.0673,599.3905 " fill="none" id="Node-to-Voter" style="stroke:#FFFFFF;stroke-width:1.0;"/><polygon fill="none" points="227.22,616.0373,239.6162,601.673,228.5184,597.1081,227.22,616.0373" style="stroke:#FFFFFF;stroke-width:1.0;"/></g><!--link Node to Follower--><g id="link_Node_Follower"><path codeLine="61" d="M350.19,497.7473 C357.53,523.0773 360.2341,532.4174 367.1741,556.3874 " fill="none" id="Node-to-Follower" style="stroke:#FFFFFF;stroke-width:1.0;"/><polygon fill="none" points="372.18,573.6773,372.9374,554.7188,361.4108,558.056,372.18,573.6773" style="stroke:#FFFFFF;stroke-width:1.0;"/></g><!--reverse link Raft to Node--><g id="link_Raft_Node"><path codeLine="62" d="M160.3505,215.8106 C185.5305,243.3306 210.1,270.1773 239.86,302.7073 " fill="none" id="Raft-backto-Node" style="stroke:#FFFFFF;stroke-width:1.0;"/><polygon fill="none" points="152.25,206.9573,153.3492,214.0841,160.3505,215.8106,159.2514,208.6838,152.25,206.9573" style="stroke:#FFFFFF;stroke-width:1.0;"/></g><!--link Raft to Raft--><g id="link_Raft_Raft"><path codeLine="63" d="M188.17,206.7973 C199.82,212.8873 211.84,218.7373 223.5,223.7373 C306.07,259.1173 338.3,239.5273 416.5,283.7373 C452.15,303.8873 473.9402,323.129 496.4502,346.779 " fill="none" id="Raft-to-Raft" style="stroke:#FFFFFF;stroke-width:1.0;"/><polygon fill="none" points="508.86,359.8173,500.7963,342.6424,492.1041,350.9156,508.86,359.8173" style="stroke:#FFFFFF;stroke-width:1.0;"/></g><text fill="#FFFFFF" font-family="Verdana" font-size="10" lengthAdjust="spacing" textLength="233" x="277.25" y="773.791">@github.com/ZiRunHua/MIT6.824-6.5840</text><!--SRC=[xLTjRzis4FvS_GeE-v9qaE8uByYCegZjnaqAEpKY9mCsx0CjdMtE4gbHb1Ctyt_VaPHa-ILDatXVXWhm2uztpntl7XufnLG4v4g4GFeqcD8nE3-f2SH0QCp6r1a9eK2I3sEc9jdG2qHyy3kxplX5HWzwbuDJxwn-x9vw9sV7DIS7C6WFpXl6qN94WrBmvXTo0LIg8L0rOC4KvDw-aVObtAARVDHCfvMHF-U1hsWv_WIgAyQNF8JxGZyCroJN8eg66CoQ64tHKq8bLAMvg2tYcAbSrXPyn6Iyb2sgoxcc8sMNSyx3BwC1o7YFmvt-9QXbrNqbiq0HdY_T9HAjZAaPHNbesi08Q994S_jj5MYgocmHnMBm1lXbvXB0ahoDw50cWTUE6725aLJTMZJhEB4BB3q5Td5sZ2OwH29SDm_E3D-wRX6B6RlkF-zD6Ps5u-G-yZIu128851ESdET_lEAFOrTAR2Az7kN83wcb6ZKbV_ofCRq2k21GORv28iq9-V1jlYogADOfMboM61qaXhWhOBPGwwNyU0KnTSnb5coYopoQDQ_FviairkBeEfZwBNDfH6NDF5FO3u0KSTJcVhVFkrJD8tZl429nooDr23ujL1bBaV6mBI8XoS-rribPyypCTGHNkRHZdb9wHR5zt88CiTn6U35FG7OPdnRw7vj7zHCpXLBOHD7ImGHR18Sq9OT6rgDop3ZHPWlyX2B8OYH-7cb04qD1Erf7g1dfmdpd7UrfnGdGyBiKRKuBFPq1dtq5Kgy_OQa_Ehl9HTNJHixNihkz4hwk7XcAACo1pRPzo3Dtp-8i_es5QaAEQhLSGy889F00_WltgTuqL8cTmhuxo4dgf5F6jOEODAKKTrtS2omHoIhsKkan7YyrFiA8Pf7QeE-6HazmaIROJC9IjoqooN0ZBdMxR0GHLXqx9RQNyHohaOg8XHMLFhPs5h24SjMdOSZuc1pMAlC-_9tfucWeJQ2Ma5YannReJsWexZJ8Y4OfL6PkKcY1eZQJsBXX9NdOPcPCpKsH7j_iBIhNgxOjdEqzOIEbYsfXj3igRG2RrgkgzqQhoDR9ocoRoI22i3t1KL3ixst4sgWQmOCiP5bAVbq5n0CuVIelkqc2STLKIh9Xfk2HL7mFXeyB1w6msxuCfBDiZS-shJIHvzlgym7tozIOhnuILRrBlBeKftjLioJb8vNQm91iHjLhCJ1NoBJmTIZPC6B1Yo6kn4lvycNu5qPl-Rs5nOkLJhNC-8uORsvTBzXSgnW5sPlRaRxPgxOZjNU6TBupfCkT8Lsz4WcFaZPDmG8EdjbbVhn8_dYH_F4Y-VzvaUn7U7EzwNN936IgQtRerMlrO-zehoCPwS2G79wIsb7ZkDQedP2sFo1wUj_P-zJlpkeanTiNvZ5agRts8CA-yvdEAC6Ue4dQ87gqD-Zj4_-y4E8-cJ4fk7xnSpxVzgmIkH3AJuGoogV7Reifl3vB38pSzfpytewcWT0NnmQv6NJSCwTB-JZ3yZR8ruc3bq6kvBn1sbV_0W00]--></g></svg>